<svg xmlns="http://www.w3.org/2000/svg" viewBox="0 0 833.99 834.5"><g style="isolation:isolate"><g id="Camada_2" data-name="Camada 2"><g id="Camada_1-2" data-name="Camada 1"><path d="M830.23,662.84,348,384.44c-5.58-3.22-15.42-2.81-21.87.91L95.11,518.75a14.32,14.32,0,0,0-3,2.31L57,541.31c-6.44,3.72-7.15,9.4-1.57,12.62L537.6,832.33c5.59,3.22,15.42,2.82,21.87-.91L790.53,698a14.32,14.32,0,0,0,3.05-2.31l35.08-20.25C835.1,671.74,835.81,666.06,830.23,662.84Z" style="fill:#d9e9ff"/><path d="M771.76,294.38v0a.11.11,0,0,0,0-.05v-.11l0-.48c0-.13,0-.26-.05-.39v-.1c0-.16,0-.31-.07-.47s-.05-.31-.08-.47,0-.05,0-.07v-.06c0-.11-.05-.22-.07-.33s-.07-.31-.12-.47a1.8,1.8,0,0,0-.06-.22l0-.1a.83.83,0,0,1,0-.15l-.15-.46c0-.15-.09-.3-.14-.45h0v0l-.18-.47c-.05-.15-.12-.31-.18-.47l0-.12,0-.09-.1-.25c-.07-.15-.14-.3-.2-.45a3.54,3.54,0,0,1-.16-.34l0,0,0-.05-.21-.43c-.07-.13-.14-.27-.22-.4l-.09-.17,0-.08-.09-.16L769,286l-.25-.41,0,0,0-.06c-.09-.15-.18-.3-.28-.44l-.27-.4-.18-.27-.09-.13c-.15-.21-.31-.42-.48-.64l-.15-.2,0,0c-.21-.26-.42-.53-.64-.78l-.1-.11-.08-.1-.23-.27-.39-.43-.15-.16-.08-.08-.15-.15-.39-.39c-.09-.1-.19-.19-.3-.29l-.05-.05,0-.05-.42-.38-.45-.39h0a4.82,4.82,0,0,0-.43-.36l-.46-.36-.06,0a.18.18,0,0,0-.07-.05l-.33-.25-.47-.32-.13-.08,0,0h0l-.27-.18-.46-.28s-11-6.34-11-6.37l-.05,0L307.53,15.9l0,0-.67-.39h0l-1.19-.68-.46-.25-.47-.22-.46-.21-.48-.19-.47-.17-.51-.15h-.08l-.43-.11-.21-.05-.18,0-.14,0-.51-.08h-.05l-.6,0h-.74l-.42,0a1.66,1.66,0,0,0-.22,0h-.05a5.18,5.18,0,0,0-.8.19h-.05l-.08,0a5,5,0,0,0-.94.42s-18.33,12.35-18,12.23c.13,0,452.3,256.35,452.3,256.35l-.41.25s11.53,6.12,11.69,6.22l.46.3.46.32.46.34.19.15.73.58h0l.71.63.09.08c.23.21.44.42.66.64l.1.1c.21.21.42.43.62.65l.11.12c.2.22.39.45.59.68l.29.36c.12.14.23.29.35.44l.39.52c.08.11.17.22.25.34l.21.3.36.55.09.14c.17.26.32.51.47.76l0,.07q.24.4.45.81l.05.08.4.8,0,.11c.12.26.24.53.35.79a.61.61,0,0,1,.05.12c.11.26.22.53.32.79l0,.12c.1.27.18.53.27.8l0,.11c.08.27.16.53.23.8a.36.36,0,0,0,0,.1c.07.27.13.54.18.8s.05.27.07.4,0,.31.07.47,0,.32.05.49,0,.32,0,.48,0,.35,0,.52,0,.27,0,.4,0,.27,0,.72L752.07,347l-7,3.77.4.23-7.68,4.14s3.28,1.9,3.43,2,.31.19.46.3.31.21.46.32l.47.33.19.15.72.59h0c.25.2.48.41.72.63l.09.08c.22.21.44.42.65.64l.1.09.62.66.11.12c.2.22.4.44.59.67l.29.36c.12.15.24.29.35.44l.39.52.25.35.21.3c.12.18.25.36.36.54l.1.15c.16.25.31.5.46.76l0,.06c.16.27.31.54.46.81l0,.09c.14.26.27.53.4.8a.47.47,0,0,1,0,.1c.13.27.24.53.36.8a.61.61,0,0,0,.05.12c.11.26.21.52.31.79l0,.12c.1.26.19.53.27.79l0,.12c.08.26.15.53.22.79a.43.43,0,0,1,0,.11c.07.27.13.53.18.8s.05.26.07.4a2.7,2.7,0,0,1,0,.28L745.9,577.27c0,1.28-3.92,9.35-2.88,8.74l2.9-2.64-1.66,62c0,1.29-3.92,9.36-2.88,8.75l4-5.12c-.71,1.78-.61,5.42-.15,5.15l14-10.31c2.25-2,4.44-4.13,4.53-7.4l6.31-270c0-1.29.09-3.22.09-3.22v-.4c0-.11,0-.23,0-.34v-.07a.41.41,0,0,0,0-.11c0-.16,0-.32,0-.49s0-.26,0-.39v-.1a1.1,1.1,0,0,0,0-.18l1.68-62.78c0-1.28.08-3.22.08-3.22s0-.26,0-.4S771.76,294.49,771.76,294.38Z" style="fill:#bad4f5"/><path d="M743.16,357.86c6.17,3.57,11,11.36,10.88,17.41L746.7,649.64c-.16,6.05-5.3,8.06-11.47,4.49l-455-262.84c-6.18-3.57-11.05-11.36-10.89-17.41l7.34-274.37c.17-6.05,5.3-8.06,11.47-4.5Z" style="fill:#e5f2ff"/><path d="M743.47,325.86c6.18,3.57,10.44.06,10.28,6.11l-6.2,285.77c-.16,6-5.83,8-12,4.4l-455-262.85c-6.18-3.56-11-11.35-10.89-17.4L277,67.51c.16-6.05,5.3-8.06,11.47-4.49Z" style="fill:#4a555e"/><path d="M743.47,289.78c6.18,3.56,11,11.35,10.89,17.4l-6.81,274.47c-.16,6.06-5.83,8-12,4.4l-455-262.84c-6.18-3.57-10.65,9.9-10.49,3.85L277,31.42c.16-6,5.3-8.06,11.47-4.49Z" style="fill:#4a555e"/><path d="M742.66,323.14c.2-5.07-4.38-11.88-10.23-15.2L301.42,63c-5.85-3.33-10.75-1.91-10.95,3.16l-1.31,33.23a6.64,6.64,0,0,0-.32,1.82l-5.93,230.5c-.21,5.07,6.41,14.37,12.26,17.7L721,591.4c5.85,3.33,10.76,1.91,11-3.16L733.25,555a6.27,6.27,0,0,0,.33-1.82Z" style="fill:#eef3ff"/><path d="M737.26,672.76l-.13-18-17.48,11.19-3.76-8.64L277.49,404.16c-5.28-3.05-15.77-2.66-21.87.86L65.69,514v-3L36.85,525l-4.06-1.64.55,13.31c.44,2.9,1.56,4.1,3.35,5.13L492.91,805.87c5.28,3,14.59,3,20.69-.51l218.61-126c3.33-1.93,5-4.31,5-6.66Z" style="fill:#4a555e"/><path d="M492.66,788.16,36.45,524.77c-5.28-3-4.61-8.42,1.49-11.94l218.6-126.22c6.1-3.52,15.41-3.9,20.69-.86l456.21,263.4c5.28,3.05,4.61,8.42-1.48,11.94L513.35,787.3C507.25,790.82,497.94,791.21,492.66,788.16Z" style="fill:#c9d5f5"/><path d="M283.88,434.55a3.45,3.45,0,0,1-3-.35l-27.7-16c-1-.58-1.27-1.36-.61-1.74l18.35-10.6a3.52,3.52,0,0,1,3,.35l27.7,16c1,.57,1.27,1.35.61,1.73Z" style="fill:#94a6eb"/><path d="M316,482.28a3.5,3.5,0,0,1-3-.35l-27.7-16c-1-.58-1.26-1.35-.59-1.74l18.35-10.6a3.46,3.46,0,0,1,3,.35l27.69,16c1,.58,1.27,1.36.62,1.73Z" style="fill:#94a6eb"/><path d="M299.77,502.09a3.48,3.48,0,0,1-3-.35l-27.7-16c-1-.57-1.28-1.35-.61-1.73l18.35-10.61a3.54,3.54,0,0,1,3,.36l27.7,16c1,.58,1.27,1.36.62,1.74Z" style="fill:#94a6eb"/><path d="M255.82,505.91a3.49,3.49,0,0,1-3-.34l-27.7-16c-1-.57-1.26-1.35-.61-1.73l18.36-10.6a3.48,3.48,0,0,1,3,.34l27.7,16c1,.57,1.26,1.35.6,1.73Z" style="fill:#94a6eb"/><path d="M179.6,494.8a3.49,3.49,0,0,1-3-.36l-27.7-16c-1-.58-1.27-1.36-.61-1.74l21.55-12.45a3.53,3.53,0,0,1,3,.36l27.69,16c1,.58,1.26,1.36.62,1.74Z" style="fill:#94a6eb"/><path d="M227.35,522.35c-.66.38-2.26.08-3.57-.68l-36.29-20.94c-1.3-.75-1.83-1.68-1.17-2.06l21.55-12.45c.65-.37,2.27-.07,3.57.68l36.28,20.94c1.32.76,1.83,1.69,1.18,2.06Z" style="fill:#94a6eb"/><path d="M465.74,660.12a3.38,3.38,0,0,1-2.8-.47l-27.68-16c-1-.58-1.38-1.31-.83-1.63l8-4.6a3.43,3.43,0,0,1,2.83.48l27.68,16c1,.57,1.36,1.31.81,1.62Z" style="fill:#94a6eb"/><path d="M502.75,682a3.41,3.41,0,0,1-2.81-.47l-27.67-16c-1-.58-1.39-1.31-.84-1.63l8-4.6a3.43,3.43,0,0,1,2.83.48l27.67,16c1,.57,1.36,1.31.82,1.62Z" style="fill:#94a6eb"/><path d="M542,704.16a3.42,3.42,0,0,1-2.77-.49l-27.69-16c-1-.57-1.39-1.3-.86-1.61l7.67-4.43a3.48,3.48,0,0,1,2.79.5l27.68,16c1,.58,1.38,1.3.86,1.61Z" style="fill:#94a6eb"/><path d="M517.85,673.59a3.44,3.44,0,0,1-2.77-.5l-27.69-16c-1-.58-1.39-1.3-.86-1.61l7.67-4.43a3.47,3.47,0,0,1,2.79.49l27.68,16c1,.58,1.38,1.3.86,1.6Z" style="fill:#94a6eb"/><path d="M417.87,632.28a3.48,3.48,0,0,1-3-.36l-180.23-104c-1-.56-1.28-1.35-.62-1.74l21.55-12.44a3.51,3.51,0,0,1,3,.35l180.23,104c1,.58,1.28,1.37.63,1.74Z" style="fill:#94a6eb"/><path d="M222.41,515.48s-.17,0-.29-.08L201,503.18c-.12-.06-.18-.14-.14-.16l1.34-.78a.52.52,0,0,1,.29.08l21.17,12.22c.12.07.18.15.14.17Z" style="fill:#94a6eb"/><path d="M168.12,481.82a.18.18,0,0,1-.16,0l-9-5.19c-.05,0-.06-.07,0-.1l1.33-.77a.2.2,0,0,1,.17,0l9,5.19c.05,0,.05.07,0,.09Z" style="fill:#94a6eb"/><path d="M293.79,527.81a3.51,3.51,0,0,1-3-.36l-27.69-16c-1-.57-1.27-1.36-.62-1.74l18.36-10.6a3.51,3.51,0,0,1,3,.35l27.7,16c1,.58,1.27,1.36.61,1.74Z" style="fill:#94a6eb"/><path d="M331.92,549.81a3.49,3.49,0,0,1-3-.35l-27.69-16c-1-.57-1.28-1.36-.62-1.74L319,521.14a3.54,3.54,0,0,1,3,.35l27.69,16c1,.56,1.26,1.35.6,1.73Z" style="fill:#94a6eb"/><path d="M370.06,571.82a3.49,3.49,0,0,1-3-.35l-27.7-16c-1-.57-1.26-1.35-.61-1.73l18.36-10.61a3.49,3.49,0,0,1,3,.35l27.7,16c1,.57,1.26,1.36.6,1.74Z" style="fill:#94a6eb"/><path d="M408.19,593.83a3.46,3.46,0,0,1-3-.35l-27.7-16c-1-.58-1.27-1.36-.61-1.74l18.35-10.6a3.5,3.5,0,0,1,3,.35l27.7,16c1,.58,1.26,1.36.6,1.74Z" style="fill:#94a6eb"/><path d="M446.34,615.84a3.53,3.53,0,0,1-3-.36l-27.68-16c-1-.57-1.26-1.35-.61-1.73l18.35-10.6a3.51,3.51,0,0,1,3,.34l27.69,16c1,.58,1.28,1.37.62,1.75Z" style="fill:#94a6eb"/><path d="M484.48,637.83a3.51,3.51,0,0,1-3-.35l-27.69-16c-1-.58-1.27-1.36-.62-1.74l18.35-10.6a3.54,3.54,0,0,1,3,.35l27.69,16c1,.57,1.27,1.36.61,1.74Z" style="fill:#94a6eb"/><path d="M570.38,687.4a3.48,3.48,0,0,1-3-.35l-75.46-43.54c-1-.58-1.27-1.36-.61-1.74l18.35-10.6a3.48,3.48,0,0,1,3,.35l75.46,43.54c1,.58,1.27,1.36.61,1.74Z" style="fill:#94a6eb"/><path d="M337.72,524a3.4,3.4,0,0,1-3-.34l-27.71-16c-1-.57-1.27-1.35-.6-1.73l18.35-10.6a3.46,3.46,0,0,1,3,.35l27.7,16c1,.58,1.25,1.35.6,1.73Z" style="fill:#94a6eb"/><path d="M375.86,546a3.49,3.49,0,0,1-3-.35l-27.71-16c-1-.57-1.26-1.35-.6-1.73l18.36-10.61a3.51,3.51,0,0,1,3,.35l27.71,16c1,.57,1.26,1.36.61,1.73Z" style="fill:#94a6eb"/><path d="M414,568a3.52,3.52,0,0,1-3-.36l-27.69-16c-1-.57-1.29-1.36-.62-1.74L401,539.32a3.5,3.5,0,0,1,3,.36l27.7,16c1,.57,1.27,1.35.62,1.73Z" style="fill:#94a6eb"/><path d="M452.13,590a3.49,3.49,0,0,1-3-.35l-27.69-16c-1-.58-1.28-1.35-.62-1.74l18.36-10.6a3.47,3.47,0,0,1,3,.36l27.69,16c1,.58,1.27,1.36.62,1.73Z" style="fill:#94a6eb"/><path d="M490.28,612a3.49,3.49,0,0,1-3-.35l-27.7-16c-1-.58-1.28-1.35-.61-1.73l18.36-10.61a3.51,3.51,0,0,1,3,.35l27.71,16c1,.58,1.26,1.36.61,1.73Z" style="fill:#94a6eb"/><path d="M528.41,634a3.49,3.49,0,0,1-3-.35l-27.69-16c-1-.58-1.28-1.35-.62-1.74l18.36-10.6a3.49,3.49,0,0,1,3,.36l27.68,16c1,.57,1.26,1.35.61,1.73Z" style="fill:#94a6eb"/><path d="M566.54,656a3.47,3.47,0,0,1-3-.35l-27.71-16c-1-.57-1.26-1.34-.6-1.73l18.36-10.6a3.45,3.45,0,0,1,3,.35l27.71,16c1,.57,1.26,1.35.61,1.72Z" style="fill:#94a6eb"/><path d="M354,504.16a3.46,3.46,0,0,1-3-.34l-27.69-16c-1-.56-1.26-1.34-.59-1.73L341,475.5a3.47,3.47,0,0,1,3,.35l27.7,16c1,.58,1.26,1.36.61,1.73Z" style="fill:#94a6eb"/><path d="M392.1,526.17a3.5,3.5,0,0,1-3-.34l-27.7-16c-1-.57-1.27-1.35-.6-1.74l18.36-10.6a3.5,3.5,0,0,1,3,.35l27.69,16c1,.57,1.26,1.35.61,1.73Z" style="fill:#94a6eb"/><path d="M430.24,548.18a3.47,3.47,0,0,1-3-.35l-27.7-16c-1-.57-1.26-1.35-.59-1.74l18.36-10.6a3.47,3.47,0,0,1,3,.35l27.69,16c1,.58,1.27,1.36.62,1.74Z" style="fill:#94a6eb"/><path d="M468.37,570.18a3.44,3.44,0,0,1-3-.34l-27.7-16c-1-.58-1.27-1.36-.6-1.75l18.35-10.6a3.53,3.53,0,0,1,3,.36l27.69,16c1,.58,1.26,1.35.61,1.73Z" style="fill:#94a6eb"/><path d="M506.51,592.18a3.48,3.48,0,0,1-3-.34l-27.7-16c-1-.58-1.26-1.36-.59-1.74l18.35-10.61a3.5,3.5,0,0,1,3,.36l27.7,16c1,.57,1.25,1.35.6,1.72Z" style="fill:#94a6eb"/><path d="M544.66,614.19a3.49,3.49,0,0,1-3-.35l-27.69-16c-1-.57-1.26-1.35-.6-1.74l18.36-10.6a3.47,3.47,0,0,1,3,.35l27.7,16c1,.58,1.27,1.36.62,1.74Z" style="fill:#94a6eb"/><path d="M582.79,636.19a3.47,3.47,0,0,1-3-.34l-27.7-16c-1-.58-1.27-1.36-.6-1.74l18.36-10.61a3.48,3.48,0,0,1,3,.36l27.7,16c1,.57,1.26,1.35.61,1.73Z" style="fill:#94a6eb"/><path d="M277.87,460.27a3.47,3.47,0,0,1-3-.35l-47-27.1c-1-.57-1.27-1.35-.6-1.74l18.35-10.6a3.52,3.52,0,0,1,3,.35l47,27.1c1,.58,1.27,1.36.62,1.74Z" style="fill:#94a6eb"/><path d="M646.19,643.6a3.45,3.45,0,0,1-3-.35l-47-27.1c-1-.56-1.27-1.35-.6-1.73L614,603.82a3.5,3.5,0,0,1,3,.34l47,27.11c1,.57,1.28,1.35.61,1.73Z" style="fill:#94a6eb"/><path d="M261.62,480.08a3.43,3.43,0,0,1-3-.36l-56-32.3c-1-.58-1.28-1.36-.62-1.74l18.36-10.6a3.5,3.5,0,0,1,3,.35l56,32.31c1,.58,1.27,1.36.62,1.73Z" style="fill:#94a6eb"/><path d="M217.69,483.91a3.48,3.48,0,0,1-3-.35L177.36,462c-1-.58-1.27-1.36-.62-1.74l18.35-10.6a3.5,3.5,0,0,1,3,.35l37.33,21.54c1,.58,1.26,1.36.61,1.74Z" style="fill:#94a6eb"/><path d="M322,456.56a3.48,3.48,0,0,1-3-.36l-27.68-16c-1-.57-1.27-1.36-.61-1.74l18.35-10.6a3.52,3.52,0,0,1,3,.35l27.68,16c1,.58,1.28,1.35.61,1.74Z" style="fill:#94a6eb"/><path d="M360,478.45a3.54,3.54,0,0,1-3-.35l-27.7-16c-1-.57-1.27-1.35-.61-1.73L347,449.78a3.44,3.44,0,0,1,3,.35l27.7,16c1,.57,1.28,1.36.61,1.74Z" style="fill:#94a6eb"/><path d="M398.09,500.45a3.46,3.46,0,0,1-3-.35l-27.69-16c-1-.57-1.27-1.35-.6-1.73l18.34-10.6a3.47,3.47,0,0,1,3,.34l27.7,16c1,.57,1.26,1.34.59,1.73Z" style="fill:#94a6eb"/><path d="M436.24,522.46a3.45,3.45,0,0,1-3-.35l-27.68-16c-1-.58-1.27-1.36-.61-1.74l18.35-10.6a3.45,3.45,0,0,1,3,.35l27.68,16c1,.58,1.28,1.36.61,1.74Z" style="fill:#94a6eb"/><path d="M474.37,544.46a3.42,3.42,0,0,1-3-.34l-27.69-16c-1-.58-1.28-1.36-.62-1.74l18.35-10.6a3.5,3.5,0,0,1,3,.35l27.69,16c1,.58,1.26,1.35.59,1.73Z" style="fill:#94a6eb"/><path d="M512.52,566.46a3.45,3.45,0,0,1-3-.34l-27.71-16c-1-.57-1.25-1.35-.59-1.73l18.35-10.6a3.46,3.46,0,0,1,3,.34l27.71,16c1,.57,1.27,1.35.6,1.74Z" style="fill:#94a6eb"/><path d="M550.66,588.47a3.45,3.45,0,0,1-3-.35l-27.7-16c-1-.58-1.27-1.36-.61-1.74l18.35-10.6a3.47,3.47,0,0,1,3,.35l27.69,16c1,.57,1.27,1.35.61,1.73Z" style="fill:#94a6eb"/><path d="M588.78,610.47a3.43,3.43,0,0,1-3-.34l-27.72-16c-1-.57-1.25-1.35-.59-1.73l18.35-10.6a3.48,3.48,0,0,1,3,.34l27.71,16c1,.57,1.26,1.34.59,1.72Z" style="fill:#94a6eb"/><path d="M611,629.88a4.36,4.36,0,0,0-1.62-.53,2.2,2.2,0,0,0-1.36.19l-18.36,10.6a.62.62,0,0,0-.33.79,2,2,0,0,0,.92.94l7.23,4.17L573.37,660a.62.62,0,0,0-.31.8,2,2,0,0,0,.93.93l18.65,10.77a4.36,4.36,0,0,0,1.63.54,2.32,2.32,0,0,0,1.39-.18l43.63-25.21a.6.6,0,0,0,.3-.79,1.9,1.9,0,0,0-.93-.94Z" style="fill:#94a6eb"/><path d="M212.73,475a.45.45,0,0,1-.29-.08l-21.17-12.22c-.11-.07-.18-.14-.14-.17l1.34-.77a.45.45,0,0,1,.29.08L213.93,474c.12.07.18.14.14.17Z" style="fill:#94a6eb"/><path d="M357.26,301.08s18.68-19.47,52.8-.47c26.08,14.53,12.33,12.5,43.66,23.88,18.47,6.71,47.38-19.69,92.91,2.75,82.44,40.63,111.67-24.13,147.36,16L692.91,516,357.1,327.05Z" style="fill:#11a359"/><line x1="357.09" y1="328.01" x2="358.17" y2="155.47" style="fill:#eb423d"/><line x1="440.74" y1="373.09" x2="441.82" y2="200.55" style="fill:#eb423d"/><line x1="524.38" y1="420.33" x2="525.46" y2="247.79" style="fill:#eb423d"/><line x1="608.02" y1="467.53" x2="609.1" y2="294.99" style="fill:#eb423d"/><line x1="691.65" y1="517.4" x2="692.73" y2="344.86" style="fill:#eb423d"/><path d="M691.86,327.78l-11-6.8a5.2,5.2,0,0,1-2.2-4h0c0-1.46,1-2,2.23-1.29l11,6.79a5.22,5.22,0,0,1,2.2,4h0C694.08,328,693.08,328.53,691.86,327.78Z" style="fill:#eb423d"/><path d="M689.69,525.92l-11-6.79-.11,0L670.38,514c-1.22-.75-2.23-.17-2.24,1.29a5.2,5.2,0,0,0,2.2,4l11,6.8.1.05,8.19,5c1.22.75,2.22.17,2.23-1.29A5.22,5.22,0,0,0,689.69,525.92Z" style="fill:#eb423d"/><path d="M598,471.65l-11-6.8-.1-.05-8.18-5c-1.22-.75-2.23-.17-2.24,1.29a5.2,5.2,0,0,0,2.2,4l11,6.8.1.05,8.19,5c1.22.76,2.22.18,2.23-1.29A5.2,5.2,0,0,0,598,471.65Z" style="fill:#eb423d"/><path d="M512.35,421.51l-11-6.8-.1,0-8.19-5c-1.22-.75-2.23-.17-2.24,1.29a5.23,5.23,0,0,0,2.2,4l11,6.8.1,0,8.19,5c1.22.76,2.23.18,2.23-1.29A5.2,5.2,0,0,0,512.35,421.51Z" style="fill:#eb423d"/><path d="M431.53,374.54l-11-6.79-.1-.05-8.19-5.05c-1.22-.75-2.22-.17-2.23,1.29a5.2,5.2,0,0,0,2.2,4l11,6.8.1.05,8.19,5.05c1.22.75,2.22.17,2.23-1.29A5.22,5.22,0,0,0,431.53,374.54Z" style="fill:#eb423d"/><path d="M609.24,342.26l-11-6.79a5.23,5.23,0,0,1-2.2-4h0c0-1.46,1-2,2.23-1.29l11,6.8a5.2,5.2,0,0,1,2.2,4h0C611.46,342.43,610.46,343,609.24,342.26Z" style="fill:#eb423d"/><path d="M523.92,239l-11-6.8a5.2,5.2,0,0,1-2.2-4h0c0-1.46,1-2,2.24-1.29l11,6.79a5.23,5.23,0,0,1,2.2,4h0C526.14,239.12,525.14,239.7,523.92,239Z" style="fill:#eb423d"/><path d="M439.69,193.8l-11-6.8a5.2,5.2,0,0,1-2.2-4h0c0-1.47,1-2,2.24-1.29l11,6.79a5.2,5.2,0,0,1,2.2,4h0C441.91,194,440.91,194.55,439.69,193.8Z" style="fill:#eb423d"/><path d="M356.71,148.26l-11-6.8a5.2,5.2,0,0,1-2.2-4h0c0-1.46,1-2,2.24-1.29l11,6.8a5.2,5.2,0,0,1,2.2,4h0C358.94,148.43,357.93,149,356.71,148.26Z" style="fill:#eb423d"/><path d="M345.44,326.86l-11-6.8-.11-.05L326.13,315c-1.22-.75-2.23-.17-2.24,1.29a5.22,5.22,0,0,0,2.2,4l11,6.79.1.05,8.19,5.05c1.22.75,2.22.17,2.23-1.29A5.2,5.2,0,0,0,345.44,326.86Z" style="fill:#eb423d"/><ellipse cx="552.25" cy="680.42" rx="45.21" ry="22.46" transform="translate(-11.98 9.9) rotate(-1.02)" style="fill:#a8c4e5;mix-blend-mode:multiply;opacity:0.4"/><path d="M542,432.42s17.52,7.36,48.84-34.87c6.34-8.54,14.52-38.92,14.52-38.92l-7.55-3.37s-11.37,25.9-20.69,34.25c-12.51,11.2-46.76,26.3-48.25,32S542,432.42,542,432.42Z" style="fill:#ad5215"/><path d="M519.06,665.43l9.83-1.24c6.58-3,9.66-5.22,12.59-3.52l.83.47c2.93,1.7,2.56,4.68-.83,6.63L527,679.26a9.54,9.54,0,0,1-10.64-1s-1.62-1.46-.46-7.6C516.59,667.12,516.36,667,519.06,665.43Z" style="fill:#eef3ff"/><path d="M530.68,665.86c-.78,6.79-13.24,6.79-13.24,1.61l6.9-156.88,41.54-11.71Z" style="fill:#ffc2b0"/><path d="M560.64,680.42l9.73,1.83c7.18-.82,10.79-2,13.06.49l.65.72c2.27,2.5,1,5.23-2.81,6L564,696a9.54,9.54,0,0,1-9.82-4.24s-1.09-1.88,1.89-7.38C557.76,681.27,557.58,681.08,560.64,680.42Z" style="fill:#eef3ff"/><path d="M568.58,684.58c-2.16,5.49-11.68,4.29-11.51-.22,4.44-54.36-5.79-105.7-19-155.65L578,524.39C579.54,582.85,579,632.94,568.58,684.58Z" style="fill:#ffc2b0"/><path d="M575.52,510.25l13.87,76.14s-34.47,34.16-73.9,0l4.43-71.5Z" style="fill:#1c2122"/><ellipse cx="550.48" cy="396.63" rx="12.74" ry="22.48" transform="translate(-46.32 73.87) rotate(-7.37)" style="fill:#ffc2b0"/><path d="M573.17,405.56c-3,10.34-14,14.08-20.56,7.33s-9.39-20.6-6.42-30.94,10.65-13.24,17.16-6.49S576.14,395.22,573.17,405.56Z" style="fill:#ffc2b0"/><path d="M548.1,435.39l-1.1-.24a7,7,0,0,1-5.29-8.33l4.71-21.1a7,7,0,0,1,8.32-5.28l1.11.24a7,7,0,0,1,5.28,8.32L559.59,430C558.76,433.69,551.85,436.23,548.1,435.39Z" style="fill:#ffc2b0"/><path d="M539.26,407.05s-1.29,7.17,11.22,7.86c10,.55,7-17.55,17-19.17,10.92-1.78,12.9-15.27,8.6-20.44s-16.33-7.88-25-4S524,377.9,539.26,407.05Z" style="fill:#4a555e"/><path d="M567.48,401.35a4.73,4.73,0,1,1-3.24-5.86A4.73,4.73,0,0,1,567.48,401.35Z" style="fill:#ffc2b0"/><path d="M519.74,514.09c3.54-19.37-.26-34.68,0-55.27,0-37-1.77-46.06,17.8-40.43l5.52,1.47a38.17,38.17,0,0,1,7.65,2.95c25.8,13.3,32.69,17.4,31.56,32.82.12,25.4-11.71,30.58-5.42,52.82C571.57,526,525.64,526.66,519.74,514.09Z" style="fill:#ad5215"/><path d="M560.6,416.29l-1.13-2.59a7.12,7.12,0,0,0,5.81,1.51A9.19,9.19,0,0,1,560.6,416.29Z" style="fill:#f09a82"/><ellipse cx="540.22" cy="386.73" rx="9.02" ry="10.47" style="fill:#fff"/><path d="M540,383.46c.43-5.37-6.89-7.73-9.76-3.17a20.47,20.47,0,0,0-2.42,6.43c-3.64,16.1-30.77,13.77-17.46,42.11,0,0-12.11,18.59,10.39,26.43,11.52,4,11.26-25.65,11.26-25.65s4.6-13.64,9-24.33a19.85,19.85,0,0,0,.07-15.69A12.46,12.46,0,0,1,540,383.46Z" style="fill:#4a555e"/><path d="M542.93,417.31a3.1,3.1,0,0,0-3.75,3.54c.41,2.41,1.89,5.3,6.29,6.8,6.11,2.06,12.81,1,16,.19a.88.88,0,0,0,.25-1.61C558.12,424,549.4,418.87,542.93,417.31Z" style="fill:#fff"/><polygon points="618.79 456.85 589.39 439.81 606.7 389.21 636.1 406.24 618.79 456.85" style="fill:#fff"/><path d="M559,450.19s25.3,61.53,52.92,31.89,17.91-50.55,17.91-50.55l-3.7-1S614.91,467.75,603,464.07,574.76,437.41,569,436.32,559,450.19,559,450.19Z" style="fill:#ad5215"/><rect x="597.16" y="340.78" width="13.16" height="17.89" rx="5.72" transform="translate(986.75 932.91) rotate(-153.38)" style="fill:#ffc2b0"/><path d="M629.18,435.83h0a4.82,4.82,0,0,1-4.81-4.81v-4.93a4.83,4.83,0,0,1,4.81-4.82h0a4.84,4.84,0,0,1,4.82,4.82V431A4.83,4.83,0,0,1,629.18,435.83Z" style="fill:#ffc2b0"/><path d="M612.45,407.68l-5-2.91a2.87,2.87,0,0,1-1.2-3.19h0a1.66,1.66,0,0,1,2.5-1.06l5,2.9a2.88,2.88,0,0,1,1.21,3.2h0A1.66,1.66,0,0,1,612.45,407.68Z" style="fill:#e655be"/><path d="M617.13,419.06l-7.58-4.38a2.28,2.28,0,0,1-.95-2.53h0a1.3,1.3,0,0,1,2-.83l7.59,4.37a2.3,2.3,0,0,1,1,2.53h0A1.32,1.32,0,0,1,617.13,419.06Z" style="fill:#bfdfff"/><path d="M621.14,430.43l-13.93-8a2.27,2.27,0,0,1-1-2.53h0a1.31,1.31,0,0,1,2-.84l13.94,8.05a2.3,2.3,0,0,1,1,2.53h0A1.31,1.31,0,0,1,621.14,430.43Z" style="fill:#bfdfff"/><path d="M612.44,434.47l-7.58-4.37a2.28,2.28,0,0,1-1-2.53h0a1.31,1.31,0,0,1,2-.84l7.59,4.38a2.3,2.3,0,0,1,.95,2.53h0A1.31,1.31,0,0,1,612.44,434.47Z" style="fill:#bfdfff"/><path d="M603.68,438l-5.19-3a2.28,2.28,0,0,1-1-2.53h0a1.32,1.32,0,0,1,2-.84l5.19,3a2.28,2.28,0,0,1,.95,2.53h0A1.32,1.32,0,0,1,603.68,438Z" style="fill:#e655be"/><path d="M123,471.41a52.53,52.53,0,0,1,19.15,11.65,3.73,3.73,0,0,0,2.58,1.4,3.58,3.58,0,0,0,2.34-1.63c2.08-2.58,4.29-5.72,3.32-8.84-.9-2.91-4.15-4.44-7.07-5.65l-10.17-4.17c-2.11-.87-4.42-1.76-6.65-1.23s-4.87,6.71-3.5,8.47" style="fill:#15cc67"/><path d="M122.1,474.51A48.94,48.94,0,0,1,137,482.85c2.51,2.07,5,5.53,8.68,4.68a7,7,0,0,0,3.83-2.75,25.12,25.12,0,0,0,2.87-4.17c1.5-3,2-6.47.15-9.45-1.51-2.49-4.09-4-6.7-5.17-3.17-1.39-6.4-2.66-9.6-4s-6.82-3.1-10.45-2.22c-2.68.65-4.33,3.15-5.35,5.54s-1.83,5.44-.29,7.69a3.29,3.29,0,0,0,4.39,1.15,3.24,3.24,0,0,0,1.15-4.39c-.27-.4.08.26.09.31,0-.11-.08-.68-.06-.15,0,.76.12-.93,0-.29-.06.46,0-.1,0-.21s.11-.45.17-.67.11-.36.18-.54.32-.78.15-.42.11-.2.15-.27.22-.42.34-.63.7-1,.25-.46c.2-.24.43-.45.65-.68-.44.45-.37.26-.16.14-1,.58-.33.06-.22.09a10.4,10.4,0,0,0,1.39.06,13.47,13.47,0,0,1,1.78.52c1.37.48,2.7,1.07,4,1.62,2.67,1.1,5.36,2.17,8,3.3l.21.09.66.3c.49.23,1,.48,1.44.74a5.56,5.56,0,0,1,2.05,1.62c-.36-.47.44.79.19.26a2.14,2.14,0,0,1,.24,1,5.46,5.46,0,0,1-.9,2.55,19.05,19.05,0,0,1-1.84,2.6,3.17,3.17,0,0,0-.49.56c-.21.43-.13,0,0,.07a1.18,1.18,0,0,0,.72-.06c.05-.07-.16-.18-.34-.35a65.62,65.62,0,0,0-5.88-4.91,56.4,56.4,0,0,0-14.83-7.7,3.25,3.25,0,0,0-4,2.25,3.28,3.28,0,0,0,2.25,3.95Z" style="fill:#11a359"/><path d="M115.23,668.91c4.13-11,17.9-16.78,30.13-15.39s23,8.37,32.06,16.27l-59.27.51" style="fill:#15cc67"/><path d="M118.33,669.76c.38-1-.14.26.11-.31l.28-.6c.22-.44.45-.88.7-1.3s.45-.75.7-1.11.31-.45.47-.67h0l.2-.26a21.9,21.9,0,0,1,2-2.16,16.12,16.12,0,0,1,2.08-1.7,27.1,27.1,0,0,1,11-4.57,32,32,0,0,1,12.32.13,46.89,46.89,0,0,1,13.46,5.18,81.65,81.65,0,0,1,13.48,9.67l2.27-5.48-59.27.51c-4.13,0-4.14,6.46,0,6.42l59.27-.51c2.62,0,4.44-3.6,2.27-5.48-8.39-7.27-18-13.82-29-16.33-9.6-2.19-20.18-1-28.51,4.53a25.84,25.84,0,0,0-10.09,12.33,3.23,3.23,0,0,0,2.25,4,3.28,3.28,0,0,0,4-2.24Z" style="fill:#11a359"/><path d="M149.58,662a43.6,43.6,0,0,0-26.66,2.79c-1.25.56-.17,2.41,1.08,1.85a41.06,41.06,0,0,1,25-2.57c1.35.28,1.92-1.78.57-2.07Z" style="fill:#11a359"/><path d="M112.75,509.77a49.44,49.44,0,0,1,31.46-4.94,48,48,0,0,1,27.53,15.31l-32.22.63c-4.45.09-9,.16-13.27-1s-11.62-6.2-13.5-10" style="fill:#15cc67"/><path d="M114.37,512.55a46.11,46.11,0,0,1,45.45,1.66,43.41,43.41,0,0,1,9.64,8.2l2.28-5.48-27.51.54a113.26,113.26,0,0,1-13.54-.1,20.65,20.65,0,0,1-5-1.11c-.34-.13,0,0,.09,0l-.57-.26c-.29-.13-.58-.28-.86-.42-.76-.4-1.51-.83-2.23-1.28a24.82,24.82,0,0,1-4-3,22.77,22.77,0,0,1-1.68-1.72c0-.06-.44-.54-.21-.24s-.13-.19-.16-.24c-.21-.32-.4-.64-.58-1a3.25,3.25,0,0,0-4.39-1.15,3.28,3.28,0,0,0-1.16,4.4c1.56,3,4.44,5.34,7.15,7.29a25.58,25.58,0,0,0,9.2,4.44c4.67,1,9.45.92,14.19.83l14.62-.28,16.61-.33a3.25,3.25,0,0,0,2.27-5.48c-11.93-13.48-30.57-19.27-48.12-16A52,52,0,0,0,111.13,507a3.21,3.21,0,1,0,3.24,5.55Z" style="fill:#11a359"/><path d="M136.07,510.58a159.5,159.5,0,0,1-21.83-1.71,2.21,2.21,0,0,0-2.63,1.5A2.15,2.15,0,0,0,113.1,513a169.91,169.91,0,0,0,23,1.86c2.75,0,2.76-4.25,0-4.28Z" style="fill:#11a359"/><path d="M83.34,583.51c-9.87-4.77-10.5,3.36-16.78,5.79-4.57,1.76-6.48-3.19-5.25-6.44,2.13-5.63,11.87-7.27,17.66-7.14,2.34.06,5,.5,6.59,2.19s1.33,4.85-1,5.18" style="fill:#15cc67"/><path d="M85,580.74c-4.09-1.94-8.7-2.89-12.64-.06a34.6,34.6,0,0,0-3.82,3.44c-.27.26-.54.52-.83.77l-.52.44c.57-.49.17-.13,0,0-.32.21-.65.44-1,.63l-.54.28c-.53.3.49-.09-.23.08-.11,0-1.08.17-.35.13,0,0-.88-.05-.37,0s-.24-.1-.29-.12l.34.13c-.25-.16-.27-.16-.07,0l.14.11a3.43,3.43,0,0,1-.33-.33c.57.63.09,0,0,0s-.31-.74,0,0c-.08-.24-.13-.48-.22-.72-.25-.73,0,.63,0-.15,0-.22,0-.43,0-.64s.14-.74,0,0c0-.2.1-.4.14-.61s.31-.66,0-.06c.1-.19.19-.38.3-.56a6.33,6.33,0,0,1,.36-.54c-.43.59,0,0,.16-.15l.58-.55c.6-.59-.32.22.1-.09a13.08,13.08,0,0,1,1.18-.75c.43-.24.86-.46,1.31-.66s-.7.24.2-.08c.34-.12.67-.25,1-.36a25.92,25.92,0,0,1,3-.78c.51-.11,1-.19,1.53-.28.15,0,.82-.1.21,0l1-.11a16.81,16.81,0,0,1,6.76.34c1,.34-.17-.13.37.15.12.06.94.51.65.37.32.15.33.33.1,0a3.24,3.24,0,0,1,.28.47c-.14-.35-.15-.35,0,0s-.2.46,0-.07c0,.38,0,.35.06-.08a3.64,3.64,0,0,1-.14.47c-.06-.14.3-.54.34-.6-.25.24-.23.22.08-.06s.4-.19,0-.09a3.21,3.21,0,1,0,1.7,6.19c3.45-.7,5-4.57,4-7.73-1.15-3.63-4.8-5.3-8.32-5.76A30.72,30.72,0,0,0,65,575.16c-4.91,2.23-8.9,7.45-6.7,13a6.91,6.91,0,0,0,7,4.68,12.65,12.65,0,0,0,7-3.56c.8-.72,1.54-1.5,2.31-2.25.36-.34.76-.64,1.11-1s-.23.18-.24.18.22-.16.34-.23.4-.26.61-.38c.37-.2.63-.18.08-.07.24,0,.47-.16.71-.22.42-.1.69,0,.14-.05a8.1,8.1,0,0,0,.85,0c.25,0,.94.15.33,0,.34.07.68.14,1,.23a11.43,11.43,0,0,1,2.08.78,3.31,3.31,0,0,0,4.4-1.15A3.24,3.24,0,0,0,85,580.74Z" style="fill:#11a359"/><path d="M105.81,714.49A431.91,431.91,0,0,0,44,736.3c-2-1.63-2-4.74-.68-6.91s3.65-3.6,5.94-4.86a105,105,0,0,1,62.35-12.12" style="fill:#15cc67"/><path d="M105,711.39a436.05,436.05,0,0,0-48.66,16.28q-7,2.82-13.87,5.85l3.89.5-.48-.45c.38.39-.12-.39,0-.05s-.09-.3-.11-.37c-.14-.52-.05.68-.05-.27,0-.22,0-.44,0-.66,0,.17-.13.48,0-.13a2.11,2.11,0,0,1,.44-1.08c.94-1.57,2.86-2.65,4.61-3.62a95.31,95.31,0,0,1,13.6-6.21,102.91,102.91,0,0,1,29.83-6.12,105.09,105.09,0,0,1,17.47.56c1.73.2,3.21-1.62,3.21-3.21a3.3,3.3,0,0,0-3.21-3.22,108.86,108.86,0,0,0-34.35,1.63A105.16,105.16,0,0,0,61,715.59,84.76,84.76,0,0,0,45.64,723c-2.67,1.71-5.13,4-6,7.11a8.32,8.32,0,0,0,2.18,8.51,3.4,3.4,0,0,0,3.89.5A426.36,426.36,0,0,1,92.71,721.6q6.95-2.11,14-4c4-1.08,2.3-7.28-1.71-6.2Z" style="fill:#11a359"/><path d="M151.6,787.65a86.7,86.7,0,0,1,6.58-10l-1.43,1.85a54.24,54.24,0,0,1,9.43-9.6l-1.85,1.43a40,40,0,0,1,8.76-5.15l-2.18.91a38,38,0,0,1,9.14-2.49l-2.43.33a43,43,0,0,1,10.64,0c2.17.26,5-1.2,6.46-2.67a9.13,9.13,0,0,0,0-12.9l-1.85-1.43a9.08,9.08,0,0,0-4.61-1.24A46.7,46.7,0,0,0,160.54,752C153,756.11,147,762.3,141.88,769.11a85.78,85.78,0,0,0-6,9.33c-2.35,4.16-1.13,10.16,3.27,12.48s10,1.17,12.48-3.27Z" style="fill:#ad5215"/><path d="M103.33,781.89a127.61,127.61,0,0,0-18-16.37A81.18,81.18,0,0,0,62.67,753a37.93,37.93,0,0,0-13.38-2.17c-3.76.13-7.37,3.21-7.19,7.19.17,3.78,3.16,7.33,7.19,7.19a26.23,26.23,0,0,1,4.6.24L52,765.14a40.73,40.73,0,0,1,9.31,2.58,6,6,0,0,1,.65.27s-1.77-.77-.74-.31l1,.44c.88.41,1.75.83,2.61,1.28,1.59.82,3.16,1.71,4.69,2.64s3.1,2,4.6,3c.73.5,1.46,1,2.17,1.54.36.26.72.52,1.07.79s1.66,1.27.63.47.23.18.46.37l1,.82c.73.58,1.44,1.18,2.15,1.78q2.07,1.76,4.06,3.6c2.62,2.43,5.14,5,7.52,7.65s7.65,2.75,10.17,0a7.36,7.36,0,0,0,0-10.17Z" style="fill:#ad5215"/><path d="M133.69,477.78c14.38,99.09-8.9,132.08,11.67,178.59,23.21,52.48,23.47,128,23.47,128l-85.05,5.8s6.79-53.92,6.08-81c-.76-29-8.09-69.46-2.29-111.27,3.46-25,9.16-90.12,3-169.9-3.91-50.58-10.15-169-.71-239.85,3.72-27.95,17.39-63,24.5-102.22,3.23-17.81,10.4-42.1,5.41-57.16C160,62,135.23,112.07,121.71,175.8c-15.68,74,5.82,133.71,3.16,176C121.29,408.55,129,445.65,133.69,477.78Z" style="fill:#15cc67"/><path d="M130,478.79a471,471,0,0,1,4.61,82.3c-.58,18.13-2.55,36.3-2,54.45a122.08,122.08,0,0,0,2.92,23.64c2.1,9.07,6,17.29,9.3,25.92,9.25,23.94,14.15,49.56,17.11,75a398.46,398.46,0,0,1,3,44.34l3.8-3.79L94.34,785.7l-10.56.72,3.8,3.8q2.86-22.9,4.66-46c.85-10.87,1.58-21.78,1.46-32.69C93.55,698.26,92.08,685,91,671.7c-1.3-16.15-2.24-32.35-1.72-48.56.37-11.84,2-23.47,3.31-35.21,2.41-21.46,3.64-43.06,4.19-64.64a938.93,938.93,0,0,0-2.43-95.19q-2.31-30.23-3.66-60.51c-2.37-51.92-3.67-104.3.52-156.15a280,280,0,0,1,4.51-34.89c3-14.09,7.05-27.92,10.87-41.78C111,119,115,103.14,118,87c2.56-13.74,6.3-27.38,7.12-41.39a49.88,49.88,0,0,0-1.72-17.79l-6.35,3.7c9.71,8.11,16.62,18.31,19.35,30.74s1.43,25.71-.78,38.2c-5.77,32.57-17.22,63.86-21.35,96.78-4.18,33.32-1.32,66.59,2.81,99.74,1.65,13.27,3.47,26.56,4,39.93.68,15.93-1.13,31.89-1,47.83.33,31.72,5.28,62.72,9.85,94,.7,4.82,8,2.77,7.32-2-4-27.42-8.46-54.64-9.37-82.4q-.47-14,0-28c.25-7.73,1-15.45.93-23.19-.08-13.13-1.72-26.22-3.33-39.24-4.07-32.92-7.73-65.85-4.53-99,3.31-34.26,15.26-66.66,21.56-100.34,2.63-14.14,4.25-28.79,1.43-43s-10.62-26.22-21.58-35.38c-2.7-2.27-7.56-.22-6.34,3.69,4,12.82.28,27.48-2.37,40.21-3.17,15.23-6,30.49-9.86,45.56C97,142.56,88.12,168.91,85,196.64c-5.66,51-4.55,102.8-2.63,153.94s7.31,102,7.09,153.17c-.11,24.16-1.09,48.34-3.29,72.4-.69,7.63-1.57,15.25-2.57,22.84a283.28,283.28,0,0,0-1.7,49.84c1.16,26.26,5.06,52.33,3.79,78.66-1,19.73-3,39.43-5.3,59-.15,1.23-.29,2.46-.45,3.69-.24,1.95,1.94,3.92,3.8,3.8l74.49-5.08,10.56-.72a3.87,3.87,0,0,0,3.79-3.8c-.05-12.25-1-24.55-2.2-36.73-2.52-25.15-6.71-50.4-14.6-74.47-3.34-10.2-8.26-19.81-11.33-30.08a102.54,102.54,0,0,1-4-22.53c-1.17-17.53.71-35.17,1.46-52.68a491.18,491.18,0,0,0-4.63-91.16C136.66,472,129.34,474,130,478.79Z" style="fill:#11a359"/><path d="M129.83,330.57" style="fill:#15cc67"/><path d="M129.83,334.36a3.79,3.79,0,1,0-3.79-3.79,3.83,3.83,0,0,0,3.79,3.79Z" style="fill:#11a359"/><path d="M117.49,486.11c3,37.79-28.82,75.1-68.32,80.13-4.1.53-8.7.61-11.88-1.9-3.52-2.77-4-7.93-2.37-12s5-7.22,8.32-10.19C62.55,525,90,503.93,113.61,492.51" style="fill:#15cc67"/><path d="M114.28,486.11a61.5,61.5,0,0,1-1.74,20.31,69.12,69.12,0,0,1-7.81,18.86,79.6,79.6,0,0,1-29.74,29,72.09,72.09,0,0,1-19.72,7.6,41.33,41.33,0,0,1-10.82,1.41,9.55,9.55,0,0,1-4.61-1.11,5,5,0,0,1-2.26-2.91,8.13,8.13,0,0,1-.14-4.26,12.69,12.69,0,0,1,2.36-4.77c2.36-3.18,5.59-5.74,8.55-8.32q9.34-8.18,19.14-15.79c13.43-10.45,27.53-20.3,42.58-28.27q2.57-1.35,5.16-2.61a3.21,3.21,0,0,0-3.24-5.55c-16.08,7.81-31,18.07-45.15,28.89Q56.18,526.75,46,535.49c-6.4,5.52-14.63,11.58-15.18,20.76A12.53,12.53,0,0,0,36,567.34c3.65,2.59,8.54,2.67,12.81,2.16a79.11,79.11,0,0,0,23.07-6.44,85.85,85.85,0,0,0,35-29.24c8.6-12.29,13.89-27.12,14-42.18,0-1.85,0-3.69-.19-5.53a3.29,3.29,0,0,0-3.21-3.21,3.24,3.24,0,0,0-3.21,3.21Z" style="fill:#11a359"/><path d="M108.68,494.5a110,110,0,0,1-29.56,37.84,108.89,108.89,0,0,1-11.05,8c-3.48,2.21-.26,7.77,3.24,5.54a118,118,0,0,0,36.06-35.74,109.12,109.12,0,0,0,6.85-12.39,3.3,3.3,0,0,0-1.15-4.39,3.23,3.23,0,0,0-4.39,1.15Z" style="fill:#11a359"/><path d="M103.89,199.28c3-37.79-28.83-75.09-68.32-80.13-4.1-.52-8.7-.61-11.88,1.9-3.52,2.77-4,7.93-2.37,12s5,7.22,8.32,10.18C49,160.42,76.43,181.47,100,192.89" style="fill:#15cc67"/><path d="M107.1,199.28c1.15-15.09-3.09-30.27-10.87-43.15a86.26,86.26,0,0,0-33-31.37,79.91,79.91,0,0,0-21.79-7.89c-8.18-1.62-19.47-2.93-23.31,6.56a15.11,15.11,0,0,0,.92,12.33c2,4.07,5.53,7.24,8.88,10.22q9.62,8.53,19.74,16.48c14.26,11.22,29.17,21.87,45.21,30.4q2.73,1.45,5.51,2.8a3.28,3.28,0,0,0,4.39-1.15,3.23,3.23,0,0,0-1.15-4.39c-15.24-7.41-29.4-17-42.91-27.19q-10-7.52-19.51-15.64c-3-2.59-6.09-5.18-9-7.9s-5.61-5.59-6.4-9.2a6,6,0,0,1-.17-1.91c0-.16.1-1.26,0-.86a9.91,9.91,0,0,1,.32-1.33,5,5,0,0,1,2.26-2.9c2.74-1.64,7.1-1.17,10.1-.72a74.17,74.17,0,0,1,20.29,6.16,79.32,79.32,0,0,1,17.78,11.54,80.34,80.34,0,0,1,13.91,15.51,79,79,0,0,1,5.39,9.18A64,64,0,0,1,97.49,174a62.57,62.57,0,0,1,3.38,20.09c0,1.73-.06,3.46-.19,5.18a3.21,3.21,0,0,0,6.42,0Z" style="fill:#11a359"/><path d="M100.62,187.65a114.55,114.55,0,0,0-30.87-39.4,122.55,122.55,0,0,0-12-8.73c-3.5-2.22-6.73,3.34-3.24,5.55a110.67,110.67,0,0,1,34,33.77,109.47,109.47,0,0,1,6.64,12,3.24,3.24,0,0,0,4.39,1.16,3.28,3.28,0,0,0,1.15-4.4Z" style="fill:#11a359"/><path d="M112.52,598.56A75.08,75.08,0,0,1,160.11,605a69.7,69.7,0,0,1,32.43,33.75c1.39,3.17,2.42,7.1.19,9.79-1.69,2.05-4.81,2.6-7.49,2a22.36,22.36,0,0,1-7.27-3.51l-59.41-38.21c-2-1.3-4.09-2.66-5.32-4.64s-1.38-4.8.34-6.43" style="fill:#15cc67"/><path d="M113.38,601.65a72.35,72.35,0,0,1,38.31,3.17,67.71,67.71,0,0,1,28.41,20,65.08,65.08,0,0,1,9,14.18,20.47,20.47,0,0,1,1.35,3.48,5.55,5.55,0,0,1,.17,3.34,2.7,2.7,0,0,1-.42.73c-.49.58.23,0-.41.36a3.88,3.88,0,0,1-.6.34c.46-.21-.58.18-.55.17s-1.08.19-.55.13a8,8,0,0,1-1.09,0c-.09,0-1-.09-.58,0-3.16-.46-5.93-2.65-8.54-4.33l-9.2-5.92-18.82-12.11-21.34-13.72c-3.34-2.16-6.77-4.22-10-6.49a7.78,7.78,0,0,1-2.84-3c.19.44-.15-.63-.13-.57.1.47,0-.49,0-.54,0-.45,0-.43.34-.81,2.88-3-1.66-7.52-4.54-4.54a8.5,8.5,0,0,0-.85,10.32c2,3.23,5.48,5.14,8.57,7.14l20.5,13.18,20.92,13.46,10,6.45c3.24,2.09,6.44,4.48,9.92,6.15,3.3,1.58,7.08,2.43,10.64,1.17a9.1,9.1,0,0,0,6.19-8.47c.12-3.35-1.32-6.56-2.72-9.51a66.45,66.45,0,0,0-4.74-8.33,73.69,73.69,0,0,0-29.6-25.6,79,79,0,0,0-48.51-6,3.24,3.24,0,0,0-2.25,3.95,3.29,3.29,0,0,0,4,2.24Z" style="fill:#11a359"/><path d="M168,622.46a88.09,88.09,0,0,0-41.81-19.86,91.29,91.29,0,0,0-13.6-1.41,3.21,3.21,0,0,0,0,6.42,82.93,82.93,0,0,1,41.2,12.33,75.93,75.93,0,0,1,9.66,7.07,3.31,3.31,0,0,0,4.55,0,3.26,3.26,0,0,0,0-4.55Z" style="fill:#11a359"/><path d="M121,330.23c4.13,0,4.14-6.42,0-6.42s-4.14,6.42,0,6.42Z" style="fill:#11a359"/><path d="M114.36,336c-6.8-1.42-13.65-2.84-20.61-3s-14.11,1-20,4.52C62.72,344,58,356.85,49,365.7a5.43,5.43,0,0,0,5.09,1.88,16.12,16.12,0,0,0,5.33-2l54-27.7" style="fill:#15cc67"/><path d="M115.22,332.92C103.44,330.47,91,328,79.14,331.7a34.39,34.39,0,0,0-13.52,8,75.21,75.21,0,0,0-9.17,11.34c-3.11,4.43-5.87,8.55-9.69,12.35a3.24,3.24,0,0,0-.5,3.89c3.3,4.33,8.49,4,13,1.94s8.87-4.52,13.28-6.78l27-13.85L115,340.68a3.24,3.24,0,0,0,1.16-4.39,3.28,3.28,0,0,0-4.4-1.16l-50,25.66a62,62,0,0,1-6.21,3.1,5.77,5.77,0,0,1-2.75.51c-.57-.06.34.08-.22,0-.08,0-.59-.18-.46-.12s-.74-.64-.36-.15l-.5,3.89c6.53-6.51,10.81-15,16.82-21.59a28.16,28.16,0,0,1,10.49-7.69,38,38,0,0,1,15.13-2.45c6.69.14,13.24,1.52,19.76,2.87a3.28,3.28,0,0,0,3.95-2.24,3.24,3.24,0,0,0-2.24-3.95Z" style="fill:#11a359"/><path d="M106.08,333.47a75,75,0,0,0-31.85,13.34,3.3,3.3,0,0,0-1.15,4.39c.8,1.38,3,2.19,4.39,1.15a70.89,70.89,0,0,1,30.32-12.69c1.71-.28,2.67-2.4,2.24-4a3.28,3.28,0,0,0-4-2.24Z" style="fill:#11a359"/><path d="M100.06,549.25c13.21-2,26.7-3.94,40.47-2s28.14,8.49,35.68,19.51c1.53,2.23,2.77,5,1.56,7.1-1.54,2.67-5.85,2.52-9.4,2.42a47.2,47.2,0,0,0-24.8,5.91c-3.85,2.21-7.85,5.13-12.72,4.29-4.67-.81-8.11-4.78-10.79-8.47a153,153,0,0,1-15.53-26.62" style="fill:#15cc67"/><path d="M101.07,552.9c12.68-1.88,26-3.79,38.84-1.94a64.15,64.15,0,0,1,8,1.68c1.26.35,2.51.73,3.74,1.16.62.21,1.24.43,1.85.66l.91.36c.12,0,1.24.52.72.29a55,55,0,0,1,7.22,3.77,33.51,33.51,0,0,1,5.59,4.18c.92.83,1.81,1.71,2.64,2.62a22.24,22.24,0,0,1,2.18,2.69,13.12,13.12,0,0,1,1.63,3c.44,1.15-.24-.65.11.46V572c0,.28,0,.23,0-.14l-.09.34c.14-.34.12-.35-.07,0l.23-.32c-.3.28-.27.27.11,0,0,0-.85.49-.33.23s-.38.13-.41.13c-.27.08-1.75.29-1,.23a36.64,36.64,0,0,1-3.92.08,57.35,57.35,0,0,0-8.88.4,50,50,0,0,0-17.8,5.6c-1.15.63-2.26,1.32-3.39,2-.57.33-1.14.65-1.72,1-.23.13-.46.24-.7.36l-.71.33q.46-.2-.18.06c-.61.2-1.23.37-1.86.54-.09,0-.73.12-.15,0a9.33,9.33,0,0,1-1.18.06,7.37,7.37,0,0,1-2.76-.65,10.13,10.13,0,0,1-3-2.19q-.84-.81-1.59-1.68c-.21-.25-.42-.49-.62-.74s-.83-1.05-.47-.58c-2.1-2.78-4-5.68-5.92-8.61a152.24,152.24,0,0,1-10.27-18.92c-.85-1.86-3.55-2.31-5.19-1.35a3.88,3.88,0,0,0-1.36,5.18A153.62,153.62,0,0,0,111,571.43c1.89,3,3.87,5.94,6,8.79a32.74,32.74,0,0,0,6.52,7,15,15,0,0,0,9.16,3.21,19.92,19.92,0,0,0,9.44-3c1.25-.7,2.46-1.47,3.71-2.17.6-.33,1.21-.65,1.82-1l1.13-.54.62-.28a44,44,0,0,1,9.41-2.75,47.16,47.16,0,0,1,9.1-.67c2.85.06,5.9.26,8.62-.74,3.35-1.23,5.73-4.15,5.48-7.84-.24-3.53-2.32-6.49-4.44-9.17-7.38-9.32-19-15-30.34-17.64-15.93-3.7-32.25-1.44-48.19.94-2,.3-3.14,2.86-2.64,4.66.59,2.17,2.63,3,4.66,2.64Z" style="fill:#11a359"/><path d="M139.78,558.11l-19.39-10.7a3.79,3.79,0,1,0-3.82,6.54L136,564.66a3.79,3.79,0,0,0,3.83-6.55Z" style="fill:#11a359"/><path d="M183.83,778.88A90.44,90.44,0,0,0,153,773.33a95,95,0,0,0-29.2,4.74,135.6,135.6,0,0,0-16.68,6.8,9.1,9.1,0,0,0-4.14,5.37,9,9,0,0,0,6.29,11.08,10.15,10.15,0,0,0,6.94-.91c1.87-.9,3.77-1.77,5.69-2.58l-2.15.91a98.56,98.56,0,0,1,24.94-7l-2.39.32a80.74,80.74,0,0,1,21.18,0l-2.4-.32a86.45,86.45,0,0,1,18,4.52A9,9,0,0,0,189.21,783a10.16,10.16,0,0,0-5.38-4.14Z" style="fill:#ad5215"/><path d="M43.55,794.8a159.54,159.54,0,0,1,33.91.84l-2.39-.32a316.1,316.1,0,0,1,33.07,6.75c4.56,1.13,10-1.46,11.07-6.28,1.06-4.65-1.4-9.87-6.29-11.07-17.71-4.37-35.69-8.22-54-8.47-5.13-.07-10.25.13-15.36.55a9.65,9.65,0,0,0-6.37,2.64,9.14,9.14,0,0,0-2.63,6.36,9,9,0,0,0,2.63,6.36,8.88,8.88,0,0,0,6.37,2.64Z" style="fill:#ad5215"/><path d="M117.21,279.39c1-10.25,9.43-18.79,19.25-23.13s20.89-5.21,31.7-5.71c11.52-.53,24.67-.08,32.24,8.19,3,3.33,4.49,9,.89,11.83-2.28,1.77-5.56,1.56-8.49,1.31a235.35,235.35,0,0,0-73.57,5.37" style="fill:#15cc67"/><path d="M121,279.39c.12-1.16-.17.74,0-.41.07-.35.12-.7.2-1.05.13-.58.28-1.15.45-1.72s.37-1.12.58-1.67c.4-1.07-.33.62.17-.4.19-.38.36-.75.55-1.12a21.91,21.91,0,0,1,4.33-5.95,35.23,35.23,0,0,1,13.45-8.48,73.22,73.22,0,0,1,18.8-3.72,145.88,145.88,0,0,1,18-.62c1.39.06,2.77.15,4.15.29a32.72,32.72,0,0,1,3.41.53,37.16,37.16,0,0,1,3.87,1c.56.18,1.13.38,1.68.59.06,0,1.13.48.41.16l.95.44a28.18,28.18,0,0,1,3.3,2c.6.41.2.14.07,0,.27.22.54.44.8.68a19.41,19.41,0,0,1,1.52,1.49c.07.07.72.92.25.27.16.23.32.46.47.7s.29.49.43.74c0,.09.49,1.1.18.33.21.53.32,1.06.49,1.6.3.94,0-.7.06.27,0,.32,0,.64,0,.95,0,.91.25-.64,0,.21-.06.17-.42,1.05,0,.24-.09.18-.2.35-.29.53l-.17.25c.28-.36.27-.37,0-.05-.88.45.38-.19-.18.15-.13.09-.84.45-.25.2a10,10,0,0,1-1.07.31c-.78.24.26.05-.5.09a89.6,89.6,0,0,1-9.82-.52q-10.69-.66-21.41-.33a240.7,240.7,0,0,0-47.65,6.24,3.79,3.79,0,0,0,2,7.3A229.46,229.46,0,0,1,164.91,275q11.55-.39,23.09.35c3.61.23,7.27.84,10.87.25a9.76,9.76,0,0,0,7.75-6.19c2.4-6.44-2.26-12.87-7.19-16.5s-11-5.11-17-5.82a105.4,105.4,0,0,0-18.8-.05,100.33,100.33,0,0,0-21.48,3.19c-13.82,4-27.14,14-28.75,29.2-.21,2,1.89,3.88,3.79,3.79a3.89,3.89,0,0,0,3.79-3.79Z" style="fill:#11a359"/><path d="M163.51,258a62,62,0,0,0-39.13,13.09c-1.37,1.06-1.12,3.42,0,4.54a3.31,3.31,0,0,0,4.55,0,55.09,55.09,0,0,1,34.58-11.21c4.13.08,4.13-6.35,0-6.42Z" style="fill:#11a359"/><path d="M107.94,660.52a88.17,88.17,0,0,1,20.36,14c3.65,3.34,7.17,8.58,4.38,12.6-1.7,2.45-5.19,3.24-8.25,2.86s-5.9-1.69-8.84-2.59a34.77,34.77,0,0,0-26.38,2.55,68.81,68.81,0,0,1,14.35-26.18" style="fill:#15cc67"/><path d="M106,663.79a91,91,0,0,1,14.22,8.84,61.89,61.89,0,0,1,6.21,5.35,15.93,15.93,0,0,1,2,2.29c.36.54.67,1.1,1,1.67s.14.3.08.13a8.83,8.83,0,0,1,.33,1c0,.17.1,1.2.09.38,0,.22,0,.47,0,.68,0-.57.08-.28,0,0,0,0-.37,1-.15.53s-.36.55-.33.5c.38-.52,0-.08-.06,0-.72.73.35-.18-.16.15a7.14,7.14,0,0,1-.89.52c-.55.26.79-.19-.24.06l-.69.19s-1.1.17-.56.11-.64,0-.58,0h-.73c.1,0-1.07-.08-.62,0s-1-.18-.81-.15c-.45-.09-.9-.2-1.34-.33-2.75-.75-5.37-1.92-8.15-2.59a38.68,38.68,0,0,0-27.28,3.49l5.56,4.28a65.69,65.69,0,0,1,13.38-24.51,3.88,3.88,0,0,0,0-5.36,3.83,3.83,0,0,0-5.36,0,74,74,0,0,0-15.32,27.86c-1,3.28,2.72,5.79,5.56,4.27a30.65,30.65,0,0,1,15.82-3.5,27.94,27.94,0,0,1,8.08,1.47c3.24,1,6.33,2.34,9.76,2.63,6.11.53,12.73-3.24,12.7-10,0-6.33-5.33-11.18-9.81-14.9a94.08,94.08,0,0,0-17.81-11.67,3.88,3.88,0,0,0-5.19,1.36,3.83,3.83,0,0,0,1.36,5.18Z" style="fill:#11a359"/><path d="M107.37,666l-1,7a2.88,2.88,0,0,0-.07,1.51,2.74,2.74,0,0,0,.45,1.41,3.82,3.82,0,0,0,2.26,1.74,3.86,3.86,0,0,0,2.92-.38,3.64,3.64,0,0,0,1.74-2.26l1-7a2.87,2.87,0,0,0,.07-1.51,3,3,0,0,0-.45-1.41,3.8,3.8,0,0,0-5.19-1.36,3.7,3.7,0,0,0-1.74,2.27Z" style="fill:#11a359"/><path d="M100.42,380.42c-8,7.2-6.88,27.79-16.26,33.23-6.62,3.84-16.15-1-18.07-8.19s2.4-14.83,8.76-19,17.82-5.57,25.57-6c-6.26,4.13-14.5,10.27-16.79,17.17" style="fill:#15cc67"/><path d="M98.14,378.15c-4.63,4.28-6.28,11.05-7.92,16.91a95.23,95.23,0,0,1-2.89,9.2c0,.14-.11.27-.16.4-.19.47.2-.44,0,0s-.3.68-.46,1c-.33.68-.69,1.35-1.08,2-.16.26-.33.51-.5.76s-.19.27-.29.41c-.27.38.34-.4,0-.06a13.77,13.77,0,0,1-1.34,1.41l-.37.31c-.34.29.46-.3.08-.07s-.46.31-.71.45c-.1.06-1.16.55-.65.35a10.22,10.22,0,0,1-1.33.41l-.6.11c-.52.09.46,0-.06,0-.36,0-.72,0-1.08,0a10.34,10.34,0,0,1-1.24-.09c.59.08-.68-.17-.83-.2-.41-.11-.81-.24-1.21-.37l-.44-.17c.45.18,0,0-.11-.06a17.62,17.62,0,0,1-2.33-1.38c-.43-.3.3.26-.1-.08-.12-.1-.25-.2-.36-.31a12.6,12.6,0,0,1-.91-.88c-.09-.09-.8-.93-.51-.55a9.21,9.21,0,0,1-1.91-5.12,11.85,11.85,0,0,1,.88-5.19,18.23,18.23,0,0,1,6.73-8.21,20.82,20.82,0,0,1,5-2.39,48.66,48.66,0,0,1,6.51-1.7,85.75,85.75,0,0,1,12.45-1.46l-1.63-6c-7.2,4.78-15.31,10.58-18.25,19.1a3.24,3.24,0,0,0,2.24,3.95,3.27,3.27,0,0,0,4-2.24,10.83,10.83,0,0,1,1-2.06,20.14,20.14,0,0,1,1.6-2.41A36.36,36.36,0,0,1,93,390.1a70,70,0,0,1,9.09-6.91,3.32,3.32,0,0,0,1.47-3.63,3.24,3.24,0,0,0-3.09-2.35c-8.55.47-17.86,1.39-25.55,5.46-8.09,4.28-14.09,13.82-12,23.11C64.71,414,74,419.6,82.11,417.86c7.42-1.58,10.69-9.15,12.72-15.64,1.19-3.79,2.1-7.66,3.36-11.43.3-.87.62-1.73,1-2.58s-.17.36,0-.14l.29-.63c.19-.41.38-.82.59-1.21.41-.77.87-1.48,1.35-2.2.09-.12.39-.46,0,.06l.39-.46a11.78,11.78,0,0,1,.93-.94c3-2.81-1.51-7.35-4.55-4.54Z" style="fill:#11a359"/><path d="M129.39,708c11.73,1.64,26.52,18.37,38,17.92,8.11-.32,11.89-9,8-15.55S162.23,699.91,154,699.8s-18.24,4.61-24.64,8.18c8.05.1,19.19.77,26.23,5" style="fill:#15cc67"/><path d="M128.54,711.08a21.09,21.09,0,0,1,4.73,1.34c.48.19-.4-.18.07,0l.71.32,1.13.55c.87.44,1.73.91,2.58,1.4,3.48,2,6.78,4.27,10.14,6.45,6.21,4.05,13.58,8.9,21.35,7.74,8.24-1.23,12.95-10.25,10-17.87-3.38-8.67-13.25-13.13-21.92-14.21-10.35-1.29-20.72,3.47-29.55,8.38-2.83,1.58-1.5,5.95,1.62,6,8.29.1,17.57.4,24.61,4.59,3.56,2.12,6.8-3.43,3.24-5.55-8.18-4.87-18.57-5.35-27.85-5.47l1.62,6c6.85-3.81,14.88-7.72,22.65-7.75a26.73,26.73,0,0,1,10.51,2.18A24.4,24.4,0,0,1,169,708a17.46,17.46,0,0,1,3.21,3.38,12.74,12.74,0,0,1,.67,1.12q.15.29.27.57c-.06-.14-.16-.5,0,.08.1.34.22.67.3,1s.21,1.4.16.75a11.25,11.25,0,0,1,.05,1.16c0,.21-.1,1.25,0,.57a10.41,10.41,0,0,1-.58,2.19c.23-.62-.18.35-.27.5s-.34.55-.52.83.32-.36,0,0l-.37.42a8.48,8.48,0,0,1-.93.87c.49-.4-.41.24-.53.31l-.39.21c-.07,0-.62.3-.28.15.15-.07-.71.24-.91.29l-.45.11s-1,.15-.42.09a12.26,12.26,0,0,1-2.1,0c-.25,0-1-.15-.34,0-.4-.08-.81-.15-1.21-.25a20.31,20.31,0,0,1-2.06-.6c-.38-.13-.75-.28-1.12-.42l-.08,0-.71-.32a73,73,0,0,1-9.31-5.38c-3.45-2.25-6.84-4.59-10.43-6.62a30.87,30.87,0,0,0-10.46-4.12,3.31,3.31,0,0,0-4,2.24c-.42,1.52.51,3.69,2.24,4Z" style="fill:#11a359"/><path d="M94.37,610.27c-26.95,4.55-50.34,15-77.29,19.5-5,.86-11.78.87-13.56-3.71-.92-2.37.1-5.11,1.89-7A20,20,0,0,1,12.08,615a146.3,146.3,0,0,1,82.82-9.49" style="fill:#15cc67"/><path d="M93.52,607.17c-25.81,4.4-50.14,14.71-75.9,19.27l-2,.34c-.65.1-.25,0-.11,0l-1,.11a25,25,0,0,1-3.67.06s-1.09-.11-.44,0c-.2,0-.41-.06-.62-.1-.51-.1-1-.25-1.48-.39-.84-.24.42.29-.32-.13-.15-.09-.33-.2-.49-.28-.71-.33.29.38-.25-.16a6.55,6.55,0,0,1-.58-.6c.44.56-.08-.22-.12-.3.3.55,0-.13-.09-.31a3.22,3.22,0,0,1,0-.88,5.09,5.09,0,0,1,1.86-3c2-1.73,4.71-2.71,7.12-3.7a142,142,0,0,1,36.22-9.48,144,144,0,0,1,42.43,1A3.29,3.29,0,0,0,98,606.39a3.23,3.23,0,0,0-2.24-3.95,149.67,149.67,0,0,0-80.83,8c-5.85,2.33-13.66,5.07-14.8,12.23a8.68,8.68,0,0,0,3.65,8.63,13.92,13.92,0,0,0,7.39,2.14,38,38,0,0,0,8.63-.85c3.5-.63,7-1.37,10.46-2.18,6.66-1.56,13.25-3.4,19.82-5.33C65,620.67,79.86,616,95.22,613.36c1.71-.29,2.67-2.4,2.25-4a3.29,3.29,0,0,0-4-2.24Z" style="fill:#11a359"/><path d="M88.08,600.14a121.93,121.93,0,0,0-56.82,10.31c-1.58.7-2,3-1.15,4.39A3.29,3.29,0,0,0,34.5,616a115,115,0,0,1,53.58-9.43,3.22,3.22,0,0,0,0-6.43Z" style="fill:#11a359"/><path d="M89.86,649.78a78,78,0,0,0-34,13.92c-2.47,1.8-4.92,3.89-5.91,6.69-1.07,3-.22,6.43,1.5,9.17a34,34,0,0,0,6.65,7.13c2-13.46,19.28-21.5,22.12-34.81" style="fill:#15cc67"/><path d="M89,646.69a81.51,81.51,0,0,0-26.22,8.87,63.79,63.79,0,0,0-11.36,7.6c-3.86,3.35-5.83,7.88-4.78,13,1.11,5.38,5.29,9.33,9.23,12.82,1.61,1.43,5,1.16,5.37-1.42a18.86,18.86,0,0,1,1-3.82c0-.15.34-.83.13-.36.13-.28.25-.56.39-.83.29-.6.61-1.18,1-1.75A34,34,0,0,1,66,677.4c.22-.29,0,0,0,0l.3-.38.62-.75c.48-.59,1-1.16,1.48-1.73,3.77-4.29,7.91-8.3,11.09-13.07a26,26,0,0,0,3.89-8.76,3.28,3.28,0,0,0-2.24-4,3.24,3.24,0,0,0-4,2.24c-.14.61-.29,1.2-.48,1.79-.11.34-.23.67-.35,1,0,.14-.11.29-.17.43.13-.32.06-.12,0,.08a29.35,29.35,0,0,1-1.86,3.39,45,45,0,0,1-4.88,6.19c-3.79,4.22-7.9,8.25-10.91,13.09a24,24,0,0,0-3.43,8.84l5.36-1.42c-2.71-2.4-6-5-7.19-8.57a6.82,6.82,0,0,1-.17-4.55,10.11,10.11,0,0,1,3.22-3.85A59.36,59.36,0,0,1,66.21,661a72.81,72.81,0,0,1,10.86-4.76,79.25,79.25,0,0,1,13.64-3.37c1.72-.27,2.67-2.42,2.25-4a3.3,3.3,0,0,0-4-2.24Z" style="fill:#11a359"/><path d="M73.23,657.41A142.64,142.64,0,0,0,58.5,668.82c-1,.91.48,2.42,1.51,1.51a139.18,139.18,0,0,1,14.3-11.07c1.13-.77.06-2.62-1.08-1.85Z" style="fill:#11a359"/><path d="M102.1,438.59A78,78,0,0,0,68.15,452.5c-2.47,1.81-4.93,3.89-5.92,6.7-1.07,3-.21,6.42,1.5,9.17a34.5,34.5,0,0,0,6.65,7.13c2-13.46,19.29-21.5,22.13-34.82" style="fill:#15cc67"/><path d="M101.25,435.49A81.59,81.59,0,0,0,75,444.37,63.61,63.61,0,0,0,63.66,452c-3.86,3.35-5.83,7.87-4.78,13,1.11,5.38,5.29,9.33,9.23,12.82,1.61,1.42,5,1.15,5.37-1.42a18.78,18.78,0,0,1,1-3.83c0-.15.34-.82.13-.36l.39-.82c.29-.6.61-1.19,1-1.76a36.46,36.46,0,0,1,2.29-3.38c.22-.29,0,0,0,0l.3-.38.61-.75c.48-.58,1-1.16,1.48-1.73,3.77-4.29,7.91-8.29,11.09-13.06a26,26,0,0,0,3.89-8.76,3.27,3.27,0,0,0-2.24-4,3.24,3.24,0,0,0-4,2.24c-.14.6-.29,1.2-.48,1.78-.1.34-.23.68-.35,1,0,.15-.11.29-.17.43.13-.31.06-.11,0,.08a31.16,31.16,0,0,1-1.87,3.4,44.35,44.35,0,0,1-4.88,6.18c-3.78,4.22-7.9,8.25-10.9,13.1a23.77,23.77,0,0,0-3.44,8.83l5.37-1.42c-2.71-2.39-6-5-7.2-8.57a6.82,6.82,0,0,1-.17-4.55,10.29,10.29,0,0,1,3.22-3.85,59.77,59.77,0,0,1,9.94-6.44,72.81,72.81,0,0,1,10.86-4.76A80.18,80.18,0,0,1,103,441.68c1.72-.26,2.67-2.41,2.25-3.95a3.29,3.29,0,0,0-4-2.24Z" style="fill:#11a359"/><path d="M85.47,446.22a143.63,143.63,0,0,0-14.73,11.4c-1,.91.48,2.42,1.51,1.51a139.08,139.08,0,0,1,14.3-11.06c1.13-.77.06-2.63-1.08-1.85Z" style="fill:#11a359"/><path d="M130.6,742.6a49.51,49.51,0,0,1,31.46-5A47.93,47.93,0,0,1,189.58,753l-32.21.63c-4.45.08-9,.16-13.27-1s-11.62-6.2-13.5-10" style="fill:#15cc67"/><path d="M132.22,745.38A46.08,46.08,0,0,1,177.67,747a43.37,43.37,0,0,1,9.64,8.2l2.27-5.49-27.5.54a113.26,113.26,0,0,1-13.54-.09,20.2,20.2,0,0,1-5-1.12c-.34-.12,0,0,.08,0l-.56-.26c-.29-.13-.58-.28-.87-.43-.76-.39-1.5-.82-2.22-1.28a24.77,24.77,0,0,1-4-3,22.73,22.73,0,0,1-1.68-1.72c0-.06-.44-.55-.21-.24S134,742,134,742a9.7,9.7,0,0,1-.58-1,3.21,3.21,0,0,0-5.55,3.24c1.56,3,4.44,5.35,7.15,7.3a25.75,25.75,0,0,0,9.2,4.44c4.66,1,9.45.92,14.19.83L173,756.5l16.6-.32a3.25,3.25,0,0,0,2.28-5.48c-11.93-13.48-30.57-19.27-48.12-16A51.82,51.82,0,0,0,129,739.83a3.22,3.22,0,0,0,3.25,5.55Z" style="fill:#11a359"/><path d="M153.92,743.4a161.09,161.09,0,0,1-21.83-1.7,2.2,2.2,0,0,0-2.63,1.49,2.16,2.16,0,0,0,1.49,2.64,169.78,169.78,0,0,0,23,1.86c2.75,0,2.76-4.26,0-4.29Z" style="fill:#11a359"/><path d="M104.06,427.69c8,6.1,16.09,12.29,22.22,20.11,1.17,1.5,2.4,3.14,4.27,3.68,2.18.63,4.46-.45,6.45-1.5,5.26-2.76,11.09-6.26,12-11.89.68-4-1.42-8-4.25-11a27.15,27.15,0,0,0-19.74-8.33c-7.42,0-16.4,3.81-21.26,9.15" style="fill:#15cc67"/><path d="M102.15,431c6.85,5.23,14,10.74,19.79,17.49a35.66,35.66,0,0,0,4.11,4.73,9.26,9.26,0,0,0,7.78,2.06,21.17,21.17,0,0,0,6.38-2.68,43.72,43.72,0,0,0,4.76-2.93c3.37-2.45,6.44-5.54,7.54-9.69,1.23-4.63-.31-9.46-3.11-13.2A30.5,30.5,0,0,0,126.26,415a35.43,35.43,0,0,0-25.14,10.24,3.79,3.79,0,0,0,5.35,5.36,22.35,22.35,0,0,1,1.63-1.6c.32-.28.64-.56,1-.82-.44.35.43-.3.58-.4a31.11,31.11,0,0,1,4.47-2.59,29,29,0,0,1,4.58-1.67c.8-.22,1.61-.42,2.43-.58l1.11-.2c.45-.07,0,0-.08,0l.91-.1a25.91,25.91,0,0,1,5.21.08c-.09,0-.46-.07,0,0l.8.13,1.18.25a27.93,27.93,0,0,1,2.71.77,22.16,22.16,0,0,1,4.37,2,17.53,17.53,0,0,1,3.95,3,14.06,14.06,0,0,1,3.05,3.93,8.07,8.07,0,0,1,1,4.06s0,.64,0,.29-.06.33-.08.41c-.08.34-.19.66-.28,1s0-.05.07-.12c-.08.21-.19.41-.29.61-.19.35-.39.69-.61,1a4.43,4.43,0,0,1-.29.42c.37-.52,0-.05,0,.05-.23.26-.46.52-.71.78a18.57,18.57,0,0,1-1.87,1.67c.45-.35-.42.3-.57.4q-.52.38-1.08.72c-.73.47-1.49.92-2.25,1.35a28.4,28.4,0,0,1-4.31,2.16l-.62.18s-.64.1-.32.07-.63,0-.23,0-.32-.07-.32-.07c.45.12-.28-.15-.47-.26.44.28,0,0-.12-.12l-.54-.54c-1.27-1.36-2.34-2.91-3.57-4.31-6.09-7-13.56-12.59-20.89-18.18-1.63-1.24-4.24-.26-5.18,1.36-1.14,2-.28,3.94,1.36,5.18Z" style="fill:#11a359"/><path d="M110.16,430.79c.9-.21,1.8-.39,2.71-.53.27,0,.24,0-.1,0l.73-.08c.49-.05,1-.08,1.48-.1a30.62,30.62,0,0,1,5.15.21c-.76-.1.48.08.63.11l1.26.25q1.26.29,2.49.66c.81.26,1.62.54,2.41.87-.65-.27.65.3.76.36.44.21.87.44,1.3.67a3.79,3.79,0,0,0,3.82-6.55,35,35,0,0,0-24.66-3.2,3.82,3.82,0,0,0-2.64,4.66,3.87,3.87,0,0,0,4.66,2.65Z" style="fill:#11a359"/><path d="M125.92,333.23c7.86-3.43,10.56-14.24,18-18.55,4.07-2.35,8.95-2.41,13.59-2.4l34.84,0c3.83,0,8,.11,11,2.49-7.82,4.89-17.22,6.14-26.33,6.33s-18.28-.57-27.3.79-18.15,5.16-23.75,12.69" style="fill:#15cc67"/><path d="M128,336.73c4.5-2,7.56-6.09,10.33-10,.65-.91,1.28-1.82,1.93-2.72.32-.45.65-.89,1-1.33-.08.11-.5.62,0,0l.62-.76a23.42,23.42,0,0,1,2.22-2.34c.19-.18.4-.35.6-.53s.77-.55,0-.05a17.47,17.47,0,0,1,1.7-1.08l.76-.38c-.55.26.25-.09.39-.14a18.77,18.77,0,0,1,1.81-.53c.41-.1.82-.17,1.23-.25.82-.16.37-.07.18-.05.84-.12,1.7-.17,2.55-.21,3.07-.16,6.16-.07,9.23-.07l20.4,0c3.69,0,7.38-.05,11.06,0,.74,0,1.48,0,2.21.1l1,.1c-.79-.11.46.1.5.11a11.06,11.06,0,0,1,2.26.66c-.61-.26,0,0,.09.09.45.29.91.54,1.34.86v-7a37.1,37.1,0,0,1-3.39,1.85c-.32.16-.65.3-1,.45-.73.32.87-.32-.41.16-.66.25-1.33.5-2,.73a49.85,49.85,0,0,1-7.9,1.87l-.85.12-.2,0c-.72.08-1.43.16-2.14.22q-2,.18-4.08.27c-2.9.12-5.8.11-8.7.09-11.71-.11-23.47-.24-34.39,4.54a34.52,34.52,0,0,0-13.81,10.93c-1.29,1.7-.33,4.61,1.45,5.55,2.14,1.13,4.18.36,5.55-1.46-.4.53.12-.14.22-.26s.42-.5.64-.74.71-.77,1.07-1.14.84-.8,1.28-1.19l.74-.63c.53-.46-.09.05.24-.2a33.55,33.55,0,0,1,6.18-3.62l.71-.32c-.65.28.13-.05.29-.11l1.65-.6c1.17-.4,2.36-.75,3.56-1.06a47.11,47.11,0,0,1,7.06-1.22c11.6-1.13,23.26.4,34.83-1.26a45.16,45.16,0,0,0,17.46-6c2.79-1.72,2.42-5.21,0-7-5.26-3.89-12.66-3-18.81-3.05l-21.15,0c-3.36,0-6.73-.05-10.09,0a33.87,33.87,0,0,0-9.46,1.2c-5.53,1.73-9.23,5.68-12.54,10.23-.78,1.07-1.54,2.17-2.31,3.25l-1.17,1.61c-.63.85.36-.41-.07.08l-.71.88a29.7,29.7,0,0,1-2.67,2.71c-.15.14-.61.45.09-.05-.34.24-.68.49-1,.71a14,14,0,0,1-1.67.87c-1.94.88-2.56,3.85-1.45,5.55a4.16,4.16,0,0,0,5.54,1.46Z" style="fill:#11a359"/><path d="M119.09,191.49c10.74-9.67,12.43-38.46,22.4-50.43,5.44-6.52,12.53-7,19.3-7.38l50.73-2.54c5.58-.28,11.61-.33,16.6,5.74-10.38,13.54-23.82,17.54-37,18.72s-26.73-.1-39.58,4.18-25.36,15-32,35.35" style="fill:#15cc67"/><path d="M122,194.39c5.71-5.23,8.43-13.3,10.76-20.45,1.31-4,2.48-8.09,3.74-12.13.64-2,1.3-4.07,2-6.08q.48-1.33,1-2.67c.15-.39.31-.77.46-1.15.39-1-.36.8.06-.15.12-.27.24-.55.37-.82a40.78,40.78,0,0,1,2.51-4.82c.42-.68.87-1.33,1.34-2s-.12.2-.17.21c.11,0,.38-.46.46-.56a21,21,0,0,1,1.6-1.67c.19-.18.4-.35.6-.53.92-.83-.34.22.24-.21s.94-.64,1.43-.93a15.61,15.61,0,0,1,1.46-.77c.18-.09.93-.38.18-.09.33-.13.67-.26,1-.37a23.77,23.77,0,0,1,3.09-.8l.7-.13s1.15-.19.51-.09.51-.06.51-.06l1.06-.11c5.74-.52,11.54-.63,17.3-.92l18.9-1c6.77-.34,13.56-.83,20.34-1a33.24,33.24,0,0,1,3.46.07l.82.08c-.72-.08-.18,0,.23.06a15.44,15.44,0,0,1,1.63.39l.81.27a4.68,4.68,0,0,1,.48.18q-.58-.26-.18-.06c.58.33,1.18.6,1.74,1l.61.43c-.6-.45.28.26.39.36a19.56,19.56,0,0,1,1.77,1.87V134a51.2,51.2,0,0,1-4.79,5.4,37.06,37.06,0,0,1-4.61,3.86,44.34,44.34,0,0,1-5.42,3.24c-.86.43-1.74.84-2.63,1.22.76-.32-.44.17-.68.26-.55.21-1.11.41-1.67.6a55.78,55.78,0,0,1-5.78,1.63c-.91.2-1.83.39-2.75.55l-1.38.24-.69.1c-.12,0-1.29.18-.29,0-4.83.61-9.7.81-14.57,1-10.35.33-21.05.56-30.88,4.19a50.33,50.33,0,0,0-18.34,11.78c-7.16,7.23-12,16.36-15.15,26a4.13,4.13,0,0,0,2.86,5,4.19,4.19,0,0,0,5-2.86c.36-1.1.74-2.19,1.15-3.28.2-.52.4-1.05.61-1.57.1-.26.21-.52.31-.77-.26.64.24-.53.24-.53a62.74,62.74,0,0,1,3-6A56.49,56.49,0,0,1,132.1,179l.42-.57c.07-.1.52-.69.21-.29s.14-.18.22-.27l.43-.54c.61-.74,1.24-1.47,1.89-2.18a50,50,0,0,1,4-3.86l1-.81c.23-.19,1.13-.88.4-.33.74-.56,1.49-1.1,2.25-1.61a44.22,44.22,0,0,1,4.24-2.52c.69-.35,1.38-.69,2.09-1,.13-.06,1.27-.55.7-.31l.17-.07.66-.26a50.17,50.17,0,0,1,6.36-1.94,63.84,63.84,0,0,1,7.13-1.26c5.15-.59,10.34-.72,15.51-.89,9-.29,18.08-.72,26.69-3.44A50,50,0,0,0,231,139.78a4.27,4.27,0,0,0,0-5.8,20,20,0,0,0-14.42-7,59.42,59.42,0,0,0-7.06.13l-9.95.5q-19.49,1-39,2c-5.18.26-10.32.78-15.05,3.08a24.56,24.56,0,0,0-10.16,10c-4.3,7.37-6.49,15.9-9,24-.7,2.32-1.42,4.63-2.2,6.93-.38,1.1-.77,2.21-1.18,3.3-.2.53-.4,1.06-.61,1.59-.08.19-.16.38-.23.57-.32.79.32-.71-.12.27a42.48,42.48,0,0,1-2.85,5.53c-.25.41-.52.81-.79,1.21l-.3.41c-.47.68.6-.7-.05.07a22.8,22.8,0,0,1-1.91,2,4.14,4.14,0,0,0,0,5.8,4.21,4.21,0,0,0,5.8,0Z" style="fill:#11a359"/><path d="M92.11,272.19a77.41,77.41,0,0,0-55.45,15.39C21.35,299.51,11.45,317.5,9.87,336.26A99.75,99.75,0,0,1,55.8,294.42c11.65-5.27,26.72-14,36.31-22.23" style="fill:#15cc67"/><path d="M92.11,268.4A81.56,81.56,0,0,0,45,277.65a74.86,74.86,0,0,0-31.95,33.27,72.87,72.87,0,0,0-7,25.34c-.34,3.82,5.31,5.05,7.06,1.91a94,94,0,0,1,5.39-8.57c.95-1.34,1.84-2.53,2.58-3.46q1.59-2,3.27-3.91a99.1,99.1,0,0,1,7-7.18q1.87-1.74,3.86-3.39c.6-.51,1.22-1,1.84-1.5l.86-.69.88-.66a102,102,0,0,1,17.59-10.54c6.32-3,12.53-6.06,18.54-9.61a139.7,139.7,0,0,0,19.81-13.79,3.83,3.83,0,0,0,0-5.36,3.87,3.87,0,0,0-5.36,0c-.56.48-1.12.95-1.69,1.41l-1,.83-.45.35-.16.12q-2.09,1.57-4.23,3.07c-3,2.09-6.09,4.07-9.23,5.95a181.06,181.06,0,0,1-18.58,9.83,104.92,104.92,0,0,0-33.7,24.34A101.09,101.09,0,0,0,6.6,334.35l7.06,1.91c.08-.83.16-1.67.26-2.5.08-.65-.07.5,0-.14,0-.19.06-.39.08-.58.08-.51.16-1,.25-1.52q.46-2.58,1.11-5.11c.45-1.75,1-3.49,1.57-5.2q.4-1.18.87-2.37c.16-.42.33-.84.5-1.26s0-.08,0,0c.11-.24.21-.47.31-.71a70.89,70.89,0,0,1,5.17-9.64c.95-1.48,2-2.94,3-4.35.11-.16.23-.31.35-.47-.3.39.1-.12.13-.17l.74-.92q.95-1.14,1.92-2.25a69.89,69.89,0,0,1,7.83-7.56,49.05,49.05,0,0,1,4.07-3.06c1.52-1.05,3.07-2,4.66-3A70.93,70.93,0,0,1,67,277.42c2.08-.49,4.19-.89,6.3-1.2l.82-.12c-.4,0,.1,0,.23,0l1.65-.19c1-.1,2.06-.18,3.1-.25a76.76,76.76,0,0,1,13,.34c2,.22,3.87-1.9,3.79-3.79a3.9,3.9,0,0,0-3.79-3.79Z" style="fill:#11a359"/><path d="M99.93,274.11c3.57.31,10.65,5.33,12.72,8.1a34.49,34.49,0,0,1,4.43,9.26c.56,1.56,1,3.53-.22,4.66a4.84,4.84,0,0,1-2.92.87l-24.73,1.76a9.75,9.75,0,0,1-4.6-.41,5.71,5.71,0,0,1-3.07-5.86,12.84,12.84,0,0,1,3-6.29,39.85,39.85,0,0,1,15.43-12.09" style="fill:#15cc67"/><path d="M99.93,277.9c-1.33-.14.22.1.57.22.17.05.34.12.5.18.89.29-.72-.38.15.06a31.65,31.65,0,0,1,3.08,1.69c.57.36,1.13.73,1.68,1.12.22.16,1.41,1.08.8.59a25.09,25.09,0,0,1,2.38,2.11c.16.17.31.37.48.53.62.55-.68-1.06.06.07.4.6.8,1.19,1.15,1.81a25.23,25.23,0,0,1,1.76,3.78,23.33,23.33,0,0,1,1.36,4.06c-.14-.74,0-.05,0,.17,0,.47.09-.46.14-.57.29-.57,1.27-.77.5-.58-1,.26.52,0-.56.07-7.26.39-14.51,1-21.76,1.55-1.7.12-3.4.26-5.11.29-1.17,0,.18.1-.46,0-.17,0-1-.11-.4-.08l-.3-.17c.31.27.31.26,0,0s-.3-.33-.14-.12.13.16-.09-.16c-.07-.14-.39-1.06-.17-.31-.08-.27-.14-.54-.21-.82-.13-.5-.1.77,0-.16,0,0,.15-1.08,0-.47A8.92,8.92,0,0,1,87,289.13a38,38,0,0,1,6.59-6.84c1-.83-.26.17.35-.28.38-.29.76-.56,1.15-.83.66-.47,1.34-.91,2-1.34a42.81,42.81,0,0,1,4.7-2.46c1.86-.83,2.31-3.55,1.35-5.18A3.88,3.88,0,0,0,98,270.84a43.52,43.52,0,0,0-17.17,14c-2.35,3.21-4,7.4-2.67,11.36,1.45,4.46,5.41,6.65,10,6.46,4.24-.17,8.47-.59,12.7-.89s8.74-.59,13.1-.94c2.5-.19,4.92-.77,6.42-3a7.56,7.56,0,0,0,.77-6,32.63,32.63,0,0,0-1.85-5.12,31.78,31.78,0,0,0-2.74-5.47,26,26,0,0,0-7.36-6.93,20.63,20.63,0,0,0-9.25-3.92c-2-.22-3.87,1.89-3.79,3.78a3.91,3.91,0,0,0,3.79,3.79Z" style="fill:#11a359"/><path d="M81.64,276.31A71.69,71.69,0,0,0,53.85,288c-1.12.79-.05,2.65,1.08,1.85a70.35,70.35,0,0,1,27.28-11.46c1.36-.25.78-2.32-.57-2.06Z" style="fill:#11a359"/><path d="M120.44,387.52c1.78-1,3.58-1.88,5.43-2.72,1.1-.49,1.07-.48,2.23-.94.94-.38,1.9-.74,2.85-1.07a78.91,78.91,0,0,1,11.58-3.13c.94-.18,1.87-.34,2.81-.49,1.22-.18,1.18-.18,2.39-.31,2-.23,4.07-.37,6.12-.44a79.45,79.45,0,0,1,12.24.54,4,4,0,0,0,3.91-3,4.29,4.29,0,0,0-1.86-4.58,37.81,37.81,0,0,0-52.79,8.26c-1.26,1.72-.34,4.61,1.46,5.55a4.17,4.17,0,0,0,5.55-1.45c.28-.38.3-.41,0-.09l.48-.59c.33-.39.66-.78,1-1.15.69-.75,1.42-1.47,2.18-2.15.38-.35.77-.67,1.17-1s.4-.32.08-.08l.62-.46c.84-.61,1.7-1.17,2.59-1.7s1.81-1,2.74-1.46c.13-.06,1.51-.67.82-.38.48-.2,1-.38,1.45-.56a34.19,34.19,0,0,1,5.87-1.51l.59-.09c-.4.06-.35.05.14,0s1.09-.1,1.64-.13c1.09-.06,2.19-.07,3.29,0,.54,0,1.09.06,1.64.11.14,0,1.69.19,1,.09,1.08.15,2.16.37,3.22.62s2.11.57,3.14.92c.52.18,1,.38,1.54.57l.16.07.74.34a33.57,33.57,0,0,1,5.56,3.31l2.05-7.56a83.46,83.46,0,0,0-49.74,9.67,4.08,4.08,0,0,0-1.46,5.54,4.14,4.14,0,0,0,5.55,1.46Z" style="fill:#11a359"/><path d="M115.06,218.73A32.76,32.76,0,0,1,144,228.36c1.64,1.78,3.11,4.27,2,6.39s-4.44,2.54-7,2.07c-6.32-1.14-12.26-4.87-18.64-4.1-3.6.43-7.28,2.27-10.65,1-3.69-1.38-6.11-6.62-3.73-9.63,1.62-2,6.2-2.8,9.1-5.37" style="fill:#15cc67"/><path d="M116.07,222.38s1.27-.18.51-.08l1.15-.12c.77-.06,1.54-.1,2.31-.1s1.55,0,2.31.06l.77.06c.14,0,1.59.18.91.09a31.78,31.78,0,0,1,4.51,1c.62.18,1.23.37,1.83.59.36.12.72.27,1.08.4s.47.19.16.05l.69.31a33.56,33.56,0,0,1,3.69,2,20.14,20.14,0,0,1,3.46,2.59A16.3,16.3,0,0,1,142,231.9a6.24,6.24,0,0,1,.6,1.07c-.22-.59.39.61,0-.05.35.6-.27.24.15-.09-.2.32-.22.36-.05.14s.14-.2-.11.07l.29-.22a4.68,4.68,0,0,1-.54.3c.79-.39-.16,0-.31,0-.91.29.66,0-.33.05-.34,0-.68,0-1,0-.12,0-1.25-.12-.35,0-.32,0-.64-.12-1-.18-.91-.19-1.82-.43-2.71-.69-3.3-1-6.49-2.33-9.87-3a22.52,22.52,0,0,0-5.17-.52,30.93,30.93,0,0,0-6.18,1c-.71.17-1.43.35-2.15.45.6-.08-.76.05-.69.05s-1.32,0-.66,0a5.18,5.18,0,0,1-1.23-.32c.86.31,0-.09-.19-.16-.8-.39.41.49-.22-.15l-.66-.67c-.65-.67.27.59-.16-.24-.08-.16-.66-1.35-.33-.48a9,9,0,0,1-.28-.88c0-.19-.09-.39-.12-.58.07.51.09.56.06.12,0-.18,0-.38,0-.57-.07.53-.07.59,0,.16s.11-.36-.07.12c.17-.3.65-.71,0-.16.77-.69-.34.08.26-.25,3-1.62,6.08-2.71,8.68-4.93a3.79,3.79,0,0,0-5.36-5.36c-.08.07-.56.42-.09.09l-.45.3c-.36.24-.73.45-1.11.66-.75.4-1.52.75-2.29,1.1a18.75,18.75,0,0,0-4.42,2.51c-2.9,2.39-3.41,6.62-2.06,10a11.15,11.15,0,0,0,9.37,7.22,20.51,20.51,0,0,0,6.77-.88,24.17,24.17,0,0,1,2.81-.59c-.42,0,.76,0,.91,0a15.44,15.44,0,0,1,1.67.06l.63.06c-.1,0-.41-.06,0,0s1,.18,1.44.29c1,.24,2.07.55,3.09.87,1.92.61,3.81,1.31,5.75,1.89,3.77,1.13,8.23,2,11.87,0,4.54-2.52,4.74-8.12,1.89-12a30.11,30.11,0,0,0-8.86-7.8,37.37,37.37,0,0,0-25.28-4.69c-2,.34-3.15,2.84-2.64,4.66.59,2.15,2.63,3,4.66,2.65Z" style="fill:#11a359"/><path d="M96.35,228.87c-4.82-5.76-9.9-11.73-17-14.76-9.27-4-20.43-2-29.21,2.87s-15.62,12.34-22,19.85c21.51-4.49,40.2-10.73,61.72-15.22" style="fill:#15cc67"/><path d="M99,226.19a71.63,71.63,0,0,0-11.8-11.87,31.05,31.05,0,0,0-16.29-6c-12-.93-23.25,4.59-32.18,12.12a117.47,117.47,0,0,0-13.29,13.75,3.82,3.82,0,0,0,3.69,6.33c16.07-3.37,31.8-8,47.73-12q7-1.74,14-3.22a3.79,3.79,0,1,0-2-7.31c-16.07,3.37-31.81,8.06-47.73,12-4.64,1.15-9.3,2.24-14,3.22l3.69,6.33c7-8.15,14.12-16,23.81-20.57a34.52,34.52,0,0,1,13.85-3.17,23.28,23.28,0,0,1,13.27,3.93c4.31,2.84,8.32,7.55,11.91,11.85,1.31,1.57,4,1.35,5.36,0a3.88,3.88,0,0,0,0-5.36Z" style="fill:#11a359"/><path d="M122.4,28.51c-.75-7.5-1.83-15.68-7.53-20.91-4.24-3.9-10.33-5.41-16.2-5.81-8.41-.57-17.46,1.09-23.53,6.64-1,.88-1.89,2.22-1.24,3.33A3.33,3.33,0,0,0,75.73,13L120.9,29.62" style="fill:#15cc67"/><path d="M124.09,28.51c-.74-7.25-1.73-15-6.7-20.74C112.23,1.84,103.8.13,96.29,0S80.65,1.62,74.68,6.61c-1.43,1.19-3,2.88-2.62,4.91.41,2.18,2.57,2.81,4.39,3.48L90,20l30.5,11.26c2,.75,2.91-2.5.9-3.25l-24-8.85L85.49,14.76l-6-2.23-2.8-1c-.17-.06-1.09-.3-1.19-.53s.13-.53.32-.77a13.73,13.73,0,0,1,3.93-3,23.61,23.61,0,0,1,4.33-2A34.42,34.42,0,0,1,94.09,3.39c6.51-.22,14.2.67,19.3,5.13,5.65,5,6.62,13,7.33,20,.22,2.13,3.59,2.16,3.37,0Z" style="fill:#11a359"/><path d="M119.07,25.54A45.92,45.92,0,0,0,91,6.9c-2.11-.45-3,2.79-.89,3.25a42.47,42.47,0,0,1,26.08,17.08c1.22,1.78,4.14.1,2.91-1.69Z" style="fill:#11a359"/></g></g></g></svg>