<svg xmlns="http://www.w3.org/2000/svg" viewBox="0 0 793.08 690.72"><g style="isolation:isolate"><g id="Camada_2" data-name="Camada 2"><g id="Camada_1-2" data-name="Camada 1"><g style="mix-blend-mode:multiply;opacity:0.4"><path d="M385.05,327.55,198.83,435.06c-70.67,40.8-70.78,106.89-.24,147.62s185,40.66,255.68-.14L640.49,475c70.68-40.81,70.78-106.9.25-147.62S455.72,286.74,385.05,327.55Z" style="fill:#4a98ff"/><polygon points="674.86 379.94 793.08 311.69 687.45 250.7 539.36 325.02 674.86 379.94" style="fill:#4a98ff"/><polygon points="459.71 554.29 589.06 628.62 729.36 546.97 598.77 472.05 459.71 554.29" style="fill:#4a98ff"/><polygon points="346.57 569.48 124.72 689.26 8.84 622 209.34 508.69 346.57 569.48" style="fill:#4a98ff"/></g><path d="M171.47,315.93l-27-141.36A15.37,15.37,0,0,1,149,160.49c21.29-20,50.21-37.06,89-50.41a7.21,7.21,0,0,1,9.43,5.31l35.89,169.84Z" style="fill:#ad5215"/><path d="M316.64,129.88c-.19-.36-.41-.73-.63-1.08a12.57,12.57,0,0,0-21,13.8l17.3,25c3.16-8.55,5.61-18.76,10.08-26.69Z" style="fill:#fed2bd"/><path d="M227.4,148.91s14.71-15.43,30.94-24.17c19.7-10.6,29.16-8.24,29.16-8.24,13-1.26,24.32-1.61,24.38,17.73s-4.2,79.88-16.38,135.33L189.61,303.44C203.14,241,189.17,190.82,227.4,148.91Z" style="fill:#fcf0cc"/><path d="M286,142.66l3.67-1.79v8s12.7,78.61,9.35,83.43-6.09-2.29-6.09-2.29l-5.44-81.14Z" style="fill:#e55e5e"/><path d="M153.31,220.77c17.89,7.43,41.51,21.81,66.82,38.26l10.21,77.22L169,293.33C161.84,264.5,155.09,236.6,153.31,220.77Z" style="fill:#8c3e09"/><path d="M304.88,62.91c17.8,12,19.1,17.12,14.83,49.19-3.06,23-29.35,16.25-29.35,16.25l-2.57,8.1c-4,11.8-32.2-.78-26.47-12.73,0,0,9.71-13.82,8.06-45.95C268.67,64,288.2,51.71,304.88,62.91Z" style="fill:#ffa17f"/><path d="M253.85,127.35c2.15-2.69,4.22-4.57,8.37-5.14,0,0,2.31,11.32,25.17,15.18,0,0,.61,5.19-1.06,7.58S256.53,142.92,253.85,127.35Z" style="fill:#ffd6c6"/><path d="M286,137.87l3.73-7.58s1.54,11.3.58,12.26S286,137.87,286,137.87Z" style="fill:#ffd6c6"/><path d="M313.47,88.94c-9,0-15.28-1.63-18.64,4.65s-1.95,10-5.09,9.08-2.82-13.11-8.16-13.57-1.32,8.75-4,9.38-10.86,11.62-10.86,11.62S259.4,63,282.25,58.55c24.3-4.69,39.5,12.57,39.5,12.57s14.41-2,10,8S313.47,88.94,313.47,88.94Z" style="fill:#d74a1b"/><path d="M780.42,285.49v24.94c0,8.16-10.14,12.6-10.4,6V288.8Z" style="fill:#5a6875"/><polygon points="769.58 168.52 763.38 170.3 769.42 176.44 769.58 168.52" style="fill:#e5b1a7"/><path d="M660.19,122.17l13.42-4a2,2,0,0,1,1.57.18L764.85,170a5.6,5.6,0,0,1,2.81,4.86V262.1a2,2,0,0,1-.88,1.65l-61.43,41.56a2,2,0,0,1-3-1l-37.46-113.1a1.8,1.8,0,0,1-.09-.45l-6-66.46A2,2,0,0,1,660.19,122.17Z" style="fill:#e46262"/><polygon points="788.45 160.68 767.66 171.62 657.54 108.04 677.04 95.81 788.45 160.68" style="fill:#e5b1a7"/><polygon points="601.26 62.3 575.98 113.36 597.57 137.5 622.54 85.59 601.26 62.3" style="fill:#b6bac5"/><path d="M612.77,56.54C646.41,56.92,689.05,83,703,117.9s32.44,88.48,16.78,115.62-42.22,28.4-78.47,2.75c-20.91-14.79-20.05-27.63-20.05-27.63S579.62,56.17,612.77,56.54Z" style="fill:#f2faff"/><path d="M626.92,99.26s6.31-1.33,5.6.82-2.77,8.91-2.77,8.91,2.75,58.46,4.38,64.68-8,3.32-8,3.32l.71-67.35Z" style="fill:#e46262"/><path d="M720,233.52c-7.38,12.8-17.18,19.84-29.28,21-16.55-17.9-32.48-57.4-41.29-90.34-4.55-17-7.2-32.28-7.06-41.91a135.71,135.71,0,0,1,6.33-37.94,148,148,0,0,1,6.21-16.5C676.29,78.78,695.69,96.4,704,117.08,717.92,152,735.61,206.38,720,233.52Z" style="fill:#89909b"/><path d="M622.54,81.1S607.42,116,607.93,118s4.86,3.65,4.86,4.58-4.72,2.73-5.56,3.81,6.51,41,6.51,41l4.6-2.79c1.2,18.31,2.88,37.6,4.22,52-2.56-4.7-2.74-7.64-2.74-7.64-2.59.28-41.93-120.86-14.75-149.07a18.39,18.39,0,0,1,5.54-4,73,73,0,0,1,11,.88,100.76,100.76,0,0,1,20.15,5.32,85.39,85.39,0,0,0-14.84,20Z" style="fill:#89909b"/><path d="M651.32,123.25c-.57,1.25-7.33,2.67-7.33,2.67s6.4,3,6.89,4.49c.3.89-1.15,17.81-1.5,33.79-4.55-17-7.2-32.28-7.06-41.91a135.71,135.71,0,0,1,6.33-37.94C649.56,102.05,651.81,122.2,651.32,123.25Z" style="fill:#b6bac5"/><path d="M618.34,164.64l-4.6,2.79s-7.35-39.93-6.51-41,5.54-2.89,5.56-3.81-4.35-2.57-4.86-4.58S622.54,81.1,622.54,81.1L627,82.16a88.27,88.27,0,0,0-10.18,40.16C616.56,132.92,617.26,148.4,618.34,164.64Z" style="fill:#b6bac5"/><path d="M662,101.35,650.75,135.8l30.16,14.68L691.65,109C693.12,89.34,663.81,88.8,662,101.35Z" style="fill:#b6bac5"/><path d="M663.81,267.65l-23.57-13.86,101.9-58.67a3.6,3.6,0,0,1,3.59,0l21.93,12.57Z" style="fill:#e5b1a7"/><polygon points="667.64 364.86 664.02 373.78 642.46 361.2 640.24 253.79 673.69 267.65 667.64 364.86" style="fill:#dbbcb4"/><path d="M789.31,162.15V298.43a6.22,6.22,0,0,1-3.13,5.4l-120,68.7a1.47,1.47,0,0,1-2.19-1.27l-.2-102.77a1.47,1.47,0,0,1,.74-1.27l102.38-59.11a1.46,1.46,0,0,0,.73-1.27V174.23a4.5,4.5,0,0,1,2.28-3.91l16.86-9.62A1.67,1.67,0,0,1,789.31,162.15Z" style="fill:#e46262"/><path d="M607.89,89.1c13.86,5,39.58-7.3,39.58-55.16,0-38.4-50.68-23.76-54.05-1.06S596.46,85,607.89,89.1Z" style="fill:#b75716"/><path d="M647.08,53.17l4.8,19.4c3,13.52-19.78,29.43-25.07,21.67L613.74,69.93Z" style="fill:#b75716"/><path d="M590.12,43.78a10,10,0,0,1,5.42,3.7s3.68,5.3,15.3,2.09c12.54-3.46,12.9-6,12.9-6s-2.17,12,3.55,12,6.81-13.71,11.5-12.19c5.22,1-2.82,24.28,10.28,17.86,1.09-.53,15.93-52-10.48-59.12A65,65,0,0,0,629.16.29,45.35,45.35,0,0,0,583.79,25c-.11.21-.21.4-.3.59C580.83,30.61,581.91,41.65,590.12,43.78Z" style="fill:#1c2122"/><path d="M648.26,85.6a35.86,35.86,0,0,0,1.09-23.28s3.14-1,8.19,6.71C660.51,73.54,648.26,85.6,648.26,85.6Z" style="fill:#b6bac5"/><path d="M268.82,546.67c1.68,15.46,4,21.32,11.69,21.32s30.72-16.76,33.88-19.31,6.75-10.46,0-14.68S290,537.06,290,537.06Z" style="fill:#66301a"/><path d="M247.36,495.55c2.65.06,10.69,33.83,19.9,53.49,4.13,8.44,29-6,26-15l-23.85-86.48Z" style="fill:#8ba1b5"/><polygon points="249.8 517.41 259.53 507.7 172.65 455.04 80.06 508.49 156.09 572.1 249.8 517.41" style="fill:#2ebf69;stroke:#11a359;stroke-miterlimit:10"/><path d="M168,573l16.21,2.6,73.3-41.94a5.87,5.87,0,0,0,3-5.09V509.46a2.17,2.17,0,0,0-3.24-1.88L162.32,562Z" style="fill:#2ebf69;stroke:#11a359;stroke-miterlimit:10"/><path d="M235,457.69S224.21,422,213.36,422s-69.15,31.69-69.15,31.69l18.17,34.47Z" style="fill:#8196a8"/><path d="M59.47,442.28l-2.34,45.61s80.56,55.72,96.61,59.08,89.17-51.51,93.62-51.42l22.05-48c-16.26-9.21-64.47,13.56-100.08,30.71l-9.44-19.11Z" style="fill:#8ba1b5"/><path d="M165.25,499c8.44-8-1.38-72.84-5.13-108.64,0,0-51.22-90-62.08-87.91s-16.81,12.15-25.91,38.25-9.27,35.46-9.27,35.46l-3.39,95.94C92.16,501.23,125.44,531.19,165.25,499Z" style="fill:#dc6d2c"/><path d="M3.32,615.05l103.5-205.83a9,9,0,0,1,16.08,8.08L19.4,623.14C14.85,630.72-5.74,632.44,3.32,615.05Z" style="fill:#e46262"/><path d="M22.71,452s-9-2.46-9-6c0-1.07,0-2.25,0-2.25l19-9.4Z" style="fill:#c85151"/><path d="M22.71,449.42s-15.18-4.28-6.14-9.49a141.51,141.51,0,0,1,16.14-8.19Z" style="fill:#e46262"/><path d="M2.25,369,32.48,351.7a9,9,0,0,1,8.86,0l86.17,49A23.91,23.91,0,0,1,138.67,415l45.51,160.59-30.87,18.19L94.53,429.88l-93.86-58Z" style="fill:#2ebf69;stroke:#11a359;stroke-miterlimit:10"/><path d="M8.84,368.15,96.21,418.6a25.35,25.35,0,0,1,11.72,15l45.38,160.1-108-62.37L.79,374.42A5.51,5.51,0,0,1,8.84,368.15Z" style="fill:#56d88d;stroke:#11a359;stroke-miterlimit:10"/><path d="M268.2,599.06l-72.68-80.18a9,9,0,1,1,13.34-12.09L281.54,587C292.32,598.52,272.9,603.71,268.2,599.06Z" style="fill:#c85151"/><path d="M112.46,678.2l81.69-169.41,18.38-36.56a9,9,0,0,1,12.08-4c4.44,2.24,10.64-.62,8.41,3.82l-22.76,44.76L128.67,686C125.61,692.26,103,694.58,112.46,678.2Z" style="fill:#e46262"/><path d="M243.84,458.67h0a8.89,8.89,0,0,1,.16,15.22l-63.25,38.57c-12.35,7.4-36.07,7.47-50.73-.89l-1.21-4.28L220,458.54A23.74,23.74,0,0,1,243.84,458.67Z" style="fill:#c85151"/><path d="M243.24,455.36h0a8.88,8.88,0,0,1,.15,15.21l-58.84,36.05a54.41,54.41,0,0,1-55.74.67h0l90.56-52.06A23.75,23.75,0,0,1,243.24,455.36Z" style="fill:#e46262"/><path d="M390.59,605.7l-8.94-167,11.08-.39L401,604.51C401.44,608.35,391.32,610.71,390.59,605.7Z" style="fill:#768799"/><path d="M376.59,172.47,190.37,280c-70.67,40.8-70.78,106.89-.24,147.62s185,40.66,255.69-.14L632,320c70.67-40.81,70.78-106.9.24-147.62S447.27,131.67,376.59,172.47Z" style="fill:#89909b"/><path d="M375.28,164.87,189.06,272.39c-70.67,40.8-70.78,106.89-.24,147.62s185,40.66,255.68-.14L630.72,312.35c70.68-40.8,70.78-106.89.24-147.62S446,124.07,375.28,164.87Z" style="fill:#eef3ff"/><path d="M309.93,400.33l-11.11-9.42c-.72-.61-.45-1.44.61-1.86L326,378.61a3.49,3.49,0,0,1,3.22.35l11.11,9.42c.72.61.45,1.45-.61,1.86l-26.56,10.45A3.52,3.52,0,0,1,309.93,400.33Z" style="fill:#3d7ab8"/><polygon points="338.48 389.31 340.72 389.19 340.72 386.77 339.42 386.77 338.48 389.31" style="fill:#3d7ab8"/><polygon points="300.65 390.31 298.42 390.18 298.42 387.77 299.71 387.77 300.65 390.31" style="fill:#3d7ab8"/><path d="M309.93,397.93l-11.11-9.42c-.72-.61-.45-1.44.61-1.86L326,376.21a3.49,3.49,0,0,1,3.22.35L340.32,386c.72.61.45,1.45-.61,1.86l-26.56,10.45A3.52,3.52,0,0,1,309.93,397.93Z" style="fill:#4f96dc"/><polygon points="313.59 397.06 301.59 386.89 325.79 377.37 337.79 387.54 313.59 397.06" style="fill:#95c2f0"/><polygon points="472.43 208.97 451.25 186.41 451.25 181.45 502.8 170.28 523.98 192.84 472.43 208.97" style="fill:#4980b8"/><polygon points="472.86 207.93 452.26 185.98 452.26 181.16 502.4 170.3 523 187.42 523 192.24 472.86 207.93" style="fill:#f5d0be"/><polygon points="472.43 204.01 451.25 181.45 502.8 165.32 523.98 187.89 472.43 204.01" style="fill:#4980b8"/><polygon points="466.21 323.3 429.02 301.71 477.99 272.7 515.62 294.29 466.21 323.3" style="fill:#2380dc"/><polygon points="466.01 322.01 431 301.8 431 298.39 513.49 291.2 513.49 294.61 466.01 322.01" style="fill:#ffbd90"/><path d="M466,318.6l-35-20.21c5.94-6.36,16.69-10.29,28.16-13.86,3.18-6.35,10.7-10.26,19.31-13.55l35,20.22c-8.83,2.88-16.46,8.19-23.31,15.08C480.49,310.58,468.49,315.14,466,318.6Z" style="fill:#fff2e2"/><path d="M486.57,300a.45.45,0,0,1-.31-.11.5.5,0,0,1-.08-.7c6.52-8,17.35-11.61,17.46-11.64a.49.49,0,0,1,.63.32.51.51,0,0,1-.32.63c-.11,0-10.67,3.52-17,11.32A.5.5,0,0,1,486.57,300Z" style="fill:#ffbd90"/><path d="M481.84,297a.46.46,0,0,1-.32-.11.49.49,0,0,1-.07-.7c6.51-8,17.34-11.61,17.45-11.64a.49.49,0,0,1,.63.32.5.5,0,0,1-.32.63c-.11,0-10.66,3.52-17,11.32A.48.48,0,0,1,481.84,297Z" style="fill:#ffbd90"/><path d="M471.38,291.82a.54.54,0,0,1-.32-.11.5.5,0,0,1-.07-.7,31.64,31.64,0,0,1,5.69-5.39.5.5,0,1,1,.6.8,30.68,30.68,0,0,0-5.51,5.22A.51.51,0,0,1,471.38,291.82Z" style="fill:#ffbd90"/><path d="M487.62,286.94a.5.5,0,0,1-.25-.93,44.55,44.55,0,0,1,7.66-3.56.5.5,0,0,1,.31.95,45,45,0,0,0-7.47,3.47A.47.47,0,0,1,487.62,286.94Z" style="fill:#ffbd90"/><path d="M467.76,289.17a.52.52,0,0,1-.32-.11.51.51,0,0,1-.07-.71c6.51-8,17.34-11.6,17.45-11.64a.5.5,0,0,1,.63.32.49.49,0,0,1-.32.63c-.11,0-10.66,3.53-17,11.32A.46.46,0,0,1,467.76,289.17Z" style="fill:#ffbd90"/><path d="M462.78,285.91a.5.5,0,0,1-.39-.82c6.52-8,17.35-11.6,17.46-11.64a.5.5,0,0,1,.63.33.49.49,0,0,1-.32.62c-.11,0-10.67,3.53-17,11.32A.48.48,0,0,1,462.78,285.91Z" style="fill:#ffbd90"/><path d="M464.45,313.54a.46.46,0,0,1-.36-.16.5.5,0,0,1,0-.71c7.38-6.8,19.18-9.67,19.68-9.79a.5.5,0,1,1,.23,1c-.12,0-12,2.94-19.23,9.56A.48.48,0,0,1,464.45,313.54Z" style="fill:#ffbd90"/><path d="M457.34,309.58a.49.49,0,0,1-.37-.16.5.5,0,0,1,0-.71c7.38-6.8,19.18-9.67,19.67-9.79a.5.5,0,0,1,.61.37.5.5,0,0,1-.37.6c-.12,0-12.05,2.94-19.23,9.56A.5.5,0,0,1,457.34,309.58Z" style="fill:#ffbd90"/><path d="M454.52,307.9a.49.49,0,0,1-.37-.16.5.5,0,0,1,0-.71c7.38-6.79,19.18-9.67,19.67-9.79a.5.5,0,1,1,.24,1c-.12,0-12,2.94-19.23,9.56A.5.5,0,0,1,454.52,307.9Z" style="fill:#ffbd90"/><path d="M444.4,301a.49.49,0,0,1-.4-.21.51.51,0,0,1,.1-.7,18.77,18.77,0,0,1,5-2.8.49.49,0,0,1,.64.3.5.5,0,0,1-.3.64,17.75,17.75,0,0,0-4.77,2.67A.54.54,0,0,1,444.4,301Z" style="fill:#ffbd90"/><path d="M453.24,296.4a.52.52,0,0,1-.45-.28.5.5,0,0,1,.23-.67,59,59,0,0,1,11.32-4.23.5.5,0,1,1,.23,1,59.6,59.6,0,0,0-11.11,4.15A.43.43,0,0,1,453.24,296.4Z" style="fill:#ffbd90"/><path d="M439.35,297.92a.5.5,0,0,1-.3-.9c4-2.93,9.2-5.53,12.7-6.31a.5.5,0,1,1,.21,1c-3.37.76-8.44,3.28-12.32,6.14A.46.46,0,0,1,439.35,297.92Z" style="fill:#ffbd90"/><path d="M308.74,294.16a1,1,0,0,1-.74-.33L290.18,274.4l.06-1.42,1.41.06,17.83,19.44a1,1,0,0,1-.06,1.42A1.05,1.05,0,0,1,308.74,294.16Z" style="fill:#4a555e"/><path d="M511,285.33l-.16,0L488,280.83l-.67-1,1-.67,22.79,4.49a.84.84,0,0,1-.16,1.67Z" style="fill:#876764"/><path d="M257.26,371.2l-34.39-19.86a1.35,1.35,0,0,1-.7-1.2v-1.38l49.22-27.85a3.33,3.33,0,0,1,3.32,0l35.53,19.73s0,1.11,0,1.57a1.4,1.4,0,0,1-.7,1.23L261.45,371.2A4.18,4.18,0,0,1,257.26,371.2Z" style="fill:#81645e"/><path d="M257.26,369.8l-34.39-19.86a1.39,1.39,0,0,1,0-2.41l48.52-28a3.33,3.33,0,0,1,3.32,0l34.83,20.11a1.4,1.4,0,0,1,0,2.42L261.45,369.8A4.18,4.18,0,0,1,257.26,369.8Z" style="fill:#3a2824"/><polygon points="223.81 348.74 273.05 320.31 308.6 340.83 259.36 369.26 223.81 348.74" style="fill:#eee0e0"/><path d="M296.34,339.06l-20.23-11.68c-.48-.27-.48-.71,0-1L282,323a1.87,1.87,0,0,1,1.72,0L304,334.67a.52.52,0,0,1,0,1l-5.89,3.4A1.87,1.87,0,0,1,296.34,339.06Zm-17.65-12.17,18.51,10.68,4.18-2.41-18.52-10.68Z" style="fill:#947d77"/><path d="M238.44,347.1l-1.17-.68a.52.52,0,0,1,0-1,1.93,1.93,0,0,1,1.72,0l1.17.67a.53.53,0,0,1,0,1A1.93,1.93,0,0,1,238.44,347.1Z" style="fill:#947d77"/><path d="M243.5,344.18l-1.17-.68a.52.52,0,0,1,0-1,1.93,1.93,0,0,1,1.72,0l1.16.67a.53.53,0,0,1,0,1A1.91,1.91,0,0,1,243.5,344.18Z" style="fill:#947d77"/><path d="M248.55,341.26l-1.16-.68a.52.52,0,0,1,0-1,1.93,1.93,0,0,1,1.72,0l1.16.67a.53.53,0,0,1,0,1A1.93,1.93,0,0,1,248.55,341.26Z" style="fill:#947d77"/><path d="M258.67,335.42l-1.17-.68a.52.52,0,0,1,0-1,1.87,1.87,0,0,1,1.72,0l1.17.67a.53.53,0,0,1,0,1A1.93,1.93,0,0,1,258.67,335.42Z" style="fill:#947d77"/><path d="M263.73,332.5l-1.17-.68a.52.52,0,0,1,0-1,1.87,1.87,0,0,1,1.72,0l1.17.67a.53.53,0,0,1,0,1A1.93,1.93,0,0,1,263.73,332.5Z" style="fill:#947d77"/><path d="M268.78,329.57l-1.16-.67a.52.52,0,0,1,0-1,1.87,1.87,0,0,1,1.72,0l1.16.67c.48.28.48.72,0,1A1.87,1.87,0,0,1,268.78,329.57Z" style="fill:#947d77"/><path d="M263.07,361.32l-21.56-12.45a.52.52,0,0,1,0-1,1.87,1.87,0,0,1,1.72,0l21.56,12.45a.52.52,0,0,1,0,1A1.93,1.93,0,0,1,263.07,361.32Z" style="fill:#947d77"/><path d="M266.2,357.29,246.57,346a.52.52,0,0,1,0-1,1.87,1.87,0,0,1,1.72,0l19.63,11.33a.53.53,0,0,1,0,1A1.93,1.93,0,0,1,266.2,357.29Z" style="fill:#947d77"/><path d="M273.19,355.48,251.62,343a.52.52,0,0,1,0-1,1.87,1.87,0,0,1,1.72,0l21.57,12.45a.52.52,0,0,1,0,1A1.93,1.93,0,0,1,273.19,355.48Z" style="fill:#947d77"/><path d="M279.36,347.36l-17.62-10.17c-.47-.28-.47-.72,0-1a1.87,1.87,0,0,1,1.72,0l17.62,10.17a.52.52,0,0,1,0,1A1.93,1.93,0,0,1,279.36,347.36Z" style="fill:#947d77"/><path d="M288.36,346.72,266.8,334.27c-.48-.28-.48-.72,0-1a1.87,1.87,0,0,1,1.72,0l21.56,12.45c.48.27.48.71,0,1A1.93,1.93,0,0,1,288.36,346.72Z" style="fill:#947d77"/><path d="M293.42,343.8l-21.56-12.45c-.48-.28-.48-.72,0-1a1.87,1.87,0,0,1,1.72,0l21.56,12.45c.48.27.48.71,0,1A1.93,1.93,0,0,1,293.42,343.8Z" style="fill:#947d77"/><polygon points="284 246.65 331.73 235.92 356.63 272.84 308.89 283.57 284 246.65" style="fill:#fff2e2"/><path d="M299.48,257.71l33.81-7.6c1.39-.31,3,.09,3.51.9l4.59,6.8c.54.81-.15,1.71-1.55,2L306,267.44c-1.39.31-3-.09-3.5-.89l-4.59-6.81C297.39,258.93,298.08,258,299.48,257.71Z" style="fill:#e6a4a5"/><path d="M310.15,277.29l37.13-8.35a1.55,1.55,0,0,1,1.5.38h0c.23.35-.07.73-.66.87L311,278.53a1.49,1.49,0,0,1-1.49-.38h0C309.27,277.81,309.56,277.42,310.15,277.29Z" style="fill:#e6a4a5"/><path d="M337.78,263.35l5-1.12a1.53,1.53,0,0,1,1.49.38h0c.23.34-.06.73-.66.86l-5,1.12a1.49,1.49,0,0,1-1.49-.38h0C336.89,263.87,337.19,263.48,337.78,263.35Z" style="fill:#e6a4a5"/><path d="M317.13,271.86l6.47-1.46a1.55,1.55,0,0,1,1.5.38h0c.23.34-.07.73-.66.86L318,273.1a1.53,1.53,0,0,1-1.49-.38h0C316.24,272.38,316.54,272,317.13,271.86Z" style="fill:#e6a4a5"/><path d="M330.77,268.79l14.25-3.2a1.49,1.49,0,0,1,1.49.38h0c.23.34-.06.73-.65.86L331.6,270a1.49,1.49,0,0,1-1.49-.38h0C329.88,269.31,330.17,268.93,330.77,268.79Z" style="fill:#e6a4a5"/><path d="M317.06,268l14.26-3.21a1.53,1.53,0,0,1,1.49.38h0c.23.34-.06.73-.65.87l-14.26,3.2a1.53,1.53,0,0,1-1.49-.38h0C316.18,268.53,316.47,268.14,317.06,268Z" style="fill:#e6a4a5"/><path d="M294.66,254l36.71-8.25a1.53,1.53,0,0,1,1.49.38h0c.23.34-.06.73-.65.86l-36.71,8.25a1.5,1.5,0,0,1-1.5-.38h0C293.77,254.47,294.07,254.08,294.66,254Z" style="fill:#e6a4a5"/><path d="M297.76,249.45l31.38-7a1.51,1.51,0,0,1,1.5.38h0c.23.34-.07.73-.66.86l-31.38,7.05a1.51,1.51,0,0,1-1.5-.38h0C296.87,250,297.17,249.58,297.76,249.45Z" style="fill:#e6a4a5"/><polygon points="295.13 245.06 330.04 223.41 380.26 250.41 345.36 272.06 295.13 245.06" style="fill:#ffe3c6"/><path d="M304.58,246.28l9.25-5.73a1.8,1.8,0,0,1,1.63,0h0c.47.26.5.68.06,1l-9.25,5.73a1.8,1.8,0,0,1-1.63,0h0C304.17,247,304.14,246.55,304.58,246.28Z" style="fill:#e6a4a5"/><path d="M333.63,260.56,358.69,245a4.48,4.48,0,0,1,4.05-.09l6.63,3.57c1.16.62,1.22,1.67.15,2.33l-25.07,15.54a4.46,4.46,0,0,1-4,.09l-6.63-3.57C332.62,262.27,332.56,261.22,333.63,260.56Z" style="fill:#e6a4a5"/><path d="M326.67,251.09l9.25-5.73a1.8,1.8,0,0,1,1.63,0h0c.47.25.5.68.06,1L328.36,252a1.8,1.8,0,0,1-1.63,0h0C326.26,251.79,326.23,251.36,326.67,251.09Z" style="fill:#e6a4a5"/><path d="M324.59,247.15l6-3.69a1.8,1.8,0,0,1,1.63,0h0c.47.25.49.67.06.94l-6,3.69a1.77,1.77,0,0,1-1.63,0h0C324.18,247.84,324.15,247.42,324.59,247.15Z" style="fill:#e6a4a5"/><path d="M325.38,257.47l27.39-17a1.8,1.8,0,0,1,1.63,0h0c.47.25.49.67.06.94l-27.39,17a1.8,1.8,0,0,1-1.63,0h0C325,258.16,324.94,257.74,325.38,257.47Z" style="fill:#e6a4a5"/><path d="M310.76,249.61l27.39-17a1.82,1.82,0,0,1,1.64,0h0c.46.25.49.68,0,.94l-27.39,17a1.8,1.8,0,0,1-1.63,0h0C310.35,250.3,310.33,249.88,310.76,249.61Z" style="fill:#e6a4a5"/><path d="M340.3,242.64l7.66-4.75a1.83,1.83,0,0,1,1.63,0h0c.46.25.49.67.06.94L342,243.55a1.8,1.8,0,0,1-1.63,0h0C339.89,243.33,339.86,242.91,340.3,242.64Z" style="fill:#e6a4a5"/><path d="M334.18,241.2l9.26-5.73a1.8,1.8,0,0,1,1.63,0h0c.47.25.49.67.06.94l-9.26,5.74a1.77,1.77,0,0,1-1.63,0h0C333.77,241.89,333.75,241.47,334.18,241.2Z" style="fill:#e6a4a5"/><polygon points="314.64 241.79 338.98 215.77 399.36 234.6 375.02 260.62 314.64 241.79" style="fill:#fff2e2"/><path d="M369.89,239.18l6.24-6.67a4.16,4.16,0,0,1,3.89-.67l8,2.49c1.39.43,1.91,1.43,1.15,2.24l-6.24,6.67a4.14,4.14,0,0,1-3.88.67l-8-2.49C369.66,241,369.14,240,369.89,239.18Z" style="fill:#e6a4a5"/><path d="M333.35,243.4l8.66-9.26a3.89,3.89,0,0,1,3.67-.63l13.62,4.25c1.32.41,1.81,1.36,1.1,2.12l-8.66,9.26a3.92,3.92,0,0,1-3.68.63l-13.62-4.25C333.13,245.11,332.64,244.16,333.35,243.4Z" style="fill:#e6a4a5"/><path d="M368.82,255.48l8.76-9.35a1.62,1.62,0,0,1,1.56-.27h0c.56.17.77.58.47.9l-8.76,9.36a1.67,1.67,0,0,1-1.56.27h0C368.73,256.21,368.52,255.81,368.82,255.48Z" style="fill:#e6a4a5"/><path d="M364.06,245.41l2.54-2.71a1.67,1.67,0,0,1,1.56-.27h0c.56.18.77.58.47.91l-2.54,2.71a1.67,1.67,0,0,1-1.56.27h0C364,246.14,363.76,245.74,364.06,245.41Z" style="fill:#e6a4a5"/><path d="M357.84,252.06l3.3-3.53a1.67,1.67,0,0,1,1.57-.26h0c.56.17.77.57.47.9l-3.3,3.52a1.65,1.65,0,0,1-1.57.27h0C357.75,252.79,357.54,252.38,357.84,252.06Z" style="fill:#e6a4a5"/><path d="M364.82,252.19l7.27-7.77a1.62,1.62,0,0,1,1.56-.27h0c.56.17.77.58.47.9l-7.27,7.77a1.67,1.67,0,0,1-1.56.27h0C364.72,252.91,364.51,252.51,364.82,252.19Z" style="fill:#e6a4a5"/><path d="M361.61,235.77l6.46-6.9a1.67,1.67,0,0,1,1.56-.27h0c.56.18.77.58.47.91l-6.45,6.9a1.67,1.67,0,0,1-1.57.26h0C361.52,236.5,361.31,236.1,361.61,235.77Z" style="fill:#e6a4a5"/><path d="M347.62,228.23l4.15-4.44a1.67,1.67,0,0,1,1.56-.27h0c.57.18.77.58.47.91l-4.15,4.43a1.62,1.62,0,0,1-1.56.27h0C347.53,229,347.32,228.55,347.62,228.23Z" style="fill:#e6a4a5"/><path d="M325.23,241.89l19.11-20.42a1.67,1.67,0,0,1,1.56-.27h0c.56.18.77.58.47.91l-19.1,20.41a1.65,1.65,0,0,1-1.57.27h0C325.14,242.62,324.93,242.22,325.23,241.89Z" style="fill:#e6a4a5"/><path d="M357.29,232.89l5.34-5.71a1.67,1.67,0,0,1,1.57-.27h0c.56.18.77.58.47.9l-5.34,5.71a1.65,1.65,0,0,1-1.57.27h0C357.2,233.62,357,233.21,357.29,232.89Z" style="fill:#e6a4a5"/><path d="M350.75,232.38l6.45-6.89a1.64,1.64,0,0,1,1.57-.27h0c.56.17.77.58.46.9l-6.45,6.9a1.67,1.67,0,0,1-1.56.27h0C350.66,233.11,350.45,232.71,350.75,232.38Z" style="fill:#e6a4a5"/><path d="M203,337.38s20.78-14.64,26.51-13.63,12.36,2.26,11.67,4.84-24.28,13.49-27.65,14.71S203,337.38,203,337.38Z" style="fill:#ffa17f"/><path d="M205.17,347.36c11.83-4.75,9.92-14.9.77-13.74l-52.63,6.29,10.31,21.2Z" style="fill:#eaa875"/><polygon points="172.64 382.96 153.31 436.63 134.38 403.01 94.53 366.54 94.53 329.82 98.04 302.4 135.98 313.95 171.98 340.4 172.64 382.96" style="fill:#dc6d2c"/><path d="M264.1,370s20.22-18.55,25.95-17.54,14.16,5.68,13.46,8.26-25.52,14-28.89,15.2S264.1,370,264.1,370Z" style="fill:#ffa17f"/><path d="M173.61,341.16l52.59,40.67,38-14.26c6.13-3.17,11.92,5.74,10.36,10.07-1.94,5.32-42.35,41-50.51,41s-60.77-41.25-60.77-41.25C138.14,358.05,157.21,332.32,173.61,341.16Z" style="fill:#eaa875"/><path d="M134.48,238.19c28-9.4,41.79,16.11,42.09,30.5s-.46,42.23-11,43.32a21.69,21.69,0,0,1-11.77-2.55s-3.07,13.48-8.83,15.28-33.11-5.18-31.22-12.89C119.48,302.77,109.4,246.61,134.48,238.19Z" style="fill:#ffa17f"/><path d="M109.91,310.92s2.18-7,4.68-7.48,36,14.39,36.53,16.87,2,4.82,2.19,7.32-36.06,2.07-42.31-7.32S109.91,310.92,109.91,310.92Z" style="fill:#dc6d2c"/><path d="M116.28,285s11.08,9.07,19.7,6.37,17.33-11.06,17.33-11.06-2.31-9.11,3.59-10.7,4.61,13.22,8.86,11.5,6.07-13.93,6.07-13.93,4-.8,6.9-11.13-4.36-22.9-10.11-21.79-4.61-2.07-11.75-3.91-41.93,5.19-41.23,26.73C116.26,276.1,116.28,285,116.28,285Z" style="fill:#d74618"/><path d="M353.47,200.43l-31.09-59.56c-4.47,7.93-7.34,17.48-10.5,26l26.8,42.22a8.59,8.59,0,0,0,14.79-8.68Z" style="fill:#fed2bd"/><path d="M291.15,160.22l-19.27,44.55-22.54-44.55c-11.8-25.43-31.57-9.24-27.24,3.5,0,0,35.17,92.59,52.11,94.14s32.67-88.74,32.67-88.74C306.88,160.21,294.89,154.53,291.15,160.22Z" style="fill:#fed2bd"/><path d="M327.94,152.38l11.86,57.17c1.66,7.72,22.1,6.93,18.93-8.8-9.76-24.48-19.62-49.55-27.39-61C328.44,135.52,326,144.75,327.94,152.38Z" style="fill:#fed2bd"/><path d="M304,167.48c11.26-9.57,23.3-10.23,24.73-12.34s-4.94-5.4-10-8.36c-14.07,1.78-16.81,4.58-25.28,13.2C290.45,167.48,298.33,169.92,304,167.48Z" style="fill:#ffa17f"/><path d="M329.28,138.7c-14.59-.5-31.3,10.41-32.16,13.07s6.73,9,11.15,6.87,10.26-6.25,17.61-7.34S332.69,139.54,329.28,138.7Z" style="fill:#ffa17f"/><path d="M568.61,196.8s24.81-8.5,28.41-5.54,5.17,8.49,5.17,8.49-13.89,13.71-24.45,13.82S558.91,200.5,568.61,196.8Z" style="fill:#b75716"/><path d="M642.83,163.46,595,188.16c-7.86,3-.93,18.2,7,14.94,0,0,57.53-11,64.15-15.81s14.74-36.81,14.74-36.81L650.75,135.8Z" style="fill:#b6bac5"/><path d="M570.32,125.59c-4.69-2.4-24.72-18.59-32.9-17-3-1.11-7.51,9.35-2.47,14.25,14.79,13,39.11,48,55.51,29.47l7.11-14.77L576,113.36Z" style="fill:#b6bac5"/><path d="M526,92.3c6,2.38,16.34,13,16.47,17.67s-1.4,9.25-3.59,10.63-10.84-4.12-19.54-10.41S510.84,86.63,526,92.3Z" style="fill:#b75716"/><polygon points="721.01 545.64 710.38 551.78 710.38 446.62 721.01 446.62 721.01 545.64" style="fill:#9e5959"/><polygon points="699.75 545.64 710.38 551.78 710.38 446.62 699.75 446.62 699.75 545.64" style="fill:#9e5959"/><polygon points="489.28 566.27 478.65 560.13 478.65 482.31 489.28 482.31 489.28 566.27" style="fill:#9e5959"/><polygon points="489.28 566.27 499.9 560.13 499.9 482.31 489.28 482.31 489.28 566.27" style="fill:#9e5959"/><polygon points="590.84 621.94 580.21 615.81 580.21 517.02 590.84 517.02 590.84 621.94" style="fill:#9e5959"/><polygon points="590.84 621.94 601.47 615.81 601.47 517.02 590.84 517.02 590.84 621.94" style="fill:#9e5959"/><path d="M583.17,387.71,707,537.87l30.46-17.4.21-100.16a14.58,14.58,0,0,0-7.3-12.66L614.22,340.54l-30.87,17.82Z" style="fill:#edbf7e"/><path d="M474.52,521.43c1.15,7,1,20.48-1.15,22.58-8,8-58.21-19.62-47.2-26.79s23.74-7.31,23.74-7.31C462.26,509.14,473.38,514.47,474.52,521.43Z" style="fill:#124e88"/><path d="M509.73,409.05c7.25-14.95,19.64-15.6,32.1-13.06S665.07,440.7,665.07,440.7l-7.9,26.73-26.76,18.26-147.18-3.38S502.48,424,509.73,409.05Z" style="fill:#55a9ff"/><path d="M630.41,485.69,591.89,512l-103.4-49.2S477.38,489.34,470.9,517c-2.76,12.79-24.11,5-22.89-6.45,0,0,15.29-76.07,23.44-88.95s16-16,29.51-13.83S630.41,485.69,630.41,485.69Z" style="fill:#64b1ff"/><path d="M536.66,310.65s-20.93-3.94-21.57-11.31-1-7.42,0-11.08S538.47,296.63,541,300,536.66,310.65,536.66,310.65Z" style="fill:#ffa17f"/><path d="M540.27,298.3l44.57,11.83,46.5-27.71,8.49,30.1-56.71,20.86-48.19-21.7C530.74,309.23,534.93,296.92,540.27,298.3Z" style="fill:#ffae9e"/><path d="M549.28,336.25c14.39-18,28.71-34.77,42.6-43.88,15.72-5,36.94,2.8,45.91,3.2,14.3,31.63,22.29,55.09,35.31,94.58l6.35,77.65c-27.24,40.06-67.16,48.27-120.73,22.17,0,0,22.63-65.24,21.49-72.49C564.46,403.37,549.28,336.25,549.28,336.25Z" style="fill:#ff866b"/><path d="M501.26,334.23l15.58,2.37s2.73-19.69,4.48-27.3-15.42-3.41-18.25,0S501.26,334.23,501.26,334.23Z" style="fill:#ffa17f"/><path d="M555.36,328.74l-36.5,13.39-.36-12.7c.06-6.12-17.15-9.65-18.66-3.27,0,0-14.2,37.3-3.53,41.5s73.21-3.47,73.21-3.47C586.53,361.53,580.22,326.58,555.36,328.74Z" style="fill:#ffae9e"/><path d="M601.36,290.32l1.07-32s3.77-23-22.45-35c-18.74-8.54-31,12.6-30.69,30,.45,24.56,8.36,35.13,17.21,37,3,.79,5.6.07,6.55.58s6.63,9.6,6.63,9.6C585.28,308.94,601.36,302.66,601.36,290.32Z" style="fill:#ffa17f"/><path d="M560,256.83c.69,7.43,8.57,28.24,17.82,22.29,0,0,6.8,42.87,30,45.15,0,0,40.39,1.46,37.2-30.41-2.44-24.3-25.8-31-25.8-31s3.25-24.58-17.31-25.82c-2-14.48-4.24-22.74-26-22.2,0,0-27.68,3.85-27.68,16.63S559.35,249.4,560,256.83Z" style="fill:#ffc69c"/><path d="M671.54,338.87l-86.77,50.18,29.28,19.38,90.31-51.21c0-3.31-1-4.35-2.27-5.24l-23.32-13.15A7.29,7.29,0,0,0,671.54,338.87Z" style="fill:#ffe4b0"/><polygon points="614.05 408.43 614.03 591.59 707 537.87 704.35 356.23 614.05 408.43" style="fill:#edbf7e"/><path d="M608.8,400.45,588.89,389a3.82,3.82,0,0,0-5.72,3.31V492.4l31.2,20.14-.3-103A10.54,10.54,0,0,0,608.8,400.45Z" style="fill:#ffe4b0"/><path d="M459.71,458.78l122.41,151L614,591.59v-101a12.05,12.05,0,0,0-6-10.43l-110-63.9a6.93,6.93,0,0,0-6.95,0l-29.54,16.94Z" style="fill:#f4d4a2"/><path d="M465.51,433.1,577.91,499a10.56,10.56,0,0,1,5.23,9.06l.72,98.18a4.39,4.39,0,0,1-6.56,3.85L464.86,546.39a10.16,10.16,0,0,1-5.15-8.83V436.42A3.86,3.86,0,0,1,465.51,433.1Z" style="fill:#edbf7e"/><path d="M388,286.3a19.21,19.21,0,0,1,21.77,6.06c1,1.23,3.09,1,4.11,0a3,3,0,0,0,0-4.11,24.87,24.87,0,0,0-27.43-7.56,3,3,0,0,0-2,3.58,2.93,2.93,0,0,0,3.58,2Z" style="fill:#ad5215"/><path d="M432.91,280.35a15.88,15.88,0,0,0-12.47-.82,20.17,20.17,0,0,0-10.31,8.67,2.91,2.91,0,0,0,5,2.94,14.13,14.13,0,0,1,3.27-3.89l.33-.27.33-.25c.35-.25.72-.48,1.09-.7s.74-.42,1.12-.6c.07,0,.7-.31.34-.16s.36-.13.35-.13a16.36,16.36,0,0,1,2.38-.63c.32-.07.2,0-.05,0l.72-.07c.36,0,.73,0,1.09,0l.61,0s.76.08.33,0,.25,0,.34.07.39.08.59.13a12.27,12.27,0,0,1,1.18.35c.24.08.5.18.12,0,.23.1.46.21.68.33a2.91,2.91,0,0,0,2.94-5Z" style="fill:#ad5215"/><path d="M403.62,276a21,21,0,0,1,1.77,3c.14.29-.22-.58-.08-.19l.12.33c.06.18.11.36.16.55a5.61,5.61,0,0,1,.13.59c.13.69-.05-.6,0,0,.19,2,.1,4.1.3,6.15a2.59,2.59,0,0,0,2.54,2.53,2.56,2.56,0,0,0,2.54-2.53c-.21-2.12-.08-4.26-.33-6.37a14.29,14.29,0,0,0-2.78-6.63,2.6,2.6,0,0,0-3.47-.91,2.56,2.56,0,0,0-.91,3.47Z" style="fill:#ad5215"/><path d="M414.73,291c2.83-3.44,3-7.58,3.23-11.84,0-.4,0-.8.08-1.2,0-.21,0-.43.07-.65,0,.29-.05.31,0,0a15.31,15.31,0,0,1,.61-2.42c.09-.26.22-.51,0-.12.08-.19.18-.38.28-.57s.21-.35.31-.54.14-.2,0,0a6.28,6.28,0,0,1,.85-.86c-.21.17-.27.18,0,0s.44-.25.67-.36a3,3,0,0,0,1.07-4.1,3.08,3.08,0,0,0-4.1-1.08c-3.82,1.81-5.23,6.09-5.69,10-.22,1.8-.18,3.61-.34,5.41,0,0-.09.81,0,.49s-.07.4-.08.47a13.54,13.54,0,0,1-.33,1.4l-.18.54c-.29.82.14-.24-.09.19-.11.21-.22.42-.34.62s-.54.73-.21.32a3.08,3.08,0,0,0,0,4.25c1.1,1,3.18,1.29,4.24,0Z" style="fill:#ad5215"/><path d="M410.33,216.82c9.2,1.63,17.2,5.37,26.4,7,1.73.31,4,.31,4.63-1.33a2.54,2.54,0,0,0-.64-2.51,6.72,6.72,0,0,0-2.28-1.45,47.66,47.66,0,0,0-28.29-3.41" style="fill:#15cc67"/><path d="M410,217.9a122.94,122.94,0,0,1,14.49,3.91c2.45.76,4.91,1.5,7.4,2.12a27.08,27.08,0,0,0,6.43,1.17c1.66,0,3.53-.57,4.1-2.31.66-2.06-.86-3.89-2.57-4.81a42.46,42.46,0,0,0-13.7-4.23,50,50,0,0,0-16.33.28c-1.42.26-.82,2.43.6,2.17a46.94,46.94,0,0,1,24.6,2.14c1.49.55,4.39,1.28,5.15,2.85,1,2.11-2.65,1.64-3.63,1.46a101.76,101.76,0,0,1-12.1-3.22,118.11,118.11,0,0,0-13.84-3.7c-1.42-.26-2,1.91-.6,2.17Z" style="fill:#11a359"/><path d="M409.19,256.33a142.79,142.79,0,0,1,21.09,7.83,2,2,0,0,0,.24-2.48,5.3,5.3,0,0,0-2-1.75,34.43,34.43,0,0,0-21.3-4.35" style="fill:#15cc67"/><path d="M408.89,257.41a144.65,144.65,0,0,1,20.83,7.72,1.15,1.15,0,0,0,1.36-.18c1.59-1.67.76-4-.89-5.24a25.58,25.58,0,0,0-7.05-3.47,35.58,35.58,0,0,0-15.95-1.79c-1.42.17-1.44,2.42,0,2.25a34.19,34.19,0,0,1,12.66.87c1.25.33,11.54,3.8,9.64,5.79l1.36-.17a148.16,148.16,0,0,0-21.36-7.95,1.13,1.13,0,0,0-.6,2.17Z" style="fill:#11a359"/><path d="M411,254.35a29.65,29.65,0,0,0-9.91-9.22,2.54,2.54,0,0,0-2.56,4.38,28.76,28.76,0,0,1,2.51,1.6l.6.45c-.64-.46,0,0,.18.16.41.33.8.67,1.18,1a27.85,27.85,0,0,1,2.07,2.14q.25.28.48.57l.24.29c.28.35-.27-.35-.08-.1.31.42.62.84.91,1.27a2.54,2.54,0,0,0,4.38-2.56Z" style="fill:#11a359"/><path d="M402.21,247.65c-1.41-4-6.12-6-10.3-5.53s-7.84,3-11,5.85l20.25.18" style="fill:#15cc67"/><path d="M403.29,247.35c-1.54-4.07-5.7-6.34-9.94-6.42-5.07-.1-9.58,3-13.18,6.24a1.14,1.14,0,0,0,.79,1.92l20.25.19a1.13,1.13,0,0,0,0-2.25L381,246.84l.8,1.93c3-2.75,6.77-5.44,11-5.59,3.33-.12,7.1,1.48,8.35,4.77.51,1.34,2.68.76,2.17-.6Z" style="fill:#11a359"/><path d="M414.29,119.68c-9.77-5.55-23.73-12.7-33.51-18.25-1.27-.73-2.75-2-2.15-3.29a3,3,0,0,1,2-1.3,28.77,28.77,0,0,1,22.78,3.31A26.72,26.72,0,0,1,415.58,119s-22.54,19.91-16.9,55.26,16.44,48.67,7.25,65c-9.68,17.2-.54,45.06-.54,45.06l8.62,2.61s-6.65-31.77-4.51-36.24,6.74-18.93,4.51-30.59c-1.6-8.39-23.67-61,.28-100.43" style="fill:#15cc67"/><path d="M415,118.53c-10-5.67-20.24-10.88-30.29-16.45-1.08-.59-2.17-1.17-3.22-1.8-.46-.27-1.45-.78-1.57-1.37s1.05-.77,1.52-.9a27.23,27.23,0,0,1,9-.79,26.45,26.45,0,0,1,15.48,6.41,25.62,25.62,0,0,1,8.43,15.75l.34-1.3a36.85,36.85,0,0,0-4.13,4.52,62.7,62.7,0,0,0-8.08,13.05,65.37,65.37,0,0,0-5.66,20.84c-.95,9.61.58,19.06,2.52,28.45,1.69,8.15,3.93,16.16,6,24.22,1.47,5.62,3,11.41,2.85,17.26a25.37,25.37,0,0,1-1.28,7.49c-1,3-2.79,5.68-4,8.64-2.86,7.28-3.16,15.47-2.49,23.18a94.46,94.46,0,0,0,3.1,17c.29,1.06.45,2.45,1.57,2.89,2.11.83,4.42,1.34,6.59,2l2,.59a1.34,1.34,0,0,0,1.63-1.63c-1.6-7.65-3-15.36-4.06-23.1-.32-2.36-.59-4.73-.74-7.1-.06-.92-.1-1.83-.08-2.75a10.17,10.17,0,0,1,.14-1.85c0-.14.25-.81.1-.42.2-.52.45-1,.66-1.52.49-1.19.92-2.4,1.32-3.61a69.55,69.55,0,0,0,2.56-10.64c.92-5.89,1.23-12.1-.41-17.9-1-3.61-2.2-7.17-3.24-10.77a168.16,168.16,0,0,1-6.8-36.87c-.88-15.17,1-30.79,7.85-44.53.87-1.77,1.83-3.49,2.85-5.18a1.33,1.33,0,0,0-2.29-1.34c-8.11,13.43-11.34,29.08-11.27,44.65.06,13.36,2.4,26.65,5.86,39.52,1.15,4.29,2.46,8.53,3.75,12.78.38,1.26.78,2.52,1.09,3.81a33.68,33.68,0,0,1,.62,9.71,58.37,58.37,0,0,1-4.59,20c-1.44,3.26-.83,7.11-.46,10.56,1,9,2.65,17.87,4.47,26.69,0,.19.07.38.11.57l1.64-1.63-8.63-2.61.93.93a82.16,82.16,0,0,1-3.33-15.88c-1.13-9.71-.77-19.85,4-28.6,3.36-6.19,4-12.89,3-19.78-1.25-8.71-4.13-17.17-6.24-25.7-2.88-11.62-5.69-23.7-4.81-35.75a61.85,61.85,0,0,1,7.47-25.3,54.44,54.44,0,0,1,8.72-12c.3-.31.62-.6.92-.91,1-1,.28-2.77,0-4A28,28,0,0,0,408,102a29.11,29.11,0,0,0-15.66-7.23,30.66,30.66,0,0,0-8.87.09c-2.24.35-6.36.87-6.33,3.92,0,2.74,3.5,4.11,5.49,5.22,2.56,1.42,5.13,2.81,7.7,4.2,5.36,2.88,10.74,5.73,16.08,8.64,2.41,1.3,4.8,2.62,7.19,4a1.32,1.32,0,0,0,1.33-2.29Z" style="fill:#11a359"/><path d="M403.73,168.39c-1,13.57,9.85,27,23.34,28.78a5.22,5.22,0,0,0,4.06-.68,3.86,3.86,0,0,0,.81-4.3,10.51,10.51,0,0,0-2.85-3.66c-6.59-6.18-16-13.74-24-17.84" style="fill:#15cc67"/><path d="M402.61,168.39c-.75,11.05,5.87,21.92,15.56,27.05a26.06,26.06,0,0,0,7.9,2.71c2.58.43,5.76.43,6.93-2.4s-.57-5.54-2.54-7.48c-2.18-2.14-4.52-4.14-6.86-6.1a99.51,99.51,0,0,0-18-12.45c-1.29-.67-2.43,1.28-1.14,1.94a88.42,88.42,0,0,1,14.21,9.42q3.3,2.59,6.44,5.37c1,.86,1.94,1.73,2.89,2.62a10.6,10.6,0,0,1,2.78,3.33,3,3,0,0,1-.23,3.07c-1,1.08-3,.68-4.26.45a24.09,24.09,0,0,1-6.7-2.26A27.71,27.71,0,0,1,409,183.9a25.67,25.67,0,0,1-4.11-15.51c.1-1.44-2.16-1.44-2.25,0Z" style="fill:#11a359"/><path d="M408.11,216a24.31,24.31,0,0,0-27.33,14.44c-.48,1.13-.83,2.55-.07,3.51a2.53,2.53,0,0,0,2.56.73,7.46,7.46,0,0,0,2.48-1.26L406,219.7a5.73,5.73,0,0,0,1.82-1.67,1.93,1.93,0,0,0-.12-2.31" style="fill:#15cc67"/><path d="M408.41,214.92A25.78,25.78,0,0,0,382,225.76c-1.23,1.85-2.71,4.22-2.86,6.5a3.39,3.39,0,0,0,4.07,3.57,7.93,7.93,0,0,0,3.1-1.44c1.39-.93,2.76-1.87,4.14-2.8l7.66-5.18c2.88-1.95,5.78-3.87,8.64-5.84,1.9-1.32,3.52-3.48,1.78-5.64-.91-1.13-2.49.47-1.59,1.59s-3.5,3.57-4.17,4l-6,4.06c-4,2.68-7.91,5.44-11.93,8.06-.71.47-1.77,1.22-2.69.92-1.23-.41-.69-1.86-.35-2.72a22.32,22.32,0,0,1,2.82-4.93,23.16,23.16,0,0,1,23.18-8.85c1.41.28,2-1.89.6-2.17Z" style="fill:#11a359"/><path d="M404.83,172.55a41.28,41.28,0,0,0,14.66,17.28c1.21.81,2.34-1.14,1.14-1.94a39.27,39.27,0,0,1-13.86-16.47c-.6-1.32-2.54-.18-1.94,1.13Z" style="fill:#11a359"/><path d="M414.32,217.47a37.85,37.85,0,0,1,18.28,3.39c1.31.61,2.45-1.33,1.14-1.94a40.27,40.27,0,0,0-19.42-3.7c-1.44.09-1.45,2.34,0,2.25Z" style="fill:#11a359"/><path d="M390.73,226.2a27.33,27.33,0,0,1,17.35-7c1.45,0,1.45-2.3,0-2.25a29.74,29.74,0,0,0-18.94,7.63c-1.08,1,.52,2.56,1.59,1.59Z" style="fill:#11a359"/><path d="M400,107a33.6,33.6,0,0,1,14.81,12.72c.77,1.22,2.72.09,1.94-1.14A35.64,35.64,0,0,0,401.17,105a1.15,1.15,0,0,0-1.54.41A1.12,1.12,0,0,0,400,107Z" style="fill:#11a359"/><path d="M390.67,245.91a13.39,13.39,0,0,1,8.53.93c.44.2.82-.45.38-.65a14.22,14.22,0,0,0-9.11-1c-.47.1-.27.83.2.72Z" style="fill:#11a359"/><path d="M416.08,120.19a36.53,36.53,0,0,1,7-1.07,12.44,12.44,0,0,1,6.85,1.62c3.75,2.33,5.36,6.93,8.43,10.11a1.81,1.81,0,0,1-1.74.68,5.35,5.35,0,0,1-1.82-.71l-18.44-9.95" style="fill:#15cc67"/><path d="M416.38,121.27c4.5-1,9.91-2.12,13.86,1,3.12,2.49,4.65,6.47,7.36,9.35v-1.59c-.6.73-1.53.13-2.19-.21l-2.75-1.48-5.1-2.76L417,119.9c-1.27-.69-2.41,1.25-1.13,1.94l12.55,6.77c2.07,1.12,4.12,2.32,6.23,3.37,1.48.73,3.38,1.13,4.57-.33a1.15,1.15,0,0,0,0-1.59c-3-3.2-4.62-7.61-8.38-10.11-4.48-3-10.12-1.92-15-.85-1.41.31-.81,2.48.6,2.17Z" style="fill:#11a359"/><path d="M418.32,121.47A23.69,23.69,0,0,1,428.67,126a1.13,1.13,0,0,0,1.54-.4,1.16,1.16,0,0,0-.4-1.54,25.09,25.09,0,0,0-10.89-4.79,1.17,1.17,0,0,0-1.39.79,1.13,1.13,0,0,0,.79,1.38Z" style="fill:#11a359"/><path d="M400.71,143.12c-4.38,1.18-8.84,2.39-12.62,4.89s-6.84,6.54-7,11.07a2.78,2.78,0,0,0,.92,2.47c1,.63,2.26,0,3.31-.52a15.76,15.76,0,0,1,8.65-1.51c1.6.18,3.38.56,4.68-.37s1.52-2.62,1.61-4.16a50.64,50.64,0,0,0-.51-10.58" style="fill:#15cc67"/><path d="M400.36,141.84c-8.08,2.18-18.21,5.51-20.26,14.85-.41,1.84-.68,4.33.89,5.71,2,1.73,4.32-.05,6.29-.76a15.22,15.22,0,0,1,7-.75c2,.23,4.17.43,5.72-1.15s1.62-4.44,1.67-6.64a53.61,53.61,0,0,0-.64-9,1.32,1.32,0,0,0-1.63-.93,1.35,1.35,0,0,0-.92,1.63,49.64,49.64,0,0,1,.53,6.44,17.39,17.39,0,0,1-.39,5.76c-.6,1.76-2.35,1.52-3.88,1.33a18.42,18.42,0,0,0-5.88.16,16.38,16.38,0,0,0-2.63.75,26.18,26.18,0,0,1-2.78,1.2c-.85.22-1-.27-1-1.05a8.3,8.3,0,0,1,.35-2.52,14,14,0,0,1,6-7.67c3.71-2.46,8.05-3.61,12.3-4.76a1.33,1.33,0,0,0-.7-2.56Z" style="fill:#11a359"/><path d="M392.81,152.81l3.76-6.05a1.33,1.33,0,1,0-2.29-1.34l-3.77,6.05a1.33,1.33,0,0,0,2.3,1.34Z" style="fill:#11a359"/></g></g></g></svg>