<svg xmlns="http://www.w3.org/2000/svg" viewBox="0 0 716.75 854.06"><g style="isolation:isolate"><g id="Camada_2" data-name="Camada 2"><g id="Camada_1-2" data-name="Camada 1"><path d="M544.45,505.3A52.53,52.53,0,0,1,563.6,517a3.73,3.73,0,0,0,2.59,1.4,3.56,3.56,0,0,0,2.33-1.63c2.09-2.58,4.3-5.72,3.33-8.84-.91-2.91-4.15-4.44-7.08-5.65l-10.16-4.17c-2.12-.87-4.42-1.76-6.66-1.23s-4.86,6.71-3.5,8.47" style="fill:#15cc67"/><path d="M543.6,508.4a48.7,48.7,0,0,1,14.94,8.34c2.51,2.07,5,5.53,8.68,4.68a7,7,0,0,0,3.83-2.75,24.71,24.71,0,0,0,2.87-4.17c1.5-3,2-6.47.15-9.45-1.51-2.49-4.09-4-6.69-5.17-3.18-1.39-6.41-2.65-9.61-4s-6.81-3.1-10.45-2.22c-2.67.65-4.33,3.15-5.35,5.54s-1.82,5.44-.29,7.69a3.28,3.28,0,0,0,4.39,1.15,3.24,3.24,0,0,0,1.16-4.39c-.27-.39.07.26.08.31,0-.11-.08-.68,0-.15,0,.76.11-.92,0-.29-.06.46,0-.1.06-.21s.1-.45.17-.67.11-.36.17-.54.32-.78.16-.42.1-.2.14-.27.22-.42.34-.63.7-1,.25-.46c.2-.24.43-.45.65-.68-.43.45-.36.26-.15.14-1.06.58-.34.06-.23.09a12.62,12.62,0,0,0,1.4.07,12.44,12.44,0,0,1,1.78.51c1.36.48,2.7,1.07,4,1.62,2.68,1.1,5.36,2.17,8,3.3a2.14,2.14,0,0,1,.22.1l.66.29c.48.23,1,.48,1.44.74a5.73,5.73,0,0,1,2.05,1.62c-.37-.47.43.79.19.26a2.13,2.13,0,0,1,.23,1A5.35,5.35,0,0,1,568,512a17.46,17.46,0,0,1-1.84,2.6c-.14.18-.4.36-.49.56-.2.43-.13,0,0,.07a1.15,1.15,0,0,0,.71-.06c.06-.07-.15-.18-.34-.35a65.49,65.49,0,0,0-5.87-4.91,56.4,56.4,0,0,0-14.83-7.7,3.22,3.22,0,0,0-1.71,6.2Z" style="fill:#11a359"/><path d="M536.73,702.8c4.13-11,17.91-16.78,30.13-15.39s23,8.37,32.06,16.27l-59.26.51" style="fill:#15cc67"/><path d="M539.83,703.65c.38-1-.13.26.12-.31.09-.2.18-.4.28-.6.21-.44.44-.88.69-1.3s.46-.75.7-1.11.31-.45.47-.67h0l.21-.26a23,23,0,0,1,2-2.16,16.12,16.12,0,0,1,2.08-1.7,27.21,27.21,0,0,1,11-4.57,32,32,0,0,1,12.33.13,46.89,46.89,0,0,1,13.46,5.18A81.57,81.57,0,0,1,596.65,706l2.27-5.48-59.26.51c-4.14,0-4.15,6.46,0,6.42l59.26-.51c2.63,0,4.44-3.6,2.27-5.48-8.39-7.27-18-13.82-29-16.33-9.6-2.19-20.18-1-28.5,4.53a25.78,25.78,0,0,0-10.09,12.33,3.22,3.22,0,0,0,2.24,3.95,3.27,3.27,0,0,0,4-2.24Z" style="fill:#11a359"/><path d="M571.08,695.91a43.56,43.56,0,0,0-26.65,2.79c-1.26.56-.17,2.41,1.08,1.85a41,41,0,0,1,25-2.57c1.35.28,1.92-1.78.57-2.07Z" style="fill:#11a359"/><path d="M534.25,543.67a49.39,49.39,0,0,1,31.46-4.95A47.91,47.91,0,0,1,593.24,554l-32.22.63c-4.45.09-9,.17-13.26-.95s-11.62-6.21-13.51-10" style="fill:#15cc67"/><path d="M535.87,546.44a46.11,46.11,0,0,1,45.45,1.66,43.68,43.68,0,0,1,9.65,8.2l2.27-5.48-27.51.54a115.4,115.4,0,0,1-13.54-.09,21.37,21.37,0,0,1-5-1.12c-.33-.13,0,0,.09,0l-.56-.25-.87-.43c-.76-.4-1.5-.83-2.23-1.28a24.3,24.3,0,0,1-4-3,22.59,22.59,0,0,1-1.68-1.71c-.06-.07-.45-.55-.21-.25s-.13-.18-.16-.23c-.21-.32-.41-.65-.59-1a3.21,3.21,0,1,0-5.54,3.25c1.56,3,4.44,5.34,7.15,7.29a25.43,25.43,0,0,0,9.2,4.44c4.66,1,9.44.92,14.18.83l14.63-.28,16.6-.33a3.25,3.25,0,0,0,2.27-5.48c-11.92-13.48-30.56-19.27-48.11-16a51.91,51.91,0,0,0-14.77,5.17,3.21,3.21,0,0,0,3.24,5.55Z" style="fill:#11a359"/><path d="M557.57,544.47a159.36,159.36,0,0,1-21.82-1.71,2.22,2.22,0,0,0-2.64,1.5,2.15,2.15,0,0,0,1.5,2.63,169.77,169.77,0,0,0,23,1.86c2.76,0,2.76-4.25,0-4.28Z" style="fill:#11a359"/><path d="M504.85,617.4c-9.87-4.77-10.5,3.36-16.79,5.79-4.56,1.76-6.48-3.19-5.25-6.44,2.14-5.63,11.88-7.27,17.66-7.13,2.35,0,4.95.49,6.59,2.18s1.33,4.85-.95,5.18" style="fill:#15cc67"/><path d="M506.47,614.63c-4.1-1.94-8.71-2.89-12.65-.06A35.53,35.53,0,0,0,490,618c-.27.26-.54.52-.82.77l-.53.44c.57-.49.18-.13,0,0-.33.21-.65.44-1,.63-.17.1-.36.18-.53.28-.54.3.48-.09-.24.08-.11,0-1.08.17-.34.13,0,0-.89-.05-.37,0s-.25-.1-.3-.12l.34.13c-.24-.16-.27-.16-.06,0l.14.11a3.51,3.51,0,0,1-.34-.33c.57.63.09,0,0,0s-.32-.74-.05,0c-.09-.24-.14-.48-.22-.72-.26-.73,0,.63,0-.15,0-.21,0-.43,0-.64s.14-.74,0,0l.15-.61c0-.19.3-.66,0-.06.1-.19.2-.38.31-.56s.23-.36.35-.54c-.42.59.05,0,.17-.14s.38-.37.57-.55c.6-.6-.32.21.1-.09a11.41,11.41,0,0,1,1.19-.76c.42-.24.86-.46,1.3-.66s-.7.24.2-.08l1-.36a26.08,26.08,0,0,1,3-.78c.51-.11,1-.19,1.53-.28.15,0,.82-.1.2,0l1-.11a16.75,16.75,0,0,1,6.75.34c1,.34-.17-.13.37.15.12.06.94.51.65.38.32.14.33.32.11,0a4.48,4.48,0,0,1,.28.47c-.14-.35-.16-.35-.05,0s-.19.46,0-.07c0,.38,0,.35.06-.08a4.27,4.27,0,0,1-.13.48c-.07-.15.3-.55.33-.61-.25.25-.22.22.09-.06s.39-.19,0-.09a3.21,3.21,0,1,0,1.71,6.19c3.44-.7,5-4.57,4-7.73-1.14-3.63-4.8-5.3-8.31-5.76a30.7,30.7,0,0,0-16.16,2.46c-4.91,2.23-8.9,7.45-6.7,13a6.89,6.89,0,0,0,7,4.67,12.64,12.64,0,0,0,7.06-3.56c.8-.72,1.53-1.5,2.3-2.24.36-.35.76-.65,1.11-1s-.23.18-.24.19.22-.17.34-.24l.62-.38c.37-.2.63-.18.08-.07.23,0,.47-.16.71-.22.42-.1.69,0,.14-.05.27,0,.57,0,.84,0s.94.14.34,0c.34.07.68.14,1,.23a11.27,11.27,0,0,1,2.09.78,3.29,3.29,0,0,0,4.39-1.15,3.24,3.24,0,0,0-1.15-4.39Z" style="fill:#11a359"/><path d="M527.31,748.38a432.34,432.34,0,0,0-61.77,21.81c-2-1.63-2-4.74-.67-6.91s3.65-3.6,5.93-4.86a105.07,105.07,0,0,1,62.36-12.12" style="fill:#15cc67"/><path d="M526.46,745.28a436.05,436.05,0,0,0-48.66,16.28q-7,2.82-13.88,5.85l3.9.5a5.11,5.11,0,0,1-.48-.45c.38.39-.13-.39,0-.05s-.1-.3-.11-.37c-.14-.52,0,.68,0-.27,0-.22,0-.44,0-.66,0,.17-.14.48,0-.13s0-.41.43-1.08c.95-1.57,2.87-2.65,4.61-3.62a95.31,95.31,0,0,1,13.6-6.21A103.31,103.31,0,0,1,515.69,749a105.12,105.12,0,0,1,17.47.56c1.72.2,3.21-1.62,3.21-3.21a3.28,3.28,0,0,0-3.21-3.21,108.56,108.56,0,0,0-34.35,1.62,104.83,104.83,0,0,0-16.29,4.77,84.85,84.85,0,0,0-15.38,7.36c-2.67,1.71-5.13,4-6,7.11a8.31,8.31,0,0,0,2.17,8.51,3.41,3.41,0,0,0,3.9.5,425.45,425.45,0,0,1,47-17.47q6.94-2.12,13.95-4c4-1.08,2.3-7.28-1.7-6.2Z" style="fill:#11a359"/><path d="M573.11,821.54a85.34,85.34,0,0,1,6.57-10l-1.42,1.85a54.18,54.18,0,0,1,9.42-9.6l-1.84,1.43a39.91,39.91,0,0,1,8.75-5.15l-2.18.92a37.65,37.65,0,0,1,9.14-2.5l-2.43.33a43.13,43.13,0,0,1,10.65,0c2.16.26,5-1.2,6.45-2.67a9.13,9.13,0,0,0,0-12.9l-1.85-1.42a9,9,0,0,0-4.6-1.25A46.75,46.75,0,0,0,582,785.88c-7.57,4.12-13.53,10.31-18.65,17.12a87.39,87.39,0,0,0-6,9.33c-2.35,4.16-1.12,10.16,3.28,12.48s10,1.17,12.48-3.27Z" style="fill:#ad5215"/><path d="M524.83,815.78a126.86,126.86,0,0,0-18-16.36,81,81,0,0,0-22.67-12.58,37.9,37.9,0,0,0-13.38-2.17c-3.75.13-7.37,3.21-7.19,7.19.17,3.78,3.17,7.33,7.19,7.19a26.23,26.23,0,0,1,4.6.24l-1.91-.26a40.73,40.73,0,0,1,9.31,2.58c.21.09.45.16.65.27,0,0-1.76-.77-.74-.31l1,.44c.88.41,1.75.84,2.61,1.28,1.6.82,3.16,1.71,4.7,2.64s3.09,2,4.6,3c.73.5,1.45,1,2.17,1.54l1.06.79c.22.16,1.67,1.27.63.47s.23.18.46.37l1,.82c.72.58,1.44,1.18,2.14,1.78q2.07,1.75,4.06,3.6c2.62,2.43,5.15,5,7.53,7.65a7.23,7.23,0,0,0,10.16,0,7.36,7.36,0,0,0,0-10.17Z" style="fill:#ad5215"/><path d="M555.19,511.67c-2.84,108.7,2.38,123.89,11.67,178.6,9.61,56.57,23.47,128,23.47,128l-85.05,5.8s-1.14-51.49-1.85-78.51c-.76-29-5-68.72-3.17-114.52,1-25.22-7-85.69,9.32-167.23,14-70,51.66-140.79,61.09-211.67,3.73-28,29.09-110.57-24.3-134.33-34.16-15.21-423.65-67.21-428.64-82.28,27,22.27,340.54,4.33,440.35,54.2,48.79,24.38,54,112.47,49.52,133.39-15.68,74-29.63,114.72-41,161C553,439.44,556,479.21,555.19,511.67Z" style="fill:#15cc67"/><path d="M551.39,511.67c-1.12,43.57-2.24,87.56,3.71,130.86,2.06,15,4.87,29.93,7.44,44.87q7,40.73,14.55,81.37,4.71,25.29,9.58,50.55l3.66-4.8-74.44,5.07-10.61.72,3.8,3.8q-.57-25.56-1.17-51.13c-.6-25.28-1.84-50.46-3.1-75.72-.81-16.42-1.33-32.85-1.16-49.3.1-10.23.63-20.43.35-30.66-.59-21.67-1.44-43.3-.74-65a510.07,510.07,0,0,1,11.89-96.39c7.5-32.95,19.23-64.74,30.36-96.58s22-63.86,27.47-97.13c2.86-17.24,6.35-34.46,8.68-51.78,4.69-35,3.38-82.06-35.75-96.85-6.6-2.5-13.7-3.9-20.57-5.41-11.66-2.55-23.39-4.77-35.12-6.93-33.15-6.1-66.43-11.57-99.69-17C352.6,78,314.65,71.83,276.74,65.49,243.66,60,210.57,54.36,177.65,48c-11.68-2.28-23.36-4.64-34.93-7.43-4.1-1-8.19-2-12.22-3.21-1.55-.46-3.09-.94-4.6-1.47-.62-.21-1.24-.44-1.85-.67l-.78-.31c-.27-.1.7.34-.15-.07a24.69,24.69,0,0,1-2.27-1.21c-.69-.42.39.79,0,0a4.57,4.57,0,0,1,.51,1L115,38.26c3.88,3.13,8.87,4.54,13.64,5.66a197.72,197.72,0,0,0,23.22,3.64c23.09,2.57,46.36,3.6,69.55,4.67,30.19,1.38,60.38,2.5,90.56,4,32.09,1.55,64.18,3.43,96.17,6.35,29.31,2.67,58.63,6.09,87.5,11.9a349.18,349.18,0,0,1,36.05,9c10.24,3.22,20.87,6.89,29.95,12.72,25.15,16.14,35.59,48.83,40.42,76.73A190,190,0,0,1,605,210.71c-.44,15.66-5.37,31.53-9.07,47.16-8.68,36.63-19.31,72.7-28.88,109.09-5.49,20.9-10.11,41.9-12.6,63.39-2.22,19.18-2.77,38.45-2.85,57.74,0,7.86,0,15.72-.22,23.58-.12,4.89,7.48,4.89,7.6,0,.43-17.25,0-34.51.77-51.76a380.21,380.21,0,0,1,8.56-66.45c8-35.91,19.2-71.09,28.32-106.72,5.42-21.16,11.3-42.6,14.92-64.15,1.7-10.12,1.3-20.68.49-30.87-2.31-29.18-9.54-60.63-27.62-84.3a76.55,76.55,0,0,0-31.17-24.06A228.6,228.6,0,0,0,521.1,72.5c-27-7.13-54.77-11.19-82.47-14.42-31.87-3.71-63.9-6-95.94-7.87-31.34-1.8-62.71-3.07-94.07-4.39-26-1.1-52-2.11-78-4.13-15.44-1.19-31.85-1.85-46.6-7a6.59,6.59,0,0,1-2-.89l-1.2-.67c-.75-.43-.63-.43-.37-.22-2.62-2.12-7.78-.26-6.34,3.69,1.68,4.64,8.28,6.15,12.44,7.45,8.72,2.74,17.69,4.71,26.61,6.64,29.5,6.39,59.27,11.52,89,16.62C279.57,73.72,317.07,79.83,354.56,86c35.61,5.83,71.23,11.62,106.77,17.81,24,4.18,48.19,8.13,71.84,14,3.1.77,6.2,1.57,9.22,2.59L544,121c1.63.57-.8-.46,1.32.56a51.51,51.51,0,0,1,12.57,8.19c14.51,13.22,18.21,33.66,18.27,52.44s-3.3,37.22-6.79,55.57c-1.73,9.09-2.88,18.26-4.53,27.36a436.87,436.87,0,0,1-12.13,48.6c-9.93,32.62-22.34,64.41-32.75,96.88A505.2,505.2,0,0,0,498.75,509a606.28,606.28,0,0,0-3.18,81.07c.21,9.29.61,18.58.85,27.87.28,10.51-.3,21-.38,31.5-.22,30.08,2.23,60,3.4,90,.89,23,1.18,46.12,1.7,69.17q.18,7.71.34,15.42a3.84,3.84,0,0,0,3.8,3.8l74.44-5.08,10.61-.72A3.87,3.87,0,0,0,594,817.3c-7.94-41-15.57-82-22.63-123.13-5.38-31.37-11.07-62.44-12.45-94.31-1.27-29.37-.68-58.82.08-88.19C559.11,506.78,551.52,506.79,551.39,511.67Z" style="fill:#11a359"/><path d="M551.33,364.46" style="fill:#15cc67"/><path d="M551.33,368.25a3.79,3.79,0,1,0-3.79-3.79,3.83,3.83,0,0,0,3.79,3.79Z" style="fill:#11a359"/><path d="M539,520c3,37.79-28.82,75.09-68.32,80.12-4.1.53-8.7.61-11.88-1.9-3.51-2.77-4-7.93-2.37-12s5-7.22,8.32-10.19c19.31-17.21,46.79-38.25,70.37-49.67" style="fill:#15cc67"/><path d="M535.78,520a60.91,60.91,0,0,1-1.74,20.3,69.4,69.4,0,0,1-7.8,18.86,79.67,79.67,0,0,1-29.74,29,72.21,72.21,0,0,1-19.72,7.6A41.46,41.46,0,0,1,466,597.21a9.58,9.58,0,0,1-4.61-1.11,5.1,5.1,0,0,1-2.26-2.9,8.17,8.17,0,0,1-.14-4.27,12.79,12.79,0,0,1,2.37-4.77c2.35-3.18,5.59-5.74,8.55-8.32q9.33-8.18,19.14-15.79c13.42-10.45,27.52-20.3,42.58-28.26q2.55-1.37,5.15-2.62a3.21,3.21,0,1,0-3.24-5.55c-16.07,7.82-31,18.07-45.15,28.89q-10.65,8.13-20.83,16.87c-6.4,5.52-14.62,11.58-15.18,20.76a12.57,12.57,0,0,0,5.14,11.09c3.66,2.59,8.54,2.67,12.82,2.16A79.28,79.28,0,0,0,493.36,597a86,86,0,0,0,35-29.24c8.59-12.29,13.88-27.11,14-42.18,0-1.85,0-3.69-.19-5.52a3.3,3.3,0,0,0-3.22-3.22,3.25,3.25,0,0,0-3.21,3.22Z" style="fill:#11a359"/><path d="M530.18,528.39a110.18,110.18,0,0,1-40.61,45.83c-3.48,2.21-.26,7.77,3.24,5.54A118.14,118.14,0,0,0,528.88,544a109.82,109.82,0,0,0,6.85-12.39,3.3,3.3,0,0,0-1.16-4.39,3.24,3.24,0,0,0-4.39,1.15Z" style="fill:#11a359"/><path d="M497.16,85c3,37.79-28.83,75.09-68.32,80.13-4.1.52-8.7.61-11.89-1.91-3.51-2.77-4-7.92-2.36-12s5-7.22,8.32-10.18c19.31-17.21,46.79-38.26,70.37-49.68" style="fill:#15cc67"/><path d="M494,85a61.52,61.52,0,0,1-1.74,20.31,69.18,69.18,0,0,1-7.81,18.85,79.7,79.7,0,0,1-29.74,29,72.73,72.73,0,0,1-19.72,7.6,41.31,41.31,0,0,1-10.82,1.4,9.52,9.52,0,0,1-4.61-1.11,5,5,0,0,1-2.26-2.9,8.17,8.17,0,0,1-.14-4.27,12.69,12.69,0,0,1,2.36-4.77c2.35-3.18,5.59-5.73,8.55-8.32q9.35-8.16,19.14-15.79c13.42-10.45,27.53-20.3,42.58-28.26q2.56-1.35,5.16-2.62a3.21,3.21,0,0,0-3.24-5.54c-16.08,7.81-31,18.06-45.15,28.88q-10.67,8.13-20.83,16.88c-6.4,5.51-14.63,11.58-15.18,20.75a12.52,12.52,0,0,0,5.14,11.09c3.65,2.59,8.54,2.68,12.81,2.17a79.82,79.82,0,0,0,23.07-6.44,85.88,85.88,0,0,0,35-29.25c8.6-12.29,13.89-27.11,14-42.18,0-1.84-.05-3.68-.19-5.52a3.29,3.29,0,0,0-3.21-3.21A3.23,3.23,0,0,0,494,85Z" style="fill:#11a359"/><path d="M488.35,93.37a109.9,109.9,0,0,1-40.61,45.83c-3.48,2.21-.27,7.77,3.24,5.55A118,118,0,0,0,487,109a108.14,108.14,0,0,0,6.85-12.38,3.31,3.31,0,0,0-1.15-4.4,3.24,3.24,0,0,0-4.39,1.15Z" style="fill:#11a359"/><path d="M596.08,223.4c3-37.79-28.82-75.09-68.32-80.12-4.1-.53-8.7-.61-11.88,1.9-3.51,2.77-4,7.93-2.37,12s5,7.22,8.32,10.19c19.31,17.2,46.79,38.25,70.37,49.67" style="fill:#15cc67"/><path d="M599.29,223.4c1.15-15.08-3.09-30.26-10.87-43.15a86.23,86.23,0,0,0-33-31.36A79.58,79.58,0,0,0,533.63,141c-8.18-1.63-19.47-2.94-23.3,6.55a15.13,15.13,0,0,0,.91,12.34c2,4.07,5.53,7.24,8.88,10.22q9.61,8.53,19.74,16.48C554.12,197.8,569,208.45,585.07,217c1.82,1,3.66,1.9,5.51,2.8a3.3,3.3,0,0,0,4.39-1.16,3.23,3.23,0,0,0-1.15-4.39c-15.24-7.41-29.4-17-42.91-27.19q-10-7.52-19.51-15.64c-3-2.58-6.09-5.18-9-7.9s-5.61-5.59-6.4-9.2a6,6,0,0,1-.17-1.91c0-.15.1-1.25,0-.86a8.84,8.84,0,0,1,.31-1.33,5,5,0,0,1,2.26-2.9c2.74-1.63,7.1-1.16,10.1-.71a74.33,74.33,0,0,1,20.3,6.15,80.14,80.14,0,0,1,31.69,27.06A78.69,78.69,0,0,1,585.9,189a63,63,0,0,1,3.78,9.15,62.21,62.21,0,0,1,3.38,20.09c0,1.72-.06,3.45-.19,5.17a3.24,3.24,0,0,0,3.21,3.22,3.28,3.28,0,0,0,3.21-3.22Z" style="fill:#11a359"/><path d="M592.81,211.78a114.46,114.46,0,0,0-30.87-39.41,124.12,124.12,0,0,0-12-8.72c-3.5-2.23-6.73,3.33-3.24,5.54a110.7,110.7,0,0,1,34,33.78A108.56,108.56,0,0,1,587.27,215a3.23,3.23,0,0,0,4.39,1.15,3.27,3.27,0,0,0,1.15-4.39Z" style="fill:#11a359"/><path d="M534,632.45a75.09,75.09,0,0,1,47.59,6.43A69.7,69.7,0,0,1,614,672.64c1.39,3.16,2.43,7.09.2,9.78-1.7,2.05-4.82,2.6-7.49,2a22.5,22.5,0,0,1-7.28-3.51l-59.4-38.21c-2-1.3-4.09-2.65-5.33-4.64s-1.38-4.8.35-6.43" style="fill:#15cc67"/><path d="M534.88,635.55a72.18,72.18,0,0,1,38.32,3.17,67.57,67.57,0,0,1,28.4,20,64.75,64.75,0,0,1,9,14.18,19.65,19.65,0,0,1,1.34,3.48,5.4,5.4,0,0,1,.17,3.34,3,3,0,0,1-.41.73c-.5.58.23,0-.41.36a4,4,0,0,1-.6.34c.45-.21-.59.18-.55.17s-1.08.2-.56.13a7.8,7.8,0,0,1-1.08,0c-.09,0-1-.09-.59,0-3.16-.46-5.92-2.65-8.53-4.33l-9.21-5.92-18.82-12.11-21.33-13.72c-3.35-2.16-6.78-4.22-10-6.49a7.74,7.74,0,0,1-2.85-3c.19.45-.14-.63-.13-.57.1.47,0-.49,0-.54,0-.45,0-.43.35-.81,2.87-3-1.66-7.52-4.54-4.54a8.47,8.47,0,0,0-.85,10.32c2,3.23,5.47,5.14,8.57,7.14L561,660,582,673.49l10,6.45c3.24,2.09,6.44,4.48,9.92,6.15,3.3,1.58,7.09,2.43,10.65,1.17a9.1,9.1,0,0,0,6.18-8.46c.12-3.36-1.32-6.57-2.72-9.52a65.22,65.22,0,0,0-4.74-8.33,73.69,73.69,0,0,0-29.6-25.6,79,79,0,0,0-48.51-6,3.24,3.24,0,0,0-2.24,3.95,3.28,3.28,0,0,0,4,2.25Z" style="fill:#11a359"/><path d="M589.5,656.36a88,88,0,0,0-41.8-19.87,91.43,91.43,0,0,0-13.6-1.41,3.21,3.21,0,1,0,0,6.42,83,83,0,0,1,41.2,12.33A76.91,76.91,0,0,1,585,660.9a3.29,3.29,0,0,0,4.54,0,3.24,3.24,0,0,0,0-4.54Z" style="fill:#11a359"/><path d="M542.52,364.12c4.13,0,4.14-6.42,0-6.42s-4.14,6.42,0,6.42Z" style="fill:#11a359"/><path d="M535.87,369.91c-6.8-1.42-13.65-2.84-20.61-3s-14.12,1-20,4.53c-11,6.46-15.71,19.29-24.68,28.14a5.39,5.39,0,0,0,5.08,1.88,15.82,15.82,0,0,0,5.33-2l54-27.7" style="fill:#15cc67"/><path d="M536.72,366.81c-11.78-2.45-24.27-4.92-36.07-1.22a34.25,34.25,0,0,0-13.52,8A75.27,75.27,0,0,0,478,385c-3.11,4.43-5.87,8.55-9.68,12.35a3.24,3.24,0,0,0-.51,3.89c3.3,4.34,8.49,4,13,1.94s8.86-4.52,13.27-6.78l27-13.85,15.49-7.95a3.21,3.21,0,0,0-3.24-5.55l-50,25.66a64.25,64.25,0,0,1-6.21,3.11,5.86,5.86,0,0,1-2.74.5c-.58-.06.33.09-.23-.05-.07,0-.58-.18-.46-.12s-.73-.64-.36-.15l-.5,3.89c6.53-6.5,10.81-15,16.83-21.59a28.13,28.13,0,0,1,10.48-7.69,38.12,38.12,0,0,1,15.14-2.45c6.68.15,13.23,1.52,19.75,2.87a3.29,3.29,0,0,0,4-2.24,3.25,3.25,0,0,0-2.25-3.95Z" style="fill:#11a359"/><path d="M527.59,367.36a75,75,0,0,0-31.86,13.34,3.31,3.31,0,0,0-1.15,4.39c.81,1.38,3,2.19,4.39,1.16a70.63,70.63,0,0,1,30.33-12.69c1.71-.29,2.66-2.41,2.24-4a3.29,3.29,0,0,0-3.95-2.24Z" style="fill:#11a359"/><path d="M521.56,583.14c13.21-2,26.7-3.94,40.48-2s28.13,8.49,35.67,19.51c1.53,2.23,2.77,5,1.57,7.1-1.54,2.67-5.85,2.52-9.41,2.42a47.23,47.23,0,0,0-24.79,5.91c-3.85,2.21-7.85,5.13-12.73,4.29-4.67-.81-8.11-4.78-10.78-8.47A152.36,152.36,0,0,1,526,585.28" style="fill:#15cc67"/><path d="M522.57,586.79c12.68-1.88,26-3.79,38.84-1.94a63.77,63.77,0,0,1,8,1.68c1.26.35,2.51.73,3.75,1.16.61.21,1.23.43,1.84.67l.91.35c.13,0,1.24.52.73.29a54.28,54.28,0,0,1,7.21,3.77,34.59,34.59,0,0,1,5.6,4.18c.92.83,1.8,1.71,2.64,2.62a22,22,0,0,1,2.17,2.69,13.61,13.61,0,0,1,1.64,3c.44,1.15-.25-.65.1.46v.18c0,.28,0,.23,0-.14l-.1.34c.15-.34.12-.35-.06,0l.23-.32c-.31.28-.27.27.1,0,0,0-.85.49-.32.23s-.39.13-.42.14c-.27.07-1.75.29-1,.22a36.4,36.4,0,0,1-3.91.08,57.42,57.42,0,0,0-8.89.4,50.1,50.1,0,0,0-17.8,5.6c-1.15.63-2.26,1.32-3.39,2-.56.33-1.13.65-1.72,1l-.7.35-.7.33q.45-.19-.18.06c-.62.2-1.24.37-1.86.54-.09,0-.74.12-.15,0a9.49,9.49,0,0,1-1.19.06,7.27,7.27,0,0,1-2.75-.65,10,10,0,0,1-3.06-2.19q-.82-.81-1.59-1.68c-.21-.24-.42-.49-.62-.74s-.82-1.05-.47-.58c-2.09-2.78-4-5.68-5.91-8.61a150.89,150.89,0,0,1-10.28-18.91c-.85-1.87-3.55-2.32-5.18-1.36a3.87,3.87,0,0,0-1.36,5.18,150,150,0,0,0,9.78,18.13c1.89,3,3.87,5.94,6,8.79a33,33,0,0,0,6.52,7,15,15,0,0,0,9.16,3.21,19.74,19.74,0,0,0,9.44-3c1.25-.7,2.46-1.47,3.71-2.17q.9-.5,1.83-1l1.12-.54.62-.28a44.14,44.14,0,0,1,9.41-2.75,47.22,47.22,0,0,1,9.1-.67c2.85.06,5.9.26,8.63-.74,3.34-1.23,5.73-4.15,5.47-7.84-.24-3.53-2.31-6.49-4.44-9.17-7.37-9.32-19-15-30.33-17.64-15.94-3.7-32.25-1.43-48.19.94-2,.3-3.14,2.86-2.65,4.66.6,2.17,2.63,3,4.66,2.64Z" style="fill:#11a359"/><path d="M561.28,592,541.9,581.3a3.79,3.79,0,1,0-3.83,6.54l19.39,10.71a3.79,3.79,0,0,0,3.82-6.54Z" style="fill:#11a359"/><path d="M591.14,309.8c1-10.25,9.43-18.79,19.25-23.13s20.89-5.21,31.7-5.71c11.52-.53,24.67-.08,32.24,8.19,3,3.33,4.49,9,.89,11.83-2.28,1.77-5.56,1.55-8.49,1.31a235.33,235.33,0,0,0-73.57,5.37" style="fill:#15cc67"/><path d="M594.93,309.8c.12-1.16-.17.74.05-.41.07-.35.12-.7.2-1.05.13-.58.28-1.15.45-1.72s.37-1.12.58-1.67c.4-1.07-.33.62.17-.4.19-.38.36-.75.55-1.12a21.91,21.91,0,0,1,4.33-5.95A35.23,35.23,0,0,1,614.71,289a73.22,73.22,0,0,1,18.8-3.72,145.88,145.88,0,0,1,18-.62c1.39.06,2.77.15,4.15.29a30.11,30.11,0,0,1,3.4.53,36.71,36.71,0,0,1,3.88,1c.56.18,1.13.38,1.68.59.06,0,1.13.48.41.16l1,.44a26.86,26.86,0,0,1,3.3,2c.6.41.2.14.07,0,.27.22.54.44.8.68a17.78,17.78,0,0,1,1.52,1.49c.07.07.72.92.25.27.16.23.32.46.47.7s.29.49.43.74c0,.09.49,1.1.18.33.21.53.32,1.06.49,1.6.3.94,0-.7.06.27,0,.32,0,.64,0,.95,0,.91.25-.64,0,.21-.06.17-.42,1.05,0,.23-.09.19-.2.36-.29.54l-.17.25c.28-.36.27-.37,0-.05-.88.45.38-.19-.18.15-.13.09-.84.45-.25.2a10.77,10.77,0,0,1-1.07.31c-.78.24.26.05-.5.09a87.2,87.2,0,0,1-9.82-.53q-10.69-.64-21.41-.33A241.45,241.45,0,0,0,592.15,304a3.79,3.79,0,0,0,2,7.3,229.46,229.46,0,0,1,44.67-5.94q11.53-.39,23.09.35c3.61.23,7.27.83,10.87.25a9.76,9.76,0,0,0,7.75-6.19c2.4-6.44-2.26-12.87-7.19-16.5s-11-5.11-17-5.82a105.4,105.4,0,0,0-18.8,0,100.51,100.51,0,0,0-21.49,3.19c-13.81,4-27.13,14-28.74,29.2-.21,2,1.89,3.87,3.79,3.79a3.89,3.89,0,0,0,3.79-3.79Z" style="fill:#11a359"/><path d="M637.44,288.45a62,62,0,0,0-39.13,13.09c-1.37,1.06-1.12,3.42,0,4.54a3.31,3.31,0,0,0,4.55,0,55.09,55.09,0,0,1,34.58-11.21c4.13.08,4.13-6.35,0-6.42Z" style="fill:#11a359"/><path d="M529.45,694.41a88.48,88.48,0,0,1,20.36,14c3.64,3.34,7.16,8.58,4.38,12.6-1.7,2.45-5.2,3.25-8.26,2.86s-5.9-1.68-8.84-2.59a34.74,34.74,0,0,0-26.37,2.55,68.65,68.65,0,0,1,14.34-26.18" style="fill:#15cc67"/><path d="M527.54,697.68a91.4,91.4,0,0,1,14.21,8.84,60.8,60.8,0,0,1,6.21,5.35,15.93,15.93,0,0,1,1.95,2.29c.37.54.67,1.1,1,1.67s.14.3.07.13a8.83,8.83,0,0,1,.33,1c0,.17.11,1.2.09.38,0,.22,0,.47,0,.68-.06-.57.08-.27,0,0,0,0-.36,1-.14.53s-.37.55-.33.5c.37-.52,0-.08-.07,0-.72.73.35-.18-.15.15a6.77,6.77,0,0,1-.9.52c-.55.26.79-.19-.24.06l-.69.19s-1.1.17-.56.11-.63,0-.58,0H547c.11,0-1.07-.08-.62,0s-1-.18-.81-.15c-.45-.09-.89-.2-1.34-.33-2.75-.75-5.37-1.92-8.15-2.59a38.68,38.68,0,0,0-27.28,3.49l5.57,4.28a65.75,65.75,0,0,1,13.37-24.51,3.87,3.87,0,0,0,0-5.36,3.81,3.81,0,0,0-5.35,0,74,74,0,0,0-15.33,27.86c-.95,3.28,2.73,5.79,5.57,4.27a30.65,30.65,0,0,1,15.82-3.5,28.06,28.06,0,0,1,8.08,1.47c3.24,1,6.33,2.34,9.76,2.63,6.1.53,12.72-3.24,12.69-10,0-6.32-5.32-11.18-9.81-14.9a94.08,94.08,0,0,0-17.81-11.67,3.87,3.87,0,0,0-5.18,1.36,3.81,3.81,0,0,0,1.36,5.18Z" style="fill:#11a359"/><path d="M528.88,699.86l-1,7a2.88,2.88,0,0,0-.07,1.51,2.93,2.93,0,0,0,.45,1.41,3.8,3.8,0,0,0,5.19,1.36,3.65,3.65,0,0,0,1.74-2.26l1-7a2.87,2.87,0,0,0,.07-1.51,2.8,2.8,0,0,0-.45-1.41,3.9,3.9,0,0,0-2.26-1.74,3.86,3.86,0,0,0-2.92.38,3.63,3.63,0,0,0-1.74,2.27Z" style="fill:#11a359"/><path d="M525.82,115.61a52.53,52.53,0,0,0-11.65-19.15,3.73,3.73,0,0,1-1.4-2.58,3.53,3.53,0,0,1,1.62-2.34c2.59-2.09,5.73-4.29,8.85-3.32,2.9.9,4.44,4.15,5.64,7.07l4.18,10.16c.87,2.12,1.76,4.43,1.22,6.66s-6.7,4.87-8.46,3.5" style="fill:#15cc67"/><path d="M528.91,114.76a56.65,56.65,0,0,0-6.73-13.48,58.06,58.06,0,0,0-4.61-5.87c-.37-.42-.75-.81-1.13-1.22-.54-.58-.36-.74-.5-.13s-.08.45.3.11a15.46,15.46,0,0,1,1.28-1,13.3,13.3,0,0,1,2.7-1.63,2.82,2.82,0,0,1,2.48-.1c-.54-.24.69.54.27.2a5.7,5.7,0,0,1,.94,1c-.24-.3.1.16.11.18.14.2.26.4.38.6.31.51.59,1,.85,1.58,1,2,1.94,4.62,2.91,7,1,2.53,2.49,5.18,3,7.89.08.46,0,1,.05,1.42s-.31,0,0,0c-.08,0,.28-.35.15-.29s-1,.78-.37.38c-.39.25-.78.5-1.19.72l-.52.25c.59-.28-.24.09-.31.11-.44.16-.88.25-1.33.38-.19,0-.6,0,.1,0a2.21,2.21,0,0,0-.58,0c-.33.15.69.2.13,0s.62.37.14,0a3.21,3.21,0,1,0-3.25,5.54c1.94,1.32,4.72.86,6.77.09a11.48,11.48,0,0,0,5.79-4.08c1.84-2.83.65-6.73-.51-9.58-1.34-3.31-2.71-6.61-4.07-9.91-1.08-2.62-2.16-5.31-4.17-7.37a9,9,0,0,0-9.1-2.34,15.5,15.5,0,0,0-4.09,2,18.86,18.86,0,0,0-3.76,3.06,5.44,5.44,0,0,0-1.21,5.35c.55,1.69,1.88,2.87,3.05,4.15a49.17,49.17,0,0,1,9.83,16.67,3.29,3.29,0,0,0,3.95,2.25,3.24,3.24,0,0,0,2.24-3.95Z" style="fill:#11a359"/><path d="M336.32,65.43c11-4.13,16.77-17.91,15.39-30.14s-8.37-23-16.28-32q-.24,29.63-.5,59.26" style="fill:#15cc67"/><path d="M337.17,68.52C346.34,65,352.22,56.39,354.24,47c2.28-10.61-.41-21.32-5.55-30.7A89.53,89.53,0,0,0,337.71,1c-1.89-2.17-5.47-.37-5.49,2.27q-.25,29.63-.5,59.26c0,4.14,6.38,4.14,6.42,0l.51-59.26-5.49,2.27c6.35,7.32,12,15.63,14.44,25.12a34,34,0,0,1,1.06,6.75c0,1,0,2,0,3,0,.53-.06,1.06-.1,1.59s-.1,1-.14,1.24a29.27,29.27,0,0,1-4,11.28c-.3.48-.61,1-.94,1.41a7.76,7.76,0,0,1-.72.94,22.57,22.57,0,0,1-2.3,2.39l-.62.54c-.1.09-.58.46-.25.21-.48.36-1,.7-1.49,1s-.94.56-1.43.81l-.6.28c-.15.08-.3.14-.45.21.26-.11.21-.1-.15,0a3.31,3.31,0,0,0-2.25,4c.43,1.55,2.33,2.87,3.95,2.24Z" style="fill:#11a359"/><path d="M341.14,31.64a41,41,0,0,1-2.58,25c-.55,1.25,1.3,2.34,1.85,1.08a43.51,43.51,0,0,0,2.8-26.66c-.29-1.34-2.35-.77-2.07.57Z" style="fill:#11a359"/><path d="M495.45,67.91a49.53,49.53,0,0,0,4.95-31.46A47.91,47.91,0,0,0,485.09,8.92l-.63,32.22c-.09,4.45-.17,9,1,13.26s6.21,11.62,10,13.51" style="fill:#15cc67"/><path d="M498.23,69.53a52.67,52.67,0,0,0-1.56-51.77,49.86,49.86,0,0,0-9.31-11.11,3.25,3.25,0,0,0-5.48,2.27l-.58,29.24a83.42,83.42,0,0,0,.45,14.31,24.57,24.57,0,0,0,4,9.88c2.06,3.14,4.69,6.57,8.1,8.33a3.29,3.29,0,0,0,4.4-1.15,3.25,3.25,0,0,0-1.16-4.4,8.2,8.2,0,0,1-.76-.43c-.13-.08-.82-.61-.36-.23a20.32,20.32,0,0,1-1.6-1.48,22.59,22.59,0,0,1-2.78-3.43,31.54,31.54,0,0,1-2.39-4.14c-.07-.15-.35-.84-.16-.34-.12-.3-.23-.61-.33-.92a20.74,20.74,0,0,1-.63-2.7c-.75-4.27-.42-8.74-.34-13.05L488,24.53l.31-15.61-5.48,2.27a45.39,45.39,0,0,1,14.34,42.08,46.2,46.2,0,0,1-4.48,13,3.21,3.21,0,0,0,5.55,3.24Z" style="fill:#11a359"/><path d="M490.37,44.59a166.59,166.59,0,0,0,1.86,23,2.15,2.15,0,0,0,2.63,1.5,2.2,2.2,0,0,0,1.5-2.64,159.36,159.36,0,0,1-1.71-21.82c0-2.76-4.31-2.76-4.28,0Z" style="fill:#11a359"/><path d="M521.92,414.31c-8,7.2-6.88,27.79-16.26,33.24-6.62,3.83-16.15-1.06-18.06-8.2s2.39-14.83,8.75-19.05,17.83-5.57,25.57-6c-6.25,4.13-14.5,10.27-16.78,17.18" style="fill:#15cc67"/><path d="M519.65,412c-4.64,4.28-6.29,11.06-7.93,16.91a90.93,90.93,0,0,1-2.89,9.21c-.05.13-.1.26-.16.39-.18.47.2-.44,0,0s-.3.68-.47,1a21.22,21.22,0,0,1-1.08,2c-.16.26-.32.51-.49.76l-.3.41c-.27.38.35-.4.05-.05a14.88,14.88,0,0,1-1.35,1.4l-.37.31c-.34.29.46-.3.08-.07s-.46.31-.7.45-1.17.55-.65.35a10.22,10.22,0,0,1-1.33.41l-.61.12c-.51.08.47,0-.06,0-.36,0-.72,0-1.08,0a10,10,0,0,1-1.23-.09c.58.08-.69-.16-.84-.2-.41-.11-.8-.24-1.2-.37l-.45-.17c.46.18,0,0-.11-.06a17.51,17.51,0,0,1-2.32-1.38c-.44-.3.3.26-.11-.08l-.36-.31a12.6,12.6,0,0,1-.91-.88c-.09-.09-.8-.93-.51-.55a10.27,10.27,0,0,1-.77-1.17,9.32,9.32,0,0,1-1.14-3.95,12,12,0,0,1,.88-5.19,18.23,18.23,0,0,1,6.73-8.21,20.82,20.82,0,0,1,5-2.39,49.06,49.06,0,0,1,6.51-1.7,85.91,85.91,0,0,1,12.45-1.46l-1.62-6c-7.21,4.77-15.32,10.57-18.26,19.09a3.21,3.21,0,1,0,6.19,1.71,11.13,11.13,0,0,1,.95-2,20.67,20.67,0,0,1,1.6-2.42,37.54,37.54,0,0,1,3.68-3.88,70.54,70.54,0,0,1,9.08-6.91,3.31,3.31,0,0,0,1.48-3.63,3.24,3.24,0,0,0-3.1-2.35c-8.55.47-17.86,1.39-25.55,5.46-8.09,4.28-14.08,13.82-12,23.11,1.84,8.24,11.1,13.82,19.25,12.08,7.41-1.58,10.68-9.15,12.72-15.64,1.18-3.79,2.1-7.66,3.36-11.43.29-.87.61-1.73.94-2.58s-.16.36.06-.14c.09-.21.18-.42.28-.63.19-.41.39-.82.6-1.21a21.61,21.61,0,0,1,1.35-2.2c.08-.12.38-.46-.06.06.13-.15.26-.31.4-.46.29-.33.6-.64.92-.94,3-2.81-1.51-7.34-4.54-4.54Z" style="fill:#11a359"/><path d="M550.9,741.87c11.72,1.64,26.51,18.37,38,17.92,8.12-.32,11.89-9,8-15.55s-13.15-10.44-21.35-10.55-18.23,4.61-24.63,8.18c8,.1,19.18.77,26.22,5" style="fill:#15cc67"/><path d="M550,745a21.72,21.72,0,0,1,4.74,1.34l.07,0,.7.32,1.13.55c.88.44,1.74.91,2.58,1.4,3.48,2,6.78,4.27,10.14,6.46,6.21,4,13.58,8.89,21.36,7.73,8.24-1.23,12.94-10.25,10-17.87-3.37-8.67-13.24-13.13-21.91-14.21-10.35-1.29-20.73,3.47-29.55,8.38-2.84,1.58-1.51,5.95,1.62,6,8.28.1,17.57.41,24.6,4.59,3.56,2.12,6.8-3.43,3.25-5.55-8.19-4.86-18.57-5.35-27.85-5.47l1.62,6c6.84-3.81,14.87-7.72,22.64-7.75a26.77,26.77,0,0,1,10.52,2.18,25,25,0,0,1,4.86,2.83,17.39,17.39,0,0,1,3.2,3.38,11.58,11.58,0,0,1,.67,1.13c.1.18.19.37.28.56-.06-.14-.16-.5,0,.08.1.34.22.67.3,1,0,.19.22,1.41.17.75a11.24,11.24,0,0,1,0,1.16c0,.21-.09,1.25,0,.57a10.38,10.38,0,0,1-.57,2.19c.23-.62-.19.35-.27.5s-.35.55-.52.83.31-.35,0,0a5,5,0,0,1-.37.42,8.48,8.48,0,0,1-.93.87c.5-.4-.4.24-.53.31l-.38.21c-.08,0-.63.3-.29.15.16-.07-.71.24-.9.29l-.46.11s-1,.15-.41.09a12.27,12.27,0,0,1-2.1,0c-.25,0-1-.15-.34,0l-1.22-.24c-.69-.17-1.38-.38-2.06-.61l-1.12-.42c-.58-.22-.2-.08-.07,0l-.71-.31a75.17,75.17,0,0,1-9.32-5.39c-3.45-2.25-6.84-4.59-10.42-6.62a31,31,0,0,0-10.47-4.12,3.32,3.32,0,0,0-4,2.24c-.42,1.52.52,3.69,2.24,4Z" style="fill:#11a359"/><path d="M515.87,644.16c-26.94,4.55-50.34,15-77.28,19.5-5.06.86-11.79.87-13.57-3.71-.92-2.37.1-5.11,1.9-7a19.89,19.89,0,0,1,6.66-4.05,146.31,146.31,0,0,1,82.82-9.49" style="fill:#15cc67"/><path d="M515,641.06c-25.8,4.4-50.14,14.71-75.9,19.27l-2,.34c-.65.1-.25,0-.11,0l-1,.11a24.83,24.83,0,0,1-3.66.06s-1.1-.11-.44,0c-.21,0-.42-.06-.63-.1-.5-.1-1-.25-1.48-.39-.83-.24.42.29-.31-.13l-.5-.28c-.7-.33.3.38-.25-.16a6.5,6.5,0,0,1-.57-.6c.43.56-.08-.22-.12-.29.29.54-.05-.14-.09-.31a3.23,3.23,0,0,1,0-.88,5.13,5.13,0,0,1,1.87-3c2-1.73,4.7-2.71,7.12-3.7a141.74,141.74,0,0,1,36.22-9.48,143.71,143.71,0,0,1,42.43,1,3.31,3.31,0,0,0,4-2.25,3.25,3.25,0,0,0-2.25-3.95,149.63,149.63,0,0,0-80.82,8c-5.86,2.33-13.67,5.07-14.81,12.23a8.72,8.72,0,0,0,3.65,8.63,14,14,0,0,0,7.39,2.14,38,38,0,0,0,8.63-.85c3.51-.63,7-1.37,10.46-2.18,6.66-1.56,13.25-3.4,19.82-5.33,14.93-4.37,29.79-9.06,45.16-11.68a3.23,3.23,0,0,0,2.24-4,3.29,3.29,0,0,0-4-2.24Z" style="fill:#11a359"/><path d="M509.58,634a121.86,121.86,0,0,0-56.81,10.31c-1.59.7-2,3-1.16,4.39a3.3,3.3,0,0,0,4.4,1.16,115,115,0,0,1,53.57-9.43,3.22,3.22,0,0,0,0-6.43Z" style="fill:#11a359"/><path d="M511.36,683.67a78.11,78.11,0,0,0-33.95,13.92c-2.47,1.8-4.93,3.89-5.92,6.7-1.06,3-.21,6.42,1.5,9.16a33.79,33.79,0,0,0,6.66,7.13c2-13.46,19.28-21.5,22.12-34.81" style="fill:#15cc67"/><path d="M510.51,680.58a81.57,81.57,0,0,0-26.23,8.87,63.23,63.23,0,0,0-11.35,7.61c-3.86,3.34-5.84,7.87-4.79,13,1.11,5.38,5.3,9.33,9.24,12.82,1.61,1.43,5,1.16,5.36-1.41a19.45,19.45,0,0,1,1-3.83c.06-.15.34-.83.14-.36.12-.28.25-.56.38-.83.3-.6.61-1.18.95-1.75a34,34,0,0,1,2.29-3.38c.22-.29,0,0,0,0l.3-.38.61-.75c.48-.59,1-1.16,1.48-1.73,3.77-4.29,7.91-8.3,11.1-13.07a26.2,26.2,0,0,0,3.88-8.76,3.28,3.28,0,0,0-2.24-4,3.25,3.25,0,0,0-3.95,2.24c-.13.61-.29,1.2-.47,1.79-.11.34-.23.68-.36,1l-.16.43c.12-.32.05-.12,0,.08a31,31,0,0,1-1.87,3.39,45,45,0,0,1-4.88,6.19c-3.78,4.22-7.9,8.25-10.9,13.09a23.81,23.81,0,0,0-3.44,8.84l5.37-1.42c-2.71-2.4-6-5-7.2-8.57a6.76,6.76,0,0,1-.16-4.55,10.17,10.17,0,0,1,3.21-3.85,59.77,59.77,0,0,1,9.94-6.44,73.26,73.26,0,0,1,10.86-4.76,79.13,79.13,0,0,1,13.65-3.37c1.71-.27,2.66-2.41,2.24-3.95a3.29,3.29,0,0,0-4-2.24Z" style="fill:#11a359"/><path d="M494.73,691.3A143.72,143.72,0,0,0,480,702.71c-1,.91.49,2.42,1.52,1.51a139.05,139.05,0,0,1,14.29-11.07c1.14-.77.07-2.62-1.08-1.85Z" style="fill:#11a359"/><path d="M523.6,472.48a78,78,0,0,0-34,13.91c-2.47,1.81-4.93,3.89-5.92,6.7-1.06,3-.21,6.42,1.5,9.17a34.28,34.28,0,0,0,6.66,7.13c1.95-13.46,19.28-21.5,22.12-34.82" style="fill:#15cc67"/><path d="M522.75,469.38a81.53,81.53,0,0,0-26.22,8.88,63.43,63.43,0,0,0-11.36,7.6c-3.86,3.35-5.84,7.87-4.79,13,1.11,5.38,5.3,9.33,9.24,12.82,1.61,1.42,5,1.15,5.37-1.42a19.42,19.42,0,0,1,1-3.83c.06-.15.34-.82.14-.36.12-.27.25-.55.38-.82.3-.6.62-1.19.95-1.76a38.55,38.55,0,0,1,2.29-3.38c.22-.29,0,0,0,0l.3-.38.61-.75c.49-.58,1-1.16,1.48-1.73,3.77-4.29,7.91-8.29,11.1-13.06a26.42,26.42,0,0,0,3.89-8.76,3.29,3.29,0,0,0-2.25-3.95,3.24,3.24,0,0,0-3.95,2.24,17.91,17.91,0,0,1-.47,1.78q-.17.51-.36,1c-.05.14-.1.28-.16.42.13-.31.05-.11,0,.08a31.08,31.08,0,0,1-1.86,3.4,43.71,43.71,0,0,1-4.89,6.18c-3.78,4.22-7.9,8.25-10.9,13.1a23.77,23.77,0,0,0-3.44,8.83l5.37-1.41c-2.71-2.4-6-5-7.19-8.58a6.82,6.82,0,0,1-.17-4.55,10.19,10.19,0,0,1,3.22-3.85A59,59,0,0,1,500,483.7a73.86,73.86,0,0,1,10.86-4.76,79.72,79.72,0,0,1,13.64-3.37c1.71-.26,2.66-2.41,2.24-3.95a3.29,3.29,0,0,0-4-2.24Z" style="fill:#11a359"/><path d="M507,480.11a145,145,0,0,0-14.73,11.4c-1,.91.49,2.42,1.52,1.51A140.37,140.37,0,0,1,508.05,482c1.14-.77.07-2.63-1.08-1.85Z" style="fill:#11a359"/><path d="M552.1,776.49a49.53,49.53,0,0,1,31.46-5,48,48,0,0,1,27.53,15.32l-32.22.63c-4.45.08-9,.16-13.26-1s-11.62-6.2-13.51-10" style="fill:#15cc67"/><path d="M553.72,779.27a46.08,46.08,0,0,1,45.45,1.66,43.42,43.42,0,0,1,9.65,8.2l2.27-5.48-27.51.53a111.21,111.21,0,0,1-13.54-.09,20.75,20.75,0,0,1-5-1.11c-.34-.13,0,0,.09,0l-.57-.26c-.29-.13-.58-.28-.86-.43-.76-.39-1.5-.82-2.23-1.28a24.25,24.25,0,0,1-4-3,22.73,22.73,0,0,1-1.68-1.72c-.06-.06-.45-.55-.21-.24s-.13-.19-.17-.24c-.2-.32-.4-.64-.58-1a3.21,3.21,0,0,0-5.54,3.24c1.55,3,4.44,5.35,7.15,7.3a25.43,25.43,0,0,0,9.2,4.44c4.66,1,9.44.92,14.18.83l14.62-.29,16.61-.32a3.25,3.25,0,0,0,2.27-5.48c-11.92-13.48-30.56-19.27-48.11-16a51.91,51.91,0,0,0-14.77,5.17,3.21,3.21,0,0,0,3.24,5.55Z" style="fill:#11a359"/><path d="M575.42,777.29a161.22,161.22,0,0,1-21.83-1.7,2.2,2.2,0,0,0-2.63,1.49,2.16,2.16,0,0,0,1.5,2.64,169.64,169.64,0,0,0,23,1.86c2.76,0,2.76-4.26,0-4.29Z" style="fill:#11a359"/><path d="M525.56,461.58c8,6.1,16.1,12.29,22.23,20.12,1.16,1.49,2.4,3.13,4.27,3.67,2.18.63,4.45-.45,6.45-1.5,5.25-2.76,11.08-6.26,12-11.89.67-4-1.43-8-4.26-11a27.13,27.13,0,0,0-19.74-8.33c-7.42.05-16.4,3.81-21.25,9.15" style="fill:#15cc67"/><path d="M523.65,464.85c6.85,5.23,14,10.74,19.79,17.49a36.4,36.4,0,0,0,4.11,4.73,9.23,9.23,0,0,0,7.78,2.06,21.33,21.33,0,0,0,6.39-2.68,44.7,44.7,0,0,0,4.76-2.93c3.37-2.45,6.44-5.54,7.54-9.69,1.22-4.63-.31-9.46-3.11-13.2a30.53,30.53,0,0,0-23.14-11.78,35.47,35.47,0,0,0-25.15,10.24,3.79,3.79,0,1,0,5.36,5.36,20.51,20.51,0,0,1,1.63-1.6c.31-.28.64-.55,1-.82-.44.35.42-.3.57-.4a32.18,32.18,0,0,1,4.48-2.59,29.51,29.51,0,0,1,4.57-1.67c.8-.22,1.61-.42,2.43-.58l1.12-.19c.44-.08,0,0-.09,0l.92-.1a25.83,25.83,0,0,1,5.2.08c-.09,0-.45-.07,0,0l.8.13,1.19.25c.91.21,1.82.47,2.71.77a21.37,21.37,0,0,1,4.36,2,17.49,17.49,0,0,1,3.95,3,14.25,14.25,0,0,1,3.06,3.93,8.06,8.06,0,0,1,1,4.06s0,.65,0,.29-.07.33-.09.41c-.07.34-.18.66-.28,1s0-.05.07-.12a5.71,5.71,0,0,1-.29.61,10.57,10.57,0,0,1-.61,1,4.43,4.43,0,0,1-.29.42c.38-.52,0,0,0,.05-.23.26-.46.53-.71.78a17.42,17.42,0,0,1-1.87,1.67c.45-.35-.42.3-.56.4-.36.25-.72.49-1.09.72-.73.47-1.48.92-2.24,1.35a27.57,27.57,0,0,1-4.32,2.16l-.61.18s-.65.1-.33.07-.62,0-.23,0-.31-.07-.31-.07c.45.12-.29-.15-.47-.26.43.28-.05,0-.12-.12s-.37-.35-.55-.54c-1.27-1.36-2.34-2.91-3.56-4.31-6.1-7-13.56-12.59-20.9-18.18-1.62-1.24-4.24-.25-5.18,1.36-1.14,1.95-.27,3.94,1.36,5.18Z" style="fill:#11a359"/><path d="M531.66,464.68c.9-.21,1.8-.39,2.71-.53.27,0,.24,0-.09,0l.73-.08c.49,0,1-.08,1.47-.1a30.57,30.57,0,0,1,5.15.21c-.75-.1.48.09.63.11l1.26.25q1.26.29,2.49.66c.82.26,1.62.54,2.41.87-.64-.27.65.3.77.36.44.21.87.44,1.29.67a3.79,3.79,0,1,0,3.83-6.54,34.94,34.94,0,0,0-24.66-3.21A3.83,3.83,0,0,0,527,462a3.88,3.88,0,0,0,4.66,2.65Z" style="fill:#11a359"/><path d="M529.94,771.93c-8,6.1-16.1,12.29-22.23,20.11-1.17,1.5-2.4,3.14-4.27,3.68-2.18.63-4.46-.45-6.45-1.5-5.26-2.76-11.09-6.26-12-11.89-.67-4,1.42-8,4.26-11A27.13,27.13,0,0,1,509,763c7.42,0,16.4,3.81,21.25,9.15" style="fill:#15cc67"/><path d="M528,768.66c-6.52,5-13.13,10-18.82,15.91-1.36,1.43-2.67,2.91-3.89,4.45-.53.67-1,1.35-1.62,2a7,7,0,0,1-.95.93c.48-.36-.68.27-.4.18s-.33,0-.32,0c.54,0-.21-.06-.23-.06.46.11-.51-.13-.64-.17a11.74,11.74,0,0,1-2.25-1c-1.53-.8-3.06-1.64-4.52-2.58-.55-.35-1.52-1-1.74-1.19.17.13-.47-.39-.6-.51-.36-.31-.71-.63-1.05-1s-.49-.5-.72-.77c-.06-.07-.52-.64-.25-.29s-.09-.13-.11-.16c-.18-.29-.37-.57-.54-.87s-.54-1.29-.33-.63c-.12-.38-.24-.76-.33-1.15,0-.17-.08-.34-.11-.51,0,.1,0,.44,0,0a13.08,13.08,0,0,1,0-1.4c0,.09-.08.47,0,0q.08-.4.18-.78a12.47,12.47,0,0,1,.43-1.35c-.15.39.24-.47.3-.58.23-.43.47-.85.73-1.25l.35-.52c0-.05.37-.53.16-.24a19,19,0,0,1,1.91-2.1l.87-.81c.15-.13.3-.26.46-.38s.69-.56.31-.27A26,26,0,0,1,499,768.9a24.3,24.3,0,0,1,4.59-1.55c.68-.16,1.93-.39,2.27-.44-.35.05.31,0,.3,0l.8-.07,1.42-.06a23.16,23.16,0,0,1,2.76.11l.74.08c-.42-.05-.17,0,.1,0,.5.09,1,.18,1.49.29A33.13,33.13,0,0,1,519,769c-.41-.17.66.3.88.4l1.22.61q1.35.72,2.64,1.56l1.08.75.2.15c-.31-.24.41.33.47.39a22.08,22.08,0,0,1,2,1.95,3.79,3.79,0,1,0,5.36-5.36c-5.58-6-14-9.52-22.14-10.18a30.76,30.76,0,0,0-23.66,8.8c-3.32,3.31-5.91,7.68-6,12.47-.12,4.32,2.11,8.3,5.23,11.14a40.51,40.51,0,0,0,10.15,6.49c2.54,1.18,5.23,2,8,1.21a11,11,0,0,0,5.47-4c6.27-7.88,14.14-14.19,21.93-20.13,1.62-1.24,2.48-3.26,1.36-5.18-.94-1.6-3.55-2.61-5.19-1.36Z" style="fill:#11a359"/><path d="M525.85,767.72a34.93,34.93,0,0,0-24.66,3.21,3.82,3.82,0,0,0-1.36,5.18,3.87,3.87,0,0,0,5.18,1.36c.43-.23.86-.46,1.3-.67l.66-.31c.38-.16.45-.2.22-.1s-.15.07.23-.09l.68-.26c.46-.17.92-.32,1.39-.47.82-.25,1.65-.47,2.48-.66l1.09-.22c.13,0,1.57-.24.81-.14a30.53,30.53,0,0,1,5.15-.21c.49,0,1,.06,1.47.1.16,0,1.13.12.46,0a28.88,28.88,0,0,1,2.89.56,3.79,3.79,0,0,0,2-7.31Z" style="fill:#11a359"/><path d="M547.42,367.12c7.86-3.43,10.57-14.24,18-18.55,4.07-2.35,8.95-2.41,13.6-2.4l34.83,0c3.84,0,8,.1,11,2.48-7.82,4.9-17.23,6.14-26.34,6.33s-18.28-.57-27.3.79S553.14,361,547.53,368.5" style="fill:#15cc67"/><path d="M549.47,370.62c4.49-2,7.55-6.09,10.33-10,.64-.91,1.27-1.82,1.92-2.72.33-.45.65-.89,1-1.33-.09.11-.51.62,0,0,.2-.26.41-.51.62-.76a23.32,23.32,0,0,1,2.21-2.34l.6-.53c.18-.15.77-.55,0-.05.56-.38,1.11-.76,1.7-1.08.25-.13.5-.26.76-.37-.55.25.26-.1.39-.15.6-.21,1.2-.38,1.81-.53.41-.1.83-.17,1.24-.25.81-.16.37-.07.17-.05.85-.12,1.7-.17,2.55-.21,3.07-.16,6.16-.07,9.24-.07l20.4,0c3.68,0,7.37-.05,11.05,0,.74,0,1.48.05,2.22.1l1,.1c-.8-.1.45.1.49.11a11.06,11.06,0,0,1,2.26.66c-.6-.26,0,0,.1.09.44.29.9.54,1.33.86v-7a33.7,33.7,0,0,1-3.39,1.85c-.32.16-.64.31-1,.45-.73.32.87-.32-.41.16-.66.25-1.32.5-2,.73a49.59,49.59,0,0,1-7.9,1.87l-.85.12-.2,0c-.71.08-1.42.16-2.14.22-1.35.12-2.71.21-4.07.27-2.9.12-5.81.11-8.71.09-11.7-.11-23.46-.24-34.39,4.54A34.59,34.59,0,0,0,544,366.45c-1.28,1.7-.32,4.61,1.46,5.55,2.13,1.13,4.17.36,5.55-1.46-.4.53.11-.14.22-.26s.42-.5.63-.74q.52-.59,1.08-1.14c.41-.41.84-.8,1.27-1.19l.74-.63c.54-.46-.09.05.25-.2a33.8,33.8,0,0,1,6.17-3.62l.71-.32c-.64.28.14,0,.3-.11q.81-.31,1.65-.6c1.16-.4,2.35-.75,3.55-1.05a45.93,45.93,0,0,1,7.06-1.23c11.6-1.13,23.27.4,34.84-1.26a45.11,45.11,0,0,0,17.45-6c2.79-1.72,2.43-5.21,0-7-5.26-3.89-12.66-3-18.81-3.05l-21.15,0c-3.36,0-6.72,0-10.09,0a33.92,33.92,0,0,0-9.46,1.2c-5.53,1.73-9.23,5.68-12.54,10.23-.78,1.07-1.54,2.17-2.31,3.25-.38.54-.78,1.07-1.17,1.61-.62.85.37-.41-.06.08-.25.29-.48.59-.72.88a29.7,29.7,0,0,1-2.67,2.71c-.14.14-.61.45.09-.05-.34.24-.68.49-1,.71a14,14,0,0,1-1.67.88c-1.94.87-2.55,3.84-1.45,5.54a4.17,4.17,0,0,0,5.55,1.46Z" style="fill:#11a359"/><path d="M603.7,191.88c10.73-9.67,12.43-38.46,22.39-50.42,5.44-6.53,12.53-7,19.3-7.38l50.73-2.55c5.58-.28,11.61-.32,16.6,5.74-10.37,13.54-23.81,17.54-37,18.73s-26.73-.11-39.58,4.17-25.36,15-32,35.35" style="fill:#15cc67"/><path d="M606.59,194.78c5.72-5.22,8.43-13.29,10.76-20.45,1.31-4,2.48-8.09,3.75-12.13.64-2,1.29-4.06,2-6.07.32-.9.65-1.79,1-2.68.15-.38.3-.76.46-1.15.38-1-.36.81.06-.14l.36-.83a40.91,40.91,0,0,1,2.52-4.82c.41-.68.87-1.33,1.33-2s-.12.21-.17.22c.11,0,.38-.46.46-.56a19.45,19.45,0,0,1,1.6-1.67c.2-.19.4-.36.6-.54.93-.83-.34.22.25-.2a16.61,16.61,0,0,1,1.42-.94c.47-.28,1-.53,1.46-.77.19-.09.94-.38.18-.09l1-.37a25.64,25.64,0,0,1,3.1-.8l.7-.13.5-.08.51-.07,1.06-.1c5.74-.52,11.54-.64,17.3-.93l18.9-.94c6.78-.34,13.56-.83,20.35-1a33.11,33.11,0,0,1,3.45.07l.83.09c-.73-.08-.18,0,.22,0a15.62,15.62,0,0,1,1.64.39c.27.08.54.17.8.27l.49.18q-.59-.24-.18-.06c.58.33,1.17.61,1.73,1,.21.13.42.28.62.43-.61-.46.27.25.39.36a18.24,18.24,0,0,1,1.76,1.86v-5.8a50.2,50.2,0,0,1-4.79,5.41,36.19,36.19,0,0,1-4.61,3.85,43.6,43.6,0,0,1-5.42,3.24c-.86.43-1.73.85-2.62,1.22.75-.32-.45.17-.68.26-.56.21-1.12.42-1.68.61a54.37,54.37,0,0,1-5.78,1.62c-.91.21-1.82.39-2.74.56l-1.38.23-.69.11-.29,0c-4.84.62-9.71.81-14.57,1-10.36.34-21.05.57-30.89,4.2a50.26,50.26,0,0,0-18.34,11.77c-7.16,7.23-12,16.37-15.15,26a4.15,4.15,0,0,0,2.87,5,4.2,4.2,0,0,0,5-2.87q.54-1.65,1.14-3.27c.2-.53.4-1.05.61-1.58.11-.25.21-.51.32-.77-.27.64.23-.53.23-.53a66.41,66.41,0,0,1,3-6,58,58,0,0,1,3.28-5.09l.42-.57c.07-.09.52-.68.21-.28s.15-.18.22-.27l.43-.54c.61-.75,1.25-1.47,1.9-2.18a48.35,48.35,0,0,1,4-3.86l1-.82c.22-.18,1.12-.88.4-.33.73-.55,1.48-1.09,2.25-1.61a46.13,46.13,0,0,1,4.23-2.51c.69-.36,1.39-.7,2.09-1,.13-.06,1.28-.55.7-.32s0,0,.17-.06l.66-.26a50.36,50.36,0,0,1,6.37-1.95,63.84,63.84,0,0,1,7.13-1.26c5.15-.58,10.33-.72,15.5-.89,9-.28,18.08-.72,26.69-3.44a49.94,49.94,0,0,0,24.6-17.08,4.28,4.28,0,0,0,0-5.8,20,20,0,0,0-14.43-7,61.62,61.62,0,0,0-7.06.14l-10,.5-39,2c-5.19.26-10.33.79-15.06,3.08a24.62,24.62,0,0,0-10.16,10c-4.29,7.38-6.49,15.9-9,24-.71,2.32-1.43,4.64-2.21,6.93q-.55,1.67-1.17,3.3c-.2.54-.41,1.07-.62,1.59l-.23.57c-.31.79.32-.71-.11.27a46,46,0,0,1-2.85,5.54c-.26.4-.52.81-.8,1.2l-.3.42c-.46.67.61-.71,0,.07a20.07,20.07,0,0,1-1.9,2,4.13,4.13,0,0,0,0,5.8,4.18,4.18,0,0,0,5.79,0Z" style="fill:#11a359"/><path d="M393,90.07a77.37,77.37,0,0,0-55.45,15.4c-15.31,11.92-25.21,29.92-26.79,48.67a99.75,99.75,0,0,1,45.93-41.84c11.65-5.26,26.72-14,36.31-22.23" style="fill:#15cc67"/><path d="M393,86.29a81.63,81.63,0,0,0-47.1,9.24A74.86,74.86,0,0,0,314,128.8a73,73,0,0,0-7,25.34c-.34,3.83,5.3,5.05,7.06,1.92a94.2,94.2,0,0,1,5.39-8.58c1-1.34,1.84-2.52,2.58-3.46q1.59-2,3.27-3.91,3.33-3.77,7-7.18,1.88-1.74,3.86-3.39c.6-.51,1.22-1,1.84-1.5l.86-.68.88-.67a101.36,101.36,0,0,1,17.59-10.53c6.32-3,12.52-6.07,18.54-9.61a140.6,140.6,0,0,0,19.81-13.8,3.81,3.81,0,0,0,0-5.35,3.87,3.87,0,0,0-5.36,0l-1.69,1.41-1,.82-.45.36c.31-.25,0,0-.16.11-1.39,1.05-2.8,2.08-4.23,3.07-3,2.09-6.09,4.07-9.23,6A183,183,0,0,1,355,109a104.69,104.69,0,0,0-33.7,24.35,100.7,100.7,0,0,0-13.75,18.93l7.06,1.91c.08-.83.16-1.66.26-2.5.08-.65-.07.51,0-.14,0-.19.05-.38.08-.57.08-.51.16-1,.25-1.53q.45-2.58,1.11-5.11c.45-1.75,1-3.48,1.57-5.19.27-.8.56-1.59.87-2.38.16-.42.33-.84.5-1.26s0-.07,0,0l.31-.72a70.19,70.19,0,0,1,5.17-9.63q1.43-2.24,3-4.36l.35-.47c-.3.4.1-.12.13-.16l.74-.93q.94-1.14,1.92-2.25a71.71,71.71,0,0,1,7.83-7.56c1.42-1.17,2.41-1.91,4.07-3.06s3.07-2,4.66-3a71.21,71.21,0,0,1,20.46-8.07c2.08-.48,4.19-.88,6.3-1.2L375,94c-.4.06.1,0,.23,0q.83-.1,1.65-.18c1-.11,2.06-.19,3.1-.25a77.8,77.8,0,0,1,13,.33c2,.22,3.87-1.9,3.79-3.79A3.89,3.89,0,0,0,393,86.29Z" style="fill:#11a359"/><path d="M564.72,279.06a77.37,77.37,0,0,0-55.45,15.4c-15.31,11.92-25.21,29.92-26.78,48.67a99.68,99.68,0,0,1,45.92-41.84c11.65-5.26,26.72-14,36.31-22.23" style="fill:#15cc67"/><path d="M564.72,275.28a81.63,81.63,0,0,0-47.1,9.24,74.86,74.86,0,0,0-31.95,33.27,73,73,0,0,0-7,25.34c-.34,3.83,5.31,5.05,7.06,1.92a92.84,92.84,0,0,1,5.39-8.58c1-1.34,1.84-2.52,2.58-3.46q1.59-2,3.27-3.91,3.33-3.77,7-7.18c1.26-1.16,2.54-2.29,3.86-3.39.61-.51,1.22-1,1.84-1.5l.86-.68.89-.67a100.9,100.9,0,0,1,17.58-10.53c6.32-3,12.53-6.07,18.54-9.61a140.6,140.6,0,0,0,19.81-13.8,3.81,3.81,0,0,0,0-5.35,3.87,3.87,0,0,0-5.36,0l-1.69,1.41-1,.82-.45.36c.31-.25,0,0-.16.11-1.39,1.05-2.8,2.08-4.22,3.07-3,2.09-6.1,4.07-9.24,6a183.88,183.88,0,0,1-18.57,9.82A104.74,104.74,0,0,0,493,322.29a100.7,100.7,0,0,0-13.75,18.93l7.06,1.91c.08-.83.16-1.66.26-2.5.08-.65-.07.51,0-.14l.09-.57c.07-.51.16-1,.24-1.53q.47-2.58,1.11-5.11c.45-1.75,1-3.48,1.57-5.19.27-.8.56-1.59.87-2.38.16-.42.33-.84.5-1.26s0-.07,0,0c.1-.24.2-.48.31-.72a69.06,69.06,0,0,1,5.16-9.63q1.43-2.24,3-4.36c.12-.15.23-.31.35-.47-.3.4.1-.12.13-.16l.74-.93q.94-1.14,1.92-2.25a71.71,71.71,0,0,1,7.83-7.56c1.42-1.17,2.41-1.91,4.07-3.06s3.07-2,4.66-3a71.21,71.21,0,0,1,20.46-8.07c2.08-.48,4.19-.88,6.3-1.2l.82-.12c-.4.06.1,0,.23,0l1.65-.18c1-.11,2.06-.19,3.1-.25a76.76,76.76,0,0,1,13,.33c2,.22,3.87-1.9,3.79-3.79a3.89,3.89,0,0,0-3.79-3.78Z" style="fill:#11a359"/><path d="M573.86,304.52c3.57.31,10.65,5.32,12.72,8.1a34.49,34.49,0,0,1,4.43,9.26c.56,1.56,1,3.52-.22,4.66a4.77,4.77,0,0,1-2.92.86l-24.73,1.77a9.75,9.75,0,0,1-4.6-.41,5.71,5.71,0,0,1-3.07-5.86,12.84,12.84,0,0,1,3-6.29,39.85,39.85,0,0,1,15.43-12.09" style="fill:#15cc67"/><path d="M573.86,308.31c-1.33-.14.22.1.57.22l.5.17c.89.3-.73-.37.15.07a31.65,31.65,0,0,1,3.08,1.69c.57.36,1.13.73,1.68,1.12.22.16,1.41,1.08.8.58a26.67,26.67,0,0,1,2.38,2.12c.16.17.31.37.48.52.61.56-.68-1.05.06.08.4.6.8,1.19,1.15,1.81a27.39,27.39,0,0,1,1.76,3.78,23.33,23.33,0,0,1,1.36,4.06c-.14-.74,0,0,0,.16,0,.48.09-.45.14-.56.29-.57,1.27-.78.5-.58-1,.26.52,0-.56.07-7.26.39-14.51,1-21.76,1.55-1.7.12-3.4.26-5.11.29-1.17,0,.18.1-.46,0-.17,0-1-.11-.4-.08l-.3-.17c.31.27.3.26,0,0s-.3-.33-.14-.12.13.16-.09-.16c-.07-.14-.39-1.06-.18-.31-.07-.27-.13-.54-.2-.82-.14-.5-.1.76,0-.16,0,0,.15-1.08,0-.47a8.92,8.92,0,0,1,1.72-3.56,38,38,0,0,1,6.59-6.85c1-.82-.26.18.35-.27.37-.29.76-.56,1.15-.83.66-.47,1.34-.91,2-1.34a43.58,43.58,0,0,1,4.69-2.46c1.87-.83,2.32-3.55,1.36-5.18a3.88,3.88,0,0,0-5.18-1.36,43.52,43.52,0,0,0-17.17,13.95c-2.35,3.21-4,7.4-2.67,11.36,1.45,4.46,5.41,6.65,10,6.46,4.23-.17,8.47-.59,12.69-.89s8.75-.59,13.11-.94c2.5-.2,4.92-.77,6.42-3a7.53,7.53,0,0,0,.77-6,32.63,32.63,0,0,0-1.85-5.12,31.78,31.78,0,0,0-2.74-5.47,26.19,26.19,0,0,0-7.36-6.94,20.85,20.85,0,0,0-9.25-3.92c-2-.21-3.87,1.9-3.79,3.79a3.9,3.9,0,0,0,3.79,3.79Z" style="fill:#11a359"/><path d="M541.94,421.41q2.67-1.46,5.43-2.72c1.1-.49,1.08-.48,2.23-.94.95-.38,1.9-.74,2.86-1.07A78.58,78.58,0,0,1,564,413.55c.93-.18,1.86-.34,2.8-.49,1.22-.18,1.18-.18,2.4-.31,2-.23,4.07-.37,6.11-.44a78.22,78.22,0,0,1,12.24.55,4.05,4.05,0,0,0,3.91-3,4.27,4.27,0,0,0-1.86-4.58,37.77,37.77,0,0,0-52.78,8.27c-1.27,1.71-.34,4.6,1.45,5.54a4.17,4.17,0,0,0,5.55-1.45q.42-.57.06-.09c.15-.2.31-.4.48-.59.32-.39.66-.78,1-1.15.69-.75,1.42-1.47,2.18-2.15.38-.35.78-.67,1.17-1s.4-.32.09-.08c.2-.16.41-.31.62-.46.83-.61,1.7-1.17,2.58-1.7s1.81-1,2.75-1.46c.12-.06,1.51-.67.81-.38.48-.2,1-.38,1.46-.56a34.88,34.88,0,0,1,5.87-1.51l.58-.09c-.4.06-.35.05.15,0s1.09-.1,1.63-.13c1.1-.06,2.2-.07,3.29,0,.55,0,1.09.06,1.64.11.14,0,1.7.19,1,.09,1.09.15,2.16.37,3.23.62s2.11.57,3.14.93c.51.17,1,.37,1.53.56l.16.07.74.34a33.66,33.66,0,0,1,5.57,3.31l2-7.56a83.46,83.46,0,0,0-49.74,9.67A4.09,4.09,0,0,0,536.4,420a4.14,4.14,0,0,0,5.54,1.45Z" style="fill:#11a359"/><path d="M443.48,81.39A77.54,77.54,0,0,1,447,69.76c.2-.5.4-1,.61-1.51-.27.64.23-.52.23-.52.44-1,.9-2,1.38-3,.87-1.77,1.81-3.51,2.8-5.21s2.06-3.37,3.18-5c1.25-1.81,2.2-3.07,3.3-4.41A78.88,78.88,0,0,1,467,41.29a4.1,4.1,0,0,0,.63-4.92A4.22,4.22,0,0,0,463,34.51c-14.86,3.31-26.92,16-29.19,31.12a38.22,38.22,0,0,0,.38,13.9,4.1,4.1,0,0,0,5,2.84,4.16,4.16,0,0,0,2.84-5c-.12-.53-.23-1.06-.32-1.59l-.12-.8c.06.41.05.36,0-.13-.09-1.09-.17-2.16-.17-3.25a32.4,32.4,0,0,1,.16-3.27l.09-.82c-.05.4,0,.35,0-.14s.19-1.08.3-1.62c.23-1.08.51-2.15.84-3.2.17-.53.35-1.05.54-1.57,0-.13.6-1.51.36-1a33,33,0,0,1,3.11-5.57c.25-.37.52-.74.79-1.1-.44.59.48-.58.57-.69.67-.79,1.37-1.54,2.11-2.27s1.5-1.42,2.3-2.07l.6-.49c-.31.24-.28.22.1-.07l1.26-.89a27.65,27.65,0,0,1,10.59-4.56l-3.95-6.78a83.5,83.5,0,0,0-25.59,43.68,4.06,4.06,0,0,0,7.82,2.16Z" style="fill:#11a359"/><path d="M606.45,235.77a32.78,32.78,0,0,1,28.95,9.63c1.63,1.78,3.11,4.27,2,6.39s-4.43,2.54-7,2.07c-6.32-1.14-12.27-4.87-18.65-4.1-3.59.43-7.27,2.27-10.64,1-3.69-1.38-6.12-6.62-3.73-9.63,1.61-2,6.2-2.8,9.09-5.37" style="fill:#15cc67"/><path d="M607.46,239.42s1.28-.17.52-.08c.38-.05.77-.09,1.15-.12.77-.06,1.54-.1,2.31-.1s1.54,0,2.31.06l.77.06c.13,0,1.58.18.91.09a31.78,31.78,0,0,1,4.51,1c.61.18,1.22.38,1.83.59l1.07.4c.43.17.48.19.16.05l.7.31a34.5,34.5,0,0,1,3.69,2,20.14,20.14,0,0,1,3.46,2.59,16.74,16.74,0,0,1,2.55,2.71A6.24,6.24,0,0,1,634,250c-.22-.59.38.61,0,0,.36.6-.26.24.15-.09-.19.32-.21.36,0,.14s.14-.2-.11.07l.29-.22a5.7,5.7,0,0,1-.54.3c.78-.39-.17,0-.31,0-.92.29.65,0-.33.05-.35,0-.69,0-1,0-.12,0-1.25-.12-.36,0l-1-.18c-.91-.19-1.81-.43-2.7-.69-3.3-1-6.49-2.33-9.87-3a22.55,22.55,0,0,0-5.18-.52,30.71,30.71,0,0,0-6.17,1c-.71.17-1.43.35-2.15.45.6-.08-.76,0-.7,0s-1.31,0-.66,0a5.1,5.1,0,0,1-1.22-.32c.86.31,0-.09-.19-.16-.8-.39.41.49-.22-.15l-.66-.67c-.65-.67.26.59-.17-.24-.08-.16-.66-1.35-.32-.48a6.92,6.92,0,0,1-.28-.88c0-.19-.09-.39-.12-.58.07.51.09.56.06.12,0-.18,0-.38,0-.57-.08.53-.07.59,0,.16s.11-.36-.08.12c.18-.3.66-.71,0-.16.77-.69-.34.08.26-.25,2.95-1.62,6.08-2.71,8.67-4.93a3.82,3.82,0,0,0,0-5.36,3.86,3.86,0,0,0-5.35,0c-.08.07-.57.42-.09.09l-.46.3c-.36.24-.73.45-1.1.66-.75.4-1.52.75-2.29,1.1a18.82,18.82,0,0,0-4.43,2.51c-2.89,2.39-3.4,6.62-2.06,10a11.17,11.17,0,0,0,9.38,7.22,20.42,20.42,0,0,0,6.76-.88,24.78,24.78,0,0,1,2.82-.59c-.42.05.75,0,.9,0a15.72,15.72,0,0,1,1.68.06c.21,0,.42,0,.62.06-.09,0-.4-.06,0,0s1,.18,1.45.29c1,.25,2.06.55,3.08.87,1.93.61,3.82,1.31,5.76,1.89,3.76,1.13,8.23,2,11.87,0,4.54-2.52,4.73-8.12,1.88-12a30.07,30.07,0,0,0-8.85-7.8,37.31,37.31,0,0,0-25.28-4.68c-2,.33-3.15,2.83-2.65,4.66a3.89,3.89,0,0,0,4.66,2.64Z" style="fill:#11a359"/><path d="M587.74,245.91c-4.81-5.76-9.9-11.73-17-14.76-9.27-4-20.44-2-29.22,2.87s-15.61,12.34-22,19.85c21.51-4.49,40.2-10.73,61.71-15.22" style="fill:#15cc67"/><path d="M590.42,243.23a71.57,71.57,0,0,0-11.79-11.87,31,31,0,0,0-16.3-6c-12-.94-23.25,4.58-32.17,12.11a117.47,117.47,0,0,0-13.29,13.75,3.82,3.82,0,0,0,3.68,6.33c16.07-3.37,31.81-8,47.73-12q7-1.74,14-3.22a3.79,3.79,0,1,0-2-7.31c-16.06,3.37-31.8,8.06-47.72,12-4.65,1.15-9.31,2.24-14,3.22l3.69,6.33c7-8.15,14.12-16,23.81-20.57a34.52,34.52,0,0,1,13.85-3.17,23.28,23.28,0,0,1,13.27,3.93c4.3,2.84,8.31,7.55,11.91,11.85,1.31,1.57,4,1.35,5.35,0a3.87,3.87,0,0,0,0-5.36Z" style="fill:#11a359"/><path d="M584.51,136.26c.75-7.5,1.84-15.68,7.53-20.92,4.24-3.89,10.33-5.4,16.21-5.8,8.4-.58,17.45,1.08,23.52,6.64,1,.88,1.89,2.22,1.24,3.32a3.35,3.35,0,0,1-1.83,1.2L586,137.36" style="fill:#15cc67"/><path d="M586.19,136.26c.63-6.21,1.38-13.27,5.59-18.22,4.5-5.28,11.83-6.75,18.45-6.92s13.66,1.08,19,5.15a11.49,11.49,0,0,1,1.74,1.52c.12.15.56.6.53.81s-.8.47-1,.56l-5.82,2.15-12.11,4.46-27,10c-2,.74-1.15,4,.89,3.24l27-10,13.5-5,3.26-1.21a13.7,13.7,0,0,0,3.15-1.34,3.57,3.57,0,0,0,.88-4.93,13.47,13.47,0,0,0-4.37-4,26.29,26.29,0,0,0-5-2.54,36.11,36.11,0,0,0-11.25-2.27c-7.55-.39-16,.8-22,5.71-6.73,5.49-8,14.66-8.77,22.75-.22,2.15,3.14,2.13,3.36,0Z" style="fill:#11a359"/><path d="M590.75,135a42.48,42.48,0,0,1,26.08-17.09c2.12-.45,1.22-3.69-.89-3.24a45.9,45.9,0,0,0-28.1,18.63c-1.23,1.79,1.69,3.47,2.91,1.7Z" style="fill:#11a359"/><path d="M605.33,812.77a90.35,90.35,0,0,0-30.84-5.55,95,95,0,0,0-29.2,4.74,135.6,135.6,0,0,0-16.68,6.8,9,9,0,0,0,2.15,16.45,10.14,10.14,0,0,0,6.94-.91q2.82-1.35,5.7-2.58l-2.15.91a98.78,98.78,0,0,1,24.93-7l-2.39.32a81.17,81.17,0,0,1,21.18,0l-2.39-.32a86.36,86.36,0,0,1,18,4.52,9,9,0,0,0,6.93-.91,9,9,0,0,0,3.23-12.31,10.16,10.16,0,0,0-5.38-4.14Z" style="fill:#ad5215"/><path d="M465.05,828.69a159.64,159.64,0,0,1,33.92.84l-2.4-.32A315.57,315.57,0,0,1,529.64,836c4.56,1.13,10-1.45,11.07-6.28,1.06-4.65-1.4-9.87-6.29-11.07-17.71-4.37-35.69-8.22-54-8.47-5.13-.07-10.26.13-15.37.55a9.6,9.6,0,0,0-6.36,2.64,9,9,0,0,0,0,12.72,8.84,8.84,0,0,0,6.36,2.64Z" style="fill:#ad5215"/><path d="M140.73,572.47c-2.77-5-5.7-10.18-8.71-15.56l-4.08-7.28q-3.84-6.86-7.81-14l-10.62-19-10.61-19-7.84-14-4-7.23-8.73-15.58c-.09-.16-.15-.34-.23-.5s-.18-.37-.25-.56-.15-.46-.22-.69-.12-.4-.17-.6-.07-.5-.11-.75-.06-.41-.07-.63a7.3,7.3,0,0,1,0-.81c0-.22,0-.43,0-.65s.07-.58.12-.88,0-.43.1-.66.16-.63.25-.95.11-.43.18-.65.28-.74.43-1.11c.08-.18.13-.36.21-.55.26-.56.55-1.13.87-1.7s.72-1.2,1.12-1.79c.14-.2.3-.39.44-.58.28-.39.56-.77.87-1.15l.07-.09c.07-.09.16-.17.23-.25.49-.59,1-1.17,1.56-1.73l.27-.29c.1-.11.22-.2.33-.31.37-.36.75-.71,1.13-1.05l.44-.41.26-.21c.34-.28.68-.56,1-.83.2-.16.38-.32.59-.48l.22-.16,1-.71.7-.49.21-.13c.34-.23.69-.45,1-.66l.74-.47.19-.11,1.23-.67c.24-.13.48-.28.72-.4l.14-.07c.74-.38,1.49-.74,2.25-1.07l.08,0c.82-.35,1.65-.67,2.48-1L99,434c.24-.09.48-.15.71-.23l1-.33,1.09-.29,1-.26.36-.08c.16,0,.31,0,.47-.08.64-.13,1.28-.23,1.91-.31l.76-.1c.85-.08,1.69-.14,2.52-.15.46,0,.9,0,1.34,0l.33,0H111l.53.07.94.13.38.06.46.11.49.1.47.14.27.07.16.05c.39.13.77.27,1.13.42l.07,0,.16.07c.22.1.4.21.61.32s.45.22.66.35l.09.06c.18.12.35.26.52.39s.4.27.57.42l0,0,.06.05a5.7,5.7,0,0,1,.42.43c.16.15.32.3.47.47l0,0,0,.07a5.09,5.09,0,0,1,.34.47c.13.18.26.35.37.53l0,.07.08.13c2.78,5,5.7,10.2,8.72,15.58l4.05,7.24,7.84,14,10.61,18.95,10.63,19,7.8,14,4.08,7.28,8.71,15.56c.09.16.15.34.23.5s.19.37.26.56.15.46.22.69.12.39.16.6a6.16,6.16,0,0,1,.11.75c0,.21.07.41.08.63a7.3,7.3,0,0,1,0,.81c0,.21,0,.43,0,.65s-.08.58-.12.87-.05.44-.1.66-.16.64-.25,1-.11.43-.18.65-.28.73-.43,1.11c-.08.18-.13.36-.22.54a17.22,17.22,0,0,1-.87,1.71c-.34.61-.71,1.2-1.12,1.79-.13.19-.29.38-.43.58-.28.38-.56.77-.87,1.15l-.07.09c-.07.09-.16.17-.23.25-.49.59-1,1.16-1.56,1.73-.1.09-.17.19-.27.29l-.34.31c-.36.36-.74.71-1.13,1.05-.15.13-.28.28-.44.41l-.26.21c-.33.28-.68.56-1,.83l-.59.48-.22.16-1,.71c-.23.16-.45.33-.69.49l-.21.13c-.34.23-.69.44-1.05.66s-.48.32-.74.47l-.19.1c-.4.24-.81.46-1.22.68l-.73.4-.13.06q-1.11.57-2.25,1.08l-.08,0c-.82.35-1.65.67-2.48,1l-.3.11c-.23.09-.47.15-.71.23l-1.05.32c-.36.11-.72.2-1.09.3l-1,.26-.35.08c-.16,0-.31,0-.47.08-.64.12-1.28.23-1.91.31l-.76.1c-.85.08-1.69.14-2.52.15-.46,0-.91,0-1.34,0-.12,0-.22,0-.33,0h-.35l-.53-.08c-.32,0-.64-.07-1-.12-.12,0-.25,0-.37-.06l-.47-.11-.48-.1-.48-.14-.27-.07-.15,0c-.39-.13-.78-.27-1.14-.42l-.06,0-.17-.07c-.21-.1-.4-.21-.6-.32s-.46-.23-.66-.35l-.09-.06c-.19-.12-.35-.26-.53-.39s-.39-.27-.57-.42l0,0-.06,0c-.15-.14-.28-.29-.42-.43s-.33-.31-.47-.47l0,0-.05-.06c-.12-.15-.22-.32-.33-.47s-.26-.35-.37-.53l-.05-.07s-.05-.09-.08-.14Z" style="fill:#11a359"/><ellipse cx="26.74" cy="416.98" rx="25.81" ry="44.7" transform="translate(-79.09 12.77) rotate(-11)" style="fill:#11a359"/><path d="M26,452.06c8.91,15.68,29.26,28,48,27.6,14.84-.34,23.75-1,38.51,0A408.59,408.59,0,0,1,184,491c31,7.68,28.67,5.74,57.61,19.21q9.23,4.3,18.3,8.93L258.62,505l-19-215-1.07-12.1-1.58-17.67c-2.34,1.82-4.72,3.61-7.14,5.34-4.94,3.59-10,7-15.06,10.4a584.88,584.88,0,0,1-57.23,33.75c-16.38,8.42-33.57,15.41-50.78,22-11.79,4.48-23.55,8.88-35.93,11.41C54,346.52,35.17,350.58,25,364.43a35.62,35.62,0,0,0-4.8,9.13C11.6,397.93,13.66,430.26,26,452.06Z" style="fill:#eef3ff"/><path d="M25,364.43c34.59,4.38,138.3,9.18,214.54-74.42l-1.07-12.1-1.58-17.67c-2.34,1.82-4.72,3.61-7.14,5.34-4.94,3.59-10,7-15.06,10.4a584.88,584.88,0,0,1-57.23,33.75c-16.38,8.42-33.57,15.41-50.78,22-11.79,4.48-23.55,8.88-35.93,11.41C54,346.52,35.17,350.58,25,364.43Z" style="fill:#c7d6dd"/><ellipse cx="283.3" cy="391.24" rx="87.39" ry="146.04" transform="translate(-69.46 61.26) rotate(-11)" style="fill:#5be89b"/><ellipse cx="297.18" cy="386.79" rx="87.39" ry="146.04" transform="translate(-68.36 63.83) rotate(-11)" style="fill:#11a359"/><path d="M243.65,463.43l0,.05a156.14,156.14,0,0,0,15.68,23.22C278,509.41,300.54,522,322.52,519c12.75-1.75,23.9-8.57,32.94-19.2,11.46-13.49,19.54-33.12,23.24-56.31,3.11-19.4,3.13-41.3-.47-64.17-.24-1.44-.46-2.84-.72-4.31-5.66-32-17.54-60.51-32.72-82-19.67-27.79-44.9-43.79-69.36-40.43-28.84,3.94-49.39,33.77-56.12,74.92-.65,3.92-1.14,7.91-1.54,12a5.87,5.87,0,0,1-.05.59c-.1,1.15-.2,2.31-.28,3.47a216,216,0,0,0,3,53,222.08,222.08,0,0,0,15.28,50.91C238.16,453.06,240.82,458.39,243.65,463.43Z" style="fill:#dae7ef"/><path d="M355.45,499.77c11.47-13.49,19.55-33.11,23.25-56.31,3.11-19.4,3.13-41.3-.46-64.17-.24-1.44-.47-2.84-.73-4.3-5.66-32-17.54-60.53-32.72-82-19.85-11-43.8-15.91-63.44,4.5C246.45,333.81,261.38,512.75,355.45,499.77Z" style="fill:#eef3ff"/><path d="M243.65,463.43l0,.05L299,444.35,283.83,339.88l-66.39,3.67c-1.19,16.54-1.27,35,2,53.55a215,215,0,0,0,15.37,50A124.4,124.4,0,0,0,243.65,463.43Z" style="fill:#11a359"/><ellipse cx="288.62" cy="392.34" rx="30.64" ry="53.07" transform="translate(-64.79 57.18) rotate(-10.18)" style="fill:#0e773d"/><ellipse cx="289.59" cy="391.79" rx="25.96" ry="44.96" transform="translate(-64.68 57.34) rotate(-10.18)" style="fill:#5be89b"/><path d="M72.91,472.56s-11.19,1.94-11.74,7.52a60.83,60.83,0,0,0,0,10.85l37.35-4-2.27-15.48Z" style="fill:#b72121"/><path d="M124.12,511.25s25.14,45.29,27,73.39c0,0-7,15.39-12.09,1.72-12.46-33.36-21.07-61.92-31-73.28S124.12,511.25,124.12,511.25Z" style="fill:#ffc2b0"/><path d="M212,532.35a15.33,15.33,0,0,0,10.06-10.64l.07,0,.4-2.56c-8.54-.35-15.41,5.32-15.41,5.32S203.6,535.09,212,532.35Zm-3.67-7s5.49-4.49,12-4.14l-.43,2a11.39,11.39,0,0,1-7.48,7.91C206.18,533.07,208.33,525.31,208.33,525.31Z" style="fill:#4a555e"/><path d="M287.23,611.47c.93,4.12,1.29,6.58.19,10.63-3.65,13.45-7.79,26-9.36,40-.8,7.07-12,7.15-11.18,0A186.4,186.4,0,0,1,275,623.83c.78-2.35,1.63-4.66,2.53-7-.82,2.11.27,3.67-.15,1.78-.27-1.18-.51-2.36-.78-3.54C272.47,596.66,282.9,592.33,287.23,611.47Z" style="fill:#ffc2b0"/><path d="M270.29,559c7.4,12.89,12.76,34.68,17.63,52.32,1.84,4.87.79,17.45-2.29,17.25l-10.4-6.74c-2.55-.17-7.37-5.66-8.56-9.73l-13.05-44.86c-2.13-7.3-.56-13.58,3.62-14.52l-6.18.7C251.79,550.72,264.72,549.85,270.29,559Z" style="fill:#ffe4b0"/><path d="M235.71,640.69l51.65,29.82a3.79,3.79,0,0,0,5.69-3.28v-36a3.79,3.79,0,0,0-1.9-3.29L239.5,598.15a3.8,3.8,0,0,0-5.69,3.29v36A3.77,3.77,0,0,0,235.71,640.69Z" style="fill:#1c2122"/><path d="M263.66,663.87l3.75,1.7A5.79,5.79,0,0,0,275,662.7h0a5.79,5.79,0,0,0-2.87-7.63l-3.76-1.7a5.79,5.79,0,0,0-7.63,2.87h0A5.79,5.79,0,0,0,263.66,663.87Z" style="fill:#ffc2b0"/><ellipse cx="77.57" cy="773.11" rx="57.69" ry="28.66" transform="translate(-16.66 1.85) rotate(-1.24)" style="fill:#a8c4e5;mix-blend-mode:multiply;opacity:0.4"/><path d="M67.67,782.08l-9.64-22c-1.63-1.89-6.15-3.45-9.52-3.57a4.23,4.23,0,0,0-3.73,3l-1.44,3.76c-2.23,5.38-2.08,6.26.07,8.76l12.77,14.83a8.72,8.72,0,0,0,9.24,2.33l.83-.34C69.18,787.61,69.82,784.58,67.67,782.08Z" style="fill:#4a555e"/><path d="M43.4,759.66c0,5.23,13.06,6.62,13,1.39l-.07-17-13-1.39Z" style="fill:#86abd9"/><path d="M116.52,762.37,95,747.1a16.92,16.92,0,0,0-10.1-.54c-1.76.41-2-.91-2,.73l-2,6.84c-1.85,4.55-2.37,5.29,2.84,7.19l21.73,8.43c3.66,1.42,9,1,11.77-.84l.8-.54C120.87,766.49,120.18,763.79,116.52,762.37Z" style="fill:#4a555e"/><path d="M83,748.57c0,5.38,13.11,5.38,13.11,0V731.05H83Z" style="fill:#86abd9"/><path d="M83,743.28c5.18,3.73,13.68,3.65,16.45-.69a865.5,865.5,0,0,0,11-163.85L69.54,566.51C77.72,633.16,87.2,692.13,83,743.28Z" style="fill:#bad4f5"/><path d="M42.23,748.75c3.69,6.39,13,7.43,16,3.43L89,575.38l-43.62-3.3Z" style="fill:#bad4f5"/><path d="M77.78,636.46l3,16.47,10-49.35c-2,.62-2.05-1.87-4.31-1.47Z" style="fill:#86abd9"/><path d="M54.8,529.39c-9.75,11.53-14.57,17.13-22.22,32.94-5,10.34-2.8,19.28,1.52,24.91,5.9,7.7,12.69,16.36,12.69,16.36l-7.57,6.89S11.66,586.9,16.06,565.24L32.32,514Z" style="fill:#ffc2b0"/><path d="M40.24,605.55l1.22-1.15c2.26-2.12,6-1.82,8.37.67l4.82,5.11c2.35,2.49,2.43,6.26.17,8.38l-1.22,1.16c-2.26,2.12-6,1.82-8.37-.67l-4.82-5.11C38.06,611.45,38,607.68,40.24,605.55Z" style="fill:#ffc2b0"/><path d="M112,481.83c13,20.82,25.45,41.77,26.86,56-3.42,11.91-6.7,5.29-15,8.24L98.9,502.35l6.82-11.44Z" style="fill:#eb423d"/><path d="M113.36,581.47c.64-20.6,1.2-39.72,5.07-65.29,1.11-35.53-11.91-49.1-34.55-41.63l-9.33,2.16C47.07,490.43,33.37,489.27,37.31,518l2.78,62.84C39.08,613.12,113.89,619.46,113.36,581.47Z" style="fill:#eb423d"/><polygon points="54.8 527.19 41.64 575.2 40.09 579.86 39.11 556.49 54.8 527.19" style="fill:#b72121"/><path d="M57.14,521.57l-25.41,48.2c-2,2.91-16.78-1.65-16.61-6.79.37-10.75,17.22-66.54,33.26-73.51C61.41,483.81,64.78,504.35,57.14,521.57Z" style="fill:#eb423d"/><path d="M147.13,604.43h0a6.08,6.08,0,0,0,3.59-7.78l-4.94-13.45a6.08,6.08,0,0,0-7.78-3.59h0a6.07,6.07,0,0,0-3.59,7.77l4.94,13.45A6.08,6.08,0,0,0,147.13,604.43Z" style="fill:#ffc2b0"/><path d="M150.24,593.42h0a6.09,6.09,0,0,0,3.6-7.78l-5-13.45a6.07,6.07,0,0,0-7.77-3.59h0a6.07,6.07,0,0,0-3.6,7.77l4.94,13.45A6.08,6.08,0,0,0,150.24,593.42Z" style="fill:#ffc2b0"/><ellipse cx="230.63" cy="832.17" rx="21.88" ry="44.03" transform="translate(-605.5 1048.01) rotate(-88.98)" style="fill:#a8c4e5;mix-blend-mode:multiply;opacity:0.4"/><path d="M259.7,811.94l-10.31-1.29c-6.9-3.13-10.13-5.48-13.2-3.7l-.87.5c-3.08,1.77-2.69,4.9.86,6.95l15.17,12.05a10,10,0,0,0,11.16-1.09s1.7-1.53.48-8C262.3,813.71,262.54,813.58,259.7,811.94Z" style="fill:#ad5215"/><path d="M210.52,829.13l-10.58,6.22c-8.7,2-13.41,2.16-15,6l-.45,1.1c-1.6,3.87,1,6.52,5.81,5.88l22.86.36a11.81,11.81,0,0,0,9.66-9.05s.49-2.65-5.29-7.81C214.23,828.92,214.36,828.62,210.52,829.13Z" style="fill:#ad5215"/><path d="M206.92,834.65c0,5.16,12.55,5.16,12.55,0V817.87H206.92Z" style="fill:#c6d2f2"/><path d="M205.59,824c1.25,6.55,14.33,6.07,17.09,1.84,2-56.56,11.89-115.29,29.15-175.1H206.52C203.35,708.78,202.63,766.57,205.59,824Z" style="fill:#4a555e"/><path d="M250,814c.28,4.68,12.84,4.68,12.55,0l-.93-15.19H249.07Z" style="fill:#c6d2f2"/><path d="M247.67,807.24c4.78,5.17,14.75,3,16.82-.77L264.8,655,233,659.65Z" style="fill:#4a555e"/><path d="M222.25,542c3.17,11.05,11.39,14.16,18.36,7s10-22,6.87-33.08-11.39-14.17-18.36-6.95S219.08,531,222.25,542Z" style="fill:#ffc2b0"/><path d="M211.37,537.41c2.52,11.22,14.12,15.9,21.5,9.11s11.31-21.41,8.79-32.63-10.55-14.8-17.92-8S208.85,526.19,211.37,537.41Z" style="fill:#ffc2b0"/><path d="M237.41,570.43l1.18-.27a7.48,7.48,0,0,0,5.66-8.9l-5-22.56a7.47,7.47,0,0,0-8.9-5.65l-1.18.26a7.47,7.47,0,0,0-5.65,8.9l1.65,22.39C226,568.6,233.41,571.32,237.41,570.43Z" style="fill:#ffc2b0"/><path d="M249.42,540s-.77,12-15.42,9c-10.51-2.11-5.4-19.36-15.89-21.71-11.55-2.58-12.82-17.1-7.9-22.36s17.92-7.39,27-2.75S258.53,505.94,249.42,540Z" style="fill:#875963"/><path d="M224.13,549.65l1.36-2.7a7.6,7.6,0,0,1-6.29,1.25A9.82,9.82,0,0,0,224.13,549.65Z" style="fill:#f09a82"/><path d="M206.58,527.39l18.69,2.9a1.23,1.23,0,0,0,1.4-1h0a1.23,1.23,0,0,0-1-1.39L207,525a1.24,1.24,0,0,0-1.4,1h0A1.23,1.23,0,0,0,206.58,527.39Z" style="fill:#4a555e"/><path d="M217.71,533.27a5.06,5.06,0,1,0,3.83-6A5.06,5.06,0,0,0,217.71,533.27Z" style="fill:#ffc2b0"/><path d="M227.46,540.75s.42,8.74-8.26,7.45c0,0-6.23-2.67-7.27-8.83a19.2,19.2,0,0,0,6.64-4,4.38,4.38,0,0,1,7,1.29Z" style="fill:#875963"/><path d="M269,661.45c-.91-22.27-24.87-108.2-24.87-108.2a42.91,42.91,0,0,0-8.62,3.32c-29.05,15-31.21,19.44-29.93,36.8-.13,28.6-1.52,62.54-.92,76.61C203.73,691.73,262.38,675.6,269,661.45Z" style="fill:#b0daff"/><path d="M273.09,648.66c-3.56-21-3.42-32.42-3.37-54.91.68-40.43-8.55-46-25.4-41.49a62,62,0,0,0-8.21,3.1c-28.81,15.31-36.51,20-35.54,36.8-.61,27.75-.44,58.15-.08,71.79C206.05,683,266.32,662.56,273.09,648.66Z" style="fill:#ffe4b0"/><path d="M220.69,563.78s10.61,3.53,20.3-2.1S250.64,551,250.64,551,234.7,549.14,220.69,563.78Z" style="fill:#b0daff"/><polygon points="149.6 593.61 138.85 599.46 141.92 605.4 153.35 598.28 149.6 593.61" style="fill:#b0daff"/><path d="M217.79,594.41s-14.56,49.69-42.94,39.92c-23.13-8-34.6-28.93-34.6-28.93l14.65-7.76s16.78,22.49,23.56,20.84c15.36-3.74,18.27-41,28.85-44.34C213.34,572.26,217.79,594.41,217.79,594.41Z" style="fill:#ffe4b0"/><path d="M30.37,564.15s3.69,2.78,1.83,6.71S11.26,572.3,12.66,566,15.17,557,30.37,564.15Z" style="fill:#eb423d"/><path d="M127.65,549.18a5.56,5.56,0,0,1-6.65-4.32.51.51,0,0,1,0-.13c-.73-4.31,16.65-13.66,19.15-7.69C142.48,542.65,141.75,546.11,127.65,549.18Z" style="fill:#eb423d"/><path d="M63.14,481.87S61.45,491.56,75.43,500c7.21,4.36,10.68,11.54,12.35,17.46,1,3.46,3,1.8,3.49-1.82,1.19-9.41,1.58-12.14,3.7-19.07,3.44-11.23-1.07-28-1.68-28.18S63.14,481.87,63.14,481.87Z" style="fill:#fff"/><circle cx="90.93" cy="525.42" r="2.36" style="fill:#b72121"/><path d="M92.94,534.49a2.36,2.36,0,1,1-2.35-2.36A2.36,2.36,0,0,1,92.94,534.49Z" style="fill:#b72121"/><path d="M82.77,475s13.48,4.52,10.17,17.23l-.53,15.1s10.76-17,6.11-33.06S82.77,475,82.77,475Z" style="fill:#b72121"/><path d="M88.84,476s-3.07,3.71-4.79,4.32-22.84-12.22-18.27-30.41c2.9-11.52,24.7-5.73,24.7-5.73Z" style="fill:#1c2122"/><path d="M76.78,491.67l1,.3a6.72,6.72,0,0,0,8.26-4.64l5.61-20a6.71,6.71,0,0,0-4.63-8.25l-1-.3a6.71,6.71,0,0,0-8.26,4.64l-8.22,18.41C68.55,485.39,73.24,490.68,76.78,491.67Z" style="fill:#ffc2b0"/><path d="M88.67,478.13a18.3,18.3,0,0,1-13.58-9.72s4.15,13.37,12,15.31Z" style="fill:#f09a82"/><path d="M70.14,473.08s-9.72,11.57,7.43,21.09c0,0,6.58,7.09,6.56,14.72,0,0-5.72-4.71-9-7.27S47,483,70.14,473.08Z" style="fill:#b72121"/><path d="M84.94,469.53c3.33,9.42,10.61,11.69,16.28,5.07s7.56-19.62,4.23-29-10.61-11.69-16.27-5.07S81.62,460.11,84.94,469.53Z" style="fill:#ffc2b0"/><path d="M74.66,467.1c3.32,9.41,19.32,15.7,25,9.08s2-23.05-1.28-32.47S87.75,432,82.09,438.64,71.33,457.68,74.66,467.1Z" style="fill:#ffc2b0"/><path d="M86.17,444.86s1.48,18.47-13.23,22.1c0,0-16.12-10-3.46-27.35,11.17-15.25,27.82-2.8,27.82-2.8Z" style="fill:#1c2122"/><path d="M107,458s-1.68-8-11.16-11.6l7.72-4.26S111.23,444.13,107,458Z" style="fill:#1c2122"/><path d="M78.19,455.41c3.34-4.19,10.17-3.92,19.77-.09a8.57,8.57,0,0,0,4.6.62c7.27-1.24,8.66-10.17,8.66-10.17,1.76-5.93-2.11-8.77-8-10.54l-15.46-4.58C79,428,70.16,435,68.4,440.91l-.44,1C66.2,447.82,72.25,453.65,78.19,455.41Z" style="fill:#1c2122"/><path d="M71.32,466.34A4.4,4.4,0,1,0,74,460.73,4.39,4.39,0,0,0,71.32,466.34Z" style="fill:#ffc2b0"/><path d="M45.52,625.7s10.79-19,10.95-20.88c0,0,4.1,9.89,0,15.39S45.52,625.7,45.52,625.7Z" style="fill:#86abd9"/></g></g></g></svg>