<svg xmlns="http://www.w3.org/2000/svg" viewBox="0 0 731.39 1002.74"><g style="isolation:isolate"><g id="Camada_2" data-name="Camada 2"><g id="Camada_1-2" data-name="Camada 1"><path d="M455.41,382.2a34.37,34.37,0,0,1,12.66,9.44c.47.56,1,1.19,1.7,1.14s1.15-.71,1.55-1.32c1.38-2.1,2.84-4.64,2.2-7.17-.6-2.36-2.75-3.61-4.68-4.58l-6.72-3.39c-1.39-.7-2.92-1.42-4.39-1s-3.22,5.44-2.32,6.87" style="fill:#15cc67"/><path d="M454.23,384.23a32.37,32.37,0,0,1,10.4,7.13c1.61,1.64,3.29,4.46,6,3.64a5.32,5.32,0,0,0,2.79-2.48,20.11,20.11,0,0,0,1.84-3.42,8.31,8.31,0,0,0-.09-7,10.29,10.29,0,0,0-4.5-4.11c-2.16-1.15-4.38-2.21-6.57-3.32s-5.14-2.69-7.67-1.36c-1.61.85-2.47,2.8-3,4.43s-1,3.93,0,5.62c1.48,2.64,5.54.28,4.06-2.37-.17-.31.09.2.09.22-.1-.46,0,.45,0,.12s0-.46,0-.68.06-.47,0-.16.06-.27.07-.28a7.17,7.17,0,0,1,.24-.91c.09-.31.2-.61.32-.91-.18.44.14-.26.19-.36s.26-.42.38-.63c-.24.42-.17.19-.06.09s.39-.25-.07,0c.23-.13,0-.17-.26.08.1-.1-.55-.31.33,0,.31.09.64.11,1,.21a20.93,20.93,0,0,1,2.57,1.24c1.85.93,3.7,1.85,5.54,2.79a17.35,17.35,0,0,1,1.83,1,3.72,3.72,0,0,1,.52.38l.36.34s.45.54.27.29a2.3,2.3,0,0,1,.57,1.35,4.67,4.67,0,0,1-.46,2.36,14,14,0,0,1-1.15,2.07c-.17.28-.4.64-.55.86.05-.08-.11.25-.13.15a1.08,1.08,0,0,1,1.23-.08c.09.07.07.05-.05-.06a14.69,14.69,0,0,0-1.71-1.91c-.63-.67-1.28-1.31-2-1.93a35.34,35.34,0,0,0-9.93-6.49,2.44,2.44,0,0,0-3.22.84,2.37,2.37,0,0,0,.85,3.22Z" style="fill:#11a359"/><path d="M450.31,542.37c2.73-9,11.83-13.6,19.91-12.48s15.18,6.79,21.19,13.2l-39.17.41" style="fill:#15cc67"/><path d="M452.58,543a15.72,15.72,0,0,1,11.26-10.42c6-1.54,12,.82,16.91,4.19a55.4,55.4,0,0,1,9,8l1.67-4-39.17.41c-3,0-3,4.73,0,4.7l39.17-.41a2.38,2.38,0,0,0,1.66-4c-5.38-5.71-11.78-11.19-19.52-13.26a21.45,21.45,0,0,0-19.12,4,20,20,0,0,0-6.38,9.56c-.92,2.89,3.62,4.13,4.53,1.25Z" style="fill:#11a359"/><path d="M473,536.87a24.22,24.22,0,0,0-17.67,2.25c-.89.49-.1,1.84.79,1.36a22.6,22.6,0,0,1,16.47-2.1.78.78,0,0,0,.41-1.51Z" style="fill:#11a359"/><path d="M448.67,413.31a27.48,27.48,0,0,1,20.79-4,30.72,30.72,0,0,1,18.19,12.42l-21.29.51a26.34,26.34,0,0,1-8.76-.78c-2.84-.9-7.68-5-8.93-8.14" style="fill:#15cc67"/><path d="M449.86,415.34a25.34,25.34,0,0,1,20.07-3.52,28.67,28.67,0,0,1,15.69,11.08l2-3.54c-7.94.2-15.9.6-23.85.55-3.23,0-5.65-.41-8.18-2.21a14.24,14.24,0,0,1-4.92-5.58,2.37,2.37,0,0,0-3.21-.84,2.42,2.42,0,0,0-.85,3.22c1.17,2.74,3.6,5,5.93,6.75a16.37,16.37,0,0,0,9.37,3.31c4.17.25,8.42-.08,12.59-.18l13.12-.31c1.64,0,3.13-2,2-3.54-4.54-6.28-10.92-11.27-18.5-13.24a30,30,0,0,0-23.69,4c-2.54,1.63-.19,5.7,2.37,4.06Z" style="fill:#11a359"/><path d="M464.08,414.13a86.79,86.79,0,0,1-14.38-1.39,1.62,1.62,0,0,0-1.93,1.09,1.58,1.58,0,0,0,1.1,1.93,90.31,90.31,0,0,0,15.21,1.5c2,0,2-3.1,0-3.13Z" style="fill:#11a359"/><path d="M429.24,473.11c-6.52-3.87-6.93,2.73-11.09,4.7-3,1.42-4.28-2.59-3.47-5.22,1.41-4.57,7.85-5.9,11.67-5.79a5.51,5.51,0,0,1,4.36,1.77c1.08,1.36.87,3.93-.63,4.21" style="fill:#15cc67"/><path d="M430.43,471.08a9.13,9.13,0,0,0-5.05-1.5,6.6,6.6,0,0,0-4,1.84,28,28,0,0,0-2.27,2.59,16.56,16.56,0,0,1-1.17,1.2l-.24.19c.5-.41.1-.08,0,0l-.4.24-.28.15c.25-.11.25-.12,0,0-.44.14.06,0,.12,0s-.89-.14,0,0c-.48-.09.46.27,0,0s.39.36,0,0,.12.33,0,.06a1.68,1.68,0,0,0-.2-.34c-.28-.43.11.46,0,0-.05-.23-.12-.45-.17-.68-.14-.53-.05.33,0,0a3.39,3.39,0,0,0,0-.45c0-.18,0-.36,0-.54,0-.59-.14.47,0-.09.08-.3.15-.58.25-.87-.18.53,0,0,.08-.12s.26-.43.39-.64c-.27.42-.07.08,0,0l.32-.34.41-.38c.43-.42-.39.24.11-.1.27-.18.53-.36.81-.52s.33-.19.51-.27.85-.39.33-.17a13.39,13.39,0,0,1,2.06-.67q.48-.12,1-.21l.57-.11.37-.05H424a21.05,21.05,0,0,1,2.25-.1h.49c.1,0,.84.13.39,0,.22,0,.45.09.67.15l.44.14c-.21-.09-.19-.07.06.05s.27.15.4.24c-.39-.28.47.6.14.13.07.09.29.62.11.11.05.15.16.9.12.31,0,.13,0,.26,0,.38,0,.28,0,.25,0-.07,0,.11-.05.23-.08.34l.11-.25c-.13.22-.1.2.11-.07-.48.29.81-.29.25-.15a2.35,2.35,0,1,0,1.25,4.53c2.59-.62,3.42-3.58,2.84-5.9-.67-2.66-3.19-4.2-5.76-4.56a17.77,17.77,0,0,0-11.11,2.18c-3.48,2.09-5.66,6.29-4.1,10.28a4.74,4.74,0,0,0,5.4,3.3,8.39,8.39,0,0,0,4.28-2.84c.51-.58,1-1.19,1.49-1.78.23-.27.47-.54.72-.79l.36-.32c.2-.21-.41.24.05,0l.46-.26c.29-.17-.48.12,0,0a1.11,1.11,0,0,0,.26-.07c.21-.1-.45,0-.21,0s.4,0,.59,0c.52,0-.29-.1.1,0s.48.12.71.2l.28.1c.33.13-.31-.15,0,0s.65.33,1,.51c2.62,1.53,5-2.54,2.37-4.06Z" style="fill:#11a359"/><path d="M444.09,579.34A252.18,252.18,0,0,0,403.27,597c-1.33-1.33-1.33-3.85-.45-5.61a10.84,10.84,0,0,1,3.93-3.94,58.72,58.72,0,0,1,41.2-9.83" style="fill:#15cc67"/><path d="M443.46,577.07A258.66,258.66,0,0,0,402.09,595l2.84.36c-.9-1-.18-2.85.52-3.74a16.53,16.53,0,0,1,4.31-3.3,58.29,58.29,0,0,1,12-5.79,55.32,55.32,0,0,1,25.52-2.61,2.45,2.45,0,0,0,2.9-1.64,2.38,2.38,0,0,0-1.65-2.9,60.57,60.57,0,0,0-24,1.38A64,64,0,0,0,413.26,581,43.23,43.23,0,0,0,403,587.39c-3.12,2.84-4.49,7.9-1.41,11.3a2.39,2.39,0,0,0,2.85.37,250.9,250.9,0,0,1,40.25-17.45c2.86-1,1.64-5.49-1.25-4.54Z" style="fill:#11a359"/><path d="M475.89,640.69c.78-2.73,1.64-5.43,2.67-8.07.12-.29.23-.59.35-.88.39-1-.5,1.15,0,0,.27-.61.55-1.23.85-1.83a33.43,33.43,0,0,1,1.94-3.52c.33-.51.68-1,1-1.51.58-.81-.76.9-.16.21.23-.27.46-.54.7-.8s.71-.73,1.09-1.07c1-.88-.82.54-.11.05l.6-.4c.2-.13.4-.25.61-.36.51-.27,1.35-.35-.2,0,.44-.12.88-.28,1.33-.39.89-.23-1.5.07-.36,0,.28,0,.55,0,.83,0s.5.05.74,0c-1.64,0-.71-.1-.13,0,2.67.61,5.82-.82,6.47-3.68.61-2.68-.81-5.82-3.68-6.47-15-3.44-21.54,14.62-24.75,25.82a5.26,5.26,0,0,0,10.15,2.8Z" style="fill:#ad5215"/><path d="M455.84,636.63a87.5,87.5,0,0,0-15.82-17c-5.91-4.74-13.16-9.49-21.08-9.17-2.74.11-5.39,2.34-5.26,5.26.12,2.76,2.32,5.38,5.26,5.26.75,0,1.49.09,2.23.08-1.43,0-.77-.11-.26,0s.77.16,1.15.26a18,18,0,0,1,2.05.64l.59.22-.37-.15a4.29,4.29,0,0,0,.89.41,37.26,37.26,0,0,1,4.46,2.56c.7.46,1.39.94,2.06,1.44.26.2,1.64,1,.4.29a8.82,8.82,0,0,1,1,.82A78.94,78.94,0,0,1,441,635q1.75,1.89,3.4,3.89a13.09,13.09,0,0,0,1.47,1.83l-.23-.3c.13.17.26.33.38.5l.73,1c1.62,2.22,4.65,3.54,7.2,1.89,2.2-1.42,3.62-4.82,1.89-7.2Z" style="fill:#ad5215"/><path d="M454.71,386c9.5,80-13.6,103.77,0,141.32C470,569.68,474.3,638.15,474.3,638.15l-28.38,5.9s6.19-54.37,2-74.3c-4.74-22.69-22.9-59.76-15.92-87,5-19.43,9.88-73,5.81-137.39-2.59-40.84-5.64-117.52.6-174.74C442,137.82,463.88,62.24,453.31,23.28c26.58,26.77,1.74,58.14,1.29,118.63-.46,61-.46,111.22-2.22,145.36C450,333.1,451.62,360.05,454.71,386Z" style="fill:#15cc67"/><path d="M451.93,386a309.94,309.94,0,0,1,.8,68c-1.48,14.42-4.45,28.75-5.1,43.25a84.54,84.54,0,0,0,1.23,19.19c1.48,8,4.71,15.56,7,23.37,5.79,20,9.29,40.59,12,61.16,1.59,12.35,3,24.76,3.73,37.18l2-2.67-28.38,5.9,3.51,2.67q2-17.91,2.94-35.94a265.29,265.29,0,0,0,.32-27.34,97.94,97.94,0,0,0-4.47-23.65C441,535.51,431,512.52,433.6,489.48c.8-7,2.92-14,3.94-21,1.32-9.1,2.23-18.26,2.91-27.43a687,687,0,0,0,1.09-77.54c-.88-22.34-2.53-44.64-3.25-67-.81-25.18-1.06-50.39-.31-75.57.63-21.53,1.63-43.24,5.36-64.49,3.52-20,7.89-39.88,11.08-60s6.09-41.19,3.79-61.64A84.26,84.26,0,0,0,456,22.54l-4.64,2.7a38.28,38.28,0,0,1,11,21.83c1.15,8.53-.12,17.3-1.57,25.71-1.93,11.19-4.36,22.3-6,33.54a297,297,0,0,0-3,42.35c-.21,29.37-.3,58.74-.72,88.1-.36,24.54-1.72,49-2.35,73.54A528.45,528.45,0,0,0,451.93,386c.42,3.51,6,3.55,5.55,0a511.26,511.26,0,0,1-3.41-66.85c.33-25.14,2-50.25,2.41-75.39.5-29.07.59-58.14.79-87.21.1-15.09.29-30,2.33-45,1.57-11.53,4-22.91,6.06-34.35,1.82-10,3.55-20.42,2.22-30.63a43.8,43.8,0,0,0-12.61-25.23,2.79,2.79,0,0,0-4.63,2.7c5,18.7,2.76,39.24.3,58.16-2.75,21.14-7.15,42-11.13,62.94-8.43,44.36-8.46,90-7.5,135,1,48.6,5.83,97,3.51,145.68-.83,17.51-1.95,35.34-5.61,52.52a105.93,105.93,0,0,0-2.25,12,76.26,76.26,0,0,0,.5,17.08c1.51,11.63,4.77,22.94,8.28,34.1,3.07,9.78,6.76,19.56,8.67,29.65,1.46,7.67,1.3,15.73,1.16,23.49-.27,15.52-1.49,31-3.11,46.47-.1,1-.21,2-.32,2.92-.21,1.91,1.94,3,3.51,2.68l28.38-5.9a2.79,2.79,0,0,0,2-2.68c-1.9-30.36-6-61.14-13.41-90.64-3.84-15.29-10.55-29.57-10.58-45.57,0-14,2.82-27.82,4.49-41.63a313.69,313.69,0,0,0-.09-74.32C457.07,382.49,451.52,382.45,451.93,386Z" style="fill:#11a359"/><path d="M460,268" style="fill:#15cc67"/><path d="M460,270.74c3.57,0,3.57-5.54,0-5.54s-3.58,5.54,0,5.54Z" style="fill:#11a359"/><path d="M451.81,394.12c2,30.65-19.05,60.9-45.15,65-2.71.42-5.75.49-7.85-1.55-2.32-2.24-2.65-6.42-1.57-9.7s3.3-5.86,5.5-8.27c12.76-13.95,30.92-31,46.5-40.29" style="fill:#15cc67"/><path d="M449.46,394.12c1.26,20.74-8,42.93-25.23,55.1a44.12,44.12,0,0,1-12.78,6.38c-3.7,1.12-10.76,3.35-12.19-1.9-1.53-5.66,3.22-10.38,6.7-14.13q6.17-6.65,12.71-12.9c9.76-9.35,20.13-18.39,31.76-25.34,2.59-1.55.23-5.61-2.37-4.06-11.24,6.71-21.35,15.35-30.85,24.3q-7.09,6.69-13.78,13.82c-4.31,4.61-9.27,9.65-9.13,16.43a10.24,10.24,0,0,0,3.44,7.91c2.75,2.2,6.25,2.16,9.55,1.65a44.73,44.73,0,0,0,14.77-5.23c9.71-5.41,17.55-14,23-23.59a69.94,69.94,0,0,0,9.1-38.44c-.19-3-4.89-3-4.7,0Z" style="fill:#11a359"/><path d="M445.55,401.61a86.3,86.3,0,0,1-27,37.07,2.36,2.36,0,0,0,0,3.32,2.41,2.41,0,0,0,3.32,0c12.89-10.06,22.36-24,28.2-39.14a2.36,2.36,0,0,0-1.64-2.89,2.4,2.4,0,0,0-2.89,1.64Z" style="fill:#11a359"/><path d="M442.82,161.49c2-30.65-19.05-60.9-45.15-65-2.71-.42-5.74-.49-7.85,1.55-2.32,2.24-2.65,6.42-1.56,9.7s3.3,5.86,5.5,8.27c12.76,14,30.91,31,46.5,40.29" style="fill:#15cc67"/><path d="M445.17,161.49c1.41-23-9.54-47.31-28.95-60.11A47.1,47.1,0,0,0,401.82,95a23.6,23.6,0,0,0-8.3-1,8.78,8.78,0,0,0-7.44,5.66c-2.54,6.45,1.27,12.75,5.46,17.41s8.72,9.28,13.28,13.71c10.47,10.17,21.68,20.05,34.25,27.56,2.6,1.55,5-2.51,2.37-4.06-10.29-6.15-19.55-14-28.31-22.09q-6.78-6.28-13.18-13c-2-2.09-4-4.18-5.9-6.38s-3.54-4.6-4-7.45c-.3-2,0-4.74,1.83-6s4.91-.69,7.06-.24a42,42,0,0,1,13.16,5.24c8.69,5.24,15.57,13.16,20.41,22a65.4,65.4,0,0,1,7.92,35.11c-.19,3,4.52,3,4.7,0Z" style="fill:#11a359"/><path d="M441.1,152.75c-5.85-15.18-15.32-29.08-28.2-39.14a2.43,2.43,0,0,0-3.33,0,2.36,2.36,0,0,0,0,3.32,86.3,86.3,0,0,1,27,37.07,2.42,2.42,0,0,0,2.89,1.64,2.37,2.37,0,0,0,1.65-2.89Z" style="fill:#11a359"/><path d="M448.52,485.32A41.47,41.47,0,0,1,480,490.54c9.55,5.88,17.27,15.74,21.43,27.37.92,2.57,1.6,5.75.13,7.94a4.51,4.51,0,0,1-4.95,1.64,13.75,13.75,0,0,1-4.81-2.85l-39.25-31a11.74,11.74,0,0,1-3.52-3.76c-.82-1.61-.91-3.89.22-5.21" style="fill:#15cc67"/><path d="M449.15,487.58a39,39,0,0,1,25.83,2.9,46.41,46.41,0,0,1,18.11,16.11,54.76,54.76,0,0,1,5.76,11.18c.76,2,2.76,8.42-1.65,7.46-2.13-.47-4.05-2.47-5.71-3.78l-6.22-4.91-12.44-9.82-14-11.05c-2.11-1.66-4.36-3.24-6.33-5.07-1.28-1.21-2.52-3.1-1.25-4.73a2.37,2.37,0,0,0-.85-3.22,2.41,2.41,0,0,0-3.22.84,7.08,7.08,0,0,0-.61,6.71c1,2.5,3,4.12,5.05,5.73l14,11.05,14.19,11.19,7,5.53a51.25,51.25,0,0,0,6.83,5.11,8,8,0,0,0,7.33.51,7,7,0,0,0,3.75-6,16.45,16.45,0,0,0-1.4-7,62.89,62.89,0,0,0-3-6.82,53.94,53.94,0,0,0-18.81-20.81,44.32,44.32,0,0,0-33.57-5.65c-2.95.69-1.7,5.23,1.25,4.53Z" style="fill:#11a359"/><path d="M485.34,504.89c-9.59-10.13-22.74-16.69-36.77-17.19-3-.1-3,4.6,0,4.7,12.81.46,24.71,6.59,33.45,15.81,2.08,2.2,5.4-1.13,3.32-3.32Z" style="fill:#11a359"/><path d="M454.14,267.44c3,0,3-4.7,0-4.7s-3,4.7,0,4.7Z" style="fill:#11a359"/><path d="M449.74,272.39A62.53,62.53,0,0,0,436.12,270a21.42,21.42,0,0,0-13.24,3.67c-7.26,5.25-10.38,15.65-16.31,22.83a3.27,3.27,0,0,0,3.36,1.53,9.56,9.56,0,0,0,3.52-1.6l35.67-22.47" style="fill:#15cc67"/><path d="M450.37,270.12c-8.2-2.09-16.93-4-25-.55-6.74,2.91-10.67,9.23-14.17,15.36a70.82,70.82,0,0,1-6.25,9.87,2.42,2.42,0,0,0-.37,2.85,5.69,5.69,0,0,0,4.75,2.72c2.15.05,4-1.12,5.77-2.22l11.75-7.4,23.5-14.8c2.55-1.61.19-5.68-2.38-4.06l-21,13.22-10.49,6.6c-1.64,1-3.27,2.12-4.94,3.11-.69.41-2.28,1.45-2.92.46l-.37,2.85c4.24-5.2,6.9-11.36,10.68-16.86a21.61,21.61,0,0,1,6.39-6.42,19.47,19.47,0,0,1,10-2.55c4.7,0,9.28,1.2,13.81,2.35,2.93.75,4.18-3.78,1.25-4.53Z" style="fill:#11a359"/><path d="M444.21,270.57a46.4,46.4,0,0,0-21.58,11.16,2.36,2.36,0,0,0,0,3.32,2.39,2.39,0,0,0,3.32,0,41.82,41.82,0,0,1,19.51-9.95,2.35,2.35,0,1,0-1.25-4.53Z" style="fill:#11a359"/><path d="M440.29,445.33c8.73-1.6,17.64-3.2,26.74-1.63s18.59,6.89,23.58,15.82c1,1.82,1.83,4.07,1,5.77-1,2.16-3.87,2-6.21,2A26.71,26.71,0,0,0,469,472c-2.54,1.79-5.19,4.16-8.4,3.48s-5.37-3.87-7.13-6.87a132.47,132.47,0,0,1-10.26-21.59" style="fill:#15cc67"/><path d="M441,448c8.72-1.59,17.83-3.24,26.65-1.35a32,32,0,0,1,17.67,10.14,23.34,23.34,0,0,1,3.06,4.5,6.24,6.24,0,0,1,.77,2.15,1.93,1.93,0,0,1-.07.76c0-.15-.14.05-.19.07a6,6,0,0,1-1.17.22c-.92,0-1.84,0-2.76,0a31.48,31.48,0,0,0-6.49.59A28.73,28.73,0,0,0,467.16,470c-1.38,1-2.88,2.36-4.58,2.76a3.68,3.68,0,0,1-3.51-1.21,21.73,21.73,0,0,1-3.52-4.88c-1.28-2.19-2.49-4.42-3.64-6.67a128.62,128.62,0,0,1-6-13.67,2.86,2.86,0,0,0-3.41-1.94,2.81,2.81,0,0,0-1.94,3.42A143,143,0,0,0,446.7,462c2.1,4.19,4.27,8.61,7.28,12.23a11.7,11.7,0,0,0,5.41,3.87,9.29,9.29,0,0,0,7.1-1c1.91-1,3.52-2.47,5.36-3.59a23.49,23.49,0,0,1,6.06-2.63,24.56,24.56,0,0,1,6.43-.88c2,0,4.08.24,6-.37a6,6,0,0,0,4.24-4.68c.45-2.59-.61-5.14-1.9-7.33-4.3-7.35-11.57-12.56-19.57-15.23-10.94-3.66-22.54-1.76-33.59.26a2.8,2.8,0,0,0-1.94,3.41A2.85,2.85,0,0,0,441,448Z" style="fill:#11a359"/><path d="M466.67,452.77l-12.81-8.68a2.78,2.78,0,0,0-3.79,1,2.84,2.84,0,0,0,1,3.8l12.81,8.68a2.78,2.78,0,0,0,3.79-1,2.85,2.85,0,0,0-1-3.8Z" style="fill:#11a359"/><path d="M504.53,633.36a43.07,43.07,0,0,0-24.66-3.22,46.17,46.17,0,0,0-21.79,10.16,48.49,48.49,0,0,0-9.45,10.61,6.12,6.12,0,0,0,2.18,8.32,6.22,6.22,0,0,0,8.31-2.19c.49-.71,1-1.39,1.51-2.11-1,1.43-.21.27.07-.07s.7-.84,1.06-1.25a42.83,42.83,0,0,1,3.7-3.68l1-.8c.21-.18,1.28-1,.49-.41s.29-.21.51-.37c.38-.28.77-.54,1.16-.8a38.93,38.93,0,0,1,4.51-2.62l1.08-.53.47-.21c.91-.42-.43.18-.5.2.8-.3,1.59-.63,2.4-.9a37.06,37.06,0,0,1,4.75-1.3c.77-.16,1.55-.27,2.32-.41-2,.35-.41.07.06,0s.89-.08,1.34-.1a34.27,34.27,0,0,1,4.86,0c.51,0,1,.09,1.51.14l-.14,0c-1.14-.14,0,0,.18,0,.89.15,1.77.34,2.64.55s1.75.48,2.61.77c.48.16,1,.33,1.44.52l.48.19c-1.7-.58-.59-.25-.19-.08a6.62,6.62,0,0,0,4.68.62,6.23,6.23,0,0,0,3.64-2.8c1.4-2.64.92-6.93-2.18-8.31Z" style="fill:#ad5215"/><path d="M419,642.42c.55-.32,1.11-.63,1.69-.91.28-.13.59-.24.86-.39.07,0-1.33.5-.73.32.19-.06.38-.15.58-.22a24.42,24.42,0,0,1,3.67-1c1-.21-1.47.13-.43.05.29,0,.59-.06.89-.07a17.89,17.89,0,0,1,1.94,0c.6,0,1.19.1,1.79.13s-1-.11-.88-.12a1.69,1.69,0,0,1,.45.07c.35.06.69.12,1,.2a32.87,32.87,0,0,1,3.66,1.11c.71.25-1.26-.57-.58-.25l.43.19c.28.14.57.27.85.42.62.31,1.23.65,1.83,1s1.11.7,1.65,1.07l.81.59c.52.38-.62-.48-.57-.44s.36.29.53.43a33.38,33.38,0,0,1,3.17,3c.57.62,1.13,1.26,1.66,1.92.85,1.05-.52-.73.07.09l.77,1.08a47.27,47.27,0,0,1,2.9,4.89,6.11,6.11,0,0,0,8.32,2.18,6.21,6.21,0,0,0,2.18-8.31c-6.2-12.05-18.8-23-33.21-21.28a29.08,29.08,0,0,0-11.48,3.73A6.08,6.08,0,1,0,419,642.42Z" style="fill:#ad5215"/><path d="M451.62,226.46c.66-8.31,6.23-15.24,12.72-18.76s13.81-4.22,21-4.63c7.61-.43,16.3-.07,21.3,6.64,2,2.7,3,7.33.59,9.59-1.51,1.44-3.67,1.27-5.61,1.07A127.57,127.57,0,0,0,453,224.72" style="fill:#15cc67"/><path d="M454.4,226.46c.63-7.12,5.52-13.33,11.74-16.58a35.84,35.84,0,0,1,12.35-3.48,84.39,84.39,0,0,1,12.1-.66,21.6,21.6,0,0,1,9.63,2.1c2.69,1.44,5.14,4,5.54,6.83a4.57,4.57,0,0,1-.1,2,1.34,1.34,0,0,1-.79.92,4.74,4.74,0,0,1-2.19.13c-1.08-.07-2.16-.21-3.24-.3a127.56,127.56,0,0,0-14.5-.43,132.3,132.3,0,0,0-32.72,5.09c-3.43,1-2,6.34,1.47,5.35a125.22,125.22,0,0,1,47.64-4.28c2.33.23,4.78.29,6.81-1.06a7.51,7.51,0,0,0,3.19-5.91c.31-4.26-2.09-8.4-5.29-11a22.5,22.5,0,0,0-11.9-4.67,63,63,0,0,0-12.8.12,50.32,50.32,0,0,0-14.91,3.11c-9.54,3.9-16.66,12.35-17.58,22.78a2.8,2.8,0,0,0,2.77,2.78,2.85,2.85,0,0,0,2.78-2.78Z" style="fill:#11a359"/><path d="M482.22,209.4a36.89,36.89,0,0,0-26,10.54c-2.2,2.09,1.13,5.41,3.33,3.32a32.1,32.1,0,0,1,22.69-9.16c3,.06,3-4.64,0-4.7Z" style="fill:#11a359"/><path d="M445.5,535.57A59.57,59.57,0,0,1,459,546.9c2.41,2.72,4.74,7,2.9,10.23a5.22,5.22,0,0,1-5.46,2.32c-2-.31-3.9-1.37-5.84-2.11a19.24,19.24,0,0,0-17.43,2.08,60.49,60.49,0,0,1,9.48-21.24" style="fill:#15cc67"/><path d="M444.1,538a56,56,0,0,1,9.31,7.19c2.42,2.31,5.34,5,6.19,8.31a2.8,2.8,0,0,1-.53,2.77,2.71,2.71,0,0,1-1.21.5,5.52,5.52,0,0,1-2.44-.38c-1.86-.61-3.59-1.58-5.48-2.13a21.9,21.9,0,0,0-5.69-.86A22.48,22.48,0,0,0,431.72,557l4.07,3.13A59.09,59.09,0,0,1,445,539.58a2.77,2.77,0,0,0-4.79-2.8,63.07,63.07,0,0,0-9.76,21.9c-.54,2.23,1.95,4.51,4.07,3.13A17.15,17.15,0,0,1,445.65,559c4.19.41,7.79,3.52,12,3.3a7.76,7.76,0,0,0,7.57-8.3c-.32-4.5-3.32-8.09-6.34-11.19a63.05,63.05,0,0,0-12-9.63c-3-1.88-5.84,2.92-2.8,4.79Z" style="fill:#11a359"/><path d="M444.76,540.81l-.65,5.69a2.74,2.74,0,0,0,.81,2,2.78,2.78,0,0,0,3.92,0l.43-.56a2.75,2.75,0,0,0,.38-1.4l.66-5.69a2.78,2.78,0,0,0-4.74-2l-.43.57a2.72,2.72,0,0,0-.38,1.4Z" style="fill:#11a359"/><path d="M440.52,308.4c-5.26,5.83-4.54,22.54-10.74,27-4.37,3.12-10.67-.85-11.94-6.64s1.59-12,5.79-15.45,11.78-4.52,16.89-4.86c-4.13,3.35-9.57,8.33-11.09,13.93" style="fill:#15cc67"/><path d="M438.86,306.74c-3,3.41-4,8.13-5,12.44s-1.69,9.1-4,12.68c-.13.19-.26.39-.4.58.21-.28,0,0-.06.07a7.42,7.42,0,0,1-.94.92c.43-.34-.36.21-.38.22-.44.25,0,.07-.51.24a3,3,0,0,1-1.32.2,6.61,6.61,0,0,1-4.87-3c-3.05-4.52-1.11-10.92,2.34-14.64,4.12-4.44,11.08-5.26,16.8-5.65l-1.66-4c-4.88,4-9.91,8.73-11.69,15-.83,2.92,3.7,4.16,4.53,1.25,1.54-5.4,6.29-9.47,10.49-12.89,1.56-1.27.29-4.15-1.67-4-6.27.43-13.36,1.38-18.42,5.44-5.26,4.23-8.34,12.07-6.31,18.66,1.77,5.71,8.14,10.61,14.14,7.83,4.59-2.13,6.15-8,7.26-12.52.74-3,1.32-6,2.14-8.9a33.67,33.67,0,0,1,1.22-3.71,13.77,13.77,0,0,1,.8-1.58,6.25,6.25,0,0,1,.84-1.21c2-2.27-1.33-5.61-3.33-3.32Z" style="fill:#11a359"/><path d="M459.67,574.07c7.75,1.32,17.52,14.89,25.12,14.52,5.36-.26,7.86-7.27,5.27-12.61s-8.69-8.46-14.11-8.55-12.05,3.74-16.28,6.64c5.32.07,12.68.61,17.33,4.08" style="fill:#15cc67"/><path d="M459.05,576.33a15.44,15.44,0,0,1,6,2.95c2.2,1.55,4.25,3.3,6.35,5,3.74,3,8.54,7.13,13.69,6.67,6.45-.57,9.25-7.51,8-13.22-1.33-6.29-7.48-10.9-13.52-12.19-7.63-1.62-15,2.35-21.11,6.52a2.37,2.37,0,0,0,1.18,4.39c5.47.08,11.56.44,16.15,3.76a2.37,2.37,0,0,0,3.21-.85,2.39,2.39,0,0,0-.84-3.21c-5.22-3.78-12.28-4.31-18.52-4.41l1.19,4.39c4.49-3.07,10.09-6.64,15.76-6.29,4.7.28,9.94,3.3,11.61,7.88a7.91,7.91,0,0,1-.15,6,4,4,0,0,1-4,2.56c-.73,0,.43.1-.3,0l-.47-.1a9.27,9.27,0,0,1-1.44-.46,20.52,20.52,0,0,1-2.65-1.44,58.73,58.73,0,0,1-5.56-4.12c-3.92-3.16-8.25-7.33-13.39-8.29a2.42,2.42,0,0,0-2.9,1.64,2.37,2.37,0,0,0,1.65,2.89Z" style="fill:#11a359"/><path d="M436.53,494.81c-17.81,3.7-33.27,12.13-51.07,15.82-3.34.7-7.79.71-9-3a6.45,6.45,0,0,1,1.26-5.66,13,13,0,0,1,4.4-3.29A80.4,80.4,0,0,1,436.88,491" style="fill:#15cc67"/><path d="M435.9,492.55C418.77,496.14,403,504.37,386,508.13c-2.09.46-5.93,1.3-7.05-.82a3.84,3.84,0,0,1,.72-3.93c1.12-1.44,2.93-2.27,4.51-3.09a80.32,80.32,0,0,1,24-7.85,76.63,76.63,0,0,1,28.12.8c2.95.64,4.21-3.89,1.25-4.53a83.54,83.54,0,0,0-54.75,7c-4,2-8.13,4.47-8.75,9.34-.55,4.32,2.43,7.6,6.58,8.15s8.29-.87,12.13-1.92c4.62-1.27,9.16-2.8,13.66-4.41,10.15-3.62,20.21-7.59,30.78-9.81,3-.62,1.71-5.16-1.25-4.53Z" style="fill:#11a359"/><path d="M432.37,486.86a68.49,68.49,0,0,0-37.66,8.32c-2.66,1.44-.29,5.51,2.38,4.06a63.85,63.85,0,0,1,35.28-7.68,2.35,2.35,0,1,0,0-4.7Z" style="fill:#11a359"/><path d="M433.55,526.86a46.92,46.92,0,0,0-22.44,11.29,12,12,0,0,0-3.91,5.43,10.5,10.5,0,0,0,1,7.43,26.5,26.5,0,0,0,4.4,5.79c1.29-10.92,12.74-17.44,14.62-28.24" style="fill:#15cc67"/><path d="M432.92,524.59a49.49,49.49,0,0,0-22.66,11.19c-3.32,2.84-6.09,6.33-5.68,11s3.23,8.33,6.35,11.72c1.53,1.67,3.77.19,4-1.66.66-5.11,4.09-9.41,7.08-13.39,3.23-4.31,6.46-8.81,7.46-14.22a2.44,2.44,0,0,0-1.65-2.9,2.37,2.37,0,0,0-2.89,1.65c-1,5.36-4.41,9.66-7.6,13.92-3.4,4.54-6.36,9.2-7.1,14.94l4-1.67c-2.32-2.53-4.92-5.38-5-9s3.07-6,5.65-8.09a44.53,44.53,0,0,1,19.27-8.88,2.38,2.38,0,0,0,1.65-2.89,2.41,2.41,0,0,0-2.9-1.65Z" style="fill:#11a359"/><path d="M422.36,533.25a97.09,97.09,0,0,0-9.59,9.11c-.68.74.42,1.85,1.11,1.11a98.37,98.37,0,0,1,9.59-9.12c.78-.64-.34-1.74-1.11-1.1Z" style="fill:#11a359"/><path d="M441.64,355.57a46.88,46.88,0,0,0-22.44,11.29,12.08,12.08,0,0,0-3.91,5.43,10.53,10.53,0,0,0,1,7.44,26.44,26.44,0,0,0,4.4,5.78c1.29-10.92,12.74-17.44,14.62-28.24" style="fill:#15cc67"/><path d="M441,353.31a49.48,49.48,0,0,0-22.66,11.18c-3.32,2.84-6.09,6.33-5.68,11s3.23,8.32,6.35,11.71c1.53,1.67,3.77.19,4-1.66.66-5.1,4.09-9.41,7.08-13.39,3.23-4.31,6.46-8.81,7.45-14.22a2.41,2.41,0,0,0-1.64-2.89,2.36,2.36,0,0,0-2.89,1.64c-1,5.37-4.41,9.66-7.6,13.92-3.4,4.55-6.37,9.2-7.1,14.94l4-1.66c-2.33-2.53-4.92-5.39-5-9s3.08-6,5.66-8.1a44.65,44.65,0,0,1,19.27-8.88A2.36,2.36,0,0,0,443.9,355a2.4,2.4,0,0,0-2.89-1.64Z" style="fill:#11a359"/><path d="M430.45,362a99.48,99.48,0,0,0-9.59,9.11c-.68.74.42,1.85,1.11,1.11a98.27,98.27,0,0,1,9.59-9.11c.78-.65-.34-1.75-1.11-1.11Z" style="fill:#11a359"/><path d="M460.47,602.14a27.46,27.46,0,0,1,20.79-4,30.72,30.72,0,0,1,18.19,12.42l-21.29.51a26.42,26.42,0,0,1-8.77-.78c-2.83-.9-7.68-5-8.92-8.14" style="fill:#15cc67"/><path d="M461.65,604.17a25.35,25.35,0,0,1,20.07-3.52,28.73,28.73,0,0,1,15.7,11.08l2-3.53c-7.94.19-15.91.59-23.85.54-3.24,0-5.66-.41-8.18-2.21A14.08,14.08,0,0,1,462.5,601a2.38,2.38,0,0,0-3.22-.84,2.42,2.42,0,0,0-.84,3.22c1.17,2.74,3.6,5,5.92,6.75a16.37,16.37,0,0,0,9.38,3.31c4.17.25,8.41-.08,12.59-.18l13.12-.31c1.63,0,3.12-2,2-3.54-4.55-6.28-10.93-11.26-18.51-13.24a30.06,30.06,0,0,0-23.69,4c-2.54,1.63-.18,5.71,2.37,4.06Z" style="fill:#11a359"/><path d="M475.88,603a85.53,85.53,0,0,1-14.38-1.39,1.61,1.61,0,0,0-1.93,1.1,1.57,1.57,0,0,0,1.09,1.92,91.39,91.39,0,0,0,15.22,1.51,1.57,1.57,0,0,0,0-3.14Z" style="fill:#11a359"/><path d="M442.93,346.74c5.29,4.95,10.64,10,14.69,16.31.77,1.21,1.58,2.54,2.82,3,1.44.51,2.94-.37,4.26-1.21,3.47-2.24,7.33-5.08,8-9.65a12.45,12.45,0,0,0-2.81-8.94,16.51,16.51,0,0,0-13.05-6.76c-4.9,0-10.83,3.09-14,7.42" style="fill:#15cc67"/><path d="M441,348.7c4.84,4.53,9.77,9.11,13.51,14.62a24,24,0,0,0,2.8,3.89,5.83,5.83,0,0,0,5.48,1.57c2.86-.68,5.76-3,7.91-4.95a13.88,13.88,0,0,0,4.6-7.55,14.33,14.33,0,0,0-2.1-10.11,19.82,19.82,0,0,0-15.27-9.44c-6.78-.48-13.54,3.5-17.54,8.76a2.79,2.79,0,0,0,1,3.79,2.83,2.83,0,0,0,3.79-1,16.3,16.3,0,0,1,10.83-6,13.69,13.69,0,0,1,11.66,5.59,10.15,10.15,0,0,1,2.32,6.45,7.8,7.8,0,0,1-2.68,5.1,20,20,0,0,1-2.37,1.93,13.38,13.38,0,0,1-3.17,2,3.52,3.52,0,0,1-.51.1c.29,0,.42.38,0-.09a7.81,7.81,0,0,1-.65-.84c-.81-1.2-1.58-2.43-2.44-3.6a105,105,0,0,0-13.22-14.1c-2.6-2.44-6.53,1.47-3.92,3.92Z" style="fill:#11a359"/><path d="M447,349a17.13,17.13,0,0,1,1.85-.44l.47-.07-.15,0,.82-.07a17,17,0,0,1,1.89,0c.23,0,.47,0,.7.06l.47.05q-.51-.08,0,0a23.09,23.09,0,0,1,3.44.95c.61.22-.31-.17.22.09.29.14.59.28.87.43a17.71,17.71,0,0,1,1.68,1,2.8,2.8,0,0,0,3.8-1,2.83,2.83,0,0,0-1-3.79,20,20,0,0,0-16.5-2.57A2.77,2.77,0,1,0,447,349Z" style="fill:#11a359"/><path d="M457.38,270.12c5.19-2.78,7-11.54,11.91-15,2.68-1.91,5.91-2,9-2l23,0c2.53,0,5.26.09,7.29,2-5.16,4-11.38,5-17.4,5.13s-12.08-.46-18,.65-12,4.18-15.69,10.28" style="fill:#15cc67"/><path d="M458.87,272.69c2.88-1.61,4.81-4.4,6.46-7.18,1.53-2.58,2.89-5.4,4.81-7.28a8.65,8.65,0,0,1,.78-.7c-.38.29.62-.37.76-.44a7.84,7.84,0,0,1,2.54-.8,34.6,34.6,0,0,1,5.76-.18h14c2.63,0,5.26,0,7.89,0,1.67,0,3.38,0,4.66,1.14l.6-4.66c-6.09,4.57-13.47,4.82-20.79,4.73-7.79-.1-15.76,0-22.72,3.94a24.59,24.59,0,0,0-8.69,8.45c-2,3.26,3.11,6.25,5.12,3,3.33-5.37,8.89-8.21,15-9.1,7.83-1.14,15.79.31,23.62-1.08a26.9,26.9,0,0,0,11.47-4.82c1.43-1.07,2.17-3.26.6-4.66-3.62-3.23-8.28-2.88-12.82-2.89l-14.94,0c-4.62,0-9.59-.49-13.87,1.6-3.28,1.6-5.4,4.83-7.19,7.87-.94,1.61-1.82,3.26-2.86,4.8a10,10,0,0,1-1.45,1.82,4.7,4.7,0,0,1-1.67,1.3c-3.34,1.87-.35,7,3,5.13Z" style="fill:#11a359"/><path d="M452.87,155.17c7.09-7.84,8.21-31.2,14.8-40.9,3.59-5.29,8.28-5.71,12.75-6l33.52-2.06c3.69-.23,7.67-.27,11,4.65-6.86,11-15.74,14.22-24.48,15.19s-17.66-.09-26.15,3.38-16.76,12.19-21.12,28.67" style="fill:#15cc67"/><path d="M455,157.29c3.66-4.13,5.34-9.74,6.78-15,1.66-6,2.9-12.15,4.77-18.1.42-1.35.87-2.68,1.39-4,.06-.14.32-.78.13-.34.13-.3.26-.59.4-.88.27-.6.57-1.19.89-1.77a10.54,10.54,0,0,1,5.92-5.22,16.7,16.7,0,0,1,2.18-.49,1.76,1.76,0,0,1,.46-.06c.42,0,.84-.08,1.26-.12,2.05-.16,4.12-.26,6.18-.38l14-.87c5-.31,10.08-.67,15.12-.93a23.45,23.45,0,0,1,2.37,0l.45,0c.53,0-.67-.15.25,0a11.9,11.9,0,0,1,1.18.28l.44.15c.48.19-.31-.15.16.08a7,7,0,0,1,1.15.69,9.54,9.54,0,0,1,1.8,2v-3a32.55,32.55,0,0,1-6.33,7.46,22.92,22.92,0,0,1-3.1,2.22c-.58.35-1.17.68-1.76,1l-.9.44-.78.35c-5.9,2.42-11.31,2.52-17.64,2.78-7.23.28-14.54.84-21.09,4.2a34.29,34.29,0,0,0-11.34,9.85c-4.42,5.78-7.24,12.68-9.11,19.68-1,3.73,4.79,5.32,5.79,1.59a52.11,52.11,0,0,1,7.73-17.21,28.24,28.24,0,0,1,9.74-8.61c.44-.24.9-.45,1.35-.67.1,0,.87-.36.2-.09.43-.17.87-.34,1.32-.5a33.89,33.89,0,0,1,5.79-1.47,85.77,85.77,0,0,1,11-.83c6-.24,12.21-.65,17.88-2.93a34.88,34.88,0,0,0,16.45-14.22,3,3,0,0,0,0-3,13.31,13.31,0,0,0-9.86-6.13,30.07,30.07,0,0,0-4.93.07l-7.15.44-14.54.9c-4.36.26-8.77.37-13.11.85-3.83.42-7.37,1.52-10.25,4.18a22.51,22.51,0,0,0-5.19,8.19c-2.46,5.89-3.76,12.22-5.31,18.4-.86,3.4-1.75,6.82-2.93,10.13-.13.36-.27.73-.41,1.09-.06.17-.38,1-.32.82.13-.32-.09.21-.12.28l-.28.61c-.15.32-.31.63-.47.94a19.62,19.62,0,0,1-1,1.72c-.19.29-.39.58-.59.86l.12-.16-.43.5a3.08,3.08,0,0,0,0,4.24,3,3,0,0,0,4.25,0Z" style="fill:#11a359"/><path d="M435,220.62c-13-1.8-26.53,2.82-36.65,12.49s-16.65,24.26-17.69,39.47c6.65-14.7,17.47-26.8,30.34-33.93,7.7-4.27,17.66-11.38,24-18" style="fill:#15cc67"/><path d="M435,217.85A46.49,46.49,0,0,0,402.76,226c-9.58,6.67-16.45,16.39-20.61,27.22a67.37,67.37,0,0,0-4.23,19.37c-.19,2.67,4,3.9,5.17,1.4A75.32,75.32,0,0,1,400,250.14a63,63,0,0,1,11.15-8.36c4.24-2.48,8.43-5,12.43-7.85A97.06,97.06,0,0,0,437,222.58c2.47-2.57-1.45-6.5-3.92-3.92-7,7.26-15.39,13-24.09,18a72.87,72.87,0,0,0-22,19.8,80,80,0,0,0-8.72,14.76l5.17,1.4C385,252,397.27,231,417.89,224.75A40.42,40.42,0,0,1,435,223.4c1.48.19,2.77-1.42,2.77-2.78a2.84,2.84,0,0,0-2.77-2.77Z" style="fill:#11a359"/><path d="M440.21,222.18c2.35.25,7,4.32,8.4,6.57a31.29,31.29,0,0,1,2.93,7.5c.37,1.27.68,2.87-.15,3.79a2.77,2.77,0,0,1-1.93.7l-16.34,1.43a5.33,5.33,0,0,1-3-.33c-1.47-.79-2.18-2.87-2-4.75a11.61,11.61,0,0,1,2-5.11,27.94,27.94,0,0,1,10.2-9.8" style="fill:#15cc67"/><path d="M439.47,224.86a4.29,4.29,0,0,1,.77.18c.47.15.08,0,0,0l.45.23a16.4,16.4,0,0,1,1.92,1.24,20.56,20.56,0,0,1,3.39,3.29c-.34-.43.16.25.22.36a12.49,12.49,0,0,1,.76,1.39,21.32,21.32,0,0,1,1.12,2.91c.32,1,.65,2,.91,3,.09.37.08.48.14.8.2,1-.06.24,0,.22a.48.48,0,0,1,.33-.35c.4-.27.39-.33-.05-.17a23.82,23.82,0,0,0-3.23.27l-4,.35-7.71.67a11.51,11.51,0,0,1-3,.17c-.4-.08-.44-.34-.57-.77-.51-1.59.31-3.43,1.23-5a25.29,25.29,0,0,1,9.41-9.13c3.12-1.73.32-6.53-2.8-4.79a30.94,30.94,0,0,0-11.4,11.12,12.14,12.14,0,0,0-2,8.59,6.53,6.53,0,0,0,5.91,5.48,24.41,24.41,0,0,0,4.09-.24l5.13-.45c3.19-.28,6.41-.45,9.59-.86,7.54-1,3.57-10.7,1.49-14.87a17.68,17.68,0,0,0-4.57-5.5c-1.7-1.44-3.87-3.23-6.16-3.55a2.86,2.86,0,0,0-3.41,1.93c-.36,1.3.45,3.2,1.94,3.42Z" style="fill:#11a359"/><path d="M428.1,224a43.7,43.7,0,0,0-18.54,9.59c-.77.66.35,1.76,1.11,1.1a42,42,0,0,1,17.85-9.17c1-.23.56-1.74-.42-1.52Z" style="fill:#11a359"/><path d="M453.9,313.88c8.54-5.72,19-8.59,29.23-7.09a3.09,3.09,0,0,0,3.35-1.36,3,3,0,0,0-.46-3.6,23,23,0,0,0-20-5.74c-6.7,1.39-12.34,6.11-15.82,11.87-2,3.27,3.14,6.26,5.12,3a19.33,19.33,0,0,1,11.93-9.06A16.73,16.73,0,0,1,481.82,306l2.89-5a48,48,0,0,0-33.8,7.68,3.06,3.06,0,0,0-1.07,4.07,3,3,0,0,0,4.06,1.06Z" style="fill:#11a359"/><path d="M450.2,177.26c6.95-1.45,14.47,1.62,19.12,7.82,1.09,1.44,2.06,3.45,1.34,5.17s-2.93,2.07-4.65,1.69c-4.18-.93-8.11-3.95-12.32-3.33-2.38.35-4.81,1.84-7,.82-2.43-1.12-4-5.37-2.46-7.81,1.07-1.65,4.1-2.27,6-4.36" style="fill:#15cc67"/><path d="M450.94,179.94a15.51,15.51,0,0,1,10.6,1.88,18.79,18.79,0,0,1,4.71,3.85,9.2,9.2,0,0,1,1.63,2.34,2.48,2.48,0,0,1,.25.91c0,.42.09,0-.13.37.08-.13.12-.08.23-.13a2.19,2.19,0,0,1-.57.16c.38-.07-.1,0-.16,0s-.4,0-.6,0c.37,0-.1,0-.15,0-.27,0-.53-.12-.78-.19-.66-.19-1.3-.41-1.93-.65a44.55,44.55,0,0,0-6.31-2.31,13.93,13.93,0,0,0-7.16.42,6.06,6.06,0,0,1-2.43.48,1.66,1.66,0,0,1-1.16-1,4.26,4.26,0,0,1-.64-2c0-.06,0-.67,0-.39s.13-.42.14-.49c-.08.33,0-.06.1-.12-.32.4.26-.2.29-.22-.12.09-.3.21.15-.08.22-.14.45-.27.68-.4l1.33-.74a13.84,13.84,0,0,0,3.13-2.36c2.48-2.56-1.43-6.49-3.92-3.92-1.63,1.68-4.06,2.25-5.69,3.95a7.55,7.55,0,0,0-1.31,7.51,8.19,8.19,0,0,0,5.43,5.6c3,.77,5.63-1.23,8.59-1.05,5.17.32,10.36,5.76,15.63,2.67,3.19-1.86,3.25-5.77,1.78-8.76A19.42,19.42,0,0,0,467,178.8a21.7,21.7,0,0,0-17.5-4.21,2.79,2.79,0,0,0-1.93,3.41,2.83,2.83,0,0,0,3.41,1.94Z" style="fill:#11a359"/><path d="M437.84,185.49c-3.19-4.68-6.55-9.52-11.21-12-6.12-3.23-13.5-1.64-19.3,2.32s-10.32,10-14.56,16.1c14.22-3.64,26.57-8.7,40.78-12.34" style="fill:#15cc67"/><path d="M440.23,184.09c-4.7-6.9-10-14-18.87-15-8.43-.94-16.24,4-21.85,9.8a93.19,93.19,0,0,0-9.13,11.62c-1.44,2.07.93,4.65,3.13,4.08,13.76-3.55,27-8.8,40.78-12.35,3.45-.89,2-6.24-1.47-5.35-13.77,3.55-27,8.8-40.78,12.35l3.13,4.07c4.09-5.87,8.53-12.12,14.77-15.88,5.59-3.37,12.66-4.24,17.93.2,3.06,2.59,5.33,5.94,7.57,9.23a2.86,2.86,0,0,0,3.8,1,2.8,2.8,0,0,0,1-3.79Z" style="fill:#11a359"/><path d="M455.05,23c-.49-6.08-1.21-12.72-5-17-2.8-3.16-6.82-4.39-10.7-4.71-5.56-.47-11.53.88-15.55,5.38-.63.72-1.25,1.8-.82,2.7a2.26,2.26,0,0,0,1.21,1l29.85,13.52" style="fill:#15cc67"/><path d="M456.29,23c-.45-5.39-.92-11.29-3.93-16S444,.32,438.62,0C433.4-.24,428,1.13,424.07,4.71c-1.68,1.52-3.77,4.4-1.29,6.25a20.84,20.84,0,0,0,4,1.91l5,2.25L453.44,25c1.43.65,2.68-1.47,1.24-2.13L438.4,15.45l-8.14-3.69-4.07-1.84a9.72,9.72,0,0,1-1.64-.75c-.69-.5-.34-1,.14-1.6,2.91-3.62,8-5.08,12.44-5.11,4.62,0,9.66,1.19,12.58,5.05,3.27,4.32,3.68,10.28,4.11,15.48.13,1.57,2.6,1.58,2.47,0Z" style="fill:#11a359"/><path d="M453,20.64c-4-7.15-10.61-12.94-18.63-15A1.24,1.24,0,0,0,433.66,8c7.43,2,13.46,7.3,17.17,13.92.77,1.38,2.9.14,2.12-1.25Z" style="fill:#11a359"/><ellipse cx="343.99" cy="697.97" rx="23.59" ry="104.67" transform="translate(-433.69 671.35) rotate(-61.8)" style="fill:#4a98ff;mix-blend-mode:multiply;opacity:0.25"/><path d="M324.43,314.18c-68.38-39.48-123.82-7.48-123.82,71.49,0,73.91,48.57,162.76,110.86,206.21l136.68-69C445.54,445.05,391.16,352.7,324.43,314.18Z" style="fill:#d7daed"/><path d="M311.47,591.88q6.39,4.46,13,8.26c68.39,39.48,123.83,7.48,123.83-71.49,0-1.92-.05-3.85-.11-5.79Z" style="fill:#939ecc"/><ellipse cx="305.62" cy="468.02" rx="101.1" ry="175.11" transform="translate(-193.06 215.52) rotate(-30)" style="fill:#eef3ff"/><ellipse cx="305.62" cy="468.02" rx="69.82" ry="120.93" transform="translate(-193.06 215.52) rotate(-30)" style="fill:#6ea7e5"/><ellipse cx="305.62" cy="468.02" rx="41.45" ry="71.8" transform="translate(-193.06 215.52) rotate(-30)" style="fill:#eb423d"/><ellipse cx="305.62" cy="468.02" rx="20.17" ry="34.94" transform="translate(-193.06 215.51) rotate(-30)" style="fill:#56d88d"/><path d="M407.22,533.82l-61-35.2a2.55,2.55,0,0,1-1.17-2c0-.74.52-1,1.17-.67l61,35.2a2.6,2.6,0,0,1,1.16,2C408.38,533.9,407.86,534.2,407.22,533.82Z" style="fill:#ad8282"/><path d="M258.66,448.05l-61-35.2a2.55,2.55,0,0,1-1.17-2c0-.74.52-1,1.17-.67l61,35.2a2.59,2.59,0,0,1,1.16,2C259.82,448.13,259.3,448.43,258.66,448.05Z" style="fill:#ad8282"/><path d="M302.45,422.78a2.57,2.57,0,0,1-1.16-2V350.35c0-.75.52-1.05,1.16-.67a2.55,2.55,0,0,1,1.17,2v70.42C303.62,422.85,303.1,423.16,302.45,422.78Z" style="fill:#ad8282"/><path d="M302.45,594.32a2.57,2.57,0,0,1-1.16-2V521.89c0-.74.52-1,1.16-.67a2.55,2.55,0,0,1,1.17,2v70.42C303.62,594.39,303.1,594.69,302.45,594.32Z" style="fill:#ad8282"/><rect x="192" y="491.35" width="119.28" height="4.04" transform="translate(-185.9 153.82) rotate(-25.16)" style="fill:#91504d"/><path d="M307.06,468.85c0,.91-.64,1.28-1.44.83a3.18,3.18,0,0,1-1.43-2.49c0-.91.64-1.28,1.43-.83A3.16,3.16,0,0,1,307.06,468.85Z" style="fill:#91504d"/><path d="M202.6,534l-30.16,14.5,12.09-23.79L175,512,205.7,497.3A8.87,8.87,0,0,1,216,499.24l3.47,3.74a7.07,7.07,0,0,1,.94,8.38l-7.87,13.5A23.13,23.13,0,0,1,202.6,534Z" style="fill:#56d88d"/><ellipse cx="544.67" cy="785.87" rx="10.32" ry="45.8" transform="translate(-405.3 894.59) rotate(-61.8)" style="fill:#4a98ff;mix-blend-mode:multiply;opacity:0.26"/><ellipse cx="674.97" cy="760.3" rx="8.39" ry="37.23" transform="translate(-314.03 995.93) rotate(-61.8)" style="fill:#4a98ff;mix-blend-mode:multiply;opacity:0.26"/><ellipse cx="46.12" cy="511.49" rx="11.7" ry="51.93" transform="translate(-426.46 310.45) rotate(-61.8)" style="fill:#4a98ff;mix-blend-mode:multiply;opacity:0.25"/><path d="M597.7,236.8c-37.67-21.75-68.21-4.12-68.21,39.38,0,40.72,26.75,89.66,61.07,113.59l75.29-38C664.41,308.89,634.45,258,597.7,236.8Z" style="fill:#d7daed"/><path d="M590.56,389.77c2.34,1.64,4.73,3.16,7.14,4.55,37.67,21.75,68.21,4.12,68.21-39.38,0-1.05,0-2.12-.06-3.19Z" style="fill:#939ecc"/><ellipse cx="587.34" cy="321.54" rx="55.69" ry="96.46" transform="translate(-82.08 336.75) rotate(-30)" style="fill:#eef3ff"/><ellipse cx="587.34" cy="321.54" rx="38.46" ry="66.62" transform="translate(-82.08 336.75) rotate(-30)" style="fill:#6ea7e5"/><ellipse cx="587.34" cy="321.54" rx="22.83" ry="39.55" transform="matrix(0.87, -0.5, 0.5, 0.87, -82.08, 336.75)" style="fill:#eb423d"/><ellipse cx="587.34" cy="321.54" rx="11.11" ry="19.25" transform="translate(-82.08 336.75) rotate(-30)" style="fill:#56d88d"/><path d="M643.3,357.79,609.71,338.4a1.42,1.42,0,0,1-.64-1.11c0-.41.29-.57.64-.37l33.59,19.39a1.41,1.41,0,0,1,.64,1.11C643.94,357.83,643.66,358,643.3,357.79Z" style="fill:#ad8282"/><path d="M561.47,310.55l-33.59-19.4a1.39,1.39,0,0,1-.64-1.11c0-.41.28-.57.64-.37l33.59,19.39a1.45,1.45,0,0,1,.64,1.12C562.11,310.58,561.82,310.75,561.47,310.55Z" style="fill:#ad8282"/><path d="M585.59,296.63a1.42,1.42,0,0,1-.64-1.12V256.72c0-.41.28-.57.64-.37a1.43,1.43,0,0,1,.64,1.11v38.79C586.23,296.66,585.94,296.83,585.59,296.63Z" style="fill:#ad8282"/><path d="M585.59,391.12A1.39,1.39,0,0,1,585,390V351.22c0-.41.28-.58.64-.37a1.42,1.42,0,0,1,.64,1.11v38.79C586.23,391.16,585.94,391.33,585.59,391.12Z" style="fill:#ad8282"/><path d="M68.35,192.68c-26.48-15.29-47.94-2.9-47.94,27.67,0,28.62,18.81,63,42.92,79.83l52.91-26.72C115.24,243.34,94.18,207.59,68.35,192.68Z" style="fill:#d7daed"/><path d="M63.33,300.18q2.48,1.72,5,3.2c26.47,15.29,47.94,2.9,47.94-27.67,0-.75,0-1.49-.05-2.25Z" style="fill:#939ecc"/><ellipse cx="61.07" cy="252.23" rx="39.14" ry="67.79" transform="translate(-117.94 64.33) rotate(-30)" style="fill:#eef3ff"/><ellipse cx="61.07" cy="252.23" rx="27.03" ry="46.82" transform="matrix(0.87, -0.5, 0.5, 0.87, -117.94, 64.33)" style="fill:#6ea7e5"/><ellipse cx="61.07" cy="252.23" rx="16.05" ry="27.79" transform="translate(-117.94 64.33) rotate(-30)" style="fill:#eb423d"/><ellipse cx="61.07" cy="252.23" rx="7.81" ry="13.53" transform="translate(-117.94 64.33) rotate(-30)" style="fill:#56d88d"/><path d="M100.4,277.71,76.79,264.08a1,1,0,0,1-.45-.78c0-.29.2-.4.45-.26l23.61,13.63a1,1,0,0,1,.45.78C100.85,277.74,100.65,277.85,100.4,277.71Z" style="fill:#ad8282"/><path d="M42.89,244.5,19.28,230.88a1,1,0,0,1-.45-.78c0-.29.2-.41.45-.27l23.61,13.63a1,1,0,0,1,.45.78C43.34,244.53,43.14,244.65,42.89,244.5Z" style="fill:#ad8282"/><path d="M59.84,234.72a1,1,0,0,1-.45-.78V206.68c0-.29.2-.4.45-.26a1,1,0,0,1,.45.78v27.26C60.29,234.75,60.09,234.87,59.84,234.72Z" style="fill:#ad8282"/><path d="M59.84,301.13a1,1,0,0,1-.45-.78V273.09c0-.29.2-.41.45-.26a1,1,0,0,1,.45.78v27.26C60.29,301.16,60.09,301.27,59.84,301.13Z" style="fill:#ad8282"/><path d="M683.45,534.42c-26.47-15.28-47.94-2.89-47.94,27.68,0,28.61,18.81,63,42.92,79.83l52.92-26.72C730.34,585.09,709.28,549.34,683.45,534.42Z" style="fill:#d7daed"/><path d="M678.43,641.93c1.65,1.15,3.33,2.22,5,3.2,26.48,15.28,47.94,2.89,47.94-27.68,0-.74,0-1.49,0-2.24Z" style="fill:#939ecc"/><ellipse cx="676.17" cy="593.98" rx="39.14" ry="67.79" transform="translate(-206.4 417.67) rotate(-30)" style="fill:#eef3ff"/><ellipse cx="676.17" cy="593.98" rx="27.03" ry="46.82" transform="matrix(0.87, -0.5, 0.5, 0.87, -206.4, 417.67)" style="fill:#6ea7e5"/><ellipse cx="676.17" cy="593.98" rx="16.05" ry="27.79" transform="translate(-206.4 417.67) rotate(-30)" style="fill:#eb423d"/><ellipse cx="676.17" cy="593.98" rx="7.81" ry="13.53" transform="translate(-206.4 417.66) rotate(-30)" style="fill:#56d88d"/><path d="M715.5,619.45l-23.6-13.62a1,1,0,0,1-.46-.78c0-.29.21-.41.46-.26l23.6,13.62a1,1,0,0,1,.45.78C716,619.48,715.75,619.6,715.5,619.45Z" style="fill:#ad8282"/><path d="M658,586.25l-23.61-13.63a1,1,0,0,1-.45-.78c0-.29.2-.4.45-.26L658,585.21a1,1,0,0,1,.45.78C658.44,586.28,658.24,586.39,658,586.25Z" style="fill:#ad8282"/><path d="M674.94,576.47a1,1,0,0,1-.45-.78V548.43c0-.29.2-.41.45-.27a1,1,0,0,1,.45.79v27.26C675.39,576.49,675.19,576.61,674.94,576.47Z" style="fill:#ad8282"/><path d="M674.94,642.88a1,1,0,0,1-.45-.79V614.83c0-.28.2-.4.45-.26a1,1,0,0,1,.45.79v27.26C675.39,642.9,675.19,643,674.94,642.88Z" style="fill:#ad8282"/><path d="M313.2,150.41c-19.37-11.19-35.07-2.12-35.07,20.24,0,20.93,13.75,46.1,31.4,58.4l38.71-19.54C347.5,187.47,332.09,161.32,313.2,150.41Z" style="fill:#d7daed"/><path d="M309.53,229.05c1.2.84,2.43,1.63,3.67,2.34,19.36,11.19,35.07,2.12,35.07-20.24,0-.55,0-1.09,0-1.64Z" style="fill:#939ecc"/><ellipse cx="307.87" cy="193.97" rx="28.63" ry="49.59" transform="translate(-55.74 179.92) rotate(-30)" style="fill:#eef3ff"/><ellipse cx="307.87" cy="193.97" rx="19.77" ry="34.25" transform="matrix(0.87, -0.5, 0.5, 0.87, -55.74, 179.92)" style="fill:#6ea7e5"/><ellipse cx="307.87" cy="193.97" rx="11.74" ry="20.33" transform="translate(-55.74 179.92) rotate(-30)" style="fill:#eb423d"/><ellipse cx="307.87" cy="193.97" rx="5.71" ry="9.9" transform="translate(-55.74 179.92) rotate(-30)" style="fill:#56d88d"/><path d="M336.64,212.61l-17.27-10a.73.73,0,0,1-.33-.57c0-.21.15-.3.33-.19l17.27,10a.7.7,0,0,1,.33.57C337,212.63,336.83,212.72,336.64,212.61Z" style="fill:#ad8282"/><path d="M294.57,188.32l-17.27-10a.73.73,0,0,1-.33-.57c0-.21.15-.3.33-.19l17.27,10a.73.73,0,0,1,.33.57C294.9,188.34,294.75,188.43,294.57,188.32Z" style="fill:#ad8282"/><path d="M307,181.16a.73.73,0,0,1-.33-.57V160.65c0-.21.15-.3.33-.19a.73.73,0,0,1,.33.57V181C307.3,181.18,307.15,181.27,307,181.16Z" style="fill:#ad8282"/><path d="M307,229.75a.76.76,0,0,1-.33-.58V209.23c0-.21.15-.29.33-.19a.74.74,0,0,1,.33.57v19.95C307.3,229.77,307.15,229.85,307,229.75Z" style="fill:#ad8282"/><ellipse cx="126.53" cy="704.83" rx="59.21" ry="34.18" style="fill:#4897ff;mix-blend-mode:multiply;opacity:0.4"/><path d="M141.57,555l1.28,20.32c1.72,4.78,18.82,9.54,16.91,2.22l-5.31-26.17Z" style="fill:#d35916"/><path d="M154.45,551.4l-13.68-60.76-2.65-62.21c-1.1-13.47-18.07-20-21.27-6.75,0,0-3.71,50-1.45,68.94S141.57,555,141.57,555C143.81,560.64,155.73,557.71,154.45,551.4Z" style="fill:#5983b4"/><path d="M79.12,706.11c6.41-3.93,27.39,13.2,29.43,16.22s2.55,6.18-.72,8.26c-7.32,4.64-17.73,0-24.24-4.23-4.37-2.84-6.28-4-6.84-8.33S75.32,708.43,79.12,706.11Z" style="fill:#1c2122"/><path d="M74.17,531.34,78.34,632.7l-2.09,75.11c0,6.11,17.24,9.21,18.49-.43,0,0,14-67.45,15.44-78.6S120.66,527,120.66,527Z" style="fill:#4083c2"/><polygon points="128.35 559.36 92.23 577.86 81.69 538.04 119.59 522.52 128.35 559.36" style="fill:#4083c2"/><path d="M132.46,697.16c-.58-3-.38-11.77,2.36-14s7.46-2.31,13.49-.56c5.13,1.5,20.64,10.09,23,13s.7,6-3.94,8.47-18.3-.24-26.22-2.45C137.28,700.57,133.05,700.15,132.46,697.16Z" style="fill:#1c2122"/><path d="M148.6,523.82s3.53,20.44,3.69,35.79,2.21,58.87,2.21,58.87L152,682.55c.15,7.71-19.36,7.56-19.36-.58l-4.26-58.56-10-60.21-10.22-38Z" style="fill:#4083c2"/><path d="M126.61,409.77,100.35,413s-31.08,13-37.9,29S78.4,531,78.4,531s13.73,16.56,45.2,6.63,25.07-22.63,25.23-25.44-.63-78.2-5.68-89.73A21.47,21.47,0,0,0,126.61,409.77Z" style="fill:#f2faff"/><path d="M112.38,559a76.42,76.42,0,0,1-46.07-8.79S55.63,458.09,62.45,442c4.42-10.42,19-19.53,28.79-24.65a62.67,62.67,0,0,1,7.54,8.31c7.7,10.13,16.88,27.83,18.64,55.87.48,7.63.91,14.63,1.28,21C120.83,539.62,120.62,556.9,112.38,559Z" style="fill:#6793c7"/><path d="M146.17,545.05a3.8,3.8,0,0,1-2.24-3c-.83-7.07-2.55-23.33-4.17-47.67q-.67-10.26-1.3-22.41c-1.59-31.46-14.6-50.48-23-59.55-.36-.39-.7-.76-1-1.11l.76-.1,2.87-.35,8.52-1.05a21.47,21.47,0,0,1,16.54,12.64c5,11.53,9.3,104.9,9.14,107.71C152.19,531.93,153.57,538.18,146.17,545.05Z" style="fill:#6793c7"/><path d="M118.7,502.59c-4.71-14.51-14-26.41-15.43-29.13-1.67-3.21,6.91-9.64,6.91-9.64a43.25,43.25,0,0,1-10,.7c-4.06-.42-4.91-41-4.91-41l3.48,2.16c7.7,10.13,16.88,27.83,18.64,55.87C117.9,489.18,118.33,496.18,118.7,502.59Z" style="fill:#5983b4"/><path d="M139.76,494.34q-.67-10.26-1.3-22.41c-1.59-31.46-14.6-50.48-23-59.55l-.28-1.21-.76-3.26a24.22,24.22,0,0,1,3.63,2.91c9.69,9.1,26.86,32.73,26.28,38.78-.14,1.49-5.15,4.61-5.15,4.61s5.4,0,6,.81C145.63,455.61,142.11,479,139.76,494.34Z" style="fill:#5983b4"/><path d="M70.16,581.14,69,601.47c1.15,4.95,17.56,11.7,16.53,4.2l-2.18-26.61Z" style="fill:#d35916"/><path d="M83.38,579.06,77,517.1,81.69,455c.5-13.5-15.58-22-20.32-9.21,0,0-9.58,49.16-9.58,68.28s18.37,67,18.37,67C71.72,587,83.91,585.47,83.38,579.06Z" style="fill:#5983b4"/><path d="M94.05,376.84c-.44-12.86,13.41-22.6,26.86-18.32s22.44,14.71,21.2,34.6S135.79,417,131,418.18s-10.14-.71-10.14-.71l-1.76,4.88c-1.63,6.29-27.58.83-26-8.85l1.31-15.68Z" style="fill:#d35916"/><path d="M122.48,379.47s17.79,1.15,20-4.35,2.18-5.5-4-9.54c-6.52-11.41-45.87-21.35-46.82,8C91,399,94,403,94,403s9.23-7.37,10.12-9.87-3.19-7.6,1.83-10.69,6.34,5.35,7,7.79-.69,3.65,3.1,4.38S122.48,379.47,122.48,379.47Z" style="fill:#1c2122"/><path d="M104.09,433.7S93,414.6,93.37,409.77h0l.08-.9s-4.71,5.23-4.71,9.78C91.07,425.2,96.63,430,104.09,433.7Z" style="fill:#5983b4"/><polygon points="24.1 506.56 34.6 504.73 38.09 563.61 54.24 623.96 60.73 643.3 50.26 652.13 34.57 639.06 17.12 568.36 24.1 506.56" style="fill:#cc7a3e"/><ellipse cx="55.61" cy="803.82" rx="52.41" ry="30.26" style="fill:#4897ff;mix-blend-mode:multiply;opacity:0.4"/><path d="M62.33,825.8C71.24,830.11,101,815.63,92.41,809,82.15,800.94,43.84,816.87,62.33,825.8Z" style="fill:#f7f3f0"/><path d="M58,807.59c-1.12,4.24-.46,13-.46,13l27.29-13.86S59.08,803.35,58,807.59Z" style="fill:#f7f3f0"/><path d="M19.27,804.85c8,4.22,30.62-15.34,22.44-20.24C30.91,778.14,5.22,797.45,19.27,804.85Z" style="fill:#f7f3f0"/><polygon points="17.48 794.38 17.23 804.08 32.92 795.78 17.48 794.38" style="fill:#f7f3f0"/><path d="M78.12,643.86s2.46,83.17,2.62,94.93-8.56,68-8.56,68c-1.41,8.13-13,7.43-14.22.83-2.33-27.72-1.12-42.52.14-72L38.37,666V632.58Z" style="fill:#4a555e"/><path d="M14.56,613.85l-4.39,42.38a36.89,36.89,0,0,0-.25,9l4.79,50.46c-1.17,24.63-1,45.05.21,76.07.47,6.21,12.59,7.22,13.48-.1l10.81-66.94,4.51-45,5.16-47.2Z" style="fill:#4a555e"/><path d="M83.86,618.57c-.35-.44-.56-11-.64-11.6-1.06-8.08-1.67-15.13-3.24-22.68a5,5,0,0,1,.16-2.78,3.13,3.13,0,0,0-.3-.2s5.27-53.65.39-58.7a54.14,54.14,0,0,0-30.07-15.37c-8-1.32-16.54-3.23-19-2.4-4.79,1.62-5.13.72-8.46,5.05-3.77,4.91-8.83,49.18-7.09,72.92-1,16.16-1.86,42.66-1.69,49.77s68.72,29.31,68.72,7.82C81.87,628.72,82.88,627.84,83.86,618.57Z" style="fill:#eef3ff;stroke:#eef3ff;stroke-miterlimit:10"/><path d="M189.45,522.27c5.25-3.41,7.85-4.64,13.23-11.15s13,8,10.92,11.52-9.78,5.16-15.86,7Z" style="fill:#c16425"/><path d="M195.27,532.43S158.56,549.71,150,551,86,552.58,86,552.58c-16.59-1.92-27.08-22.28-14.42-22.34l70,2.45,47.14-11.51C197,518,203.15,528.4,195.27,532.43Z" style="fill:#b6bac5;stroke:#b6bac5;stroke-miterlimit:10"/><path d="M33.06,476.35c-.45-13.24,15.19-31.48,29-27.08s18.38,19.46,19.37,31.14-.78,25.42-5.66,26.68-13.71,2.82-13.71,2.82L60.31,520.2c.47,6.62-22.52,2.59-22.52-6.85v-21Z" style="fill:#c16425"/><path d="M63.22,445.68c-32.1-13.18-51,13.23-39.88,34.88-4.81,4.38-7.2,11.69-7.2,17.41,0,14.29,18.67,34.43,45.8,17.06C72.31,508.38,64,493.77,64,493.77s4.39-6.71-6.66-15.84c2,2.22,6.82-.64,7.64-4.92.86-4.48.08-12.13,2-12.6C80.22,456.79,75,440.67,63.22,445.68Z" style="fill:#1c2122;stroke:#1c2122;stroke-miterlimit:10"/><path d="M338.86,703.21s8.74,26-15.81,43.19c0,0-10.9,2.47-10.45-10.91s.94-32.31.94-32.31Z" style="fill:#ffc2b0"/><path d="M209.48,718.86s-8.74,26,15.81,43.18c0,0,10.9,2.48,10.46-10.91s-.95-32.3-.95-32.3Z" style="fill:#ffc2b0"/><path d="M301.25,671.68l17.18,46.66c2.39,3.61,36-14,33-19.52-.52-1-19.3-57.37-38.79-66.25C296.84,625.36,292.27,650.44,301.25,671.68Z" style="fill:#eef3ff;stroke:#eef3ff;stroke-miterlimit:10"/><path d="M269.55,642.71l1.33-.1a8.22,8.22,0,0,0,7.55-8.8l-1.94-25.35a8.22,8.22,0,0,0-8.8-7.54l-1.33.1a8.21,8.21,0,0,0-7.55,8.8l-1.72,24.63C257.44,638.94,265.05,643.06,269.55,642.71Z" style="fill:#ffc2b0"/><path d="M271.26,611.21c-5.14,11.09-14.29,13-20.43,4.29s-6.94-24.79-1.79-35.89,14.29-13,20.42-4.29S276.41,600.11,271.26,611.21Z" style="fill:#ffc2b0"/><path d="M272.62,581s-3.94,22.34,13.57,28.47c0,0,20.81-10.38,7.38-32.94-11.84-19.88-33.58-6.64-33.58-6.64Z" style="fill:#21ded5"/><path d="M247.09,585s6.42-7.6,18.76-6.07L260,569.88S250.54,567.63,247.09,585Z" style="fill:#21ded5"/><path d="M281.13,594.77c-3.8-5.82-12.94-6-26.27-1.73C242.81,593,242,579.2,242,579.2c-1.46-7.45,3.59-10.46,11-11.92l19.39-3.8c11-2.21,20.88,7.3,22.34,14.75l.43,1.23C296.62,586.91,288.57,593.32,281.13,594.77Z" style="fill:#4a555e;stroke:#4a555e;stroke-miterlimit:10"/><ellipse cx="268.9" cy="976.15" rx="26.59" ry="53.52" transform="translate(-708.38 1240.9) rotate(-89.76)" style="fill:#a8c4e5;mix-blend-mode:multiply;opacity:0.4"/><path d="M219,974.66l21.56,17.55c5.44,3.52,9,1,13.48,0a4.4,4.4,0,0,0,3.38-4.39l-.08-4.48c.11-6.46-5.87-10.17-10-12.09l-22-11.72C221.16,957.6,207.76,964.75,219,974.66Z" style="fill:#1c2122;stroke:#1c2122;stroke-miterlimit:10"/><path d="M294.44,945.75,288.83,973c-1.81,14.24,21,16.3,21.94.88l.05-29.46C310.6,939.83,298.07,931.25,294.44,945.75Z" style="fill:#1c2122;stroke:#1c2122;stroke-miterlimit:10"/><path d="M239.21,977.93c0,6.59,16.08,6.51,16-.09l-.11-21.44-16,.08Z" style="fill:#c6d2f2"/><path d="M291.81,964.09c.09,6.59,16.13,6.38,16-.22l-.28-21.44-16.05.21Z" style="fill:#c6d2f2"/><path d="M289.58,958c6.35,4.42,16.75,4.18,20.16-1.12,3.05-78.54,15.23-131.18,13.53-198.28l-50.06-14.12C283.18,825,285.08,895.73,289.58,958Z" style="fill:#ad5215"/><path d="M237.24,966.07c5.18,7,16.66,6.91,20,1.74L288,755.73l-57.92.78Z" style="fill:#ad5215"/><path d="M325.19,753.11c-4.46-22.72-6.2-48.49-2.87-80-.58-43.53-6.59-43.52-35.8-44.89l-6.8-.34A48.39,48.39,0,0,0,255.61,633c-25.6,12.88-38.05,16-32.41,46.82L230,756.51C230.57,796,327.93,799.55,325.19,753.11Z" style="fill:#eef3ff;stroke:#eef3ff;stroke-miterlimit:10"/><polygon points="245.21 692.76 231.74 752.2 230.11 758 227.63 729.46 245.21 692.76" style="fill:#6f9ed9"/><path d="M287.61,616.43c-5.14,11.1-18.25,13.36-24.39,4.64S248.66,595,253.8,583.89,290,573,296.16,581.7,292.76,605.34,287.61,616.43Z" style="fill:#4a555e;stroke:#4a555e;stroke-miterlimit:10"/><path d="M247.65,683.06l-15.91,47.11c-2.3,3.67-36.36-13-33.55-18.62.5-1,17.75-57.87,37-67.27C250.81,636.64,256.05,661.58,247.65,683.06Z" style="fill:#eef3ff;stroke:#eef3ff;stroke-miterlimit:10"/></g></g></g></svg>