<svg xmlns="http://www.w3.org/2000/svg" viewBox="0 0 611.18 612.23"><g style="isolation:isolate"><g id="Camada_2" data-name="Camada 2"><g id="Camada_1-2" data-name="Camada 1"><path d="M517.63,408.2s6,17.73-10.77,29.41c0,0-7.43,1.69-7.12-7.43s.64-22,.64-22Z" style="fill:#ffc2b0"/><ellipse cx="554.64" cy="290.95" rx="68.37" ry="44.72" transform="translate(97.79 719.39) rotate(-70.84)" style="fill:#a8c4e5;mix-blend-mode:multiply;opacity:0.4"/><polygon points="465.44 396.18 474.58 415.18 515.42 355.33 506.28 336.33 465.44 396.18" style="fill:#964f0f"/><ellipse cx="484.07" cy="382.36" rx="11.51" ry="19.94" transform="translate(-117.36 519.51) rotate(-51.15)" style="fill:#964f0f"/><polygon points="449.81 465.5 499.39 395.1 467.83 370.96 417.88 441.76 449.81 465.5" style="fill:#964f0f"/><path d="M428.09,438.26c-8.88-1.39-13.45,4.29-10.21,12.68s13.09,16.31,22,17.69,13.46-4.3,10.21-12.69S437,439.64,428.09,438.26Z" style="fill:#964f0f"/><polygon points="417.09 511.47 466.67 441.07 435.1 416.93 385.15 487.73 417.09 511.47" style="fill:#964f0f"/><ellipse cx="401.25" cy="499.41" rx="11.51" ry="19.94" transform="translate(-239.39 498.63) rotate(-51.15)" style="fill:#964f0f"/><path d="M555.18,256.06l14.77,41c.76,2.1,3.11,2.09,5.25,0h0c2.14-2.12,3.26-5.55,2.5-7.66l-14.77-41c-.75-2.11-3.1-2.09-5.24,0h0C555.54,250.53,554.42,254,555.18,256.06Z" style="fill:#fff"/><path d="M541.2,274,556,315c.76,2.1,3.11,2.09,5.25,0h0c2.14-2.12,3.26-5.55,2.5-7.66l-14.76-41c-.76-2.11-3.11-2.09-5.25,0h0C541.56,268.5,540.44,271.93,541.2,274Z" style="fill:#fff"/><path d="M485.93,317c1.73,36.35,28.47,54.16,59.72,39.8s55.16-55.46,53.43-91.81-28.47-54.16-59.71-39.79S484.2,280.65,485.93,317Zm53.91-81.89c26.54-12.2,49.25,2.93,50.72,33.8s-18.85,65.78-45.39,78-49.25-2.93-50.72-33.8S513.3,247.3,539.84,235.1Z" style="fill:#4a555e"/><path d="M484.44,296c.1-.79.2-1.58.31-2.37,0-.14.05-.28.07-.42.06-.37.13-.75.19-1.12s.14-.91.23-1.37c0-.25.1-.5.14-.76l.24-1.21c.07-.31.12-.63.19-.94s.17-.75.26-1.12l.27-1.22c.05-.2.09-.4.14-.6.13-.53.28-1.06.42-1.59.09-.34.17-.69.27-1,0-.1.05-.2.07-.29.26-.95.54-1.9.83-2.85v0l.09-.26c.25-.83.52-1.67.8-2.5,0-.13.1-.26.14-.39l.33-.94c.16-.45.31-.9.47-1.34l.33-.85.39-1,.29-.75c.2-.51.41-1,.62-1.51l.33-.79.12-.29c.37-.87.75-1.74,1.15-2.61a.37.37,0,0,0,.05-.11c.12-.25.24-.49.35-.74.31-.66.62-1.33.95-2l.15-.31c.27-.54.55-1.07.83-1.61l.66-1.3.13-.23c.74-1.38,1.52-2.75,2.31-4.1.07-.12.13-.24.2-.35.2-.34.42-.67.63-1,.33-.56.67-1.11,1-1.66s.62-1,.93-1.44l1.07-1.6c.12-.18.23-.36.35-.53.29-.42.59-.83.88-1.24l.6-.85c.64-.88,1.29-1.75,1.95-2.6v0h0v0c.76-1,1.53-1.93,2.31-2.88l.11-.13c.57-.68,1.15-1.35,1.74-2l.35-.41,0,0c.7-.79,1.41-1.56,2.13-2.32a1.14,1.14,0,0,1,.11-.11l.66-.68c.46-.47.91-.94,1.38-1.4l.26-.26,1-.9,1-1,.4-.35,1-.94.9-.8.52-.43,1.14-.94.79-.66.63-.48,1.15-.89c.23-.17.46-.36.7-.53s.51-.37.77-.55l1.13-.81.59-.41c.32-.22.65-.42,1-.63l1.06-.7.43-.28,1.32-.78c.3-.18.59-.37.9-.54l.23-.14c.79-.45,1.59-.89,2.39-1.31h0l.18-.09c.73-.37,1.46-.74,2.19-1.08l.56-.26c.6-.28,1.2-.54,1.8-.8l.68-.27.93-.37.71-.28c.39-.15.77-.27,1.15-.4l.82-.29.33-.12c.77-.25,1.52-.48,2.28-.69h0c.77-.22,1.54-.41,2.3-.59l.3-.06.82-.16c.39-.08.78-.17,1.17-.24.19,0,.38-.06.58-.09l1-.16.78-.11c.27,0,.54-.06.81-.08s.68-.08,1-.1l.54-.06.94,0c.39,0,.78,0,1.17,0l.41,0c.32,0,.64,0,1,0l1.24,0h.37l.84.08c.49,0,1,.07,1.47.13l.41,0c.54.07,1.08.15,1.61.24l.2,0,1.21.23.75.18.57.13c.69.18,1.38.36,2,.57l.06,0,.54.19c.56.19,1.12.38,1.67.6l.79.33c.35.15.7.29,1,.45l.26.13c.53.25,1.05.52,1.56.8l.76.4c.76.44,1.5.89,2.22,1.38l11.83,8q-1.1-.74-2.22-1.38l-.76-.4c-.52-.28-1-.55-1.56-.8s-.87-.4-1.31-.58l-.79-.34c-.55-.21-1.1-.41-1.66-.6l-.54-.19c-.7-.22-1.4-.41-2.11-.59l-.57-.14c-.65-.15-1.3-.29-2-.4l-.2,0c-.67-.11-1.34-.2-2-.28l-1.48-.13-1.2-.08c-.41,0-.83,0-1.25,0h-1.37l-1.16.05c-.49,0-1,.05-1.48.09l-1,.1c-.53.06-1.06.12-1.59.2l-1,.16c-.58.09-1.16.2-1.74.32l-.83.17c-.86.19-1.72.4-2.59.64h0c-.87.24-1.74.51-2.62.8l-.82.29c-.61.22-1.24.45-1.86.69l-.92.37c-.83.33-1.65.68-2.49,1.06s-1.84.88-2.75,1.35l-.17.09c-.89.46-1.77.95-2.65,1.45l-.89.54c-.59.35-1.17.7-1.75,1.07-.36.22-.71.46-1.06.69-.53.35-1.05.69-1.56,1.05s-.76.53-1.14.81-1,.71-1.46,1.08l-1.15.88-1.43,1.14-1.13.95c-.48.4-1,.81-1.42,1.23l-1.05.93L528.08,241c-.32.3-.64.6-1,.91-.56.54-1.1,1.1-1.64,1.66l-.67.68c-.76.8-1.51,1.62-2.25,2.45l-.34.39c-.63.72-1.25,1.43-1.86,2.17-.78.93-1.54,1.88-2.29,2.85l0,.05h0c-.66.86-1.31,1.73-1.95,2.62-.21.28-.41.57-.61.85l-1.23,1.76c-.36.53-.71,1.07-1.06,1.61s-.63,1-.94,1.44l-1,1.65-.82,1.36q-1.2,2-2.31,4.11c-.27.5-.53,1-.79,1.52s-.56,1.08-.83,1.62c-.37.76-.74,1.52-1.1,2.29-.11.25-.24.5-.35.75-.46,1-.9,2-1.32,3-.12.27-.22.53-.33.8-.31.75-.62,1.5-.91,2.26l-.39,1c-.28.73-.54,1.46-.8,2.19-.11.32-.23.63-.33.94-.33,1-.65,1.94-.95,2.91a2.25,2.25,0,0,0-.08.24c-.32,1.06-.63,2.11-.92,3.17l-.27,1c-.19.73-.37,1.45-.55,2.18-.1.41-.19.82-.28,1.23-.15.68-.3,1.37-.44,2l-.24,1.22c-.13.71-.26,1.42-.38,2.13l-.18,1.12c-.14.93-.27,1.85-.38,2.78l-.06.41c-.12,1.06-.23,2.13-.31,3.19,0,.3,0,.6-.07.9-.05.76-.1,1.52-.13,2.28,0,.37,0,.74,0,1.1,0,.72,0,1.44,0,2.16v1.05c0,1,0,2,.08,3.06s.13,2.12.22,3.15l.09.88c.08.71.16,1.42.25,2.11.05.41.12.8.18,1.2.09.59.18,1.18.29,1.76s.16.85.24,1.27.22,1.07.34,1.59.22.94.34,1.4.25.95.38,1.41.32,1.08.49,1.62.26.83.4,1.24q.33,1,.69,1.89c.16.39.3.78.46,1.17l.24.57c.28.65.57,1.28.87,1.91.06.12.11.25.17.37.39.78.79,1.54,1.21,2.28v0c.42.74.85,1.45,1.3,2.15.1.14.19.28.28.42.35.52.7,1,1.07,1.52.14.2.29.4.44.59.34.46.69.9,1,1.33l.41.5c.49.57,1,1.13,1.52,1.67.07.07.15.14.22.22.45.46.91.9,1.39,1.33l.52.47c.4.35.81.69,1.22,1l.52.41c.58.45,1.17.89,1.77,1.29l-11.82-8c-.61-.41-1.19-.85-1.77-1.29l-.52-.42c-.42-.33-.83-.68-1.23-1l-.52-.46c-.47-.43-.93-.88-1.39-1.34l-.22-.22c-.52-.54-1-1.1-1.51-1.67l-.41-.49c-.36-.44-.71-.88-1.06-1.33l-.44-.59c-.36-.5-.72-1-1.06-1.53l-.28-.41L492,338c-.43-.66-.84-1.34-1.23-2v0c-.39-.69-.77-1.4-1.13-2.13a1,1,0,0,1-.07-.15l-.18-.37c-.3-.62-.59-1.26-.86-1.91-.09-.19-.17-.38-.25-.57l-.18-.42c-.1-.24-.18-.5-.27-.75q-.36-.93-.69-1.89c-.06-.17-.13-.33-.19-.5s-.14-.49-.22-.74q-.26-.8-.48-1.62c-.07-.22-.14-.43-.2-.66s-.12-.5-.18-.74c-.12-.47-.23-.93-.34-1.41l-.18-.72c-.06-.28-.11-.58-.17-.87l-.24-1.27c0-.21-.09-.42-.13-.64s-.1-.74-.16-1.11l-.18-1.2c0-.16-.05-.32-.07-.48-.07-.54-.12-1.09-.17-1.64,0-.29-.07-.58-.1-.87a1.8,1.8,0,0,0,0-.22c-.08-.91-.14-1.83-.19-2.77v-.17c0-.85-.06-1.71-.08-2.57,0-.17,0-.33,0-.49,0-.35,0-.69,0-1s0-.82,0-1.23l0-.94c0-.36,0-.73,0-1.09l0-.72c0-.52.07-1,.11-1.57l.06-.9c0-.1,0-.2,0-.3.08-.94.18-1.88.29-2.82v-.07Z" style="fill:#4a555e;stroke:#4a555e;stroke-miterlimit:10;stroke-width:4.478315991559593px"/><path d="M493.46,318.29c.91,19,8.4,33.78,21.08,41.49a37,37,0,0,0,14.9,5.12c8.42,1,17.59-.61,26.91-4.89,31.95-14.68,56.51-56.83,54.74-93.95-.91-19-8.4-33.78-21.08-41.49-11.75-7.14-26.6-7.22-41.81-.23C516.25,239,491.69,281.17,493.46,318.29Zm57.08-80c7.19-3.31,14.24-4.57,20.64-3.8a27.45,27.45,0,0,1,11,3.77c9.56,5.81,15.21,17.14,15.91,31.9,1.43,30-18.34,64-44.08,75.84-11.63,5.35-22.87,5.36-31.64,0-9.56-5.81-15.21-17.14-15.91-31.9C505,284.17,524.8,250.15,550.54,238.32Z" style="fill:#b6bac5"/><path d="M492,386.72l11.7,31.78c1.63,2.46,24.52-9.51,22.5-13.29-.36-.67-13.15-39.08-26.42-45.13C489,355.17,485.89,372.25,492,386.72Z" style="fill:#9ebbde"/><path d="M470.41,367l.91-.07a5.6,5.6,0,0,0,5.14-6l-1.32-17.26a5.59,5.59,0,0,0-6-5.14l-.9.06a5.61,5.61,0,0,0-5.14,6l-1.17,16.78C462.16,364.42,467.35,367.22,470.41,367Z" style="fill:#ffc2b0"/><path d="M471.58,345.52c-3.51,7.56-9.74,8.87-13.92,2.93s-4.72-16.89-1.22-24.45,9.73-8.86,13.91-2.92S475.08,338,471.58,345.52Z" style="fill:#ffc2b0"/><path d="M472.5,324.94s-2.68,15.22,9.25,19.4c0,0,14.18-7.07,5-22.44-8.07-13.55-22.88-4.52-22.88-4.52Z" style="fill:#21ded5"/><path d="M455.12,327.68s4.37-5.18,12.77-4.13l-4-6.17S457.46,315.84,455.12,327.68Z" style="fill:#21ded5"/><path d="M478.3,334.33c-2.58-4-8.81-4.08-17.89-1.18-8.21,0-8.78-9.43-8.78-9.43-1-5.07,2.45-7.12,7.52-8.11l13.2-2.59c7.47-1.51,14.23,5,15.22,10l.29.84C488.86,329,483.37,333.34,478.3,334.33Z" style="fill:#ad5215"/><ellipse cx="469.97" cy="594.12" rx="18.11" ry="36.45" transform="translate(-126.14 1061.56) rotate(-89.76)" style="fill:#94979b;mix-blend-mode:multiply;opacity:0.4"/><path d="M435.94,593.11l14.69,11.95c3.71,2.4,6.12.68,9.19,0a3,3,0,0,0,2.3-3l-.06-3c.08-4.4-4-6.93-6.82-8.23l-15-8C437.45,581.48,428.33,586.35,435.94,593.11Z" style="fill:#eef3ff"/><path d="M487.37,573.41,483.55,592c-1.24,9.7,14.27,11.1,14.94.6l0-20.06C498.37,569.38,489.84,563.53,487.37,573.41Z" style="fill:#eef3ff"/><path d="M449.74,595.33c0,4.49,11,4.43,10.94-.06l-.08-14.61-10.93.06Z" style="fill:#c6d2f2"/><path d="M485.57,585.9c.07,4.49,11,4.35,10.94-.15l-.2-14.6-10.93.14Z" style="fill:#c6d2f2"/><path d="M484.06,581.77c4.33,3,11.41,2.85,13.73-.76,2.08-53.5,10.38-89.36,9.21-135.06l-34.09-9.62C479.7,491.13,481,539.34,484.06,581.77Z" style="fill:#4a555e"/><path d="M448.41,587.25c3.52,4.78,11.34,4.71,13.6,1.19L483,444l-39.45.53Z" style="fill:#4a555e"/><path d="M508.32,442.19c-3-15.48-4.23-33-2-54.49-.4-29.65-4.49-29.64-24.39-30.57l-4.63-.23a32.88,32.88,0,0,0-16.42,3.46c-17.44,8.77-25.92,10.88-22.08,31.89l4.66,52.25C443.86,471.43,510.18,473.82,508.32,442.19Z" style="fill:#9ebbde"/><polygon points="453.84 401.08 444.66 441.57 443.55 445.51 441.86 426.08 453.84 401.08" style="fill:#6f9ed9"/><path d="M482.72,349.09c-3.51,7.55-12.44,9.09-16.62,3.15s-9.92-17.76-6.41-25.32,24.67-7.44,28.85-1.49S486.22,341.53,482.72,349.09Z" style="fill:#ad5215"/><path d="M438.5,425.58S435,444,414.66,445.9c0,0-7.3-2.18-2.55-10s11.38-18.85,11.38-18.85Z" style="fill:#ffc2b0"/><path d="M455.5,394.47l-10.84,32.09c-1.57,2.5-24.77-8.85-22.85-12.68.33-.68,12.08-39.42,25.19-45.83C457.65,362.85,461.22,379.84,455.5,394.47Z" style="fill:#9ebbde"/><path d="M91.35,562.8,5.44,511.2a11.46,11.46,0,0,1,.16-19.6L260.36,340.13,293.84,446Z" style="fill:#d9e9ff"/><path d="M99.42,566.45,278.48,447.71c11.2-6.47,20.27-23.82,20.27-38.75V18.15c0-14.93-9.08-21.8-20.28-15.33l-187,107.94c-11.2,6.46-20.28,23.81-20.28,38.74v389c0,9.82,3.67,13.92,9.86,17.49Z" style="fill:#b6bac5"/><path d="M203,199.32s95.86,224.19,95.86,209.26l15.75-395.2L291.09,1c-3.45-1.62-7.8-1.27-12.53,1.46L91.61,110.37c-5.47,3.16-10.43,8.91-14.08,15.71Z" style="fill:#ebf3ff"/><path d="M110.36,565.18,296.85,457.25c11.2-6.47,19.82-23.81,19.82-38.75V27.69c0-14.93-8.84-21.8-20-15.33L110.24,120.3C99,126.76,90.53,144.11,90.53,159V549.85C90.53,564.79,99.16,571.65,110.36,565.18Z" style="fill:#fff"/><path d="M114.1,566.57,300.59,458.63c11.2-6.46,19.82-23.81,19.82-38.74V29.07c0-14.93-8.84-21.79-20-15.33L114,121.68c-11.2,6.47-19.71,23.81-19.71,38.74V551.24C94.27,566.17,102.9,573,114.1,566.57Z" style="fill:#4a555e"/><path d="M119.27,499.78l181.83-105a6.12,6.12,0,0,0,3.06-5.29v-330a6.12,6.12,0,0,0-9.17-5.3l-181.83,105a6.13,6.13,0,0,0-3.06,5.3v330A6.11,6.11,0,0,0,119.27,499.78Z" style="fill:#b6bac5"/><path d="M175.54,111.57l57.67-33.3c2-1.16,3.68-4.33,3.68-7h0c0-2.7-1.66-4-3.68-2.79l-57.67,33.3c-2,1.17-3.67,4.33-3.67,7h0C171.87,111.49,173.52,112.74,175.54,111.57Z" style="fill:#eef3ff"/><path d="M81.57,213.85h0c3.06,1.3,5.56-.34,5.56-3.64V188a9.89,9.89,0,0,0-5.56-8.37h0c-3.06-1.3-5.56.33-5.56,3.63v22.26A9.91,9.91,0,0,0,81.57,213.85Z" style="fill:#e6f0ff"/><path d="M79.18,214.14h0c3.06,1.31,5.56-.33,5.56-3.63V188.26a9.89,9.89,0,0,0-5.56-8.37h0c-3.06-1.3-5.56.33-5.56,3.63v22.25A9.88,9.88,0,0,0,79.18,214.14Z" style="fill:#4a555e"/><path d="M81.57,254.35h0c3.06,1.3,5.56-.33,5.56-3.63V228.47a9.88,9.88,0,0,0-5.56-8.37h0c-3.06-1.31-5.56.33-5.56,3.63V246A9.89,9.89,0,0,0,81.57,254.35Z" style="fill:#e6f0ff"/><path d="M79.18,254.65h0c3.06,1.3,5.56-.33,5.56-3.63V228.76a9.91,9.91,0,0,0-5.56-8.37h0c-3.06-1.3-5.56.34-5.56,3.64v22.25A9.89,9.89,0,0,0,79.18,254.65Z" style="fill:#4a555e"/><polygon points="286.87 370.17 130.63 460.37 130.63 200.67 286.87 110.47 286.87 370.17" style="fill:#fff;opacity:0.66"/><path d="M218,254.06c-26.41,14.52-52.28,41.86-59.38,73.41a91,91,0,0,0-2.3,18.09c-.75,36.21,24.21,51.5,55.75,34.15,17-9.36,32.48-26.33,43.23-45.65,9.15-16.47,8.22-30,8.56-46.62C264.59,251.23,249.52,236.71,218,254.06Zm-41.16,68.29c5-20.93,16.5-49.55,34-59.18,21.15-11.63,46.74,4.83,46.24,29.11-.25,11.7-9.81,25.32-16.46,36.77-7.15,12.31-17.15,23-28.11,29.07-21.14,11.63-37.88,1.38-37.38-22.91A61.84,61.84,0,0,1,176.82,322.35Z" style="fill:#964f0f"/><path d="M214.76,248.58c19.29-10.62,36.12-9,46.11,2.15L245,271.39c-6.72-7.26-17.9-8.25-30.71-1.21-17.5,9.63-32.53,31.24-37.48,52.17l-18.16,4.86C165.84,295.74,188.42,263.07,214.76,248.58Z" style="fill:#eb423d"/><path d="M255.27,334.05l-14-6.1c6.28-11.16,10.23-23.54,10.46-34.87.21-10.25-2.66-18-7.63-22.65l14.73-21.79c7.62,6.91,12,18.57,11.71,34.09C270.16,299.4,264.42,317.58,255.27,334.05Z" style="fill:#ffce43"/><path d="M238.82,221.3l18.5-10.69c3-1.74,5.46-6.4,5.46-10.42h0c0-4-2.45-5.87-5.46-4.13l-18.5,10.69c-3,1.74-5.46,6.4-5.46,10.42h0C233.36,221.19,235.8,223,238.82,221.3Z" style="fill:#fff"/><path d="M200.52,240.11,219,229.42c3-1.74,5.46-6.41,5.46-10.42h0c0-4-2.45-5.87-5.46-4.13l-18.5,10.69c-3,1.74-5.46,6.4-5.46,10.42h0C195.06,240,197.5,241.85,200.52,240.11Z" style="fill:#fff"/><path d="M162.21,261.25l18.51-10.68c3-1.74,5.45-6.41,5.45-10.43h0c0-4-2.44-5.86-5.45-4.12L162.21,246.7c-3,1.74-5.45,6.41-5.45,10.43h0C156.76,261.15,159.2,263,162.21,261.25Z" style="fill:#fff"/><path d="M153,226.92l103.24-59.6c2.6-1.5,4.7-5.52,4.7-9h0c0-3.46-2.1-5.05-4.7-3.55L153,214.38c-2.6,1.5-4.7,5.52-4.7,9h0C148.33,226.83,150.43,228.42,153,226.92Z" style="fill:#f7b874"/><path d="M315,520.81c.35.51.69,1,1,1.57.12.21.24.42.34.63l.18.35c0,.09.19.45,0,.06s0,0,0,.05a3,3,0,0,1,.11.32,4.44,4.44,0,0,1,.15.52,5.41,5.41,0,0,1,.12.55c.12.66,0-.55,0,0,.18,1.94.09,3.89.28,5.84a2.38,2.38,0,0,0,4.76,0c-.2-2-.07-4-.31-6a13.83,13.83,0,0,0-2.57-6.28,2.38,2.38,0,0,0-4.11,2.4Z" style="fill:#ad5215"/><path d="M322,533.11a75.92,75.92,0,0,0,.64-10.44c.07-5.11,0-10.21-.26-15.31-.45-10.88-1.19-21.91-3.36-32.59-.78-3.84-1.69-8.07-4.16-11.22a2.39,2.39,0,0,0-3.36,0,2.44,2.44,0,0,0,0,3.37c-.47-.59,0,0,.14.26s.32.56.46.85.47,1.06.21.43c.15.37.29.74.43,1.12a45.15,45.15,0,0,1,1.46,5.36A123,123,0,0,1,316.33,489a293,293,0,0,1,1.58,31.9c0,2.22-.05,4.45-.15,6.67,0,.88-.1,1.77-.17,2.65,0,.37-.07.74-.11,1.11,0,.17,0,.33-.05.5,0-.08.07-.52,0,0a2.46,2.46,0,0,0,1.66,2.93,2.39,2.39,0,0,0,2.93-1.66Z" style="fill:#11a359"/><path d="M314.26,463.64a22.05,22.05,0,0,0-28.6-.05c-.88.74-1.78,1.76-1.58,2.91a2.37,2.37,0,0,0,1.77,1.75,6.78,6.78,0,0,0,2.58.05L311,465.82a5.13,5.13,0,0,0,2.21-.59,1.85,1.85,0,0,0,.9-2" style="fill:#15cc67"/><path d="M316,462a24.81,24.81,0,0,0-28-2.82c-2,1.13-4.44,2.65-5.62,4.72a4.56,4.56,0,0,0,2.6,6.58c2.42.86,5.46,0,7.93-.25l8.58-.94c3.18-.35,6.37-.68,9.56-1.05a7,7,0,0,0,4.16-1.48,4.33,4.33,0,0,0,1.24-4.11,2.4,2.4,0,0,0-2.92-1.66,2.44,2.44,0,0,0-1.66,2.93s.07-.69.11-.63c-.12-.17.16.11-.05,0s-.87.18-1.13.21c-1.06.14-2.12.23-3.18.35l-6.62.73c-4.24.46-8.47,1-12.71,1.39-.58.06-1.29-.09-1.83,0-.09,0,.12.21,0,.33a5.71,5.71,0,0,1,.77-.86,19,19,0,0,1,4.64-2.92A19.67,19.67,0,0,1,302,460.83a19.87,19.87,0,0,1,10.57,4.5,2.46,2.46,0,0,0,3.37,0,2.41,2.41,0,0,0,0-3.37Z" style="fill:#11a359"/><path d="M315.87,464c8.52,1.55,15.92,5.1,24.44,6.65,1.59.29,3.72.29,4.28-1.27A2.46,2.46,0,0,0,344,467a6.34,6.34,0,0,0-2.1-1.38,43.16,43.16,0,0,0-26.18-3.23" style="fill:#15cc67"/><path d="M315.24,466.33a114.59,114.59,0,0,1,13.71,3.8c2.22.71,4.44,1.39,6.69,2a22.1,22.1,0,0,0,6.58,1.11c2.11-.12,4.13-1.15,4.71-3.32.64-2.39-.89-4.61-2.87-5.78A37.94,37.94,0,0,0,331,459.88a47.16,47.16,0,0,0-15.9.25,2.41,2.41,0,0,0-1.66,2.93,2.44,2.44,0,0,0,2.93,1.66,41.12,41.12,0,0,1,22.07,2c.77.29,1.53.6,2.28.95.32.16.66.31,1,.5.06,0,.7.58.68.58s.17-.26.1-.33,0,.06-.23,0c-.41-.11-1,0-1.5-.11a89.34,89.34,0,0,1-11.35-3.08,105.84,105.84,0,0,0-12.86-3.52,2.43,2.43,0,0,0-2.92,1.66,2.4,2.4,0,0,0,1.66,2.92Z" style="fill:#11a359"/><path d="M335.6,488.8a28.8,28.8,0,0,0-16.78,7.8,2.38,2.38,0,0,0,3.36,3.36c.48-.45,1-.9,1.48-1.32s.77-.61,1.39-1a26.19,26.19,0,0,1,3.53-2l.89-.41c-.23.1,0,0,.11,0L330,495c.62-.23,1.24-.44,1.87-.62s1.34-.36,2-.5l1-.18s.5-.07.29,0,.43-.05.42,0a2.43,2.43,0,0,0,2.37-2.38c-.05-1.17-1.05-2.53-2.37-2.38Z" style="fill:#11a359"/><path d="M336.1,494a128.32,128.32,0,0,1,19,7.19,2.45,2.45,0,0,0,2.88-.37c2-2.12,1.28-5.16-.86-6.86a25.3,25.3,0,0,0-7.08-3.6,33,33,0,0,0-15.12-1.74,2.44,2.44,0,0,0-2.37,2.38,2.38,2.38,0,0,0,2.37,2.37,29.66,29.66,0,0,1,11.37.78,29.15,29.15,0,0,1,5.18,1.95,15.79,15.79,0,0,1,2.5,1.42c.82.6.15.47.65-.06l2.88-.37a136,136,0,0,0-20.1-7.68c-2.94-.86-4.2,3.73-1.26,4.59Z" style="fill:#11a359"/><path d="M321.86,500.27a27.73,27.73,0,0,0-9.19-8.74,2.38,2.38,0,0,0-2.4,4.11,24.35,24.35,0,0,1,2.35,1.54,2.92,2.92,0,0,0,.28.21c-.16-.1-.39-.31-.1-.08l.53.44q.56.47,1.08,1a22.46,22.46,0,0,1,1.89,2c.15.17.3.35.44.53s.33.52,0,0c.06.09.14.18.21.27.29.39.56.79.83,1.2a2.38,2.38,0,1,0,4.11-2.41Z" style="fill:#11a359"/><path d="M313.72,493.9c-1.31-3.76-5.66-5.72-9.53-5.25s-7.26,2.86-10.13,5.55l18.74.17" style="fill:#15cc67"/><path d="M316,493.27a11.16,11.16,0,0,0-10.48-7.06c-5.08-.1-9.59,3-13.15,6.31a2.4,2.4,0,0,0,1.68,4.06l18.74.17c3.06,0,3.06-4.73,0-4.75l-18.74-.18,1.68,4.06c2.53-2.35,5.81-4.78,9.25-4.91a7.42,7.42,0,0,1,3.84.84,5.38,5.38,0,0,1,2.6,2.72,2.43,2.43,0,0,0,2.92,1.66,2.39,2.39,0,0,0,1.66-2.92Z" style="fill:#11a359"/><path d="M298.27,529.72a17.44,17.44,0,0,1,20.12,5.76c.9,1.16,2.9.95,3.85,0a2.81,2.81,0,0,0,0-3.86,22.73,22.73,0,0,0-25.41-7.16,2.8,2.8,0,0,0-1.91,3.36,2.74,2.74,0,0,0,3.35,1.9Z" style="fill:#ad5215"/><path d="M339.67,524.43a14.13,14.13,0,0,0-11.3-.74,18.41,18.41,0,0,0-9.36,8.06,2.38,2.38,0,1,0,4.12,2.4,14.15,14.15,0,0,1,3-3.72c.18-.17.37-.32.56-.48-.19.16,0,0,.1-.07.32-.23.65-.46,1-.66s.67-.4,1-.58l.63-.29c-.31.13,0,0,.17-.06a15.32,15.32,0,0,1,2.18-.6c.09,0,.6-.08.14,0l.55,0a10.28,10.28,0,0,1,1.11,0l.55,0c.06,0,.65.08.34,0s.29.06.34.07l.55.12c.37.1.72.21,1.08.34.13,0,.48.19.17.06l.63.3a2.44,2.44,0,0,0,3.26-.86,2.4,2.4,0,0,0-.86-3.26Z" style="fill:#ad5215"/><path d="M318.34,535.41a14.84,14.84,0,0,1,1.16,1.86c.09.18.18.35.26.53l.12.27c.11.23.08.18-.06-.17a10,10,0,0,0,.39,1,15.59,15.59,0,0,1,.54,2.14,4.5,4.5,0,0,0,.08.51c-.05-.39-.06-.46,0-.2l0,.3c0,.39.05.78.06,1.18a2.38,2.38,0,1,0,4.76,0,17.56,17.56,0,0,0-3.21-9.86,2.55,2.55,0,0,0-1.43-1.09,2.37,2.37,0,0,0-2.68,3.49Z" style="fill:#ad5215"/></g></g></g></svg>