<svg xmlns="http://www.w3.org/2000/svg" viewBox="0 0 799.92 945.35"><g style="isolation:isolate"><g id="Camada_2" data-name="Camada 2"><g id="Camada_1-2" data-name="Camada 1"><path d="M627.62,505.3A52.41,52.41,0,0,1,646.76,517a3.77,3.77,0,0,0,2.59,1.4,3.58,3.58,0,0,0,2.34-1.63c2.08-2.58,4.29-5.72,3.32-8.84-.9-2.91-4.15-4.44-7.07-5.65l-10.17-4.17c-2.11-.87-4.42-1.76-6.65-1.23s-4.87,6.71-3.5,8.47" style="fill:#15cc67"/><path d="M626.76,508.4a48.87,48.87,0,0,1,15,8.34c2.5,2.07,5,5.53,8.67,4.68a7.06,7.06,0,0,0,3.84-2.75,24.71,24.71,0,0,0,2.87-4.17c1.5-3,2-6.47.15-9.45-1.52-2.49-4.1-4-6.7-5.17-3.17-1.39-6.4-2.65-9.6-4s-6.82-3.1-10.45-2.22c-2.68.65-4.33,3.15-5.35,5.54s-1.83,5.44-.3,7.69a3.29,3.29,0,0,0,4.4,1.15,3.24,3.24,0,0,0,1.15-4.39c-.27-.39.08.26.09.31,0-.11-.08-.68-.06-.15,0,.76.11-.92,0-.29-.05.46,0-.1.06-.21s.1-.45.17-.67.11-.36.17-.54.32-.78.16-.42.1-.2.14-.27.22-.42.34-.63.7-1,.26-.46c.2-.24.42-.45.65-.68-.44.45-.37.26-.16.14-1,.58-.33.06-.23.09a12.62,12.62,0,0,0,1.4.07,12.08,12.08,0,0,1,1.78.51c1.37.48,2.7,1.07,4,1.62,2.67,1.1,5.36,2.17,8,3.3.53.23-.33-.14.21.1l.66.29c.49.23,1,.48,1.44.74a5.56,5.56,0,0,1,2.05,1.62c-.37-.47.43.79.19.26a2.13,2.13,0,0,1,.23,1,5.33,5.33,0,0,1-.89,2.55,19.05,19.05,0,0,1-1.84,2.6,3.72,3.72,0,0,0-.5.56c-.2.43-.13,0,0,.07a1.19,1.19,0,0,0,.72-.06c.05-.07-.16-.18-.35-.35a64.12,64.12,0,0,0-5.87-4.91,56.4,56.4,0,0,0-14.83-7.7,3.22,3.22,0,0,0-1.71,6.2Z" style="fill:#11a359"/><path d="M619.9,702.8c4.13-11,17.9-16.78,30.13-15.39s23,8.37,32.05,16.27l-59.26.51" style="fill:#15cc67"/><path d="M623,703.65c.39-1-.13.26.12-.31.09-.2.18-.4.28-.6.22-.44.45-.88.7-1.3s.45-.75.69-1.11l.48-.67c.13-.18.13-.18,0,0l.21-.26a23,23,0,0,1,2-2.16,16.12,16.12,0,0,1,2.08-1.7,27.21,27.21,0,0,1,11-4.57,32,32,0,0,1,12.33.13,46.89,46.89,0,0,1,13.46,5.18A81.57,81.57,0,0,1,679.81,706l2.27-5.48-59.26.51c-4.13,0-4.14,6.46,0,6.42l59.26-.51c2.63,0,4.45-3.6,2.28-5.48-8.4-7.27-18-13.82-29-16.33-9.61-2.19-20.18-1-28.51,4.53a25.84,25.84,0,0,0-10.09,12.33,3.24,3.24,0,0,0,2.24,3.95,3.27,3.27,0,0,0,4-2.24Z" style="fill:#11a359"/><path d="M654.25,695.91a43.59,43.59,0,0,0-26.66,2.79c-1.26.56-.17,2.41,1.08,1.85a41.06,41.06,0,0,1,25-2.57c1.34.28,1.92-1.78.57-2.07Z" style="fill:#11a359"/><path d="M617.41,543.67a49.42,49.42,0,0,1,31.47-4.95A47.92,47.92,0,0,1,676.4,554l-32.21.63c-4.45.09-9,.17-13.27-.95s-11.62-6.21-13.51-10" style="fill:#15cc67"/><path d="M619,546.44a46.11,46.11,0,0,1,45.45,1.66,43.63,43.63,0,0,1,9.64,8.2l2.27-5.48-27.5.54a115.38,115.38,0,0,1-13.54-.09,21.15,21.15,0,0,1-5-1.12c-.34-.13,0,0,.08,0l-.56-.25-.87-.43c-.76-.4-1.5-.83-2.22-1.28a24.38,24.38,0,0,1-4-3,22.59,22.59,0,0,1-1.68-1.71c0-.07-.44-.55-.21-.25s-.13-.18-.16-.23a9.84,9.84,0,0,1-.58-1,3.22,3.22,0,1,0-5.55,3.25c1.56,3,4.44,5.34,7.15,7.29A25.5,25.5,0,0,0,631,557c4.66,1,9.45.92,14.19.83l14.62-.28,16.6-.33a3.25,3.25,0,0,0,2.27-5.48c-11.92-13.48-30.56-19.27-48.11-16a52.13,52.13,0,0,0-14.77,5.17,3.22,3.22,0,1,0,3.25,5.55Z" style="fill:#11a359"/><path d="M640.74,544.47a159.38,159.38,0,0,1-21.83-1.71,2.21,2.21,0,0,0-2.63,1.5,2.15,2.15,0,0,0,1.49,2.63,169.78,169.78,0,0,0,23,1.86c2.75,0,2.75-4.25,0-4.28Z" style="fill:#11a359"/><path d="M588,617.4c-9.87-4.77-10.5,3.36-16.78,5.79-4.57,1.76-6.49-3.19-5.26-6.44,2.14-5.63,11.88-7.27,17.67-7.13,2.34,0,5,.49,6.59,2.18s1.32,4.85-1,5.18" style="fill:#15cc67"/><path d="M589.63,614.63c-4.1-1.94-8.71-2.89-12.65-.06a35.43,35.43,0,0,0-3.81,3.44l-.83.77-.52.44c.57-.49.17-.13,0,0-.33.21-.65.44-1,.63l-.54.28c-.54.3.49-.09-.24.08-.1,0-1.07.17-.34.13,0,0-.89-.05-.37,0s-.25-.1-.29-.12l.33.13c-.24-.16-.26-.16-.06,0l.14.11a2.57,2.57,0,0,1-.33-.33c.56.63.09,0,0,0s-.31-.74,0,0c-.08-.24-.14-.48-.22-.72-.25-.73,0,.63,0-.15v-.64c0-.23.14-.74,0,0,.05-.2.11-.4.15-.61s.31-.66,0-.06c.1-.19.19-.38.3-.56s.23-.36.35-.54c-.42.59,0,0,.17-.14s.39-.37.58-.55c.6-.6-.33.21.09-.09a11.41,11.41,0,0,1,1.19-.76c.42-.24.86-.46,1.3-.66s-.7.24.21-.08l1-.36a26.62,26.62,0,0,1,3-.78c.51-.11,1-.19,1.53-.28.15,0,.82-.1.21,0l1-.11a16.75,16.75,0,0,1,6.75.34c1,.34-.16-.13.38.15.11.06.94.51.64.38.33.14.34.32.11,0a3.24,3.24,0,0,1,.28.47c-.14-.35-.15-.35,0,0s-.2.46,0-.07c0,.38,0,.35.05-.08a2.85,2.85,0,0,1-.13.48c-.06-.15.3-.55.34-.61-.26.25-.23.22.08-.06s.4-.19,0-.09a3.24,3.24,0,0,0-2.24,4,3.27,3.27,0,0,0,4,2.24c3.45-.7,5-4.57,4-7.73-1.15-3.63-4.8-5.3-8.32-5.76a30.7,30.7,0,0,0-16.16,2.46c-4.91,2.23-8.9,7.45-6.7,13a6.9,6.9,0,0,0,7,4.67,12.65,12.65,0,0,0,7-3.56c.8-.72,1.53-1.5,2.31-2.24.35-.35.75-.65,1.1-1s-.23.18-.23.19l.33-.24.62-.38c.37-.2.63-.18.08-.07.24,0,.47-.16.71-.22.42-.1.69,0,.14-.05.27,0,.57,0,.84,0s.94.14.34,0c.34.07.68.14,1,.23a11.43,11.43,0,0,1,2.08.78,3.28,3.28,0,0,0,4.39-1.15,3.23,3.23,0,0,0-1.15-4.39Z" style="fill:#11a359"/><path d="M610.47,748.38a432.22,432.22,0,0,0-61.76,21.81c-2-1.63-2-4.74-.68-6.91s3.65-3.6,5.93-4.86a105.07,105.07,0,0,1,62.36-12.12" style="fill:#15cc67"/><path d="M609.62,745.28A436.05,436.05,0,0,0,561,761.56q-7,2.82-13.87,5.85l3.89.5c-.17-.14-.32-.29-.48-.45.38.39-.13-.39,0-.05l-.11-.37c-.14-.52,0,.68,0-.27,0-.22,0-.44,0-.66,0,.17-.13.48,0-.13a2.22,2.22,0,0,1,.43-1.08c1-1.57,2.87-2.65,4.61-3.62A95.94,95.94,0,0,1,569,755.07,103.24,103.24,0,0,1,598.85,749a105.12,105.12,0,0,1,17.47.56c1.73.2,3.21-1.62,3.21-3.21a3.28,3.28,0,0,0-3.21-3.21A108.56,108.56,0,0,0,582,744.71a104.83,104.83,0,0,0-16.29,4.77,84.45,84.45,0,0,0-15.37,7.36c-2.67,1.71-5.13,4-6,7.11a8.32,8.32,0,0,0,2.18,8.51,3.39,3.39,0,0,0,3.89.5,425.61,425.61,0,0,1,47-17.47q6.95-2.12,14-4c4-1.08,2.29-7.28-1.71-6.2Z" style="fill:#11a359"/><path d="M681.06,806.61a33.41,33.41,0,0,1,1.93-6.44l-.76,1.79a34.76,34.76,0,0,1,4.47-7.63l-1.17,1.52a34.76,34.76,0,0,1,6-6L690,791a32.85,32.85,0,0,1,6.37-3.81,7.53,7.53,0,0,0,3.45-4.48,7.67,7.67,0,0,0-.76-5.78,7.59,7.59,0,0,0-4.48-3.45,8.6,8.6,0,0,0-5.78.76,40.26,40.26,0,0,0-22.23,28.34,8,8,0,0,0,.76,5.78,7.62,7.62,0,0,0,4.48,3.44c3.7.85,8.44-1.11,9.22-5.23Z" style="fill:#ad5215"/><path d="M638.35,511.67c-2.83,108.7,2.39,123.89,11.68,178.6,9.61,56.57,23.46,128,23.46,128l-85,5.8s-1.14-51.49-1.85-78.51c-.76-29-5-68.72-3.18-114.52,1-25.22-7-85.69,9.32-167.23,14-70,55.65-133.74,65.09-204.62,3.72-28,5.79-133.49-47.59-157.25-16.59-7.38-129-26.51-293.77-17C141.9,95.07,51.2,221.15,48.64,213.4c14.35,11.83,91.68-131.21,264-154,152-20.14,278.63-4.78,324.16,20.94,52.34,29.57,54.4,115.21,54,142.85-1.22,75.59-11.72,114.72-23.1,161C654.11,439.44,639.2,479.21,638.35,511.67Z" style="fill:#15cc67"/><path d="M634.56,511.67c-1.13,43.59-2.24,87.61,3.71,130.92,2.05,14.91,4.84,29.71,7.39,44.54q7,40.71,14.54,81.31,4.72,25.45,9.63,50.88l3.66-4.8L599,819.59l-10.55.72,3.79,3.8q-.57-25.89-1.18-51.78c-.62-25.72-1.94-51.35-3.18-77.05-.8-16.67-1.28-33.36-1-50.06.14-9.82.57-19.58.28-29.4-.65-22.34-1.43-44.63-.57-67,1.26-32.69,5-65.75,12.91-97.52s20.69-61.87,32.69-92.17c11.86-29.95,23.23-60.43,28.38-92.36a251.65,251.65,0,0,0,2.61-47.35c-.59-20.54-2.9-41.31-8.42-61.15-5.19-18.61-13.6-37.86-28.62-50.65-8.73-7.43-18.17-11-29.09-13.4-14.3-3.19-28.86-5.3-43.38-7.16-51.59-6.6-103.79-8.73-155.77-8.47-33.53.17-67.49.54-100.84,4.21a373.32,373.32,0,0,0-79.58,17.61C176,114.56,137.25,136,102.57,162.64c-11.9,9.15-23.33,18.88-34.35,29.07C62,197.47,56,203.49,49.61,209.07c-1,.91.07,0-.56.45a8.19,8.19,0,0,0-.95.62c-.14.14.44-.24,1.08-.2a3.77,3.77,0,0,1,3.12,2.45L46,216.08c4.14,3.28,8.85,1.29,12.69-1.46,5.9-4.24,11-9.59,16.08-14.74C92.39,182,109.9,164,129.12,147.74c26.77-22.67,56.25-42.2,88.15-56.9a333.15,333.15,0,0,1,58.12-20.49c24.61-6.2,49.85-9.08,75.07-11.53,51.31-5,103.13-6.55,154.6-3.09,36,2.42,72.9,6.72,107.28,18.21,12.71,4.25,25.18,9.71,35.24,18.78,13,11.72,21.62,27.51,27.36,43.87,9.68,27.61,12.47,57.46,12,86.57a610.82,610.82,0,0,1-15.88,131q-7.8,33.22-16.82,66.15c-6,21.62-12.58,43.2-16.68,65.29a171.19,171.19,0,0,0-3,26.12c-.15,4.89,7.45,4.89,7.59,0,.59-19.74,5.7-39.13,10.8-58.1,6.62-24.62,13.64-49.11,19.74-73.88,9.64-39.09,17.58-78.1,20.32-118.36,2.31-33.88,2.9-68.19-3.92-101.63s-21.91-68.16-53.65-84.43C608,61.19,575.76,56,545.51,52.06c-47.17-6.12-95.05-6.88-142.52-4.64q-42.28,2-84.34,7.37A365.58,365.58,0,0,0,252.42,69C216.06,80.75,181.9,98.66,151,121c-23.75,17.18-45.48,36.83-66.08,57.64-7,7.07-13.84,14.3-21,21.25-2.47,2.41-5,4.78-7.63,7a15.9,15.9,0,0,1-2.5,1.86c-.44.29-.88.55-1.32.81s-1.75.77-.56.34c-.39.14-.77.27-1.17.38-.87.25,1,.12-.11,0-.67-.06.79.51,0,0,.8.52-.26-.31.66.42-2.61-2.07-7.83-.28-6.34,3.7,2.85,7.63,10.84-.62,13.86-3.43,7.73-7.19,15.3-14.55,23.2-21.56,28.2-25,59.41-46.66,93.27-63.34a369.26,369.26,0,0,1,69.77-26C274,92.49,303.21,89.33,333,87.92c60.19-2.85,120.67-2.47,180.74,2.58,19.5,1.63,39,3.74,58.31,6.8,11,1.74,22.16,3.53,32.82,6.78,1.32.4,2.63.84,3.91,1.36-1.56-.63,1,.46,1.28.62,1,.49,2,1,3,1.57a51.81,51.81,0,0,1,5.8,3.82c7.31,5.58,13,13,17.49,21,10,17.74,14.63,38.42,17.12,58.46a305.5,305.5,0,0,1,1.84,54.51c-1.34,24.31-7.6,48.12-15.33,71.12-10.33,30.8-23.65,60.47-34.73,91a410.59,410.59,0,0,0-14.14,46.26,467.36,467.36,0,0,0-8.67,51.25,595.77,595.77,0,0,0-3.69,83.08c.2,9.56.6,19.12.86,28.68.29,10.22-.22,20.39-.33,30.61-.33,30.5,2.12,60.85,3.35,91.3.93,23.28,1.2,46.59,1.73,69.88q.18,7.75.35,15.51a3.84,3.84,0,0,0,3.8,3.8l74.48-5.08,10.56-.72a3.86,3.86,0,0,0,3.66-4.81c-7.94-41-15.59-82.09-22.65-123.26-5.38-31.39-11.06-62.45-12.43-94.34-1.27-29.32-.68-58.71.08-88C642.28,506.78,634.68,506.79,634.56,511.67Z" style="fill:#11a359"/><path d="M634.49,364.46" style="fill:#15cc67"/><path d="M634.49,368.25a3.79,3.79,0,1,0-3.78-3.79,3.83,3.83,0,0,0,3.78,3.79Z" style="fill:#11a359"/><path d="M622.16,520c3,37.79-28.83,75.09-68.32,80.12-4.11.53-8.7.61-11.89-1.9-3.51-2.77-4-7.93-2.36-12s5-7.22,8.32-10.19c19.31-17.21,46.79-38.25,70.37-49.67" style="fill:#15cc67"/><path d="M619,520a61.44,61.44,0,0,1-1.74,20.3,69.12,69.12,0,0,1-7.81,18.86,79.6,79.6,0,0,1-29.74,29,72.09,72.09,0,0,1-19.72,7.6,41.4,41.4,0,0,1-10.83,1.41,9.51,9.51,0,0,1-4.6-1.11,5,5,0,0,1-2.26-2.9,8.07,8.07,0,0,1-.14-4.27,12.62,12.62,0,0,1,2.36-4.77c2.35-3.18,5.59-5.74,8.55-8.32q9.35-8.18,19.14-15.79c13.42-10.45,27.52-20.3,42.58-28.26q2.55-1.37,5.16-2.62a3.21,3.21,0,0,0-3.24-5.55c-16.08,7.82-31,18.07-45.15,28.89q-10.66,8.13-20.83,16.87c-6.4,5.52-14.63,11.58-15.19,20.76a12.57,12.57,0,0,0,5.14,11.09c3.66,2.59,8.55,2.67,12.82,2.16A79.2,79.2,0,0,0,576.52,597a85.92,85.92,0,0,0,35-29.24c8.6-12.29,13.88-27.11,14-42.18,0-1.85,0-3.69-.19-5.52a3.3,3.3,0,0,0-3.21-3.22A3.24,3.24,0,0,0,619,520Z" style="fill:#11a359"/><path d="M613.34,528.39a110,110,0,0,1-40.61,45.83c-3.48,2.21-.26,7.77,3.25,5.54A118.11,118.11,0,0,0,612,544a108.27,108.27,0,0,0,6.85-12.39,3.3,3.3,0,0,0-1.15-4.39,3.25,3.25,0,0,0-4.4,1.15Z" style="fill:#11a359"/><path d="M580.32,85c3,37.79-28.82,75.09-68.32,80.13-4.1.52-8.7.61-11.88-1.91-3.51-2.77-4-7.92-2.37-12s5-7.22,8.32-10.18c19.31-17.21,46.79-38.26,70.37-49.68" style="fill:#15cc67"/><path d="M577.11,85a61.26,61.26,0,0,1-1.74,20.31,69.47,69.47,0,0,1-7.8,18.85,79.77,79.77,0,0,1-29.74,29,73,73,0,0,1-19.72,7.6,41.44,41.44,0,0,1-10.83,1.4,9.55,9.55,0,0,1-4.61-1.11,5.07,5.07,0,0,1-2.26-2.9,8.17,8.17,0,0,1-.14-4.27,12.86,12.86,0,0,1,2.37-4.77c2.35-3.18,5.59-5.73,8.55-8.32q9.33-8.16,19.14-15.79c13.42-10.45,27.52-20.3,42.58-28.26q2.55-1.35,5.15-2.62a3.21,3.21,0,1,0-3.24-5.54c-16.08,7.81-31,18.06-45.15,28.88q-10.65,8.13-20.83,16.88c-6.4,5.51-14.62,11.58-15.18,20.75a12.56,12.56,0,0,0,5.14,11.09c3.66,2.59,8.54,2.68,12.82,2.17a79.91,79.91,0,0,0,23.07-6.44,86,86,0,0,0,35-29.25c8.59-12.29,13.88-27.11,14-42.18,0-1.84-.05-3.68-.19-5.52a3.3,3.3,0,0,0-3.22-3.21A3.24,3.24,0,0,0,577.11,85Z" style="fill:#11a359"/><path d="M571.51,93.37A109.87,109.87,0,0,1,542,131.22a108.8,108.8,0,0,1-11.05,8c-3.48,2.21-.26,7.77,3.24,5.55A118.17,118.17,0,0,0,570.21,109a109.69,109.69,0,0,0,6.85-12.38,3.31,3.31,0,0,0-1.16-4.4,3.25,3.25,0,0,0-4.39,1.15Z" style="fill:#11a359"/><path d="M679.25,223.4c3-37.79-28.83-75.09-68.33-80.12-4.1-.53-8.7-.61-11.88,1.9-3.51,2.77-4,7.93-2.37,12s5,7.22,8.33,10.19c19.31,17.2,46.78,38.25,70.36,49.67" style="fill:#15cc67"/><path d="M682.46,223.4c1.14-15.08-3.1-30.26-10.87-43.15a86.33,86.33,0,0,0-33-31.36A79.46,79.46,0,0,0,616.79,141c-8.17-1.63-19.47-2.94-23.3,6.55a15.13,15.13,0,0,0,.92,12.34c2,4.07,5.52,7.24,8.87,10.22q9.62,8.53,19.74,16.48c14.26,11.21,29.17,21.86,45.22,30.4,1.81,1,3.65,1.9,5.5,2.8a3.31,3.31,0,0,0,4.4-1.16,3.24,3.24,0,0,0-1.16-4.39c-15.23-7.41-29.39-17-42.9-27.19q-10-7.52-19.52-15.64c-3-2.58-6.08-5.18-9-7.9s-5.61-5.59-6.41-9.2a6.28,6.28,0,0,1-.17-1.91c0-.15.1-1.25,0-.86a10.25,10.25,0,0,1,.31-1.33,5.06,5.06,0,0,1,2.26-2.9c2.75-1.63,7.11-1.16,10.1-.71a74.33,74.33,0,0,1,20.3,6.15,80,80,0,0,1,31.69,27.06,78.76,78.76,0,0,1,5.39,9.18,64.18,64.18,0,0,1,3.78,9.15,62.76,62.76,0,0,1,3.38,20.09c0,1.72-.07,3.45-.2,5.17a3.24,3.24,0,0,0,3.22,3.22,3.29,3.29,0,0,0,3.21-3.22Z" style="fill:#11a359"/><path d="M676,211.78a114.49,114.49,0,0,0-30.88-39.41,122.91,122.91,0,0,0-12-8.72c-3.5-2.23-6.72,3.33-3.24,5.54A108.77,108.77,0,0,1,670.43,215a3.23,3.23,0,0,0,4.39,1.15,3.28,3.28,0,0,0,1.16-4.39Z" style="fill:#11a359"/><path d="M617.19,632.45a75.08,75.08,0,0,1,47.59,6.43,69.61,69.61,0,0,1,32.42,33.76c1.39,3.16,2.43,7.09.2,9.78-1.69,2.05-4.81,2.6-7.49,2a22.5,22.5,0,0,1-7.28-3.51l-59.4-38.21c-2-1.3-4.09-2.65-5.33-4.64s-1.37-4.8.35-6.43" style="fill:#15cc67"/><path d="M618,635.55a72.18,72.18,0,0,1,38.32,3.17,67.57,67.57,0,0,1,28.4,20,64.75,64.75,0,0,1,9,14.18,19.65,19.65,0,0,1,1.34,3.48,5.48,5.48,0,0,1,.18,3.34,3.36,3.36,0,0,1-.42.73c-.49.58.23,0-.41.36a4,4,0,0,1-.6.34c.46-.21-.59.18-.55.17s-1.08.2-.55.13a8,8,0,0,1-1.09,0c-.09,0-1-.09-.58,0-3.16-.46-5.93-2.65-8.54-4.33l-9.2-5.92-18.83-12.11-21.33-13.72c-3.35-2.16-6.78-4.22-10-6.49a7.71,7.71,0,0,1-2.84-3c.19.45-.15-.63-.14-.57.1.47,0-.49,0-.54,0-.45,0-.43.34-.81,2.88-3-1.66-7.52-4.54-4.54a8.47,8.47,0,0,0-.85,10.32c2,3.23,5.47,5.14,8.57,7.14L644.2,660l20.92,13.46,10,6.45c3.24,2.09,6.43,4.48,9.91,6.15,3.3,1.58,7.09,2.43,10.65,1.17a9.1,9.1,0,0,0,6.18-8.46c.12-3.36-1.31-6.57-2.72-9.52a66.38,66.38,0,0,0-4.73-8.33,73.65,73.65,0,0,0-29.61-25.6,78.94,78.94,0,0,0-48.5-6,3.24,3.24,0,0,0-2.25,3.95,3.28,3.28,0,0,0,3.95,2.25Z" style="fill:#11a359"/><path d="M672.66,656.36a88,88,0,0,0-41.8-19.87,91.29,91.29,0,0,0-13.6-1.41,3.21,3.21,0,0,0,0,6.42,82.93,82.93,0,0,1,41.2,12.33,76.91,76.91,0,0,1,9.66,7.07,3.29,3.29,0,0,0,4.54,0,3.24,3.24,0,0,0,0-4.54Z" style="fill:#11a359"/><path d="M625.68,364.12c4.14,0,4.14-6.42,0-6.42s-4.14,6.42,0,6.42Z" style="fill:#11a359"/><path d="M619,369.91c-6.8-1.42-13.65-2.84-20.61-3s-14.12,1-20,4.53c-11,6.46-15.71,19.29-24.68,28.14a5.4,5.4,0,0,0,5.09,1.88,15.77,15.77,0,0,0,5.32-2l54-27.7" style="fill:#15cc67"/><path d="M619.89,366.81c-11.79-2.45-24.27-4.92-36.08-1.22a34.32,34.32,0,0,0-13.52,8A75.27,75.27,0,0,0,561.11,385c-3.1,4.43-5.86,8.55-9.68,12.35a3.23,3.23,0,0,0-.5,3.89c3.3,4.34,8.49,4,13,1.94s8.87-4.52,13.28-6.78l27-13.85,15.48-7.95a3.23,3.23,0,0,0,1.15-4.39,3.27,3.27,0,0,0-4.39-1.16l-50,25.66a63,63,0,0,1-6.2,3.11,5.92,5.92,0,0,1-2.75.5c-.58-.06.34.09-.22-.05-.08,0-.59-.18-.46-.12s-.74-.64-.36-.15l-.51,3.89c6.54-6.5,10.82-15,16.83-21.59a28.16,28.16,0,0,1,10.49-7.69,38,38,0,0,1,15.13-2.45c6.68.15,13.24,1.52,19.76,2.87a3.21,3.21,0,0,0,1.71-6.19Z" style="fill:#11a359"/><path d="M610.75,367.36A74.91,74.91,0,0,0,578.9,380.7a3.3,3.3,0,0,0-1.16,4.39c.81,1.38,3,2.19,4.4,1.16a70.64,70.64,0,0,1,30.32-12.69c1.71-.29,2.67-2.41,2.24-4a3.29,3.29,0,0,0-4-2.24Z" style="fill:#11a359"/><path d="M604.73,583.14c13.21-2,26.7-3.94,40.47-2s28.13,8.49,35.68,19.51c1.53,2.23,2.76,5,1.56,7.1-1.54,2.67-5.85,2.52-9.4,2.42a47.29,47.29,0,0,0-24.8,5.91c-3.85,2.21-7.85,5.13-12.72,4.29-4.68-.81-8.11-4.78-10.79-8.47a153,153,0,0,1-15.53-26.62" style="fill:#15cc67"/><path d="M605.73,586.79c12.69-1.88,26-3.79,38.84-1.94a63.93,63.93,0,0,1,8,1.68c1.26.35,2.5.73,3.74,1.16.62.21,1.23.43,1.84.67l.92.35c.12,0,1.23.52.72.29a55,55,0,0,1,7.22,3.77,34.5,34.5,0,0,1,5.59,4.18c.92.83,1.8,1.71,2.64,2.62a23.25,23.25,0,0,1,2.18,2.69,13.12,13.12,0,0,1,1.63,3c.44,1.15-.24-.65.1.46v.18c0,.28,0,.23,0-.14l-.09.34c.14-.34.12-.35-.07,0l.23-.32c-.31.28-.27.27.11,0,0,0-.85.49-.33.23s-.38.13-.42.14c-.26.07-1.75.29-1,.22a36.64,36.64,0,0,1-3.92.08,57.23,57.23,0,0,0-8.88.4A50.08,50.08,0,0,0,647,612.4c-1.14.63-2.25,1.32-3.38,2-.57.33-1.14.65-1.72,1l-.7.35-.71.33c.3-.13.25-.11-.18.06-.62.2-1.23.37-1.86.54-.09,0-.73.12-.15,0a9.39,9.39,0,0,1-1.19.06,7.27,7.27,0,0,1-2.75-.65,9.84,9.84,0,0,1-3-2.19c-.56-.54-1.09-1.1-1.6-1.68-.21-.24-.41-.49-.62-.74s-.82-1.05-.46-.58c-2.1-2.78-4-5.68-5.92-8.61a152.19,152.19,0,0,1-10.28-18.91c-.84-1.87-3.54-2.32-5.18-1.36a3.88,3.88,0,0,0-1.36,5.18,152.84,152.84,0,0,0,9.78,18.13c1.89,3,3.87,5.94,6,8.79a32.51,32.51,0,0,0,6.52,7,14.94,14.94,0,0,0,9.15,3.21,19.81,19.81,0,0,0,9.45-3c1.25-.7,2.46-1.47,3.71-2.17.6-.33,1.2-.65,1.82-1l1.12-.54s1-.46.63-.28a44.06,44.06,0,0,1,9.4-2.75,47.26,47.26,0,0,1,9.11-.67c2.85.06,5.9.26,8.62-.74,3.35-1.23,5.73-4.15,5.48-7.84-.24-3.53-2.32-6.49-4.44-9.17-7.38-9.32-19-15-30.34-17.64-15.93-3.7-32.25-1.43-48.19.94-2,.3-3.14,2.86-2.65,4.66.6,2.17,2.63,3,4.66,2.64Z" style="fill:#11a359"/><path d="M644.44,592,625.06,581.3a3.79,3.79,0,1,0-3.82,6.54l19.38,10.71a3.79,3.79,0,1,0,3.82-6.54Z" style="fill:#11a359"/><path d="M674.3,309.8c1-10.25,9.43-18.79,19.25-23.13s20.89-5.21,31.71-5.71c11.51-.53,24.66-.08,32.23,8.19,3,3.33,4.5,9,.9,11.83-2.29,1.77-5.56,1.55-8.5,1.31a235.35,235.35,0,0,0-73.57,5.37" style="fill:#15cc67"/><path d="M678.09,309.8c.13-1.16-.16.74,0-.41.07-.35.13-.7.2-1.05.13-.58.28-1.15.45-1.72s.37-1.12.58-1.67c.4-1.07-.33.62.18-.4.18-.38.35-.75.55-1.12a21.88,21.88,0,0,1,4.32-5.95A35.2,35.2,0,0,1,697.88,289a73.06,73.06,0,0,1,18.79-3.72,146,146,0,0,1,18-.62c1.38.06,2.76.15,4.14.29a29.9,29.9,0,0,1,3.41.53,36.53,36.53,0,0,1,3.87,1c.57.18,1.13.38,1.69.59.06,0,1.13.48.4.16l1,.44a26.75,26.75,0,0,1,3.29,2c.6.41.2.14.07,0,.28.22.54.44.81.68a16.33,16.33,0,0,1,1.51,1.49c.07.07.72.92.25.27.17.23.33.46.48.7s.29.49.42.74c0,.09.49,1.1.19.33.2.53.32,1.06.49,1.6.29.94,0-.7.05.27,0,.32,0,.64,0,.95,0,.91.26-.64,0,.21,0,.17-.41,1.05,0,.23-.09.19-.2.36-.29.54l-.17.25c.28-.36.28-.37,0-.05-.88.45.38-.19-.19.15-.13.09-.83.45-.25.2a9.41,9.41,0,0,1-1.07.31c-.78.24.26.05-.5.09a87.2,87.2,0,0,1-9.82-.53c-7.12-.43-14.27-.54-21.41-.33A241.26,241.26,0,0,0,675.32,304a3.79,3.79,0,1,0,2,7.3A229.56,229.56,0,0,1,722,305.37q11.55-.39,23.09.35c3.61.23,7.27.83,10.87.25a9.77,9.77,0,0,0,7.76-6.19c2.39-6.44-2.27-12.87-7.19-16.5s-11-5.11-17-5.82a105.51,105.51,0,0,0-18.81,0,100.51,100.51,0,0,0-21.48,3.19c-13.82,4-27.14,14-28.74,29.2-.21,2,1.89,3.87,3.78,3.79a3.89,3.89,0,0,0,3.79-3.79Z" style="fill:#11a359"/><path d="M720.6,288.45a61.94,61.94,0,0,0-39.12,13.09c-1.37,1.06-1.12,3.42,0,4.54a3.29,3.29,0,0,0,4.54,0,55.11,55.11,0,0,1,34.58-11.21c4.14.08,4.14-6.35,0-6.42Z" style="fill:#11a359"/><path d="M612.61,694.41a88.48,88.48,0,0,1,20.36,14c3.64,3.34,7.17,8.58,4.38,12.6-1.7,2.45-5.19,3.25-8.26,2.86s-5.9-1.68-8.83-2.59a34.76,34.76,0,0,0-26.38,2.55,68.81,68.81,0,0,1,14.35-26.18" style="fill:#15cc67"/><path d="M610.7,697.68a90.47,90.47,0,0,1,14.21,8.84,60.91,60.91,0,0,1,6.22,5.35,15.78,15.78,0,0,1,1.94,2.29c.37.54.67,1.1,1,1.67s.14.3.07.13a7.31,7.31,0,0,1,.34,1c0,.17.1,1.2.08.38,0,.22,0,.47,0,.68,0-.57.08-.27,0,0,0,0-.37,1-.15.53s-.36.55-.33.5c.37-.52,0-.08-.07,0-.71.73.36-.18-.15.15a6.19,6.19,0,0,1-.9.52c-.55.26.8-.19-.23.06L632,720s-1.1.17-.57.11-.63,0-.58,0h-.72c.1,0-1.07-.08-.62,0s-1-.18-.81-.15c-.45-.09-.9-.2-1.34-.33-2.76-.75-5.37-1.92-8.15-2.59A38.68,38.68,0,0,0,592,720.54l5.56,4.28a65.63,65.63,0,0,1,13.38-24.51,3.89,3.89,0,0,0,0-5.36,3.83,3.83,0,0,0-5.36,0,74,74,0,0,0-15.32,27.86c-1,3.28,2.72,5.79,5.56,4.27a30.65,30.65,0,0,1,15.82-3.5,28.06,28.06,0,0,1,8.08,1.47c3.24,1,6.33,2.34,9.76,2.63,6.11.53,12.73-3.24,12.69-10,0-6.32-5.32-11.18-9.81-14.9a93.77,93.77,0,0,0-17.81-11.67,3.87,3.87,0,0,0-5.18,1.36,3.82,3.82,0,0,0,1.36,5.18Z" style="fill:#11a359"/><path d="M612,699.86l-1,7a2.88,2.88,0,0,0-.07,1.51,2.74,2.74,0,0,0,.45,1.41,3.79,3.79,0,0,0,5.18,1.36,3.62,3.62,0,0,0,1.74-2.26l1-7a2.87,2.87,0,0,0,.06-1.51A2.8,2.8,0,0,0,619,699a3.9,3.9,0,0,0-2.26-1.74,3.86,3.86,0,0,0-2.92.38,3.63,3.63,0,0,0-1.74,2.27Z" style="fill:#11a359"/><path d="M609,115.61a52.53,52.53,0,0,0-11.65-19.15,3.73,3.73,0,0,1-1.4-2.58,3.58,3.58,0,0,1,1.63-2.34c2.58-2.09,5.72-4.29,8.84-3.32,2.91.9,4.44,4.15,5.65,7.07l4.17,10.16c.87,2.12,1.76,4.43,1.23,6.66s-6.71,4.87-8.47,3.5" style="fill:#15cc67"/><path d="M612.08,114.76a57.41,57.41,0,0,0-6.73-13.48,58.16,58.16,0,0,0-4.62-5.87c-.37-.42-.75-.81-1.13-1.22-.54-.58-.35-.74-.5-.13s-.08.45.31.11a14,14,0,0,1,1.28-1,13,13,0,0,1,2.7-1.63,2.82,2.82,0,0,1,2.48-.1c-.55-.24.69.54.26.2a5.7,5.7,0,0,1,.94,1c-.24-.3.1.16.12.18.13.2.26.4.38.6.3.51.58,1,.84,1.58,1,2,1.94,4.62,2.91,7,1,2.53,2.5,5.18,3,7.89.09.46,0,1,.05,1.42s-.31,0,0,0c-.09,0,.27-.35.15-.29s-1,.78-.38.38c-.39.25-.78.5-1.19.72l-.52.25c.6-.28-.23.09-.3.11-.44.16-.89.25-1.34.38-.18,0-.6,0,.1,0a2.21,2.21,0,0,0-.58,0c-.32.15.7.2.14,0s.62.37.13,0a3.23,3.23,0,0,0-4.39,1.15,3.26,3.26,0,0,0,1.15,4.39c1.93,1.32,4.72.86,6.76.09a11.48,11.48,0,0,0,5.79-4.08c1.84-2.83.65-6.73-.5-9.58-1.35-3.31-2.72-6.61-4.08-9.91-1.08-2.62-2.16-5.31-4.17-7.37a9,9,0,0,0-9.1-2.34,15.65,15.65,0,0,0-4.09,2,19.44,19.44,0,0,0-3.76,3.06A5.44,5.44,0,0,0,593,95.64c.56,1.69,1.89,2.87,3,4.15a49.17,49.17,0,0,1,9.83,16.67,3.29,3.29,0,0,0,4,2.25,3.25,3.25,0,0,0,2.25-3.95Z" style="fill:#11a359"/><path d="M419.48,65.43c11-4.13,16.78-17.91,15.39-30.14s-8.37-23-16.27-32l-.51,59.26" style="fill:#15cc67"/><path d="M420.34,68.52C429.5,65,435.38,56.39,437.4,47c2.29-10.61-.41-21.32-5.55-30.7A89,89,0,0,0,420.87,1C419-1.2,415.41.6,415.39,3.24l-.51,59.26c0,4.14,6.39,4.14,6.42,0l.51-59.26-5.48,2.27c6.34,7.32,12,15.63,14.43,25.12a33.29,33.29,0,0,1,1.07,6.75c0,1,.05,2,0,3,0,.53-.05,1.06-.1,1.59s-.1,1-.14,1.24a29,29,0,0,1-4,11.28c-.29.48-.61,1-.93,1.41a7.81,7.81,0,0,1-.73.94,23.51,23.51,0,0,1-2.29,2.39l-.62.54c-.11.09-.59.46-.26.21a16.93,16.93,0,0,1-1.49,1c-.46.29-.94.56-1.43.81l-.59.28-.45.21c.25-.11.2-.1-.16,0a3.29,3.29,0,0,0-2.24,4,3.22,3.22,0,0,0,3.95,2.24Z" style="fill:#11a359"/><path d="M424.3,31.64a41.06,41.06,0,0,1-2.57,25c-.56,1.25,1.29,2.34,1.85,1.08a43.58,43.58,0,0,0,2.79-26.66c-.29-1.34-2.35-.77-2.07.57Z" style="fill:#11a359"/><path d="M578.62,67.91a49.45,49.45,0,0,0,4.94-31.46A47.91,47.91,0,0,0,568.25,8.92l-.63,32.22c-.09,4.45-.17,9,1,13.26s6.21,11.62,10,13.51" style="fill:#15cc67"/><path d="M581.39,69.53a52.67,52.67,0,0,0-1.56-51.77,49.59,49.59,0,0,0-9.31-11.11A3.25,3.25,0,0,0,565,8.92l-.57,29.24a82.42,82.42,0,0,0,.44,14.31,24.57,24.57,0,0,0,4,9.88c2.06,3.14,4.69,6.57,8.1,8.33a3.22,3.22,0,1,0,3.25-5.55,7.07,7.07,0,0,1-.76-.43c-.13-.08-.83-.61-.36-.23A18.82,18.82,0,0,1,577.51,63a23.21,23.21,0,0,1-2.78-3.43,30.39,30.39,0,0,1-2.38-4.14c-.08-.15-.36-.84-.16-.34-.12-.3-.24-.61-.34-.92a20.74,20.74,0,0,1-.63-2.7c-.75-4.27-.42-8.74-.33-13.05l.27-13.88.3-15.61L566,11.19a45.38,45.38,0,0,1,14.35,42.08,46.22,46.22,0,0,1-4.49,13,3.21,3.21,0,0,0,5.55,3.24Z" style="fill:#11a359"/><path d="M573.53,44.59a169.77,169.77,0,0,0,1.86,23,2.15,2.15,0,0,0,2.63,1.5,2.2,2.2,0,0,0,1.5-2.64,159.36,159.36,0,0,1-1.71-21.82c0-2.76-4.31-2.76-4.28,0Z" style="fill:#11a359"/><path d="M605.08,414.31c-8,7.2-6.88,27.79-16.26,33.24-6.62,3.83-16.15-1.06-18.06-8.2s2.4-14.83,8.76-19.05,17.82-5.57,25.56-6c-6.25,4.13-14.49,10.27-16.78,17.18" style="fill:#15cc67"/><path d="M602.81,412c-4.63,4.28-6.29,11.06-7.92,16.91a96.3,96.3,0,0,1-2.89,9.21c-.06.13-.11.26-.16.39-.19.47.19-.44,0,0s-.3.68-.46,1a21.3,21.3,0,0,1-1.09,2c-.15.26-.32.51-.49.76s-.2.27-.29.41c-.27.38.34-.4,0-.05a14.88,14.88,0,0,1-1.35,1.4l-.36.31c-.35.29.46-.3.08-.07s-.47.31-.71.45-1.17.55-.65.35a10.22,10.22,0,0,1-1.33.41l-.6.12c-.52.08.46,0-.06,0-.36,0-.72,0-1.08,0a10.34,10.34,0,0,1-1.24-.09c.59.08-.69-.16-.84-.2-.4-.11-.8-.24-1.2-.37l-.45-.17c.46.18,0,0-.1-.06a17.62,17.62,0,0,1-2.33-1.38c-.43-.3.3.26-.1-.08l-.37-.31c-.31-.28-.62-.57-.91-.88-.09-.09-.8-.93-.5-.55a10.34,10.34,0,0,1-.78-1.17,9.17,9.17,0,0,1-1.13-3.95,11.87,11.87,0,0,1,.87-5.19,18.25,18.25,0,0,1,6.74-8.21,20.82,20.82,0,0,1,5-2.39,48.92,48.92,0,0,1,6.5-1.7,86.08,86.08,0,0,1,12.45-1.46l-1.62-6c-7.21,4.77-15.32,10.57-18.26,19.09a3.22,3.22,0,0,0,6.2,1.71,10.51,10.51,0,0,1,1-2,19.48,19.48,0,0,1,1.6-2.42,36.36,36.36,0,0,1,3.67-3.88,70.54,70.54,0,0,1,9.08-6.91,3.31,3.31,0,0,0,1.48-3.63,3.24,3.24,0,0,0-3.1-2.35c-8.54.47-17.86,1.39-25.54,5.46-8.09,4.28-14.09,13.82-12,23.11,1.85,8.24,11.1,13.82,19.25,12.08,7.42-1.58,10.69-9.15,12.72-15.64,1.19-3.79,2.1-7.66,3.36-11.43.29-.87.62-1.73.95-2.58s-.17.36.05-.14l.28-.63c.19-.41.39-.82.6-1.21.41-.77.87-1.48,1.35-2.2.09-.12.38-.46-.05.06l.39-.46c.29-.33.6-.64.92-.94,3-2.81-1.5-7.34-4.54-4.54Z" style="fill:#11a359"/><path d="M634.06,741.87c11.72,1.64,26.51,18.37,38,17.92,8.12-.32,11.89-9,8-15.55S666.9,733.8,658.7,733.69s-18.24,4.61-24.64,8.18c8.05.1,19.19.77,26.23,5" style="fill:#15cc67"/><path d="M633.21,745a21.63,21.63,0,0,1,4.73,1.34l.07,0,.7.32,1.14.55c.87.44,1.73.91,2.58,1.4,3.47,2,6.78,4.27,10.13,6.46,6.21,4,13.59,8.89,21.36,7.73,8.24-1.23,13-10.25,10-17.87-3.37-8.67-13.24-13.13-21.91-14.21-10.35-1.29-20.72,3.47-29.55,8.38-2.83,1.58-1.5,5.95,1.62,6,8.29.1,17.57.41,24.61,4.59,3.56,2.12,6.79-3.43,3.24-5.55-8.19-4.86-18.57-5.35-27.85-5.47l1.62,6c6.85-3.81,14.88-7.72,22.65-7.75a26.73,26.73,0,0,1,10.51,2.18,24.69,24.69,0,0,1,4.86,2.83,17.46,17.46,0,0,1,3.21,3.38c.24.36.46.74.67,1.13.09.18.19.37.27.56-.06-.14-.16-.5,0,.08.11.34.22.67.31,1,0,.19.21,1.41.16.75,0,.39,0,.77,0,1.16,0,.21-.1,1.25,0,.57a11,11,0,0,1-.58,2.19c.23-.62-.19.35-.27.5s-.34.55-.52.83.31-.35,0,0a5,5,0,0,1-.37.42,8.48,8.48,0,0,1-.93.87c.5-.4-.4.24-.53.31l-.38.21c-.07,0-.63.3-.29.15.16-.07-.7.24-.9.29l-.45.11s-1,.15-.42.09a12.27,12.27,0,0,1-2.1,0c-.25,0-1-.15-.34,0-.41-.08-.81-.15-1.21-.24-.7-.17-1.39-.38-2.06-.61-.38-.13-.75-.28-1.12-.42l-.08,0-.71-.31a74.32,74.32,0,0,1-9.31-5.39c-3.45-2.25-6.85-4.59-10.43-6.62a30.84,30.84,0,0,0-10.47-4.12A3.32,3.32,0,0,0,631,741c-.41,1.52.52,3.69,2.25,4Z" style="fill:#11a359"/><path d="M599,644.16c-26.95,4.55-50.35,15-77.29,19.5-5.06.86-11.79.87-13.57-3.71-.91-2.37.11-5.11,1.9-7a20,20,0,0,1,6.67-4.05,146.28,146.28,0,0,1,82.81-9.49" style="fill:#15cc67"/><path d="M598.18,641.06c-25.8,4.4-50.13,14.71-75.89,19.27l-2,.34c-.65.1-.26,0-.11,0l-1,.11a25,25,0,0,1-3.67.06s-1.1-.11-.44,0a6.17,6.17,0,0,1-.62-.1c-.51-.1-1-.25-1.49-.39-.83-.24.42.29-.31-.13-.15-.09-.33-.2-.5-.28-.7-.33.3.38-.24-.16a5.48,5.48,0,0,1-.58-.6c.43.56-.08-.22-.12-.29.29.54,0-.14-.09-.31a3.69,3.69,0,0,1,0-.88,5.18,5.18,0,0,1,1.87-3c2-1.73,4.7-2.71,7.12-3.7a142,142,0,0,1,36.22-9.48,143.7,143.7,0,0,1,42.43,1,3.3,3.3,0,0,0,3.95-2.25,3.24,3.24,0,0,0-2.24-3.95,149.67,149.67,0,0,0-80.83,8c-5.85,2.33-13.66,5.07-14.8,12.23a8.68,8.68,0,0,0,3.65,8.63,13.92,13.92,0,0,0,7.39,2.14,38,38,0,0,0,8.63-.85c3.5-.63,7-1.37,10.46-2.18,6.66-1.56,13.25-3.4,19.81-5.33,14.93-4.37,29.79-9.06,45.16-11.68a3.23,3.23,0,0,0,2.24-4,3.28,3.28,0,0,0-4-2.24Z" style="fill:#11a359"/><path d="M592.74,634a121.91,121.91,0,0,0-56.81,10.31c-1.59.7-2,3-1.15,4.39a3.29,3.29,0,0,0,4.39,1.16,115,115,0,0,1,53.57-9.43,3.25,3.25,0,0,0,3.22-3.21,3.28,3.28,0,0,0-3.22-3.22Z" style="fill:#11a359"/><path d="M594.53,683.67a78.1,78.1,0,0,0-34,13.92c-2.47,1.8-4.92,3.89-5.91,6.7-1.07,3-.22,6.42,1.49,9.16a33.79,33.79,0,0,0,6.66,7.13c2-13.46,19.28-21.5,22.12-34.81" style="fill:#15cc67"/><path d="M593.67,680.58a81.51,81.51,0,0,0-26.22,8.87,63,63,0,0,0-11.36,7.61c-3.86,3.34-5.83,7.87-4.78,13,1.1,5.38,5.29,9.33,9.23,12.82,1.61,1.43,5,1.16,5.37-1.41a19.42,19.42,0,0,1,1-3.83c.06-.15.35-.83.14-.36.12-.28.25-.56.39-.83.29-.6.61-1.18,1-1.75a32.34,32.34,0,0,1,2.29-3.38c.22-.29,0,0,0,0l.3-.38.61-.75c.49-.59,1-1.16,1.48-1.73,3.77-4.29,7.91-8.3,11.1-13.07a26.42,26.42,0,0,0,3.89-8.76,3.29,3.29,0,0,0-2.24-4,3.25,3.25,0,0,0-4,2.24,18.1,18.1,0,0,1-.47,1.79c-.11.34-.23.68-.35,1-.06.14-.11.29-.17.43.13-.32,0-.12,0,.08a29.35,29.35,0,0,1-1.86,3.39,44.35,44.35,0,0,1-4.89,6.19c-3.78,4.22-7.9,8.25-10.9,13.09a24.16,24.16,0,0,0-3.44,8.84l5.37-1.42c-2.71-2.4-6-5-7.19-8.57a6.82,6.82,0,0,1-.17-4.55,10.11,10.11,0,0,1,3.22-3.85,59,59,0,0,1,9.94-6.44,72.81,72.81,0,0,1,10.86-4.76,79,79,0,0,1,13.64-3.37c1.71-.27,2.66-2.41,2.24-3.95a3.29,3.29,0,0,0-4-2.24Z" style="fill:#11a359"/><path d="M577.89,691.3a144.82,144.82,0,0,0-14.73,11.41c-1,.91.49,2.42,1.52,1.51A139.05,139.05,0,0,1,579,693.15c1.14-.77.07-2.62-1.08-1.85Z" style="fill:#11a359"/><path d="M606.77,472.48a78,78,0,0,0-34,13.91c-2.47,1.81-4.92,3.89-5.91,6.7-1.07,3-.22,6.42,1.49,9.17a34.82,34.82,0,0,0,6.66,7.13c2-13.46,19.28-21.5,22.12-34.82" style="fill:#15cc67"/><path d="M605.91,469.38a81.53,81.53,0,0,0-26.22,8.88,63.79,63.79,0,0,0-11.36,7.6c-3.86,3.35-5.83,7.87-4.78,13,1.1,5.38,5.29,9.33,9.23,12.82,1.61,1.42,5,1.15,5.37-1.42a19.42,19.42,0,0,1,1-3.83c.06-.15.35-.82.14-.36.12-.27.25-.55.39-.82.29-.6.61-1.19,1-1.76a36.46,36.46,0,0,1,2.29-3.38c.22-.29,0,0,0,0l.3-.38.61-.75c.49-.58,1-1.16,1.49-1.73,3.76-4.29,7.91-8.29,11.09-13.06a26.22,26.22,0,0,0,3.89-8.76,3.27,3.27,0,0,0-2.24-3.95,3.23,3.23,0,0,0-3.95,2.24c-.14.6-.29,1.2-.48,1.78-.11.34-.23.68-.35,1,0,.14-.11.28-.17.42.13-.31.06-.11,0,.08a29.48,29.48,0,0,1-1.86,3.4,44.35,44.35,0,0,1-4.88,6.18c-3.79,4.22-7.91,8.25-10.91,13.1a23.92,23.92,0,0,0-3.43,8.83l5.36-1.41c-2.71-2.4-6-5-7.19-8.58A6.82,6.82,0,0,1,570,494a10.19,10.19,0,0,1,3.22-3.85,59,59,0,0,1,9.94-6.44A73.86,73.86,0,0,1,594,478.94a80,80,0,0,1,13.64-3.37c1.72-.26,2.67-2.41,2.24-3.95a3.29,3.29,0,0,0-4-2.24Z" style="fill:#11a359"/><path d="M590.14,480.11a143.94,143.94,0,0,0-14.73,11.4c-1,.91.48,2.42,1.51,1.51A140.5,140.5,0,0,1,591.22,482c1.13-.77.06-2.63-1.08-1.85Z" style="fill:#11a359"/><path d="M635.26,776.49a49.55,49.55,0,0,1,31.47-5,47.93,47.93,0,0,1,27.52,15.32l-32.21.63c-4.45.08-9,.16-13.27-1s-11.62-6.2-13.51-10" style="fill:#15cc67"/><path d="M636.88,779.27a46.1,46.1,0,0,1,45.46,1.66,43.37,43.37,0,0,1,9.64,8.2l2.27-5.48-27.51.53a111,111,0,0,1-13.53-.09,20.65,20.65,0,0,1-5-1.11c-.34-.13,0,0,.08,0l-.56-.26c-.29-.13-.58-.28-.87-.43-.76-.39-1.5-.82-2.23-1.28a24.25,24.25,0,0,1-4-3,22.73,22.73,0,0,1-1.68-1.72c-.06-.06-.45-.55-.21-.24s-.13-.19-.16-.24a9.7,9.7,0,0,1-.58-1,3.21,3.21,0,0,0-5.55,3.24c1.56,3,4.44,5.35,7.15,7.3a25.5,25.5,0,0,0,9.2,4.44c4.66,1,9.45.92,14.19.83l14.62-.29,16.6-.32a3.25,3.25,0,0,0,2.27-5.48c-11.92-13.48-30.56-19.27-48.11-16a52,52,0,0,0-14.77,5.17,3.21,3.21,0,0,0,3.24,5.55Z" style="fill:#11a359"/><path d="M658.58,777.29a160.94,160.94,0,0,1-21.82-1.7,2.22,2.22,0,0,0-2.64,1.49,2.17,2.17,0,0,0,1.5,2.64,169.77,169.77,0,0,0,23,1.86c2.76,0,2.76-4.26,0-4.29Z" style="fill:#11a359"/><path d="M608.73,461.58c8,6.1,16.09,12.29,22.22,20.12,1.17,1.49,2.4,3.13,4.27,3.67,2.18.63,4.46-.45,6.45-1.5,5.26-2.76,11.09-6.26,12-11.89.68-4-1.42-8-4.25-11a27.15,27.15,0,0,0-19.74-8.33c-7.42.05-16.4,3.81-21.26,9.15" style="fill:#15cc67"/><path d="M606.81,464.85c6.85,5.23,14,10.74,19.79,17.49a35.73,35.73,0,0,0,4.12,4.73,9.21,9.21,0,0,0,7.78,2.06,21.28,21.28,0,0,0,6.38-2.68,43.72,43.72,0,0,0,4.76-2.93c3.37-2.45,6.44-5.54,7.54-9.69,1.22-4.63-.31-9.46-3.11-13.2a30.53,30.53,0,0,0-23.14-11.78,35.47,35.47,0,0,0-25.15,10.24,3.79,3.79,0,0,0,5.36,5.36,22.35,22.35,0,0,1,1.63-1.6l1-.82c-.44.35.43-.3.57-.4a32.18,32.18,0,0,1,4.48-2.59,29.66,29.66,0,0,1,4.58-1.67c.8-.22,1.61-.42,2.42-.58l1.12-.19c.45-.08,0,0-.08,0l.91-.1a25.82,25.82,0,0,1,5.2.08h0l.79.13,1.19.25a27.93,27.93,0,0,1,2.71.77,21.68,21.68,0,0,1,4.37,2,18,18,0,0,1,4,3,14.4,14.4,0,0,1,3,3.93,8.06,8.06,0,0,1,1,4.06s0,.65,0,.29-.07.33-.08.41c-.08.34-.19.66-.29,1s.05-.05.08-.12a5.76,5.76,0,0,1-.3.61,10.47,10.47,0,0,1-.6,1l-.29.42c.37-.52,0,0,0,.05-.24.26-.47.53-.71.78a19.58,19.58,0,0,1-1.87,1.67c.45-.35-.43.3-.57.4-.35.25-.72.49-1.08.72q-1.11.71-2.25,1.35a27.57,27.57,0,0,1-4.32,2.16l-.61.18s-.65.1-.32.07-.63,0-.23,0-.32-.07-.32-.07c.45.12-.29-.15-.47-.26.44.28,0,0-.12-.12s-.37-.35-.54-.54c-1.27-1.36-2.34-2.91-3.57-4.31-6.09-7-13.56-12.59-20.89-18.18-1.63-1.24-4.24-.25-5.19,1.36-1.13,1.95-.27,3.94,1.36,5.18Z" style="fill:#11a359"/><path d="M614.83,464.68c.89-.21,1.79-.39,2.7-.53.28,0,.25,0-.09,0l.73-.08c.49,0,1-.08,1.47-.1a30.53,30.53,0,0,1,5.15.21c-.75-.1.49.09.64.11l1.26.25c.84.19,1.66.41,2.48.66s1.63.54,2.42.87c-.65-.27.64.3.76.36.44.21.87.44,1.3.67a3.79,3.79,0,0,0,3.82-6.54,34.93,34.93,0,0,0-24.66-3.21,3.81,3.81,0,0,0-2.64,4.66,3.87,3.87,0,0,0,4.66,2.65Z" style="fill:#11a359"/><path d="M613.1,771.93c-8,6.1-16.1,12.29-22.22,20.11-1.17,1.5-2.4,3.14-4.28,3.68-2.18.63-4.45-.45-6.44-1.5-5.26-2.76-11.09-6.26-12-11.89-.68-4,1.42-8,4.25-11A27.15,27.15,0,0,1,592.11,763c7.42,0,16.4,3.81,21.25,9.15" style="fill:#15cc67"/><path d="M611.19,768.66c-6.53,5-13.14,10-18.82,15.91q-2.05,2.14-3.9,4.45c-.53.67-1,1.35-1.61,2a7,7,0,0,1-1,.93c.48-.36-.68.27-.4.18s-.33,0-.31,0c.53,0-.21-.06-.23-.06l-.64-.17a11.22,11.22,0,0,1-2.25-1c-1.54-.8-3.06-1.64-4.52-2.58-.55-.35-1.53-1-1.74-1.19.17.13-.47-.39-.61-.51-.36-.31-.71-.63-1.05-1s-.49-.5-.72-.77c-.06-.07-.51-.64-.25-.29s-.09-.13-.11-.16c-.18-.29-.37-.57-.54-.87s-.54-1.29-.32-.63a11.64,11.64,0,0,1-.34-1.15,4.59,4.59,0,0,1-.1-.51c0,.1,0,.44,0,0a13.08,13.08,0,0,1,0-1.4c0,.09-.07.47,0,0,0-.27.11-.53.17-.78a10.64,10.64,0,0,1,.44-1.35c-.16.39.24-.47.3-.58a14.07,14.07,0,0,1,.73-1.25c.11-.18.23-.35.34-.52s.38-.53.16-.24a18.18,18.18,0,0,1,1.92-2.1q.42-.42.87-.81l.45-.38c.06-.06.7-.56.32-.27a26,26,0,0,1,4.6-2.78,24.3,24.3,0,0,1,4.59-1.55c.68-.16,1.94-.39,2.27-.44-.35.05.31,0,.3,0l.81-.07q.7,0,1.41-.06a23.24,23.24,0,0,1,2.77.11l.73.08c-.41-.05-.16,0,.1,0,.5.09,1,.18,1.49.29a32.84,32.84,0,0,1,5.56,1.73c-.41-.17.67.3.88.4l1.22.61c.9.48,1.79,1,2.64,1.56.37.24.72.49,1.08.75,0,0,.5.37.21.15s.41.33.47.39a23.43,23.43,0,0,1,2,1.95,3.79,3.79,0,1,0,5.35-5.36c-5.57-6-14-9.52-22.14-10.18a30.79,30.79,0,0,0-23.66,8.8c-3.32,3.31-5.9,7.68-6,12.47a14.81,14.81,0,0,0,5.23,11.14,40.15,40.15,0,0,0,10.15,6.49c2.54,1.18,5.23,2,8,1.21a10.87,10.87,0,0,0,5.47-4c6.28-7.88,14.15-14.19,21.93-20.13,1.63-1.24,2.48-3.26,1.36-5.18-.93-1.6-3.55-2.61-5.18-1.36Z" style="fill:#11a359"/><path d="M609,767.72a34.94,34.94,0,0,0-24.66,3.21,3.81,3.81,0,0,0-1.35,5.18,3.87,3.87,0,0,0,5.18,1.36c.43-.23.86-.46,1.3-.67.21-.11.43-.21.66-.31s.44-.2.21-.1-.15.07.23-.09l.68-.26c.46-.17.93-.32,1.39-.47q1.23-.37,2.49-.66l1.08-.22c.13,0,1.58-.24.81-.14a30.62,30.62,0,0,1,5.15-.21c.49,0,1,.06,1.47.1.17,0,1.13.12.46,0A28.34,28.34,0,0,1,607,775a3.79,3.79,0,0,0,2-7.31Z" style="fill:#11a359"/><path d="M630.58,367.12c7.87-3.43,10.57-14.24,18-18.55,4.07-2.35,8.94-2.41,13.59-2.4l34.84,0c3.83,0,8,.1,11,2.48-7.82,4.9-17.22,6.14-26.33,6.33s-18.28-.57-27.3.79S636.3,361,630.7,368.5" style="fill:#15cc67"/><path d="M632.63,370.62c4.49-2,7.56-6.09,10.33-10,.64-.91,1.28-1.82,1.93-2.72.32-.45.65-.89,1-1.33-.09.11-.5.62,0,0l.62-.76a22.33,22.33,0,0,1,2.22-2.34l.59-.53c.18-.15.78-.55.06-.05a17.47,17.47,0,0,1,1.7-1.08c.25-.13.5-.26.75-.37-.54.25.26-.1.4-.15a18,18,0,0,1,1.81-.53c.41-.1.82-.17,1.23-.25.82-.16.37-.07.18-.05.84-.12,1.7-.17,2.54-.21,3.08-.16,6.16-.07,9.24-.07l20.4,0c3.68,0,7.37-.05,11.06,0,.73,0,1.47.05,2.21.1l1,.1c-.8-.1.45.1.5.11a11.24,11.24,0,0,1,2.26.66c-.61-.26,0,0,.09.09.45.29.9.54,1.33.86v-7a33.55,33.55,0,0,1-3.38,1.85c-.32.16-.65.31-1,.45-.73.32.86-.32-.41.16-.67.25-1.33.5-2,.73a49.73,49.73,0,0,1-7.89,1.87l-.85.12-.2,0c-.72.08-1.43.16-2.14.22q-2,.18-4.08.27c-2.9.12-5.8.11-8.71.09-11.7-.11-23.46-.24-34.38,4.54a34.62,34.62,0,0,0-13.82,10.93c-1.28,1.7-.32,4.61,1.46,5.55,2.14,1.13,4.18.36,5.55-1.46-.4.53.12-.14.22-.26s.42-.5.64-.74c.35-.39.7-.77,1.07-1.14s.84-.8,1.28-1.19l.74-.63c.53-.46-.09.05.24-.2a33.55,33.55,0,0,1,6.18-3.62l.71-.32c-.65.28.13,0,.29-.11l1.65-.6c1.17-.4,2.35-.75,3.55-1.05a46.26,46.26,0,0,1,7.07-1.23c11.59-1.13,23.26.4,34.83-1.26a45.22,45.22,0,0,0,17.46-6c2.79-1.72,2.42-5.21,0-7-5.26-3.89-12.66-3-18.82-3.05l-21.15,0c-3.36,0-6.72,0-10.08,0a33.87,33.87,0,0,0-9.46,1.2c-5.53,1.73-9.24,5.68-12.54,10.23-.79,1.07-1.54,2.17-2.31,3.25l-1.17,1.61c-.63.85.36-.41-.07.08-.25.29-.47.59-.72.88a27.32,27.32,0,0,1-2.67,2.71c-.14.14-.6.45.09-.05-.34.24-.67.49-1,.71a14.62,14.62,0,0,1-1.66.88c-1.94.87-2.56,3.84-1.46,5.54a4.17,4.17,0,0,0,5.55,1.46Z" style="fill:#11a359"/><path d="M686.86,191.88c10.74-9.67,12.43-38.46,22.4-50.42,5.44-6.53,12.53-7,19.3-7.38l50.72-2.55c5.59-.28,11.62-.32,16.6,5.74-10.37,13.54-23.81,17.54-37,18.73s-26.74-.11-39.59,4.17-25.35,15-32,35.35" style="fill:#15cc67"/><path d="M689.76,194.78c5.71-5.22,8.43-13.29,10.75-20.45,1.32-4,2.49-8.09,3.75-12.13.64-2,1.3-4.06,2-6.07.32-.9.65-1.79,1-2.68.15-.38.31-.76.46-1.15.39-1-.36.81.06-.14l.36-.83a44.15,44.15,0,0,1,2.52-4.82c.42-.68.87-1.33,1.34-2s-.12.21-.17.22c.11,0,.38-.46.46-.56a19.34,19.34,0,0,1,1.59-1.67c.2-.19.41-.36.61-.54.92-.83-.34.22.24-.2a16.61,16.61,0,0,1,1.42-.94c.48-.28,1-.53,1.47-.77.18-.09.93-.38.18-.09l1-.37a25.49,25.49,0,0,1,3.09-.8l.7-.13.51-.08.51-.07,1-.1c5.75-.52,11.54-.64,17.3-.93l18.9-.94c6.78-.34,13.57-.83,20.35-1a33.3,33.3,0,0,1,3.46.07l.82.09c-.72-.08-.18,0,.23,0a15.44,15.44,0,0,1,1.63.39q.4.12.81.27l.48.18q-.58-.24-.18-.06c.58.33,1.17.61,1.73,1,.21.13.42.28.62.43-.61-.46.28.25.39.36a17.2,17.2,0,0,1,1.76,1.86v-5.8a49.14,49.14,0,0,1-4.79,5.41,36.19,36.19,0,0,1-4.61,3.85,43.48,43.48,0,0,1-5.41,3.24c-.87.43-1.74.85-2.63,1.22.75-.32-.45.17-.68.26-.56.21-1.11.42-1.68.61a54.86,54.86,0,0,1-5.77,1.62c-.91.21-1.83.39-2.75.56l-1.38.23-.69.11-.29,0c-4.83.62-9.7.81-14.57,1-10.35.34-21.05.57-30.88,4.2a50.18,50.18,0,0,0-18.34,11.77c-7.17,7.23-12,16.37-15.15,26a4.14,4.14,0,0,0,2.86,5,4.19,4.19,0,0,0,5-2.87c.36-1.1.74-2.19,1.15-3.27.19-.53.4-1.05.61-1.58.1-.25.2-.51.31-.77-.27.64.24-.53.24-.53a63.78,63.78,0,0,1,3-6,58.1,58.1,0,0,1,3.29-5.09q.2-.28.42-.57l.21-.28.21-.27.44-.54c.61-.75,1.24-1.47,1.89-2.18a48.35,48.35,0,0,1,4-3.86l1-.82c.23-.18,1.13-.88.4-.33.74-.55,1.48-1.09,2.25-1.61a45,45,0,0,1,4.24-2.51c.68-.36,1.38-.7,2.09-1,.13-.06,1.27-.55.69-.32s0,0,.17-.06l.67-.26a50.21,50.21,0,0,1,6.36-1.95,63.84,63.84,0,0,1,7.13-1.26c5.15-.58,10.33-.72,15.51-.89,9-.28,18.07-.72,26.68-3.44a49.94,49.94,0,0,0,24.6-17.08,4.27,4.27,0,0,0,0-5.8,20,20,0,0,0-14.42-7,61.75,61.75,0,0,0-7.07.14l-9.94.5-39,2c-5.19.26-10.32.79-15.06,3.08a24.6,24.6,0,0,0-10.15,10c-4.3,7.38-6.5,15.9-9,24-.71,2.32-1.43,4.64-2.2,6.93-.38,1.11-.77,2.21-1.18,3.3-.2.54-.41,1.07-.62,1.59-.07.19-.15.38-.23.57-.31.79.33-.71-.11.27a44.57,44.57,0,0,1-2.85,5.54c-.25.4-.52.81-.8,1.2l-.29.42c-.47.67.6-.71-.06.07a20.07,20.07,0,0,1-1.9,2,4.14,4.14,0,0,0,0,5.8,4.19,4.19,0,0,0,5.8,0Z" style="fill:#11a359"/><path d="M476.19,90.07a77.4,77.4,0,0,0-55.45,15.4c-15.31,11.92-25.21,29.92-26.78,48.67a99.73,99.73,0,0,1,45.92-41.84c11.65-5.26,26.72-14,36.31-22.23" style="fill:#15cc67"/><path d="M476.19,86.29a81.66,81.66,0,0,0-47.1,9.24,75,75,0,0,0-31.95,33.27,73,73,0,0,0-7,25.34c-.33,3.83,5.31,5.05,7.06,1.92a94.3,94.3,0,0,1,5.4-8.58c.94-1.34,1.83-2.52,2.57-3.46q1.59-2,3.28-3.91a98.91,98.91,0,0,1,7-7.18c1.26-1.16,2.54-2.29,3.86-3.39.61-.51,1.22-1,1.84-1.5l.87-.68.88-.67a100.9,100.9,0,0,1,17.58-10.53c6.32-3,12.53-6.07,18.55-9.61a141.08,141.08,0,0,0,19.8-13.8,3.81,3.81,0,0,0,0-5.35,3.85,3.85,0,0,0-5.35,0l-1.7,1.41-1,.82-.45.36c.32-.25,0,0-.16.11-1.39,1.05-2.79,2.08-4.22,3.07-3,2.09-6.1,4.07-9.24,6A182.81,182.81,0,0,1,438.14,109a104.74,104.74,0,0,0-33.71,24.35,100.65,100.65,0,0,0-13.74,18.93l7.06,1.91c.07-.83.16-1.66.26-2.5.07-.65-.08.51,0-.14l.09-.57c.07-.51.16-1,.25-1.53q.45-2.58,1.1-5.11T401,139.1c.28-.8.57-1.59.87-2.38.16-.42.33-.84.5-1.26s0-.07,0,0c.1-.24.2-.48.31-.72a70.13,70.13,0,0,1,5.16-9.63q1.42-2.24,3-4.36c.12-.15.24-.31.35-.47-.3.4.1-.12.14-.16l.74-.93c.62-.76,1.26-1.51,1.91-2.25a71.8,71.8,0,0,1,7.84-7.56c1.42-1.17,2.4-1.91,4.07-3.06,1.51-1,3.06-2,4.65-3a71.33,71.33,0,0,1,20.46-8.07q3.13-.72,6.31-1.2l.82-.12c-.41.06.09,0,.22,0q.83-.1,1.65-.18c1-.11,2.07-.19,3.1-.25a77.8,77.8,0,0,1,13,.33c2,.22,3.88-1.9,3.79-3.79a3.89,3.89,0,0,0-3.79-3.78Z" style="fill:#11a359"/><path d="M647.89,279.06a77.41,77.41,0,0,0-55.46,15.4c-15.3,11.92-25.21,29.92-26.78,48.67a99.73,99.73,0,0,1,45.92-41.84c11.66-5.26,26.72-14,36.32-22.23" style="fill:#15cc67"/><path d="M647.89,275.28a81.68,81.68,0,0,0-47.11,9.24,75,75,0,0,0-31.95,33.27,73,73,0,0,0-7,25.34c-.33,3.83,5.31,5.05,7.06,1.92a95.12,95.12,0,0,1,5.4-8.58c.95-1.34,1.83-2.52,2.57-3.46q1.59-2,3.28-3.91c2.21-2.51,4.56-4.9,7-7.18q1.89-1.74,3.86-3.39c.61-.51,1.22-1,1.84-1.5l.87-.68.88-.67a100.9,100.9,0,0,1,17.58-10.53c6.32-3,12.53-6.07,18.55-9.61a140.5,140.5,0,0,0,19.8-13.8,3.81,3.81,0,0,0,0-5.35,3.85,3.85,0,0,0-5.35,0l-1.7,1.41-1,.82L642,279c.32-.25,0,0-.15.11-1.4,1.05-2.8,2.08-4.23,3.07-3,2.09-6.1,4.07-9.23,6a184,184,0,0,1-18.58,9.82,104.74,104.74,0,0,0-33.71,24.35,100.65,100.65,0,0,0-13.74,18.93l7.06,1.91c.07-.83.16-1.66.26-2.5.08-.65-.08.51,0-.14,0-.19,0-.38.08-.57.08-.51.16-1,.25-1.53q.45-2.58,1.11-5.11t1.56-5.19c.28-.8.57-1.59.87-2.38l.51-1.26c.16-.41,0-.07,0,0,.1-.24.2-.48.31-.72a71.23,71.23,0,0,1,5.16-9.63q1.43-2.24,3-4.36l.36-.47c-.31.4.09-.12.13-.16l.74-.93c.62-.76,1.26-1.51,1.91-2.25a72.72,72.72,0,0,1,7.84-7.56c1.42-1.17,2.41-1.91,4.07-3.06s3.07-2,4.65-3a71.33,71.33,0,0,1,20.46-8.07q3.13-.72,6.31-1.2l.82-.12c-.41.06.09,0,.22,0l1.65-.18c1-.11,2.07-.19,3.1-.25a76.9,76.9,0,0,1,13,.33c2,.22,3.87-1.9,3.78-3.79a3.89,3.89,0,0,0-3.78-3.78Z" style="fill:#11a359"/><path d="M657,304.52c3.56.31,10.64,5.32,12.71,8.1a34.49,34.49,0,0,1,4.43,9.26c.57,1.56,1,3.52-.22,4.66a4.75,4.75,0,0,1-2.92.86l-24.72,1.77a9.79,9.79,0,0,1-4.61-.41,5.74,5.74,0,0,1-3.07-5.86,12.84,12.84,0,0,1,3-6.29A39.88,39.88,0,0,1,657,304.52" style="fill:#15cc67"/><path d="M657,308.31c-1.34-.14.21.1.57.22l.5.17c.88.3-.73-.37.15.07a34.17,34.17,0,0,1,3.08,1.69c.57.36,1.12.73,1.67,1.12.23.16,1.41,1.08.81.58a28,28,0,0,1,2.37,2.12,6,6,0,0,0,.49.52c.61.56-.68-1.05.06.08.39.6.79,1.19,1.15,1.81a26.16,26.16,0,0,1,1.75,3.78,23.33,23.33,0,0,1,1.36,4.06c-.13-.74,0,0,0,.16,0,.48.09-.45.14-.56.3-.57,1.27-.78.5-.58-1.05.26.53,0-.56.07-7.25.39-14.51,1-21.76,1.55-1.7.12-3.4.26-5.11.29-1.17,0,.18.1-.46,0-.17,0-1-.11-.4-.08l-.29-.17c.31.27.3.26,0,0s-.3-.33-.14-.12.12.16-.09-.16c-.07-.14-.4-1.06-.18-.31-.08-.27-.14-.54-.21-.82-.13-.5-.09.76,0-.16,0,0,.14-1.08,0-.47a8.9,8.9,0,0,1,1.71-3.56,38.35,38.35,0,0,1,6.59-6.85c1-.82-.25.18.35-.27.38-.29.76-.56,1.15-.83.67-.47,1.35-.91,2-1.34a43.58,43.58,0,0,1,4.69-2.46c1.86-.83,2.31-3.55,1.36-5.18a3.89,3.89,0,0,0-5.19-1.36A43.43,43.43,0,0,0,638,315.2c-2.35,3.21-4,7.4-2.68,11.36,1.46,4.46,5.41,6.65,10,6.46,4.23-.17,8.46-.59,12.69-.89s8.74-.59,13.1-.94c2.51-.2,4.92-.77,6.42-3a7.53,7.53,0,0,0,.78-6,34.78,34.78,0,0,0-1.85-5.12,31.78,31.78,0,0,0-2.74-5.47,26.22,26.22,0,0,0-7.37-6.94,20.81,20.81,0,0,0-9.24-3.92c-2-.21-3.88,1.9-3.79,3.79a3.89,3.89,0,0,0,3.79,3.79Z" style="fill:#11a359"/><path d="M625.11,421.41q2.65-1.46,5.43-2.72c1.09-.49,1.07-.48,2.23-.94.94-.38,1.89-.74,2.85-1.07a78.91,78.91,0,0,1,11.58-3.13c.93-.18,1.87-.34,2.8-.49,1.22-.18,1.18-.18,2.4-.31,2-.23,4.07-.37,6.11-.44a78.4,78.4,0,0,1,12.25.55,4.06,4.06,0,0,0,3.91-3,4.28,4.28,0,0,0-1.87-4.58A37.79,37.79,0,0,0,620,413.57c-1.27,1.71-.34,4.6,1.46,5.54a4.16,4.16,0,0,0,5.54-1.45q.43-.57.06-.09l.48-.59c.33-.39.66-.78,1-1.15.69-.75,1.41-1.47,2.17-2.15.39-.35.78-.67,1.17-1s.4-.32.09-.08c.2-.16.41-.31.62-.46.84-.61,1.7-1.17,2.59-1.7s1.8-1,2.74-1.46c.13-.06,1.51-.67.81-.38.49-.2,1-.38,1.46-.56a35.13,35.13,0,0,1,5.87-1.51l.58-.09c-.39.06-.35.05.15,0s1.09-.1,1.64-.13c1.09-.06,2.19-.07,3.28,0,.55,0,1.1.06,1.64.11.15,0,1.7.19,1,.09,1.08.15,2.16.37,3.22.62s2.11.57,3.14.93c.52.17,1,.37,1.53.56s.51.21.16.07l.75.34a33.57,33.57,0,0,1,5.56,3.31l2-7.56A83.49,83.49,0,0,0,621,414.41a4.1,4.1,0,0,0-1.45,5.55,4.15,4.15,0,0,0,5.55,1.45Z" style="fill:#11a359"/><path d="M526.64,81.39a77.58,77.58,0,0,1,3.54-11.63c.19-.5.4-1,.61-1.51-.27.64.23-.52.23-.52.44-1,.9-2,1.37-3q1.3-2.65,2.81-5.21c1-1.71,2.06-3.37,3.18-5,1.25-1.81,2.2-3.07,3.3-4.41a78.79,78.79,0,0,1,8.47-8.86,4.1,4.1,0,0,0,.64-4.92,4.23,4.23,0,0,0-4.58-1.86c-14.87,3.31-26.93,16-29.2,31.12a38,38,0,0,0,.39,13.9,4.09,4.09,0,0,0,5,2.84,4.16,4.16,0,0,0,2.83-5c-.12-.53-.22-1.06-.31-1.59,0-.27-.09-.53-.13-.8.06.41.06.36,0-.13-.08-1.09-.17-2.16-.17-3.25a32.4,32.4,0,0,1,.17-3.27c0-.27.05-.55.09-.82-.06.4,0,.35,0-.14s.18-1.08.3-1.62a29.52,29.52,0,0,1,.84-3.2c.16-.53.34-1.05.53-1.57,0-.13.61-1.51.37-1a32.29,32.29,0,0,1,3.1-5.57c.26-.37.52-.74.79-1.1-.44.59.49-.58.58-.69.66-.79,1.37-1.54,2.1-2.27s1.5-1.42,2.3-2.07l.6-.49c-.31.24-.28.22.1-.07s.84-.6,1.27-.89a27.54,27.54,0,0,1,10.58-4.56l-3.94-6.78a83.51,83.51,0,0,0-25.6,43.68,4.06,4.06,0,0,0,7.82,2.16Z" style="fill:#11a359"/><path d="M689.62,235.77a32.76,32.76,0,0,1,28.94,9.63c1.64,1.78,3.11,4.27,2,6.39s-4.44,2.54-7,2.07c-6.32-1.14-12.26-4.87-18.64-4.1-3.6.43-7.28,2.27-10.65,1-3.69-1.38-6.11-6.62-3.73-9.63,1.62-2,6.2-2.8,9.1-5.37" style="fill:#15cc67"/><path d="M690.63,239.42s1.27-.17.51-.08l1.15-.12c.77-.06,1.54-.1,2.31-.1s1.55,0,2.31.06l.77.06c.14,0,1.59.18.91.09a31.78,31.78,0,0,1,4.51,1c.61.18,1.22.38,1.83.59l1.08.4c.42.17.47.19.16.05l.69.31a33.56,33.56,0,0,1,3.69,2,20.14,20.14,0,0,1,3.46,2.59,16.3,16.3,0,0,1,2.55,2.71,6.24,6.24,0,0,1,.6,1.07c-.22-.59.39.61,0,0,.35.6-.27.24.15-.09-.2.32-.22.36,0,.14s.14-.2-.11.07l.29-.22a4.68,4.68,0,0,1-.54.3c.79-.39-.16,0-.31,0-.91.29.66,0-.33.05-.34,0-.68,0-1,0-.12,0-1.25-.12-.35,0l-1-.18c-.91-.19-1.82-.43-2.71-.69-3.3-1-6.49-2.33-9.87-3a22.52,22.52,0,0,0-5.17-.52,30.93,30.93,0,0,0-6.18,1c-.71.17-1.43.35-2.15.45.6-.08-.76,0-.69,0s-1.32,0-.67,0a5.23,5.23,0,0,1-1.22-.32c.86.31,0-.09-.19-.16-.8-.39.41.49-.22-.15l-.66-.67c-.65-.67.27.59-.16-.24-.08-.16-.66-1.35-.33-.48a9,9,0,0,1-.28-.88c0-.19-.09-.39-.12-.58.07.51.09.56.06.12,0-.18,0-.38,0-.57-.07.53-.07.59,0,.16s.11-.36-.07.12c.17-.3.65-.71,0-.16.77-.69-.34.08.26-.25,3-1.62,6.08-2.71,8.68-4.93a3.79,3.79,0,1,0-5.36-5.36c-.08.07-.56.42-.09.09l-.45.3c-.36.24-.73.45-1.11.66-.75.4-1.52.75-2.29,1.1a18.75,18.75,0,0,0-4.42,2.51c-2.9,2.39-3.41,6.62-2.06,10a11.15,11.15,0,0,0,9.37,7.22,20.51,20.51,0,0,0,6.77-.88,24.17,24.17,0,0,1,2.81-.59c-.42.05.76,0,.91,0a15.44,15.44,0,0,1,1.67.06c.21,0,.42,0,.63.06-.1,0-.41-.06,0,0s1,.18,1.44.29c1,.25,2.07.55,3.08.87,1.93.61,3.82,1.31,5.76,1.89,3.77,1.13,8.23,2,11.87,0,4.54-2.52,4.74-8.12,1.89-12a30.11,30.11,0,0,0-8.86-7.8,37.31,37.31,0,0,0-25.28-4.68c-2,.33-3.15,2.83-2.64,4.66.59,2.14,2.63,3,4.66,2.64Z" style="fill:#11a359"/><path d="M670.91,245.91c-4.82-5.76-9.9-11.73-17-14.76-9.27-4-20.43-2-29.21,2.87s-15.62,12.34-22,19.85c21.51-4.49,40.2-10.73,61.72-15.22" style="fill:#15cc67"/><path d="M673.59,243.23a71.63,71.63,0,0,0-11.8-11.87,31,31,0,0,0-16.29-6c-12-.94-23.25,4.58-32.18,12.11A117.47,117.47,0,0,0,600,251.19a3.82,3.82,0,0,0,3.69,6.33c16.07-3.37,31.8-8,47.73-12q7-1.74,14-3.22a3.79,3.79,0,0,0-2-7.31c-16.07,3.37-31.81,8.06-47.73,12-4.64,1.15-9.3,2.24-14,3.22l3.69,6.33c7-8.15,14.12-16,23.81-20.57a34.52,34.52,0,0,1,13.85-3.17,23.28,23.28,0,0,1,13.27,3.93c4.31,2.84,8.32,7.55,11.91,11.85,1.31,1.57,4,1.35,5.36,0a3.88,3.88,0,0,0,0-5.36Z" style="fill:#11a359"/><path d="M667.67,136.26c.76-7.5,1.84-15.68,7.54-20.92,4.23-3.89,10.32-5.4,16.2-5.8,8.41-.58,17.45,1.08,23.53,6.64,1,.88,1.89,2.22,1.24,3.32a3.34,3.34,0,0,1-1.84,1.2l-45.16,16.66" style="fill:#15cc67"/><path d="M669.35,136.26c.63-6.21,1.38-13.27,5.59-18.22,4.5-5.28,11.83-6.75,18.45-6.92s13.66,1.08,19.05,5.15a11.92,11.92,0,0,1,1.73,1.52c.13.15.56.6.53.81s-.8.47-1,.56l-5.82,2.15-12.1,4.46-27,10c-2,.74-1.14,4,.89,3.24l27-10,13.5-5,3.26-1.21a13.52,13.52,0,0,0,3.15-1.34,3.58,3.58,0,0,0,.89-4.93,13.68,13.68,0,0,0-4.37-4,26.67,26.67,0,0,0-5-2.54,36,36,0,0,0-11.25-2.27c-7.54-.39-16,.8-22,5.71-6.72,5.49-8,14.66-8.77,22.75-.22,2.15,3.15,2.13,3.36,0Z" style="fill:#11a359"/><path d="M673.91,135A42.48,42.48,0,0,1,700,117.89c2.11-.45,1.22-3.69-.9-3.24A45.85,45.85,0,0,0,671,133.28c-1.23,1.79,1.68,3.47,2.9,1.7Z" style="fill:#11a359"/><path d="M581.07,814.29c3.92,0,7.68-3.45,7.5-7.5a7.63,7.63,0,0,0-7.5-7.5c-3.93,0-7.68,3.45-7.5,7.5a7.62,7.62,0,0,0,7.5,7.5Z" style="fill:#ad5215"/><path d="M630.74,829.56a115.26,115.26,0,0,0,30-2.9,108.07,108.07,0,0,0,13.51-4c2.74-1,5.44-2.15,8.11-3.35a39.94,39.94,0,0,0,6-3.09c6.25-4.15,10.33-10.89,8.58-18.54a7.57,7.57,0,0,0-9.23-5.24,7.66,7.66,0,0,0-5.24,9.22,4.87,4.87,0,0,1,.15.76l-.27-2a8.62,8.62,0,0,1,0,1.9l.27-2a10.77,10.77,0,0,1-.62,2.22l.75-1.8a10.85,10.85,0,0,1-.83,1.54c-.15.23-.73,1,0,0s0-.08-.2.14-.4.4-.61.58-1.22,1-.23.21.12-.11-.1,0-.59.38-.89.57a59.38,59.38,0,0,1-7.15,3.43l1.79-.76A108.71,108.71,0,0,1,646.92,814l2-.27a108.24,108.24,0,0,1-18.17.85,7.56,7.56,0,0,0-7.5,7.5,7.65,7.65,0,0,0,7.5,7.5Z" style="fill:#ad5215"/><path d="M574.14,820.81a74.64,74.64,0,0,0,42.13,14.51,77.46,77.46,0,0,0,13.52-.9c1.73-.25,3.65-2,4.48-3.45a7.68,7.68,0,0,0,.76-5.78,7.6,7.6,0,0,0-3.45-4.48,8.79,8.79,0,0,0-5.78-.76l-.82.12,2-.27a67.61,67.61,0,0,1-17.29,0l2,.27a69.75,69.75,0,0,1-17.48-4.74l1.79.76a67.33,67.33,0,0,1-14.28-8.21c-1.45-1.09-4.11-1.21-5.78-.75a7.5,7.5,0,0,0-5.24,9.22,8.75,8.75,0,0,0,3.45,4.48Z" style="fill:#ad5215"/><g style="mix-blend-mode:multiply;opacity:0.4"><path d="M373.4,935.44,567.08,823.62a7.78,7.78,0,0,0,0-13.48L217.84,608.49a18.93,18.93,0,0,0-18.9,0L4,721a7.78,7.78,0,0,0,0,13.48L352,935.44A21.38,21.38,0,0,0,373.4,935.44Z" style="fill:#4a98ff"/><path d="M215.61,820.57l32,18a5.27,5.27,0,0,1,0,9.18l-87.26,49.19a15,15,0,0,1-14.82-.07L72,854.41a5.27,5.27,0,0,1,0-9.12l81.73-47.19a16.41,16.41,0,0,1,15.47-.49Z" style="fill:#4a98ff"/><path d="M422.72,896.56l73.76,41.24c1.37.79,5.66.72,7.36,0,24.68-6,65.5-28.55,72.69-42.57.8-1.94,2-4.52-1.52-6.42L495.37,843.1Z" style="fill:#4a98ff"/><path d="M11.38,673.14l73.76,41.24c1.37.78,5.65.72,7.36,0,24.68-6,65.49-28.56,72.69-42.57.79-2,2-4.52-1.52-6.42,0,0-57.63-36.2-69.86-40.1S2.89,668.39,11.38,673.14Z" style="fill:#4a98ff"/><polygon points="567.67 897.45 588.24 909.52 586.89 912.19 566.72 900.53 567.67 897.45" style="fill:#4a98ff"/><polygon points="510.55 932.13 529.13 942.68 527.78 945.35 507.61 933.68 510.55 932.13" style="fill:#4a98ff"/></g><path d="M409.49,839.12c2.45-7.33,5.27-6.3,10.41-6.31s12.59,5.44,12.83,1.25S449,838,449,838s3.62,7.26,3.19,20.76C440,867.36,407,846.46,409.49,839.12Z" style="fill:#c01e00"/><path d="M525.8,746.44l-98.29-35.67,3.18,121c-.07,12.05,21.3,16.83,21.73,11.23l3.77-74.88,74.9,12.51Z" style="fill:#698fb4"/><path d="M364.85,855.25c.39-5.9,3.06-5.79,8.54-5.8s14.31,4.81,14.56.31,17.12,5.49,17.12,5.49A28.88,28.88,0,0,1,407.69,880C395.88,886.75,364.46,861.15,364.85,855.25Z" style="fill:#c01e00"/><path d="M475.69,768l-91.44-39.22,2.47,117.53c0,11.92,21.75,22.74,22.64,13.36s7.37-81.35,7.37-81.35l59,26.71Z" style="fill:#80a9d2"/><polygon points="534.3 779.64 475.88 804.36 462.68 754.44 539.07 731.82 534.3 779.64" style="fill:#80a9d2"/><path d="M199.2,826.68s-4.52,3.06-.63,12.8c12.63,8.75,44.65-14.8,35.64-21-2-2-6.31-2-9.11-.67-6.77,3.26-11.88.4-12.87-.46S199.2,826.68,199.2,826.68Z" style="fill:#a81010"/><path d="M124.06,711.59s72.59-41.52,95.53-30,.69,135.26.69,135.26c-.14,11.37-23.47,15.65-24.14,9.76l-2.46-93.29-66.57,33.25Z" style="fill:#3884d0"/><path d="M146.34,892a15.28,15.28,0,0,1-7.61-2L83.89,858.33a7.35,7.35,0,0,1,0-12.74l58-33.46a13.93,13.93,0,0,0,7-11.3l4.09-72.06,3,.17L151.81,801a16.93,16.93,0,0,1-8.46,13.73l-58,33.46a4.35,4.35,0,0,0,0,7.54l54.84,31.67a12.26,12.26,0,0,0,12.21,0l59.65-34.32a14,14,0,0,0,7-11.87L220.46,762l3,0-1.37,79.23a17,17,0,0,1-8.5,14.42L153.94,890A15.23,15.23,0,0,1,146.34,892Z" style="fill:#4a555e"/><path d="M198,742.6l25.41,14.28a4.18,4.18,0,0,1,0,7.28l-69.24,39a11.86,11.86,0,0,1-11.76-.06L84,769.45a4.18,4.18,0,0,1,0-7.24l64.85-37.44a13,13,0,0,1,12.27-.39Z" style="fill:#4a555e"/><path d="M262.57,814.4s-4.52,3.06-.63,12.79c12.63,8.75,44.65-14.8,35.64-21-2-2-6.31-2-9.11-.68-6.78,3.27-11.89.41-12.87-.45S262.57,814.4,262.57,814.4Z" style="fill:#a81010"/><path d="M279.76,804.14s-7.32-100.91-30.41-104.45c-19.27-3-68.78,22.26-84.59,30.66l-62.53-31.5V727c0,17.12.91,25.77,16,36l25.22,14.33a42.26,42.26,0,0,0,39.22.75l46.76-23.36,30.15,62.11C263.07,822.15,283.13,812,279.76,804.14Z" style="fill:#5689e2"/><path d="M82.62,410s-70.1,34.93-77,55S23.34,603,23.34,603l81,47.63L190.2,603l-96.15-89Z" style="fill:#8c4423"/><path d="M31.86,679.91c-.12,1.42-4,1.34-3.84-2.22l6.41-74,5,.45Z" style="fill:#4a555e"/><path d="M113.94,727.3,98.37,640l4.93-.83,15,90.63C118.53,731.39,114.62,731,113.94,727.3Z" style="fill:#4a555e"/><polygon points="113.83 523.77 127.48 549.2 182.6 587.76 182.6 718.12 156.2 708.47 137.71 613.12 71.14 595.51 67.91 546.64 113.83 523.77" style="fill:#80a9d2"/><polygon points="48.64 590.32 126.88 629.93 140.26 721.78 158.35 728.36 165.15 611.24 74.5 537.68 48.64 590.32" style="fill:#80a9d2"/><path d="M113.29,405.3,74,408.67c-12.86,13.79-40.25,38.6-39.11,45.71-5.7,44.1-4.62,84.48,2,117.5,5.21,19.3,17.13,26,25.44,20.9l70.31-39.68c-4.36-26.21-1.65-84.35-1.24-129.76C129.93,413.74,121.32,407.59,113.29,405.3Z" style="fill:#f2faff"/><path d="M94.23,436.18c1.29-.66,5.23-1.93,5.23-1.93l1.27,11s16.12,61.54,15.9,72.5-11.06,13.85-11.06,13.85L98,446.11Z" style="fill:#e46262"/><path d="M150.54,478.55l-19.12-55.21-22.91-15.8c5.55,36.49,13.55,69.84,32.15,89.62Z" style="fill:#edbf7e"/><path d="M93,555.58c.66,1.4-24.78,14.92-51.55,28.65a44.11,44.11,0,0,1-5.62-12.91c-6.63-33-7.42-73.06-1.72-117.16-.95-5.94,18.56-24.07,32.51-37.91,1.34,2.55,2.86,5.57,4.46,8.94,5.41,11.4,11.65,26.82,14.14,41.54,2.67,15.77,4.22,33.63,5.24,49.18h0C91.8,537,92.16,553.88,93,555.58Z" style="fill:#edbf7e"/><path d="M132.65,553.1l-8.18,4.62c-1.62-14.53-3.63-32.32-5.56-49.05-3-26-5.83-49.36-6.76-53.84-3.44-17-11.36-32.05-18.05-42.4-1.22-1.89-2.4-3.62-3.5-5.18l22.69-1.95c8,2.29,16.64,8.44,18.13,18C134.89,470.87,129,527.3,132.65,553.1Z" style="fill:#edbf7e"/><path d="M85.19,466.73c2.67,15.77,4.22,33.63,5.24,49.18-5.34-19.12-12.91-39-13.74-39.95-1.31-1.42,4.9-9.11,4.9-9.11s-4.66.15-6.26-1.18c-1.37-1.14-3.66-31.86-4.28-40.48C76.46,436.59,82.7,452,85.19,466.73Z" style="fill:#edbf7e"/><path d="M95.7,544.41c-.11,5.06-.27,1.32-.46-6.73A46,46,0,0,1,95.7,544.41Z" style="fill:#edbf7e"/><path d="M123.18,455.84l-4.27,52.83c-3-26-5.83-49.36-6.76-53.84-3.44-17-11.36-32.05-18.05-42.4l6.51.55s20.22,29.19,20.56,33.3-4.54,6.07-4.54,6.07Z" style="fill:#edbf7e"/><path d="M68.31,374.47c-1.46-13.45,16.11-25.72,31-21s24.77,13.55,23.81,35.6c-.76,17.52-4.27,25.87-9.58,28.74-5.51,3-14.23.95-14.23.95s-1,3.94-2.29,8.84-30.43-2.31-28.63-12.5L70,397S69.77,387.93,68.31,374.47Z" style="fill:#ffa280"/><path d="M68.65,412.14s-1.17.57-3.29,4.75,2.23,15.77,2.23,15.77,4.76-4.84,2.74-9.34S68.65,412.14,68.65,412.14Z" style="fill:#ffe4b0"/><path d="M102,382.19s21.38-1.63,23.17-7-1.06-17.74-6.39-20.84-13.53-1-13.53-1a91.48,91.48,0,0,0-16.39-1.63c-8.53,0-18.31,6.43-20.58,13.25s1.54,33.62,1.54,33.62,9.41-1,10.58-9.08c.72-2.76-3.59-6.37,1.1-8.42s6.82,4.51,7.2,6.75c.66,6.74,4.87,10.15,7.93,9.11C98.36,396.45,96.68,381.51,102,382.19Z" style="fill:#eb423d"/><path d="M355.87,926.56l-8.93-164.12,7-.38,9.17,168.31C363.37,934.21,355.91,933.24,355.87,926.56Z" style="fill:#818d97"/><rect x="531.77" y="657.09" width="7" height="164.37" transform="translate(-39.41 30.2) rotate(-3.12)" style="fill:#818d97"/><path d="M13.56,727.57c-.36,2.79-7.49,2.44-6.57-4.2L22.87,582.82l7,.78Z" style="fill:#818d97"/><path d="M570.84,666.29l-5.32-1.94-.34,2.39L217.7,466.11a18.88,18.88,0,0,0-18.9,0L5.6,577.66l-.35-2.47L0,577.51v7.56H0a7.7,7.7,0,0,0,3.87,7.06l348,200.93a21.39,21.39,0,0,0,21.39,0L567,681.24a7.73,7.73,0,0,0,3.85-7.34Z" style="fill:#4a555e"/><path d="M373.27,785.06,567,673.24a7.78,7.78,0,0,0,0-13.48L217.7,458.11a18.93,18.93,0,0,0-18.9,0L3.89,570.65a7.79,7.79,0,0,0,0,13.49l348,200.92A21.39,21.39,0,0,0,373.27,785.06Z" style="fill:#fff"/><path d="M303,657.14a1,1,0,0,1-.39-1.93c1-.44,22.6-13.81,22.6-13.81l1.37.32-.32,1.38s-21.86,13.55-22.89,14A1,1,0,0,1,303,657.14Z" style="fill:#ff5f64"/><path d="M414.43,642.26a.68.68,0,0,1-.2,0l-27.06-5.32-.78-1.17,1.17-.79,27.06,5.32a1,1,0,0,1-.19,2Z" style="fill:#8e665e"/><path d="M243.66,550.29a1,1,0,0,1-.74-.32L225.1,530.53l.06-1.42,1.42.06,17.82,19.44a1,1,0,0,1-.06,1.42A1.05,1.05,0,0,1,243.66,550.29Z" style="fill:#0055ac"/><path d="M303.44,663.85l.52-1.31,24.15-10.34a1,1,0,0,1,1.31.53,1,1,0,0,1-.52,1.31l-24.15,10.33Z" style="fill:#8e665e"/><path d="M116.43,573.31l-10,7.58a3.84,3.84,0,0,1-3.33,0L77.78,570.23c-1.19-.5-1.63-1.3-1-1.79l10-7.59a3.9,3.9,0,0,1,3.34,0l25.31,10.64C116.64,572,117.08,572.81,116.43,573.31Z" style="fill:#0055ac"/><polygon points="77.66 569.54 76.5 568.92 76.59 567.2 78.92 567.61 77.66 569.54" style="fill:#0055ac"/><polygon points="115.55 573.25 116.73 572.81 116.82 571.05 115.2 571.29 115.55 573.25" style="fill:#0055ac"/><path d="M116.52,571.55l-10,7.58a3.9,3.9,0,0,1-3.34,0l-25.3-10.65c-1.2-.5-1.64-1.3-1-1.79l10-7.59a3.88,3.88,0,0,1,3.33,0l25.31,10.64C116.73,570.25,117.17,571.05,116.52,571.55Z" style="fill:#0c81f5"/><polygon points="113.81 569.92 103.01 578.11 79.42 568.2 90.22 560 113.81 569.92" style="fill:#95c2f0"/><polygon points="154.2 567.93 114.07 544.63 166.91 513.32 207.52 536.63 154.2 567.93" style="fill:#0c81f5"/><polygon points="153.99 566.54 116.2 544.73 116.2 541.05 205.22 533.29 205.22 536.97 153.99 566.54" style="fill:#ffbe90"/><path d="M154,562.86,116.2,541.05c6.41-6.86,18-11.1,30.39-14.95,3.43-6.86,11.54-11.08,20.84-14.63l37.79,21.82c-9.52,3.11-17.76,8.84-25.16,16.28C169.61,554.2,156.66,559.13,154,562.86Z" style="fill:#fff2e2"/><path d="M176.49,543.58a.45.45,0,0,1-.31-.11.49.49,0,0,1-.07-.7c7-8.66,18.7-12.52,18.81-12.55a.5.5,0,0,1,.31.95c-.11,0-11.52,3.81-18.35,12.23A.5.5,0,0,1,176.49,543.58Z" style="fill:#ffbe90"/><path d="M173.21,541.34a.56.56,0,0,1-.32-.11.52.52,0,0,1-.07-.71c7-8.65,18.7-12.51,18.82-12.55a.5.5,0,0,1,.31,1c-.12,0-11.52,3.8-18.35,12.22A.49.49,0,0,1,173.21,541.34Z" style="fill:#ffbe90"/><path d="M166.88,537.25a.45.45,0,0,1-.31-.11.5.5,0,0,1-.08-.7,34.59,34.59,0,0,1,6.14-5.81.5.5,0,1,1,.6.8,33.27,33.27,0,0,0-6,5.64A.5.5,0,0,1,166.88,537.25Z" style="fill:#ffbe90"/><path d="M177.3,528.65a.49.49,0,0,1-.43-.24.51.51,0,0,1,.18-.69,47.28,47.28,0,0,1,8.26-3.83.49.49,0,0,1,.63.32.5.5,0,0,1-.32.63,46.37,46.37,0,0,0-8.07,3.75A.54.54,0,0,1,177.3,528.65Z" style="fill:#ffbe90"/><path d="M163.36,534.85a.54.54,0,0,1-.32-.11A.51.51,0,0,1,163,534c7-8.65,18.7-12.51,18.82-12.54a.49.49,0,0,1,.63.32.51.51,0,0,1-.33.63c-.11,0-11.51,3.8-18.35,12.23A.48.48,0,0,1,163.36,534.85Z" style="fill:#ffbe90"/><path d="M156.07,530.52a.48.48,0,0,1-.32-.11.49.49,0,0,1-.07-.7c7-8.66,18.7-12.51,18.82-12.55a.5.5,0,1,1,.3,1c-.11,0-11.51,3.81-18.35,12.23A.48.48,0,0,1,156.07,530.52Z" style="fill:#ffbe90"/><path d="M152.3,557.36a.5.5,0,0,1-.37-.16.51.51,0,0,1,0-.71c8-7.33,21.09-10.53,21.22-10.56a.5.5,0,0,1,.6.37.49.49,0,0,1-.37.6c-.13,0-13,3.18-20.77,10.33A.5.5,0,0,1,152.3,557.36Z" style="fill:#ffbe90"/><path d="M144.62,553.09a.54.54,0,0,1-.37-.16.51.51,0,0,1,0-.71c8-7.33,21.09-10.53,21.22-10.56a.5.5,0,0,1,.23,1c-.13,0-13,3.17-20.77,10.32A.51.51,0,0,1,144.62,553.09Z" style="fill:#ffbe90"/><path d="M141.58,551.28a.5.5,0,0,1-.34-.87c8-7.33,21.08-10.53,21.22-10.56a.49.49,0,0,1,.6.37.5.5,0,0,1-.37.6c-.13,0-13,3.17-20.77,10.32A.51.51,0,0,1,141.58,551.28Z" style="fill:#ffbe90"/><path d="M132.88,545.91a.46.46,0,0,1-.36-.16.48.48,0,0,1,0-.7,33.39,33.39,0,0,1,4.51-3.46.5.5,0,1,1,.54.84,32.88,32.88,0,0,0-4.38,3.35A.48.48,0,0,1,132.88,545.91Z" style="fill:#ffbe90"/><path d="M141.78,540a.5.5,0,0,1-.23-.94,63.76,63.76,0,0,1,12.21-4.56.49.49,0,0,1,.6.37.5.5,0,0,1-.37.6,63.33,63.33,0,0,0-12,4.48A.44.44,0,0,1,141.78,540Z" style="fill:#ffbe90"/><path d="M128.68,542.73a.54.54,0,0,1-.37-.16.51.51,0,0,1,0-.71A43.72,43.72,0,0,1,141.59,534a.51.51,0,0,1,.65.27.49.49,0,0,1-.27.65A43.58,43.58,0,0,0,129,542.59.51.51,0,0,1,128.68,542.73Z" style="fill:#ffbe90"/><path d="M420.15,676.09l-36,20.8L333.56,667.7a1.33,1.33,0,0,1-.67-1.16l0-1.5,37.54-20.51,50.82,28.38-.1,1.55A2.05,2.05,0,0,1,420.15,676.09Z" style="fill:#a2b2cd"/><path d="M420.59,674.09l-36.47,21L333.4,665.86a1,1,0,0,1,0-1.69l35.67-20.59a2.75,2.75,0,0,1,2.77,0l48.75,28.14A1.37,1.37,0,0,1,420.59,674.09Z" style="fill:#8e665e"/><polygon points="384.12 693.39 334.97 665.01 370.45 644.53 419.61 672.9 384.12 693.39" style="fill:#fff2e2"/><path d="M367.4,651.59l-20.2,11.66a1.91,1.91,0,0,1-1.71,0l-5.89-3.4a.52.52,0,0,1,0-1l20.2-11.66a1.91,1.91,0,0,1,1.71,0l5.89,3.4A.52.52,0,0,1,367.4,651.59Zm-21,10.17,18.47-10.67-4.16-2.4-18.48,10.67Z" style="fill:#a2b2cd"/><path d="M381.29,685l-1.17.67a1.85,1.85,0,0,1-1.71,0c-.48-.27-.48-.71,0-1l1.16-.67a1.93,1.93,0,0,1,1.72,0A.52.52,0,0,1,381.29,685Z" style="fill:#a2b2cd"/><path d="M376.24,682.05l-1.17.67a1.91,1.91,0,0,1-1.71,0,.52.52,0,0,1,0-1l1.16-.67a1.87,1.87,0,0,1,1.72,0C376.71,681.33,376.71,681.77,376.24,682.05Z" style="fill:#a2b2cd"/><path d="M371.19,679.13l-1.17.67a1.85,1.85,0,0,1-1.71,0c-.48-.27-.48-.71,0-1l1.16-.67a1.93,1.93,0,0,1,1.72,0A.52.52,0,0,1,371.19,679.13Z" style="fill:#a2b2cd"/><path d="M361.09,673.3l-1.16.67a1.87,1.87,0,0,1-1.72,0c-.48-.27-.48-.71,0-1l1.16-.67a1.93,1.93,0,0,1,1.72,0A.52.52,0,0,1,361.09,673.3Z" style="fill:#a2b2cd"/><path d="M356,670.39l-1.16.67a1.93,1.93,0,0,1-1.72,0c-.47-.28-.47-.72,0-1l1.16-.67a1.87,1.87,0,0,1,1.72,0C356.52,669.67,356.52,670.11,356,670.39Z" style="fill:#a2b2cd"/><path d="M351,667.47l-1.16.67a1.87,1.87,0,0,1-1.72,0c-.47-.27-.47-.71,0-1l1.17-.67a1.91,1.91,0,0,1,1.71,0A.52.52,0,0,1,351,667.47Z" style="fill:#a2b2cd"/><path d="M405.88,670.76l-21.53,12.43a1.85,1.85,0,0,1-1.71,0,.52.52,0,0,1,0-1l21.52-12.43a1.93,1.93,0,0,1,1.72,0C406.35,670.05,406.35,670.49,405.88,670.76Z" style="fill:#a2b2cd"/><path d="M398.91,669,379.3,680.28a1.91,1.91,0,0,1-1.71,0c-.48-.28-.48-.72,0-1L397.19,668a1.87,1.87,0,0,1,1.72,0C399.38,668.24,398.91,669,398.91,669Z" style="fill:#a2b2cd"/><path d="M395.78,664.93l-21.53,12.43a1.91,1.91,0,0,1-1.71,0,.52.52,0,0,1,0-1l21.52-12.43a1.93,1.93,0,0,1,1.72,0C396.26,664.22,396.26,664.66,395.78,664.93Z" style="fill:#a2b2cd"/><path d="M381.74,661.38l-17.58,10.15a1.93,1.93,0,0,1-1.72,0,.52.52,0,0,1,0-1L380,660.39a1.85,1.85,0,0,1,1.71,0C382.22,660.66,382.22,661.1,381.74,661.38Z" style="fill:#a2b2cd"/><path d="M380.63,656.19l-21.52,12.43a1.93,1.93,0,0,1-1.72,0,.53.53,0,0,1,0-1l21.53-12.42a1.85,1.85,0,0,1,1.71,0C381.11,655.47,381.11,655.91,380.63,656.19Z" style="fill:#a2b2cd"/><path d="M375.59,653.27,354.06,665.7a1.93,1.93,0,0,1-1.72,0,.52.52,0,0,1,0-1l21.53-12.43a1.93,1.93,0,0,1,1.72,0A.52.52,0,0,1,375.59,653.27Z" style="fill:#a2b2cd"/><polygon points="276.4 597.65 244.84 642.78 292.67 662.24 322.12 614.53 276.4 597.65" style="fill:#fff8f0"/><path d="M289.67,653.62a.48.48,0,0,1-.2,0l-12.2-5.08a.49.49,0,0,1-.27-.65.5.5,0,0,1,.65-.27l12.21,5.08a.5.5,0,0,1-.19,1Z" style="fill:#ff5f64"/><path d="M292.87,648.49a.58.58,0,0,1-.18,0L263,636.4a.5.5,0,1,1,.37-.92l29.68,12a.5.5,0,0,1-.19,1Z" style="fill:#ff5f64"/><path d="M300.45,636.35a.46.46,0,0,1-.19,0L270,624.05a.5.5,0,0,1,.38-.93l30.22,12.27a.5.5,0,0,1,.28.65A.51.51,0,0,1,300.45,636.35Z" style="fill:#ff5f64"/><path d="M304.36,630.1a.41.41,0,0,1-.19,0l-30-12.18a.5.5,0,1,1,.37-.92l30,12.18a.5.5,0,0,1,.28.65A.51.51,0,0,1,304.36,630.1Z" style="fill:#ff5f64"/><path d="M311.3,619a.45.45,0,0,1-.16,0l-23.06-8.27a.49.49,0,0,1-.3-.64.5.5,0,0,1,.64-.3L311.47,618a.51.51,0,0,1,.31.64A.52.52,0,0,1,311.3,619Z" style="fill:#ff5f64"/><polygon points="237.28 584.78 227 633.7 279.19 637.72 286.42 587.56 237.28 584.78" style="fill:#fff2e2"/><path d="M265.73,610.91h0l-26-1.8a.5.5,0,1,1,.06-1l26,1.79a.51.51,0,0,1,.47.53A.5.5,0,0,1,265.73,610.91Z" style="fill:#ff5f64"/><path d="M267.32,614.92h0L239,613.08a.5.5,0,0,1-.46-.53.48.48,0,0,1,.53-.47l28.27,1.84a.51.51,0,0,1,.47.53A.5.5,0,0,1,267.32,614.92Z" style="fill:#ff5f64"/><path d="M273.25,624.15h0l-36-2.24a.5.5,0,0,1-.46-.54.48.48,0,0,1,.53-.46l36,2.25a.5.5,0,0,1,0,1Z" style="fill:#ff5f64"/><path d="M272.54,629.33h0L247,627.68a.5.5,0,0,1,.07-1l25.49,1.65a.5.5,0,0,1,.46.53A.49.49,0,0,1,272.54,629.33Z" style="fill:#ff5f64"/><path d="M278.11,602.68l-37.3-2.19,1.7-9.28,37,2.13ZM242,599.56l35.25,2.07,1.08-7.36-35-2Z" style="fill:#ff5f64"/><path d="M426.65,673.14l55.7,26.18,52.92-54.79-11.86-10.77-48,42.72-48-16.63C422.64,659,420.63,670.23,426.65,673.14Z" style="fill:#f2866a"/><path d="M427.34,659.85s-18.55-6-25.09-2.74-6.42,12.17,1.74,13.26,14.27,3.47,23.35,1.73Z" style="fill:#ffa280"/><path d="M516.75,628c-4.6,2-19.59,1.38-32.77,9.61-20.18,12.61-18.81,14.52-31,23.57,6.62,70.63-6.75,107.85,5.87,137.92l27.71,8.47,53.69-34.32c7.91-47.86,10-101.94.8-127.57C538.76,638.84,532.28,621.08,516.75,628Z" style="fill:#f77353"/><path d="M401.1,696.15c-3.5-7.83-3.83-14.7-10.39-19.68s-22.27.43-15.35,8.14,6.43,12.32,17.22,20.34Z" style="fill:#ffa280"/><path d="M388.25,702.44s27.18,45.74,48.28,38.82c15.05-4.94,36.89-56.58,36.89-56.58,7.05-21-14.8-32-22.25-21.69l-21.89,49.55-28.41-19.15C391.42,691.14,383,698.59,388.25,702.44Z" style="fill:#f2866a"/><path d="M515,597.6c.55-15.74-22.45-42-38.9-36.72S451.66,577.69,453.18,602s10,30.06,15.77,31.57a13.8,13.8,0,0,0,9.91-.94c.64,7.33,2.13,10.45,7.88,13.75s28.31-.88,26.6-8.22c-1.29-6.63-7.2-16.37-4.9-29.23Z" style="fill:#ffa280"/><path d="M467.68,607.94a12.72,12.72,0,0,1,3-8c2.48-2.65,4.85-2.13,6.76,0s-.15,8.81-1.49,10.39,18.46,16.88,30.2,11.51c4.9-3.15,6.77-9.33,7.87-15,1.23-6.39,2-13,.61-19.37-1.72-8-6.73-15.13-13.17-20.22s-16-6.71-24-8.54c-6.86-1.57-6.59-4.38-15.51-2.16S446.21,565.91,446,573c-.14,5.61.92,13.18,6.07,15.44,5.33,2.33,9.73,13.87,10.14,18C462.65,610.32,467.62,609.59,467.68,607.94Z" style="fill:#915033"/><path d="M477.4,641.8l1.84-5.95s15.15,7.22,27.58.26a9.23,9.23,0,0,0,3.3-8.16c3,1.24,4.38,6.66,4.8,8.47s0,6.91-6.74,10.58C498.66,652.17,486,650.61,477.4,641.8Z" style="fill:#f77353"/><path d="M176,516.58c2.88,3.89,12.39,5.16,23.93,12.28,10.79,6.66,14.16-6.56,8.58-12-9.1-8.83-23.84-6.08-23.84-6.08S173.17,512.69,176,516.58Z" style="fill:#ffa280"/><path d="M185.47,511l-34.93-32.46c-14,1.48-13.87,11.24-13.06,15l40.81,24.27C182,519.66,188.44,515.72,185.47,511Z" style="fill:#edbf7e"/><path d="M110.13,504.75s13.44,6.18,23.59,8.19S149,504,143.23,497.21,111,493.79,111,493.79Z" style="fill:#ffa280"/><path d="M112.45,493.4,77.1,507.32,62.17,461.13c-5.49-24.15-30.3-16.89-28.1-3.69,0,0,20.38,80.24,30.19,87.7,7.95,6.05,51.83-33.11,51.83-33.11C120.25,507.32,122,489.8,112.45,493.4Z" style="fill:#edbf7e"/><polygon points="204.11 628.11 145.63 649.27 107.27 614.5 131.68 603.55 152.86 629.6 199.71 615.75 204.11 628.11" style="fill:#ffb575"/><path d="M199.71,615.75s14.67-8.43,23.46-6.67,12.61,7.76,8.79,12-11.14,7-16.86,7-11,0-11,0Z" style="fill:#7c2e15"/><path d="M137,580.52c17.29-1.62,27.86,12.74,55,29.69,11.25,11.32-3.9,80.76-3.3,112.86-.6,13.2-14,27.91-32.8,25.39s-44.07-14.6-53.16-24-4.14-122.51,6.78-134.82S130.63,581.11,137,580.52Z" style="fill:#f5933b"/><path d="M251.39,654s4.86-12.63,15.17-18.51,20.57,2,15.22,10.67-22.63,12.12-22.63,12.12Z" style="fill:#7c2e15"/><path d="M262,657.3s-34,30.2-49,35c-17.49,5.57-42-50.31-42-50.31-7.61-16.94,13.36-43.55,23.25-29.21l21.54,48.86s31.73-12.51,36.95-12.93S267.63,652.44,262,657.3Z" style="fill:#ffb575"/><path d="M135.59,548.44c-.51-14.84,21.17-39.55,36.68-34.62s22.62,17.3,22.74,40.44c.07,13-6.34,26.34-11.81,27.75a23,23,0,0,1-10.94-.2l-2.13,10c-.73,8-33.23,1-30.82-7.56l2.42-25.06Z" style="fill:#7c2e15"/><path d="M139.55,579.79s3.1,9.94,31.66,9.75l.91,7c-16.87,6.61-31.13-.32-33.73-11.36Z" style="fill:#ffb575"/><path d="M166.92,548.85c3.49-2.17,7.06.83,8,3s-.16,20.23,1.93,19.21c1.94-.95,4.83-22.57,4.82-24.72s19-4,11-21.42c-4.87-10.51-28.72-16.66-32.13-15.8s-3.27,5.45-3.27,5.45c-1.4,1.67-16.57,10-20.74,18.57-3.58,7.39-7,16.23-5.13,24.23,1.07,4.63-1.43,37.73,12,39.59s27-8.3,26.6-12.72C169.39,578.79,163.42,551,166.92,548.85Z" style="fill:#1c2122"/><path d="M71.39,654.44l59.7,34.46a13.27,13.27,0,0,1,6.61,10.69l6.65,42a3.48,3.48,0,0,1-5.22,3.23L79.47,710.4a11.45,11.45,0,0,1-5.68-9l-7.62-43.67A3.49,3.49,0,0,1,71.39,654.44Z" style="fill:#4a555e"/><path d="M91.64,777.83a5.45,5.45,0,0,1-5.43-5.13L85,713.65l-6.31-45.17c-.38-1.63,1.85-.53,2.12,1l6.42,45.38,1,57.7a3.45,3.45,0,0,0,5.16,2.79l.48-.26,1.9,1.1-1.39.89A5.38,5.38,0,0,1,91.64,777.83Z" style="fill:#b6bac5"/><path d="M133.47,802a5.46,5.46,0,0,1-5.44-5.13l-1.21-59.05-6.3-45.17c-.38-1.63,1.85-.53,2.12,1L129.05,739l1,57.7a3.44,3.44,0,0,0,5.15,2.79l.48-.26,1.91,1.1-1.39.89A5.41,5.41,0,0,1,133.47,802Z" style="fill:#b6bac5"/><path d="M583.27,907.36,560,792.81l4.9-1L589,910.27C589.73,913.53,584.48,912.7,583.27,907.36Z" style="fill:#b6bac5"/><path d="M524.41,940.51,501,827.46l4.89-1,23.8,117.1C530.31,946.41,526,946.17,524.41,940.51Z" style="fill:#b6bac5"/><path d="M428.66,884.33c-.29,2.93-5.12,1.71-4.73-3.16l8.61-92.52,5,.46Z" style="fill:#b6bac5"/><path d="M490,849.09c-.35,2.37-4.83,1.46-4.77-2.68l5.64-60.63,5,.47Z" style="fill:#b6bac5"/><path d="M526.7,732.2c-3,22.53-5.59,32.86-14.57,37.59S476.52,768.55,454,763c-31.43-7.71-33.9,40.48-33.9,40.48,22.86,19.17,73.66,46.46,81.61,46s53.18-24.12,70.47-40.7c15.18-31.24,26.13-110.19,24.71-123.32S530.36,704.28,526.7,732.2Z" style="fill:#4a555e"/><path d="M384.42,487.55,264.67,415c-3.38-1.94-6.14-7.22-6.14-11.72l-2.91-91.09s3-1.64,4.56-2.39a4.31,4.31,0,0,1,4.49,0l120.6,69.63c3.37,1.95,6.14,7.22,6.14,11.72V480a6.24,6.24,0,0,1-1.42,4.39C388.86,485.55,384.42,487.55,384.42,487.55Z" style="fill:#4a555e"/><path d="M380.1,487.43,259.5,417.8c-3.38-1.95-6.14-7.22-6.14-11.72V317.22c0-4.5,2.76-6.59,6.14-4.64l120.6,69.63c3.38,2,6.14,7.22,6.14,11.72v88.86C386.24,487.29,383.48,489.38,380.1,487.43Z" style="fill:#eef3ff"/><path d="M265.35,373.84a56.57,56.57,0,0,0,1.34,5.78,2.8,2.8,0,0,1-.79,2.87l-1.24,1.13a2.78,2.78,0,0,0-.73,3.11c.93,2.32,2,4.59,3.13,6.82a2.79,2.79,0,0,0,2,1.47l3.56.61a2.81,2.81,0,0,1,1.9,1.29q1.88,3,4,5.69a2.8,2.8,0,0,1,.6,1.81l-.15,5.21a2.79,2.79,0,0,0,.75,2c1.44,1.55,2.94,3,4.47,4.39a2.81,2.81,0,0,0,3.94-.21l.21-.23a2.83,2.83,0,0,1,3.62-.44c.48.31,1,.61,1.46.89.74.43,1.47.81,2.19,1.16a2.91,2.91,0,0,1,1.39,1.42l2.72,6.21a2.76,2.76,0,0,0,1.67,1.54l.07,0a26.57,26.57,0,0,0,2.7.67,2.82,2.82,0,0,0,3.36-2.82l0-1.85a2.81,2.81,0,0,1,2.19-2.8,13.43,13.43,0,0,0,1.45-.4,2.88,2.88,0,0,1,2.95.65l3.05,3A2.8,2.8,0,0,0,321,423a17.28,17.28,0,0,0,1.36-1.47,2.77,2.77,0,0,0,.35-3L320.13,413a2.78,2.78,0,0,1,0-2.36,21.53,21.53,0,0,0,.88-2.3,2.82,2.82,0,0,1,3.35-1.91l.26.06a2.82,2.82,0,0,0,3.49-2.67c0-1.39,0-2.84-.1-4.33a2.84,2.84,0,0,0-.9-1.87l-4.7-4.33a2.8,2.8,0,0,1-.85-1.59,55.44,55.44,0,0,0-1.35-5.78,2.8,2.8,0,0,1,.79-2.87l1.25-1.13a2.8,2.8,0,0,0,.73-3.12c-.94-2.31-2-4.59-3.13-6.81a2.83,2.83,0,0,0-2-1.47l-3.57-.62a2.82,2.82,0,0,1-1.9-1.28c-1.24-2-2.58-3.88-4-5.69a2.79,2.79,0,0,1-.61-1.81l.15-5.21a2.83,2.83,0,0,0-.74-2q-2.17-2.34-4.47-4.39a2.82,2.82,0,0,0-3.95.2l-.21.23a2.81,2.81,0,0,1-3.61.45c-.49-.31-1-.61-1.46-.9-.74-.42-1.48-.81-2.2-1.16a2.85,2.85,0,0,1-1.38-1.42l-2.73-6.21a2.72,2.72,0,0,0-1.67-1.53l-.07,0c-.92-.27-1.81-.49-2.69-.67a2.82,2.82,0,0,0-3.36,2.82l0,1.86a2.8,2.8,0,0,1-2.19,2.79,14.1,14.1,0,0,0-1.45.4,2.86,2.86,0,0,1-3-.65l-3-3a2.79,2.79,0,0,0-3.89-.08,19.08,19.08,0,0,0-1.36,1.47,2.81,2.81,0,0,0-.35,3l2.62,5.47a2.82,2.82,0,0,1,0,2.36,21.33,21.33,0,0,0-.87,2.29,2.83,2.83,0,0,1-3.36,1.91l-.26-.06a2.82,2.82,0,0,0-3.48,2.67,42.56,42.56,0,0,0,.1,4.34,2.73,2.73,0,0,0,.9,1.86l4.69,4.34A2.87,2.87,0,0,1,265.35,373.84Zm8.88-2.15c0-12.25,8.6-17.21,19.21-11.09s19.21,21,19.21,33.27-8.6,17.22-19.21,11.09S274.23,383.94,274.23,371.69Z" style="fill:#ead65e"/><path d="M331.05,423.23a44.51,44.51,0,0,0,1.62,5.69,2.08,2.08,0,0,1-.13,1.74l-1.69,3a2.1,2.1,0,0,0-.05,1.95,65.91,65.91,0,0,0,3.72,6.54,2.11,2.11,0,0,0,1.68.95l3.57.15a2.12,2.12,0,0,1,1.54.77,43.26,43.26,0,0,0,4.08,4.34,2.11,2.11,0,0,1,.61,1l1.67,6.54a2.07,2.07,0,0,0,.8,1.18,35.87,35.87,0,0,0,3.07,2c.36.21.72.4,1.08.59a2.1,2.1,0,0,0,2.92-1.11l.64-1.66a2.08,2.08,0,0,1,2.3-1.31,13.5,13.5,0,0,0,2.64.24,2.07,2.07,0,0,1,1.56.72l3.93,4.47a2.08,2.08,0,0,0,2.36.57,12.69,12.69,0,0,0,2.28-1.26,2.07,2.07,0,0,0,.75-2.34l-1.82-5.6a2.06,2.06,0,0,1,.2-1.73,14.6,14.6,0,0,0,1.14-2.31,2.08,2.08,0,0,1,2.31-1.27l1.8.32a2.09,2.09,0,0,0,2.46-1.92q.06-.85.06-1.77c0-1,0-2-.14-3a2.08,2.08,0,0,0-.61-1.3l-4.81-4.82a2.06,2.06,0,0,1-.57-1,43.37,43.37,0,0,0-1.62-5.69,2.12,2.12,0,0,1,.13-1.74l1.69-3a2.1,2.1,0,0,0,.06-1.95,66.15,66.15,0,0,0-3.73-6.55,2.1,2.1,0,0,0-1.67-.94l-3.57-.15a2.11,2.11,0,0,1-1.54-.78,45.7,45.7,0,0,0-4.09-4.34,2,2,0,0,1-.61-1l-1.67-6.53a2.09,2.09,0,0,0-.8-1.19c-1-.72-2-1.4-3.06-2l-1.08-.6a2.1,2.1,0,0,0-2.92,1.11l-.65,1.66a2.09,2.09,0,0,1-2.3,1.32,14.35,14.35,0,0,0-2.64-.25,2.08,2.08,0,0,1-1.56-.71l-3.93-4.48a2.07,2.07,0,0,0-2.35-.56,12,12,0,0,0-2.28,1.25,2.07,2.07,0,0,0-.76,2.35l1.83,5.59a2.05,2.05,0,0,1-.21,1.74,14.61,14.61,0,0,0-1.14,2.31,2.09,2.09,0,0,1-2.31,1.27l-1.79-.32a2.1,2.1,0,0,0-2.47,1.91q-.06.87-.06,1.77c0,1,.06,2,.14,3a2.11,2.11,0,0,0,.61,1.31l4.82,4.81A2.12,2.12,0,0,1,331.05,423.23Zm6.22-3.06c0-9.1,6.39-12.78,14.27-8.24s14.26,15.62,14.26,24.71-6.38,12.79-14.26,8.24S337.27,429.27,337.27,420.17Z" style="fill:#e46262"/><path d="M299.51,401.33a13.27,13.27,0,0,1-6.57-2c-7.77-4.48-14.09-15.42-14.09-24.39,0-4.56,1.59-8,4.48-9.66s6.66-1.33,10.61,1c7.76,4.49,14.08,15.43,14.08,24.39,0,4.57-1.59,8-4.48,9.66A8,8,0,0,1,299.51,401.33Zm-12.14-35.09a6,6,0,0,0-3,.77c-2.24,1.3-3.48,4.11-3.48,7.93,0,8.33,5.87,18.5,13.09,22.66,3.3,1.91,6.36,2.25,8.6.95s3.48-4.11,3.48-7.93c0-8.32-5.87-18.49-13.08-22.66A11.44,11.44,0,0,0,287.37,366.24Z" style="fill:#ead65e"/><path d="M355.72,441.53a9.49,9.49,0,0,1-4.7-1.42c-5.45-3.15-9.88-10.83-9.88-17.12,0-3.27,1.15-5.73,3.25-6.94s4.81-1,7.63.65c5.46,3.15,9.89,10.83,9.89,17.13,0,3.26-1.15,5.73-3.25,6.94A5.8,5.8,0,0,1,355.72,441.53Zm-8.38-24.25a3.85,3.85,0,0,0-1.95.5c-1.45.83-2.25,2.69-2.25,5.21,0,5.66,4,12.56,8.88,15.39,2.19,1.26,4.19,1.49,5.64.66s2.25-2.69,2.25-5.21c0-5.66-4-12.57-8.89-15.39A7.5,7.5,0,0,0,347.34,417.28Z" style="fill:#ef9191"/></g></g></g></svg>