<svg xmlns="http://www.w3.org/2000/svg" viewBox="0 0 989.5 1188.73"><g id="Camada_2" data-name="Camada 2"><g id="Camada_1-2" data-name="Camada 1"><path d="M787,711.26c4.13-11,17.9-16.77,30.13-15.39s23,8.38,32.06,16.28l-59.27.5" transform="translate(-1.16)" style="fill:#15cc67"/><path d="M790.09,712.12c.38-1-.14.26.11-.31l.28-.6c.22-.45.45-.88.7-1.31s.45-.75.7-1.11l.47-.67h0l.2-.26a23.08,23.08,0,0,1,2-2.16,18,18,0,0,1,2.07-1.7,27.34,27.34,0,0,1,11-4.57,32.38,32.38,0,0,1,12.32.13,47.48,47.48,0,0,1,13.46,5.18,82.3,82.3,0,0,1,13.48,9.68l2.27-5.48-59.27.5c-4.13,0-4.14,6.46,0,6.43l59.27-.51c2.62,0,4.44-3.6,2.27-5.48-8.4-7.28-18-13.83-29-16.33-9.6-2.19-20.18-1-28.51,4.52a25.86,25.86,0,0,0-10.09,12.34,3.24,3.24,0,0,0,2.24,4,3.29,3.29,0,0,0,4-2.24Z" transform="translate(-1.16)" style="fill:#11a359"/><path d="M821.34,704.38a43.45,43.45,0,0,0-26.66,2.79c-1.25.56-.17,2.4,1.08,1.85a41,41,0,0,1,25-2.58c1.34.28,1.92-1.78.57-2.06Z" transform="translate(-1.16)" style="fill:#11a359"/><path d="M755.1,625.87c-9.87-4.78-10.5,3.36-16.78,5.78-4.57,1.76-6.48-3.19-5.26-6.43,2.14-5.64,11.88-7.28,17.67-7.14,2.34.06,4.95.5,6.59,2.18s1.33,4.85-1,5.19" transform="translate(-1.16)" style="fill:#15cc67"/><path d="M756.72,623.09c-4.09-1.94-8.71-2.89-12.64-.06a35.63,35.63,0,0,0-3.82,3.44l-.83.77-.52.44c.57-.49.17-.12,0,0s-.65.44-1,.63l-.54.28c-.53.3.49-.08-.24.09-.1,0-1.07.17-.34.13,0,0-.88-.06-.37,0s-.25-.1-.29-.11l.34.12c-.25-.16-.27-.16-.07,0l.14.12-.33-.33c.56.62.09,0,0,0s-.31-.74-.05,0c-.08-.23-.13-.48-.22-.72-.25-.73,0,.63,0-.15,0-.21,0-.43,0-.64s.14-.74,0,0c0-.21.1-.41.14-.61s.31-.67,0-.06c.1-.19.19-.38.3-.57a6.18,6.18,0,0,1,.36-.53c-.43.59,0,0,.16-.15l.58-.55c.6-.59-.33.21.1-.09a13.18,13.18,0,0,1,1.18-.76c.43-.24.86-.45,1.31-.66s-.7.24.2-.07c.34-.12.67-.25,1-.36a28.16,28.16,0,0,1,3-.79q.76-.15,1.53-.27l.21,0,1-.11a17,17,0,0,1,6.76.33c1,.34-.17-.12.37.15.12.06.94.51.65.38.32.15.33.33.1,0a2.87,2.87,0,0,1,.28.48c-.14-.35-.15-.35,0,0s-.2.46,0-.06q0,.57.06-.09a3.79,3.79,0,0,1-.14.48c-.06-.15.3-.55.34-.6-.25.24-.23.22.08-.07s.4-.18,0-.09a3.21,3.21,0,0,0,1.7,6.2c3.45-.7,5-4.58,4-7.73-1.15-3.64-4.8-5.3-8.32-5.77a30.71,30.71,0,0,0-16.16,2.47c-4.91,2.22-8.9,7.44-6.7,13a6.91,6.91,0,0,0,7,4.67,12.59,12.59,0,0,0,7-3.56c.8-.72,1.54-1.5,2.31-2.24.36-.34.76-.65,1.11-1s-.23.18-.24.18.22-.17.34-.24.4-.26.61-.37c.37-.21.63-.19.08-.07.24,0,.47-.16.71-.22.42-.11.69,0,.14,0,.27,0,.57,0,.85,0s.94.14.33,0c.34.08.68.14,1,.24a11.43,11.43,0,0,1,2.08.78,3.32,3.32,0,0,0,4.4-1.15,3.25,3.25,0,0,0-1.16-4.4Z" transform="translate(-1.16)" style="fill:#11a359"/><path d="M777.57,756.84a431.91,431.91,0,0,0-61.77,21.81c-2-1.63-2-4.74-.68-6.91s3.65-3.6,5.94-4.86a105,105,0,0,1,62.35-12.12" transform="translate(-1.16)" style="fill:#15cc67"/><path d="M776.71,753.75A434,434,0,0,0,728.05,770q-7,2.81-13.87,5.85l3.89.5c-.17-.15-.32-.3-.48-.46.38.39-.12-.38,0,0s-.09-.3-.11-.37c-.14-.52-.05.69-.05-.26,0-.23,0-.44,0-.66,0,.16-.13.48,0-.14a2.14,2.14,0,0,1,.44-1.08c.94-1.56,2.86-2.64,4.61-3.61a94.27,94.27,0,0,1,13.6-6.22,102.9,102.9,0,0,1,29.83-6.11,105.08,105.08,0,0,1,17.47.55c1.73.2,3.21-1.62,3.21-3.21a3.29,3.29,0,0,0-3.21-3.21,108.27,108.27,0,0,0-34.35,1.63A104.07,104.07,0,0,0,732.77,758a84.72,84.72,0,0,0-15.37,7.35c-2.67,1.71-5.13,4-6,7.11a8.31,8.31,0,0,0,2.18,8.51,3.36,3.36,0,0,0,3.89.5A428.34,428.34,0,0,1,764.47,764c4.63-1.42,9.28-2.75,13.95-4,4-1.08,2.3-7.28-1.71-6.19Z" transform="translate(-1.16)" style="fill:#11a359"/><path d="M848.16,815.07a32.9,32.9,0,0,1,1.92-6.44l-.75,1.79a34.65,34.65,0,0,1,4.46-7.62l-1.17,1.52a34.82,34.82,0,0,1,6-6l-1.52,1.17a33.36,33.36,0,0,1,6.37-3.81,7.53,7.53,0,0,0,3.45-4.48,7.68,7.68,0,0,0-.76-5.78A7.54,7.54,0,0,0,861.7,782a8.59,8.59,0,0,0-5.78.75,40.29,40.29,0,0,0-22.23,28.34,8.07,8.07,0,0,0,.76,5.78,7.63,7.63,0,0,0,4.48,3.45c3.7.84,8.44-1.12,9.23-5.24Z" transform="translate(-1.16)" style="fill:#ad5215"/><path d="M784.28,640.91a75.08,75.08,0,0,1,47.59,6.44A69.7,69.7,0,0,1,864.3,681.1c1.39,3.16,2.42,7.09.19,9.78-1.69,2-4.81,2.61-7.49,2a22.38,22.38,0,0,1-7.27-3.52q-29.72-19.1-59.41-38.21c-2-1.29-4.09-2.65-5.33-4.64s-1.37-4.8.35-6.42" transform="translate(-1.16)" style="fill:#15cc67"/><path d="M785.13,644a72.38,72.38,0,0,1,38.32,3.17,67.62,67.62,0,0,1,28.41,20,64.85,64.85,0,0,1,9,14.18,20.47,20.47,0,0,1,1.35,3.48,5.55,5.55,0,0,1,.17,3.34,2.78,2.78,0,0,1-.42.72c-.49.58.23,0-.41.37a4.93,4.93,0,0,1-.6.34c.46-.22-.58.17-.55.16s-1.08.2-.55.14a7.94,7.94,0,0,1-1.09,0c-.09,0-1-.09-.58,0-3.16-.46-5.93-2.66-8.54-4.34l-9.2-5.92-18.82-12.11L800.31,653.8c-3.34-2.15-6.77-4.21-10-6.49a7.65,7.65,0,0,1-2.84-3c.19.45-.15-.62-.14-.57.11.47,0-.49,0-.54,0-.44,0-.43.34-.8,2.88-3-1.66-7.52-4.54-4.54a8.48,8.48,0,0,0-.85,10.31c2,3.24,5.48,5.15,8.57,7.14l20.5,13.19L832.21,682l10,6.46c3.24,2.08,6.43,4.47,9.92,6.14,3.3,1.59,7.08,2.44,10.64,1.17a9.1,9.1,0,0,0,6.19-8.46c.12-3.35-1.32-6.57-2.72-9.52a66.45,66.45,0,0,0-4.74-8.33,73.66,73.66,0,0,0-29.6-25.59,78.9,78.9,0,0,0-48.51-6,3.24,3.24,0,0,0-2.25,3.95,3.28,3.28,0,0,0,4,2.24Z" transform="translate(-1.16)" style="fill:#11a359"/><path d="M839.76,664.82A88.1,88.1,0,0,0,798,645a92.63,92.63,0,0,0-13.6-1.41,3.21,3.21,0,1,0,0,6.42,83,83,0,0,1,41.2,12.33,76.91,76.91,0,0,1,9.66,7.07,3.31,3.31,0,0,0,4.55,0,3.24,3.24,0,0,0,0-4.54Z" transform="translate(-1.16)" style="fill:#11a359"/><path d="M771.82,591.61c13.21-2,26.7-3.94,40.47-2s28.14,8.48,35.68,19.5c1.53,2.24,2.77,5,1.56,7.11-1.54,2.66-5.85,2.51-9.4,2.41a47.29,47.29,0,0,0-24.8,5.91c-3.85,2.22-7.85,5.13-12.72,4.29-4.67-.81-8.11-4.77-10.79-8.46a153.45,153.45,0,0,1-15.53-26.63" transform="translate(-1.16)" style="fill:#15cc67"/><path d="M772.83,595.26c12.68-1.89,26-3.8,38.84-2a66,66,0,0,1,8,1.68c1.26.35,2.51.74,3.74,1.16l1.85.67.91.35.72.3a55,55,0,0,1,7.22,3.76,34.07,34.07,0,0,1,5.59,4.18c.92.84,1.81,1.71,2.64,2.63a23.25,23.25,0,0,1,2.18,2.68,13.16,13.16,0,0,1,1.63,3c.44,1.15-.24-.66.11.45v.18c0,.28,0,.24,0-.13l-.09.33c.14-.34.12-.34-.07,0l.23-.32c-.3.29-.27.27.11,0,0,0-.85.49-.33.23s-.38.12-.41.13c-.27.08-1.75.29-1,.23a36.63,36.63,0,0,1-3.92.07,58.61,58.61,0,0,0-8.88.4,50,50,0,0,0-17.8,5.61c-1.15.63-2.26,1.32-3.39,2-.57.33-1.14.66-1.72,1l-.7.35c-.23.12-.47.23-.71.33q.46-.19-.18.06c-.61.21-1.23.37-1.86.54-.09,0-.73.13-.15,0a9.33,9.33,0,0,1-1.18.06,7.14,7.14,0,0,1-2.76-.65,9.84,9.84,0,0,1-3-2.19,22.9,22.9,0,0,1-1.59-1.68l-.62-.73c-.09-.11-.83-1.06-.47-.59-2.1-2.77-4-5.67-5.92-8.61a152.12,152.12,0,0,1-10.27-18.91c-.85-1.86-3.55-2.32-5.19-1.36a3.88,3.88,0,0,0-1.36,5.18,153.75,153.75,0,0,0,9.78,18.14c1.89,3,3.87,5.93,6,8.79a32.74,32.74,0,0,0,6.52,7,15,15,0,0,0,9.16,3.2,19.9,19.9,0,0,0,9.44-3c1.25-.7,2.46-1.47,3.71-2.17.6-.34,1.21-.66,1.82-1l1.13-.53s1-.46.62-.29a44,44,0,0,1,9.41-2.74,47.16,47.16,0,0,1,9.1-.67c2.85.05,5.9.26,8.62-.74a7.82,7.82,0,0,0,5.48-7.85c-.24-3.53-2.32-6.48-4.44-9.17-7.38-9.32-19-15-30.34-17.64-15.93-3.7-32.25-1.43-48.19.94-2,.3-3.14,2.86-2.64,4.66.59,2.17,2.63,2.95,4.66,2.65Z" transform="translate(-1.16)" style="fill:#11a359"/><path d="M811.53,600.47l-19.38-10.71a3.79,3.79,0,1,0-3.82,6.54L807.71,607a3.79,3.79,0,0,0,3.82-6.54Z" transform="translate(-1.16)" style="fill:#11a359"/><path d="M779.7,702.87a88.48,88.48,0,0,1,20.36,14c3.65,3.35,7.17,8.58,4.38,12.61-1.7,2.45-5.19,3.24-8.25,2.86s-5.9-1.69-8.84-2.6A34.81,34.81,0,0,0,761,732.28a68.85,68.85,0,0,1,14.35-26.19" transform="translate(-1.16)" style="fill:#15cc67"/><path d="M777.79,706.14A91,91,0,0,1,792,715a63.21,63.21,0,0,1,6.21,5.35,17.22,17.22,0,0,1,1.95,2.29c.36.55.67,1.11,1,1.68s.14.3.07.12a7.89,7.89,0,0,1,.34,1c0,.16.1,1.19.09.37,0,.22,0,.47,0,.68,0-.56.08-.27,0,0,0,0-.37,1-.15.53s-.36.54-.33.49c.38-.52,0-.08-.06,0-.72.74.35-.18-.16.16a7.86,7.86,0,0,1-.89.51c-.55.27.79-.19-.24.07l-.69.18s-1.1.17-.56.12-.64,0-.58,0h-.73c.1,0-1.07-.07-.62,0s-1-.18-.81-.15c-.45-.1-.9-.21-1.34-.33-2.75-.76-5.37-1.92-8.15-2.59A38.51,38.51,0,0,0,759.06,729l5.56,4.27A65.7,65.7,0,0,1,778,708.77a3.87,3.87,0,0,0,0-5.35,3.82,3.82,0,0,0-5.36,0,73.92,73.92,0,0,0-15.32,27.85c-1,3.29,2.72,5.79,5.56,4.28A30.66,30.66,0,0,1,778.7,732a28.63,28.63,0,0,1,8.08,1.47c3.24,1,6.33,2.34,9.76,2.64,6.11.52,12.73-3.24,12.69-10,0-6.32-5.32-11.17-9.8-14.89a94.13,94.13,0,0,0-17.81-11.68,3.9,3.9,0,0,0-5.19,1.36,3.83,3.83,0,0,0,1.36,5.18Z" transform="translate(-1.16)" style="fill:#11a359"/><path d="M779.13,708.32l-1,7a2.87,2.87,0,0,0-.07,1.51,2.8,2.8,0,0,0,.45,1.41,3.9,3.9,0,0,0,2.26,1.74,3.82,3.82,0,0,0,2.92-.39,3.59,3.59,0,0,0,1.74-2.26l1-7a2.88,2.88,0,0,0,.07-1.51,2.93,2.93,0,0,0-.45-1.41,3.8,3.8,0,0,0-5.19-1.36,3.66,3.66,0,0,0-1.74,2.26Z" transform="translate(-1.16)" style="fill:#11a359"/><path d="M801.15,750.34c11.73,1.64,26.52,18.37,38,17.91,8.11-.32,11.89-9,8-15.54S834,742.27,825.79,742.16s-18.24,4.61-24.64,8.18c8.05.09,19.19.76,26.23,5" transform="translate(-1.16)" style="fill:#15cc67"/><path d="M800.3,753.44a21.09,21.09,0,0,1,4.73,1.34c.48.19-.4-.18.07,0l.71.32c.38.17.75.36,1.13.55.87.44,1.73.91,2.58,1.39,3.48,2,6.78,4.28,10.14,6.46,6.21,4,13.58,8.9,21.35,7.74,8.24-1.23,13-10.26,10-17.88-3.37-8.67-13.24-13.12-21.91-14.21-10.35-1.29-20.72,3.47-29.55,8.39-2.83,1.57-1.5,5.94,1.62,6,8.29.1,17.57.41,24.61,4.6,3.56,2.11,6.79-3.44,3.24-5.55-8.18-4.87-18.57-5.36-27.85-5.47l1.62,6c6.85-3.81,14.88-7.71,22.65-7.74a26.55,26.55,0,0,1,10.51,2.18,23.93,23.93,0,0,1,4.86,2.83,17.42,17.42,0,0,1,3.21,3.37,12.9,12.9,0,0,1,.67,1.13,5.77,5.77,0,0,1,.27.56c-.06-.14-.16-.49,0,.09.11.33.22.67.31,1,.05.18.21,1.4.16.74a11.37,11.37,0,0,1,.05,1.16c0,.21-.1,1.26,0,.58a10.48,10.48,0,0,1-.58,2.18c.23-.61-.18.35-.27.5s-.34.56-.52.83.32-.35,0,0l-.38.42a7.49,7.49,0,0,1-.92.86c.49-.39-.41.24-.53.32l-.39.21c-.07,0-.62.3-.28.15.15-.07-.71.23-.91.28l-.45.12s-1,.14-.42.08a11.33,11.33,0,0,1-2.1,0c-.25,0-1-.15-.34,0-.4-.07-.81-.14-1.21-.24a20.36,20.36,0,0,1-2.06-.61c-.38-.13-.75-.27-1.12-.42-.59-.22-.2-.08-.08,0l-.71-.32A73.11,73.11,0,0,1,822.9,758c-3.45-2.24-6.85-4.58-10.43-6.62A31.29,31.29,0,0,0,802,747.24a3.31,3.31,0,0,0-4,2.25c-.42,1.51.51,3.69,2.24,4Z" transform="translate(-1.16)" style="fill:#11a359"/><path d="M766.13,652.62c-27,4.56-50.34,15-77.29,19.51-5.05.85-11.79.86-13.56-3.72-.92-2.37.1-5.11,1.89-7a20.06,20.06,0,0,1,6.67-4.06,146.39,146.39,0,0,1,82.82-9.49" transform="translate(-1.16)" style="fill:#15cc67"/><path d="M765.28,649.52c-25.81,4.4-50.14,14.71-75.9,19.27-.67.12-1.35.24-2,.34s-.25,0-.11,0l-1,.1a22.49,22.49,0,0,1-3.67.06s-1.1-.11-.44,0l-.62-.11c-.51-.1-1-.25-1.48-.39-.84-.23.42.3-.32-.13a4.67,4.67,0,0,0-.49-.27c-.71-.34.29.37-.25-.17a5.48,5.48,0,0,1-.58-.6c.44.56-.08-.21-.12-.29.3.54,0-.13-.09-.31a3.23,3.23,0,0,1,0-.88,5.14,5.14,0,0,1,1.86-3c2-1.72,4.71-2.71,7.12-3.69A141.55,141.55,0,0,1,723.37,650a144,144,0,0,1,42.43,1,3.3,3.3,0,0,0,4-2.24,3.23,3.23,0,0,0-2.24-4,149.57,149.57,0,0,0-80.83,8c-5.85,2.33-13.66,5.07-14.8,12.24a8.69,8.69,0,0,0,3.65,8.63,13.91,13.91,0,0,0,7.39,2.13,38,38,0,0,0,8.63-.85q5.25-.95,10.46-2.17c6.66-1.56,13.25-3.41,19.81-5.33,14.93-4.38,29.8-9.06,45.16-11.68,1.71-.29,2.67-2.4,2.25-4a3.3,3.3,0,0,0-4-2.25Z" transform="translate(-1.16)" style="fill:#11a359"/><path d="M759.84,642.5A122,122,0,0,0,703,652.8c-1.58.71-2,3-1.15,4.4a3.29,3.29,0,0,0,4.39,1.15,115.26,115.26,0,0,1,53.58-9.43,3.24,3.24,0,0,0,3.21-3.21,3.27,3.27,0,0,0-3.21-3.21Z" transform="translate(-1.16)" style="fill:#11a359"/><path d="M761.62,692.14a78,78,0,0,0-34,13.91c-2.47,1.81-4.92,3.89-5.91,6.7-1.07,3-.22,6.42,1.5,9.17a34.5,34.5,0,0,0,6.65,7.13c2-13.46,19.28-21.5,22.12-34.82" transform="translate(-1.16)" style="fill:#15cc67"/><path d="M760.76,689a81.53,81.53,0,0,0-26.22,8.88,63.25,63.25,0,0,0-11.36,7.6c-3.86,3.35-5.83,7.87-4.78,13,1.1,5.38,5.29,9.33,9.23,12.82,1.61,1.42,5,1.15,5.37-1.42a18.78,18.78,0,0,1,1-3.83c0-.15.34-.82.13-.36.12-.27.25-.55.39-.82.29-.6.61-1.19,1-1.76a36.46,36.46,0,0,1,2.29-3.38c.22-.29,0,0,0,0l.3-.38.62-.75c.48-.58,1-1.16,1.48-1.73,3.77-4.29,7.91-8.29,11.09-13.06a26,26,0,0,0,3.89-8.76,3.27,3.27,0,0,0-2.24-4,3.23,3.23,0,0,0-4,2.24c-.14.6-.29,1.2-.48,1.78-.11.34-.23.68-.35,1-.05.14-.11.28-.17.42.13-.31.06-.11,0,.08a29.48,29.48,0,0,1-1.86,3.4,44.35,44.35,0,0,1-4.88,6.18c-3.79,4.22-7.91,8.25-10.91,13.1a23.92,23.92,0,0,0-3.43,8.83l5.36-1.42c-2.71-2.39-6-5-7.19-8.57a6.82,6.82,0,0,1-.17-4.55A10.11,10.11,0,0,1,728,709.8a59,59,0,0,1,9.94-6.44,72.81,72.81,0,0,1,10.86-4.76,80,80,0,0,1,13.64-3.37c1.72-.26,2.67-2.41,2.24-4a3.29,3.29,0,0,0-4-2.24Z" transform="translate(-1.16)" style="fill:#11a359"/><path d="M745,699.77a142.55,142.55,0,0,0-14.73,11.4c-1,.91.48,2.42,1.51,1.51a139.08,139.08,0,0,1,14.3-11.06c1.13-.77.06-2.63-1.08-1.85Z" transform="translate(-1.16)" style="fill:#11a359"/><path d="M802.36,785a49.45,49.45,0,0,1,31.46-5,47.92,47.92,0,0,1,27.52,15.31l-32.21.63c-4.45.09-9,.17-13.27-1s-11.62-6.21-13.5-10" transform="translate(-1.16)" style="fill:#15cc67"/><path d="M804,787.73a46.11,46.11,0,0,1,45.45,1.66,43.63,43.63,0,0,1,9.64,8.2l2.27-5.48-27.5.54a113.26,113.26,0,0,1-13.54-.09,20.2,20.2,0,0,1-5-1.12c-.34-.12,0,0,.08,0l-.56-.25-.87-.43c-.76-.4-1.5-.83-2.22-1.28a24.92,24.92,0,0,1-4-3c-.59-.55-1.15-1.12-1.68-1.72-.05-.07-.44-.55-.21-.25s-.13-.18-.16-.23a9.7,9.7,0,0,1-.58-1,3.21,3.21,0,1,0-5.55,3.24c1.56,3,4.44,5.35,7.15,7.29a25.69,25.69,0,0,0,9.2,4.45c4.66,1,9.45.92,14.19.82l14.62-.28,16.6-.33a3.25,3.25,0,0,0,2.28-5.48c-11.93-13.48-30.57-19.27-48.12-16a52.13,52.13,0,0,0-14.77,5.17,3.22,3.22,0,1,0,3.25,5.55Z" transform="translate(-1.16)" style="fill:#11a359"/><path d="M825.68,785.76a159.5,159.5,0,0,1-21.83-1.71,2.21,2.21,0,0,0-2.63,1.5,2.15,2.15,0,0,0,1.49,2.63,166.61,166.61,0,0,0,23,1.86c2.75,0,2.76-4.25,0-4.28Z" transform="translate(-1.16)" style="fill:#11a359"/><path d="M780.19,780.39c-8,6.11-16.09,12.3-22.22,20.12-1.17,1.49-2.4,3.14-4.27,3.67-2.18.63-4.46-.45-6.45-1.49-5.26-2.76-11.09-6.26-12-11.9-.68-4,1.42-8,4.25-11a27.22,27.22,0,0,1,19.74-8.33c7.42.05,16.4,3.82,21.26,9.15" transform="translate(-1.16)" style="fill:#15cc67"/><path d="M778.28,777.12c-6.53,5-13.14,10-18.82,15.91-1.36,1.43-2.67,2.91-3.9,4.46-.53.66-1,1.35-1.61,2a7.11,7.11,0,0,1-1,.94c.48-.36-.67.26-.4.18s-.33,0-.31,0c.53,0-.21,0-.23-.06l-.64-.16a11,11,0,0,1-2.25-1c-1.54-.8-3.06-1.64-4.52-2.57-.55-.36-1.52-1-1.74-1.2l-.61-.5c-.36-.31-.71-.64-1-1s-.48-.51-.71-.77c-.07-.08-.52-.64-.25-.29s-.1-.14-.12-.17c-.18-.29-.37-.57-.54-.87s-.53-1.29-.32-.63c-.12-.38-.25-.75-.34-1.15a4.18,4.18,0,0,1-.1-.51c0,.1,0,.45,0,0a9.2,9.2,0,0,1,0-1.39c0,.09-.08.47,0,0,.05-.26.11-.52.17-.78a10.5,10.5,0,0,1,.44-1.34c-.16.38.24-.47.3-.59.22-.43.47-.84.73-1.25.11-.18.23-.35.35-.52s.37-.52.15-.24a19,19,0,0,1,1.92-2.1c.28-.27.57-.54.87-.8l.45-.39c.06,0,.7-.56.32-.27a25.32,25.32,0,0,1,4.6-2.77,23,23,0,0,1,4.59-1.55c.69-.16,1.94-.4,2.28-.44l.29,0,.81-.07,1.41-.06a25.55,25.55,0,0,1,2.77.11l.73.08c-.41,0-.16,0,.1,0l1.49.28a32.56,32.56,0,0,1,5.56,1.73c-.4-.16.67.3.89.41.41.19.81.4,1.21.61A29,29,0,0,1,774,780c.37.24.72.5,1.08.75,0,0,.5.37.21.15s.41.34.47.39a23.49,23.49,0,0,1,2,2,3.79,3.79,0,0,0,5.35-5.36c-5.57-6-14-9.52-22.14-10.18a30.79,30.79,0,0,0-23.66,8.8c-3.31,3.32-5.9,7.68-6,12.47a14.86,14.86,0,0,0,5.23,11.15,40.51,40.51,0,0,0,10.15,6.49c2.54,1.18,5.23,2,8,1.21a11,11,0,0,0,5.48-4.05c6.27-7.88,14.14-14.19,21.92-20.12,1.63-1.24,2.49-3.27,1.36-5.19-.93-1.6-3.54-2.6-5.18-1.36Z" transform="translate(-1.16)" style="fill:#11a359"/><path d="M776.11,776.19a34.92,34.92,0,0,0-24.66,3.2,3.81,3.81,0,0,0-1.36,5.18,3.87,3.87,0,0,0,5.18,1.36l1.3-.67.66-.31.22-.1c-.23.1-.16.07.22-.08l.69-.26c.45-.17.92-.33,1.38-.47q1.23-.39,2.49-.66c.36-.08.72-.16,1.08-.22.14,0,1.58-.24.81-.15a30.69,30.69,0,0,1,5.16-.2l1.47.09c.16,0,1.13.13.45,0,1,.13,1.94.33,2.89.55a3.79,3.79,0,0,0,2-7.3Z" transform="translate(-1.16)" style="fill:#11a359"/><path d="M794.71,513.77a52.38,52.38,0,0,1,19.15,11.64,3.73,3.73,0,0,0,2.58,1.4,3.53,3.53,0,0,0,2.34-1.62c2.08-2.59,4.29-5.72,3.32-8.85-.9-2.9-4.15-4.44-7.07-5.64l-10.17-4.18c-2.11-.87-4.42-1.76-6.65-1.22s-4.87,6.7-3.5,8.47" transform="translate(-1.16)" style="fill:#15cc67"/><path d="M793.85,516.86a49.08,49.08,0,0,1,14.95,8.34c2.51,2.07,5,5.53,8.68,4.68a7,7,0,0,0,3.83-2.75,24.31,24.31,0,0,0,2.87-4.17c1.5-3,2-6.47.15-9.44-1.51-2.49-4.09-4-6.7-5.18-3.17-1.39-6.4-2.65-9.6-4s-6.82-3.1-10.45-2.21c-2.68.65-4.33,3.15-5.35,5.54s-1.83,5.43-.29,7.69a3.29,3.29,0,0,0,4.39,1.15,3.25,3.25,0,0,0,1.15-4.4c-.27-.39.08.26.09.32,0-.12-.08-.68-.06-.15,0,.75.12-.93,0-.3-.06.46,0-.1.05-.21s.11-.44.17-.66.11-.36.18-.54.31-.79.15-.43.11-.19.15-.27.22-.42.34-.63.69-1,.25-.45c.2-.25.43-.46.65-.69-.44.45-.37.26-.16.14-1.05.58-.33.06-.22.1.37.12,1,0,1.39.06a11,11,0,0,1,1.78.52c1.37.48,2.7,1.07,4,1.62,2.67,1.1,5.36,2.17,8,3.29.53.23-.32-.14.21.1l.66.3c.49.23,1,.47,1.44.74a5.43,5.43,0,0,1,2.05,1.61c-.36-.46.44.8.19.27a2.13,2.13,0,0,1,.24,1,5.46,5.46,0,0,1-.9,2.55,19.79,19.79,0,0,1-1.84,2.61,3.23,3.23,0,0,0-.5.55c-.2.43-.12,0,0,.07a1.18,1.18,0,0,0,.72-.06c0-.06-.16-.17-.34-.35a65.51,65.51,0,0,0-5.88-4.9,56.1,56.1,0,0,0-14.83-7.7,3.21,3.21,0,0,0-1.71,6.19Z" transform="translate(-1.16)" style="fill:#11a359"/><path d="M784.51,552.13a49.51,49.51,0,0,1,31.46-5,48,48,0,0,1,27.53,15.31l-32.22.63c-4.45.09-9,.17-13.27-1s-11.62-6.21-13.5-10" transform="translate(-1.16)" style="fill:#15cc67"/><path d="M786.13,554.9a46.11,46.11,0,0,1,45.45,1.66,43.41,43.41,0,0,1,9.64,8.2l2.28-5.48-27.51.54a113.26,113.26,0,0,1-13.54-.09,20.2,20.2,0,0,1-5-1.12c-.34-.12,0,0,.08,0l-.56-.25-.86-.43c-.77-.39-1.51-.82-2.23-1.28a24.77,24.77,0,0,1-4-3c-.59-.55-1.15-1.12-1.68-1.72-.05-.06-.44-.55-.21-.24s-.13-.19-.16-.24a9.7,9.7,0,0,1-.58-1,3.24,3.24,0,0,0-4.39-1.15,3.27,3.27,0,0,0-1.16,4.39c1.56,3,4.44,5.35,7.15,7.29a25.77,25.77,0,0,0,9.2,4.45c4.67,1,9.45.92,14.19.83l14.62-.29,16.61-.32a3.26,3.26,0,0,0,2.27-5.49c-11.93-13.48-30.57-19.27-48.12-16a52,52,0,0,0-14.76,5.18,3.21,3.21,0,1,0,3.24,5.54Z" transform="translate(-1.16)" style="fill:#11a359"/><path d="M807.83,552.93A159.5,159.5,0,0,1,786,551.22a2.21,2.21,0,0,0-2.63,1.5,2.15,2.15,0,0,0,1.49,2.63,166.61,166.61,0,0,0,23,1.86c2.75,0,2.76-4.25,0-4.28Z" transform="translate(-1.16)" style="fill:#11a359"/><path d="M412.07,102.93A49.49,49.49,0,0,1,401.23,73,47.92,47.92,0,0,1,411,43.05l6.74,31.51c.93,4.35,1.87,8.78,1.59,13.21s-3.89,12.58-7.29,15.16" transform="translate(-1.16)" style="fill:#15cc67"/><path d="M414.34,100.66a46.07,46.07,0,0,1-7-44.32,44.31,44.31,0,0,1,6.52-11.67l-5.87-.76,5.75,26.9c.91,4.26,2.07,8.57,2.41,12.93a28.73,28.73,0,0,1,.09,3.08c0,.44,0,.88-.08,1.32s0-.15,0-.19c0,.24-.07.47-.12.71a26.22,26.22,0,0,1-1.33,4.4c-.22.57-.5,1.22-.89,2a27.62,27.62,0,0,1-1.34,2.45c-.23.37-.47.74-.72,1.1l-.28.38c-.31.43.27-.31-.06.08a10.93,10.93,0,0,1-1.6,1.59c-1.37,1.08-1.13,3.42,0,4.55a3.3,3.3,0,0,0,4.54,0c2.52-2,4.25-5.15,5.54-8a27,27,0,0,0,2.73-10.36c.13-4.75-1-9.47-1.95-14.08l-3.06-14.3L414.13,42.2a3.18,3.18,0,0,0-2.67-2.3,3.33,3.33,0,0,0-3.2,1.53c-10.93,14.22-13.12,34-6.33,50.48a53.94,53.94,0,0,0,7.87,13.3c1.08,1.35,3.41,1.13,4.54,0a3.3,3.3,0,0,0,0-4.55Z" transform="translate(-1.16)" style="fill:#11a359"/><path d="M408.46,80.05a160.44,160.44,0,0,1,2.43,21.76c.12,2.74,4.4,2.76,4.28,0a167.52,167.52,0,0,0-2.58-22.9,2.17,2.17,0,0,0-2.64-1.5,2.2,2.2,0,0,0-1.49,2.64Z" transform="translate(-1.16)" style="fill:#11a359"/><path d="M505.35,94.6c-9.2,6-2.58,10.72-3.77,17.35-.86,4.82-6.09,3.89-8.22,1.15-3.71-4.75-.06-13.93,3.07-18.8,1.26-2,3-4,5.28-4.5s4.84,1.38,3.94,3.5" transform="translate(-1.16)" style="fill:#15cc67"/><path d="M503.73,91.83c-3.86,2.55-7,6.16-6.49,11.08.19,1.8.69,3.52,1.05,5.28,0,.18.22,1.23.16.81s.05.62.06.83a11.46,11.46,0,0,1,0,1.31c-.05.76.2-.32,0,.11-.06.12-.4,1.13-.07.45-.07.15-.17.29-.24.44.28-.56.22-.17,0,0s.68-.37.05,0,.11,0,.19,0a3.07,3.07,0,0,0-.52.14c-.42.21.8-.24.1,0a2.23,2.23,0,0,1-.44,0c.83,0,.15,0-.14-.06s-.37-.13-.55-.18c.62.17.31.15.13,0s-.41-.24-.61-.36-.3-.35.09.08c-.13-.14-.87-1-.46-.4a3.76,3.76,0,0,1-.3-.47c-.11-.18-.38-.76-.17-.24a10.9,10.9,0,0,1-.4-1.38c-.23-.87,0,.38,0-.17,0-.25,0-.5-.05-.76a13.55,13.55,0,0,1,.05-1.56c0-.22,0-.43.06-.64-.07.58.07-.34.09-.45a26.28,26.28,0,0,1,.88-3.27c.16-.48.34-1,.53-1.44,0-.1.31-.75.13-.32.13-.3.27-.61.41-.91A19.59,19.59,0,0,1,500.7,94a3.58,3.58,0,0,1,1.33-1c-.35.17.16,0,.2-.06.41-.1.45-.12.11-.06h.31c-.7-.33.57.22-.14-.07.23.09.63.58.31.16s-.06-.11,0,0a1.12,1.12,0,0,1-.19-.59c.07-.38.05-.39-.06,0a3.24,3.24,0,0,0,2.24,4,3.27,3.27,0,0,0,3.95-2.24c1.23-3.49-1.54-6.91-4.93-7.52-3.57-.64-6.74,1.52-8.85,4.21a30.52,30.52,0,0,0-6.34,15.82c-.43,5.21,2.21,10.82,7.8,11.75a6.93,6.93,0,0,0,7.25-3c1.46-2.35,1.41-5.28,1-7.91-.17-1-.43-2.08-.68-3.12-.13-.53-.22-1.08-.34-1.61-.19-.75,0,.71,0-.06,0-.3-.05-.6-.05-.9s0-.46,0-.68c0,.73,0,.26,0,0l.21-.68c-.25.78.13-.19.24-.37s.56-.78.15-.27a11.13,11.13,0,0,1,.88-.94A11.56,11.56,0,0,1,507,97.38a3.29,3.29,0,0,0,1.15-4.4,3.24,3.24,0,0,0-4.39-1.15Z" transform="translate(-1.16)" style="fill:#11a359"/><path d="M199.51,213.5c4.16-5.74,6.05-11.29,4.62-16.34-1.78-6.27-5.74-12.12-11.26-17.48" transform="translate(-1.16)" style="fill:#15cc67"/><path d="M202.79,215.42c4.31-6,7.05-13.23,4.6-20.55C205.09,188,200.71,182,195.56,177a3.8,3.8,0,0,0-5.37,5.37,47.76,47.76,0,0,1,5.86,6.77,41.18,41.18,0,0,1,2.32,3.81c.36.7.71,1.41,1,2.13-.2-.46.08.19.14.35.14.36.28.73.4,1.09.23.66.45,1.33.62,2,.07.29.13.59.19.89s0,.23,0-.11c0,.18,0,.36,0,.54a15.11,15.11,0,0,1,0,2c-.06.8.13-.38-.08.49-.07.31-.13.63-.21.94a24.13,24.13,0,0,1-4.23,8.28c-1.19,1.67-.29,4.23,1.36,5.2a3.88,3.88,0,0,0,5.2-1.36Z" transform="translate(-1.16)" style="fill:#11a359"/><path d="M211.09,171.43c12.61,12.25,17.8,27.24,10.08,44.75C207.27,247.69,72.85,316.5,4.93,301c.19.16,95.64-27,99.9-28.62,19.91-7.55,77.24-34.86,94.68-58.9" transform="translate(-1.16)" style="fill:#15cc67"/><path d="M208.4,174.11c1.19,1.16,2.34,2.36,3.43,3.61.51.59,1,1.18,1.49,1.79l.36.45c-.05-.07-.27-.36,0,0s.53.71.78,1.07a44.56,44.56,0,0,1,2.48,3.92c.35.64.69,1.29,1,1.94.16.32.31.65.46,1,.08.16.15.33.22.49-.16-.36-.06-.16,0,.09a38.79,38.79,0,0,1,1.4,4.23c.18.69.34,1.38.47,2.08.07.35.13.7.19,1.05,0,.18,0,.36.08.53-.06-.39,0-.26,0,.06a36.14,36.14,0,0,1,.2,4.53c0,.75-.06,1.49-.13,2.23,0,.37-.07.75-.12,1.12s0,0,0-.06c0,.25-.07.51-.12.76a32.9,32.9,0,0,1-4.2,12c-.6,1-1.27,1.92-2,2.84-.39.53.39-.49.23-.3l-.28.36c-.2.26-.41.52-.62.77-.43.51-.86,1-1.3,1.51a82.84,82.84,0,0,1-6.37,6.34c-1.25,1.13-2.54,2.23-3.84,3.31-.68.57-1.37,1.13-2.07,1.69l-1,.81-.53.41-.26.21c-.38.3.63-.48.24-.18-6.69,5.05-13.61,9.73-20.76,14.11-8.22,5-16.68,9.68-25.28,14q-6.95,3.52-14,6.79c-2.38,1.09-4.77,2.17-7.18,3.22l-3.64,1.58-.88.37-.26.11-1.91.8c-9.85,4.09-19.85,7.81-30,11.08a306.24,306.24,0,0,1-30.22,8.17c-4.84,1-9.7,1.93-14.59,2.65l-1.72.24c-.4.06-.8.11-.13,0l-1,.13-3.53.42c-2.31.25-4.62.46-6.94.61-4.46.3-8.94.42-13.42.29q-3.15-.09-6.3-.36c-1-.09-2-.19-3.06-.31l-.72-.09c-.53-.07-.52,0,.05,0-.52,0-1-.15-1.55-.23q-2.84-.44-5.64-1.07a3.8,3.8,0,1,0-2,7.32c1.19.38,2.52-.11,3.68-.42l4.8-1.33q8.37-2.34,16.72-4.71,22.76-6.45,45.49-13c10.13-2.92,20.35-5.67,30.39-8.9a156.52,156.52,0,0,0,16.72-7q13.59-6.18,26.73-13.3a307.6,307.6,0,0,0,28-16.92c7.95-5.49,15.84-11.46,22.31-18.67,1.45-1.61,2.8-3.3,4.08-5s.28-4.24-1.36-5.2a3.89,3.89,0,0,0-5.2,1.36c-.17.23-1.14,1.48-.4.56l-.92,1.14c-.65.78-1.32,1.54-2,2.29-1.47,1.6-3,3.13-4.6,4.61s-3.5,3.13-5.31,4.61c-.88.72-1.76,1.42-2.64,2.11s.61-.46-.22.17l-.76.58-1.52,1.14a261.16,261.16,0,0,1-27,17.23q-13.41,7.59-27.36,14.16-5.8,2.74-11.71,5.3l-1.08.47-.63.27c-.76.32.83-.35.07,0l-2.37,1c-1.32.54-2.65,1.09-4,1.58-2.73,1-5.58,1.72-8.36,2.54q-8.84,2.59-17.68,5.14-22.59,6.51-45.2,12.92c-9.36,2.65-18.7,5.5-28.13,7.89-.11,0-.23.05-.34.09l-.11,0a4.06,4.06,0,0,1,2,0l-2,7.32A106.39,106.39,0,0,0,29.83,307a188,188,0,0,0,29.46-3.22,284.05,284.05,0,0,0,30.46-7.43c10.45-3.13,20.76-6.76,30.9-10.78s20.2-8.45,30-13.24c9-4.4,17.89-9.11,26.54-14.21a260.18,260.18,0,0,0,22.13-14.46,131.08,131.08,0,0,0,16.56-14,61.71,61.71,0,0,0,5.72-6.79,34.73,34.73,0,0,0,4.32-8.5,39.12,39.12,0,0,0-5.4-37.8,62.6,62.6,0,0,0-6.79-7.84,3.8,3.8,0,0,0-5.37,5.37Z" transform="translate(-1.16)" style="fill:#11a359"/><path d="M189.37,175.74c-30.66-29.8-105.78-40.47-123.6-27C41.65,167,51.24,186.9,61.09,191.4c12.72,5.82,27.12,8,44.16,5.58C231.09,179.26,376.61,93.67,479.74,67.83c148.76-37.26,278.63-4.78,324.16,21,52.34,29.57,54.4,115.21,54,142.85-1.21,75.59-11.72,114.71-23.1,161.05-13.56,55.23-28.47,95-29.31,127.46-2.84,108.69,2.38,123.88,11.67,178.59,9.61,56.57,23.47,128,23.47,128l-85.05,5.79s-1.14-51.48-1.85-78.51c-.76-29-5-68.71-3.18-114.52,1-25.21-7-85.68,9.33-167.23,14-70,55.65-133.73,65.08-204.61,3.72-28,5.8-133.49-47.59-157.25-16.59-7.39-137.72-53.28-296.12-7C208,183.3,232.18,234.44,94,229.62c-61.92-2.16-69.17-26.45-73.2-33.72C9.93,176.38,19.32,147.72,53.17,136,86,124.67,176.72,134,211.33,167.58" transform="translate(-1.16)" style="fill:#15cc67"/><path d="M192.05,173.06c-18.7-17.92-45.85-26.79-70.85-31.18-11.68-2-23.7-3.29-35.56-2.44-9.57.68-18.16,2.64-25.53,9-9.72,8.41-16.62,21.45-11.51,34.25,4.69,11.74,17.11,15.64,28.65,17.71,17,3,34.23-.22,51-3.51s33.12-7.47,49.41-12.25c67.51-19.82,131.75-49,196.72-75.69C403.49,97,432.83,85.39,463,76.38c36-10.73,73.34-17.13,110.73-20,62.59-4.77,127.46,0,187.56,18.89,18.79,5.91,39.47,13,54.17,26.61,18.63,17.27,27.93,42.37,33.07,66.69a281.11,281.11,0,0,1,5.57,60.08c-.23,32.54-2.67,65.19-8.29,97.25-4.94,28.16-12,56-19.28,83.68C818.27,441,807.37,472.22,803,504.45c-2.21,16.38-1.82,33.13-2,49.62-.18,14.8-.19,29.6.23,44.39a490.32,490.32,0,0,0,5,58.66c7.81,52,17.93,103.82,27.79,155.51q1.44,7.57,2.9,15.16l3.67-4.81-74.32,5.07-10.73.73,3.79,3.79q-.84-38.36-1.8-76.73c-.47-18.29-1.84-36.55-2.69-54.83-1-21.6-.71-43.06-.45-64.66.13-11.4-.58-22.81-.88-34.2-.45-16.87-.43-33.76.38-50.63,2.18-44.8,9.7-88.83,24.86-131.11,14.89-41.56,34.34-81.65,44.73-124.73,6-25,7.8-50.1,6.43-75.75-1.48-27.41-5.8-56.21-18.82-80.74-6-11.22-14.17-21.49-25-28.35-5.53-3.51-11.77-5.84-17.91-8.07C715.44,83.61,657.28,77.33,601.5,79.69c-46.26,2-91.21,11-135.47,24.3-38.95,11.68-77.59,24.49-115.52,39.18q-38.37,14.87-75.6,32.45c-17.59,8.31-34.91,17.18-52.51,25.47C208.31,207.73,194,213.8,179,218A224.43,224.43,0,0,1,129,225.73c-11.13.54-22.28.51-33.42.15-16.43-.53-33.92-2.13-49-9.24-7.42-3.49-14.21-8.52-18.53-15.28C24,195,20.45,187.62,20.29,180,20,164.93,30,152.31,42.5,145,54,138.3,66.84,136.13,80,135.46a236.07,236.07,0,0,1,93.24,14.15c12.79,4.77,25.5,11.13,35.43,20.66,3.53,3.38,8.91-2,5.37-5.37-10.42-10-23.49-16.71-36.85-21.88a226.41,226.41,0,0,0-47.79-12.26,251.68,251.68,0,0,0-46.69-3c-12.64.46-25.24,2-36.91,7.14-14.32,6.27-27,17.65-31.45,33C11,179.27,13.38,189.7,18.59,200c9.21,18.11,27.29,26.57,46.61,30.36,15.28,3,31,3.42,46.48,3.4,10.19,0,20.38-.38,30.52-1.35a217,217,0,0,0,49-10.19c15.41-5.2,30.2-12.1,44.81-19.2,19-9.22,37.83-18.68,57-27.44,27.65-12.62,55.84-24,84.4-34.38q28.92-10.53,58.28-19.84c23.24-7.42,46.6-14.83,70.33-20.55,72.91-17.6,150.4-19.14,223.49-1.55,10,2.42,20,5.2,29.8,8.47,3.33,1.11,6.65,2.28,9.93,3.53,1.17.44,2.34.9,3.5,1.36l1.32.54c.83.35-.38-.18.84.36,24.13,10.78,35.25,37,41.14,61.16,6.18,25.44,7.71,52.19,6.37,78.28-1.83,35.57-13.81,69.85-26.59,102.79-16.4,42.23-34.2,83.55-42,128.45-6.75,38.67-8.89,77.82-7.87,117,.3,11.71,1,23.44.9,35.15-.26,21.6-.54,43.06.46,64.66.86,18.59,2.23,37.14,2.71,55.74q.64,24.64,1.18,49.29.3,13.28.6,26.53a3.84,3.84,0,0,0,3.8,3.8l74.31-5.06,10.74-.74a3.86,3.86,0,0,0,3.66-4.8c-9.29-47.93-17.82-96-26.25-144.07-3-17-5.87-34.05-7.4-51.28-2.24-25.14-2.31-50.45-2-75.67.19-16.36-.31-33,1.89-49.29,1.93-14.19,5.5-28.14,9.19-41.95,8.52-31.89,17.46-63.61,25.1-95.72a598.54,598.54,0,0,0,14.18-83.34c2.4-25.89,3.77-52.2,2.15-78.19-2.82-45.44-15.05-99.81-58.9-122.74C784,74,764.17,67.67,744.4,62.58a495.5,495.5,0,0,0-87.46-13.94c-70.88-5.18-143.58,2.88-211.13,25.2-63.38,20.94-123.89,49.86-186,74.16-32.25,12.62-64.94,24.35-98.4,33.35A494.61,494.61,0,0,1,113,192c-16.59,2.72-35,4-50.5-4.12-9.52-5-9.62-17.45-4.51-25.63,5.91-9.43,14.26-13.83,24.92-15,24.32-2.59,50.6,3.21,73,12.33,11.12,4.53,22,10.47,30.73,18.83,3.53,3.38,8.91-2,5.37-5.37Z" transform="translate(-1.16)" style="fill:#11a359"/><path d="M801.59,372.93" transform="translate(-1.16)" style="fill:#15cc67"/><path d="M801.59,376.71a3.79,3.79,0,1,0-3.79-3.78,3.83,3.83,0,0,0,3.79,3.78Z" transform="translate(-1.16)" style="fill:#11a359"/><path d="M789.25,528.47c3,37.79-28.83,75.09-68.32,80.13-4.1.52-8.7.61-11.88-1.91-3.52-2.77-4-7.92-2.37-12s5-7.22,8.32-10.18c19.31-17.21,46.79-38.26,70.37-49.68" transform="translate(-1.16)" style="fill:#15cc67"/><path d="M786,528.47a61.52,61.52,0,0,1-1.74,20.31,69.18,69.18,0,0,1-7.81,18.85,79.7,79.7,0,0,1-29.74,29,72.41,72.41,0,0,1-19.72,7.6,41.75,41.75,0,0,1-10.82,1.41,9.64,9.64,0,0,1-4.61-1.12,5,5,0,0,1-2.26-2.9,8.17,8.17,0,0,1-.14-4.27,12.84,12.84,0,0,1,2.36-4.77c2.36-3.17,5.59-5.73,8.55-8.32q9.35-8.16,19.14-15.79c13.43-10.45,27.53-20.29,42.58-28.26q2.56-1.35,5.16-2.62a3.23,3.23,0,0,0,1.15-4.39,3.28,3.28,0,0,0-4.39-1.15c-16.08,7.81-31,18.06-45.15,28.88q-10.67,8.13-20.83,16.88c-6.4,5.52-14.63,11.58-15.18,20.75a12.53,12.53,0,0,0,5.14,11.1c3.65,2.58,8.54,2.67,12.81,2.16a79.82,79.82,0,0,0,23.07-6.44,85.88,85.88,0,0,0,35-29.25c8.6-12.29,13.89-27.11,14-42.18,0-1.84,0-3.68-.19-5.52a3.29,3.29,0,0,0-3.21-3.21,3.23,3.23,0,0,0-3.21,3.21Z" transform="translate(-1.16)" style="fill:#11a359"/><path d="M780.44,536.86a110.17,110.17,0,0,1-29.56,37.84,108.8,108.8,0,0,1-11,8c-3.48,2.21-.26,7.77,3.24,5.55a118,118,0,0,0,36.06-35.75A108.14,108.14,0,0,0,786,540.1a3.31,3.31,0,0,0-1.15-4.4,3.24,3.24,0,0,0-4.39,1.16Z" transform="translate(-1.16)" style="fill:#11a359"/><path d="M747.42,93.45c3,37.79-28.83,75.09-68.33,80.13-4.1.52-8.69.61-11.88-1.9-3.51-2.77-4-7.93-2.37-12s5-7.22,8.33-10.19c19.31-17.21,46.78-38.25,70.36-49.68" transform="translate(-1.16)" style="fill:#15cc67"/><path d="M744.2,93.45a61,61,0,0,1-1.74,20.31,69.21,69.21,0,0,1-7.8,18.85,79.62,79.62,0,0,1-29.74,29,72.41,72.41,0,0,1-19.72,7.6,41.88,41.88,0,0,1-10.83,1.41,9.58,9.58,0,0,1-4.61-1.12,5,5,0,0,1-2.26-2.9,8.13,8.13,0,0,1-.14-4.26,12.83,12.83,0,0,1,2.37-4.78c2.35-3.17,5.59-5.73,8.55-8.32q9.33-8.16,19.14-15.79c13.42-10.44,27.52-20.29,42.58-28.26q2.55-1.35,5.15-2.61a3.25,3.25,0,0,0,1.16-4.4,3.29,3.29,0,0,0-4.4-1.15c-16.07,7.81-31,18.06-45.15,28.88q-10.65,8.14-20.82,16.88c-6.4,5.52-14.63,11.58-15.19,20.76a12.57,12.57,0,0,0,5.14,11.09c3.66,2.58,8.54,2.67,12.82,2.16a79.28,79.28,0,0,0,23.07-6.44,85.92,85.92,0,0,0,35-29.24c8.59-12.3,13.88-27.12,14-42.18,0-1.85-.05-3.69-.19-5.53a3.29,3.29,0,0,0-3.21-3.21,3.24,3.24,0,0,0-3.22,3.21Z" transform="translate(-1.16)" style="fill:#11a359"/><path d="M738.6,101.84A109.93,109.93,0,0,1,709,139.68a107.28,107.28,0,0,1-11,8c-3.48,2.21-.26,7.78,3.24,5.55a118.14,118.14,0,0,0,36.07-35.74,110.7,110.7,0,0,0,6.85-12.39,3.3,3.3,0,0,0-1.15-4.39,3.24,3.24,0,0,0-4.4,1.15Z" transform="translate(-1.16)" style="fill:#11a359"/><path d="M846.34,231.87c3-37.79-28.83-75.09-68.32-80.13-4.11-.52-8.7-.61-11.89,1.9-3.51,2.77-4,7.93-2.37,12s5,7.22,8.33,10.19c19.31,17.21,46.78,38.25,70.37,49.68" transform="translate(-1.16)" style="fill:#15cc67"/><path d="M849.55,231.87c1.15-15.09-3.09-30.27-10.87-43.16a86.41,86.41,0,0,0-33-31.36,79.46,79.46,0,0,0-21.79-7.89c-8.17-1.63-19.47-2.93-23.3,6.56a15.11,15.11,0,0,0,.92,12.33c2,4.07,5.52,7.24,8.88,10.22q9.61,8.53,19.73,16.48c14.26,11.22,29.17,21.87,45.22,30.4q2.73,1.45,5.5,2.8a3.3,3.3,0,0,0,4.4-1.15,3.26,3.26,0,0,0-1.15-4.4c-15.24-7.4-29.4-17-42.91-27.18q-10-7.52-19.52-15.64c-3-2.59-6.08-5.18-9-7.9s-5.61-5.59-6.4-9.2a6.28,6.28,0,0,1-.18-1.91c0-.16.1-1.26,0-.87a10.11,10.11,0,0,1,.31-1.32,5,5,0,0,1,2.26-2.9c2.75-1.64,7.11-1.17,10.1-.72a74.33,74.33,0,0,1,20.3,6.15,79.28,79.28,0,0,1,37.08,36.24,65.16,65.16,0,0,1,3.78,9.15,62.53,62.53,0,0,1,3.38,20.09c0,1.73-.06,3.45-.19,5.18a3.23,3.23,0,0,0,3.21,3.21,3.28,3.28,0,0,0,3.21-3.21Z" transform="translate(-1.16)" style="fill:#11a359"/><path d="M843.07,220.24a114.46,114.46,0,0,0-30.88-39.4,122.42,122.42,0,0,0-12-8.73c-3.5-2.22-6.73,3.33-3.25,5.55a108.7,108.7,0,0,1,40.61,45.82,3.24,3.24,0,0,0,4.4,1.15,3.29,3.29,0,0,0,1.15-4.39Z" transform="translate(-1.16)" style="fill:#11a359"/><path d="M792.78,372.59c4.13,0,4.14-6.43,0-6.43s-4.14,6.43,0,6.43Z" transform="translate(-1.16)" style="fill:#11a359"/><path d="M786.12,378.37c-6.8-1.41-13.65-2.83-20.61-3s-14.11,1.05-20,4.53c-11,6.47-15.72,19.29-24.69,28.15a5.45,5.45,0,0,0,5.09,1.88,16,16,0,0,0,5.32-2l54-27.7" transform="translate(-1.16)" style="fill:#15cc67"/><path d="M787,375.27c-11.78-2.45-24.27-4.91-36.08-1.21a34.28,34.28,0,0,0-13.52,8,74.11,74.11,0,0,0-9.17,11.34c-3.11,4.43-5.87,8.54-9.69,12.35a3.24,3.24,0,0,0-.5,3.89c3.3,4.33,8.49,4,13,1.93s8.87-4.51,13.28-6.78l27-13.85,15.48-8a3.21,3.21,0,1,0-3.24-5.54l-50,25.66a66.54,66.54,0,0,1-6.21,3.1,5.8,5.8,0,0,1-2.75.5c-.57-.05.34.09-.22-.05a4.5,4.5,0,0,0-.46-.12s-.74-.63-.36-.14l-.5,3.89c6.53-6.51,10.81-15,16.82-21.6A28.27,28.27,0,0,1,750.38,381a37.86,37.86,0,0,1,15.13-2.44c6.69.14,13.24,1.51,19.76,2.87a3.29,3.29,0,0,0,4-2.24,3.25,3.25,0,0,0-2.24-4Z" transform="translate(-1.16)" style="fill:#11a359"/><path d="M777.84,375.83A74.89,74.89,0,0,0,746,389.16a3.31,3.31,0,0,0-1.15,4.4c.8,1.38,3,2.18,4.39,1.15A70.89,70.89,0,0,1,779.55,382c1.71-.29,2.67-2.4,2.24-3.95a3.27,3.27,0,0,0-3.95-2.24Z" transform="translate(-1.16)" style="fill:#11a359"/><path d="M407.4,107.45c13.21-2,26.7-3.94,40.47-2S476,113.93,483.54,125c1.53,2.24,2.77,5,1.57,7.11-1.54,2.66-5.85,2.51-9.41,2.41a47.26,47.26,0,0,0-24.79,5.91c-3.85,2.22-7.85,5.13-12.72,4.29-4.68-.81-8.12-4.77-10.79-8.46a152.81,152.81,0,0,1-15.53-26.63" transform="translate(-1.16)" style="fill:#15cc67"/><path d="M408.4,111.1c12.68-1.89,26-3.8,38.84-1.95a65.22,65.22,0,0,1,8,1.68c1.26.35,2.51.74,3.75,1.16l1.84.67c.31.12.61.23.91.36.13,0,1.24.51.73.29a54.22,54.22,0,0,1,7.21,3.76,34.16,34.16,0,0,1,5.6,4.18c.92.84,1.8,1.71,2.64,2.63a22,22,0,0,1,2.17,2.68,13.25,13.25,0,0,1,1.64,3c.44,1.15-.25-.66.1.45v.18c0,.28,0,.24,0-.13l-.09.33c.14-.34.12-.34-.07,0l.23-.32c-.31.29-.27.27.11,0,0,0-.85.49-.33.23s-.39.12-.42.13c-.27.08-1.75.29-1,.23a36.4,36.4,0,0,1-3.91.07,58.69,58.69,0,0,0-8.89.4,50.11,50.11,0,0,0-17.8,5.61c-1.15.63-2.26,1.32-3.39,2-.56.32-1.13.65-1.71.95l-.7.35-.71.33q.45-.19-.18.06c-.62.21-1.23.37-1.86.54-.09,0-.74.13-.15.05a9.39,9.39,0,0,1-1.19.06,7.09,7.09,0,0,1-2.75-.65,10,10,0,0,1-3.06-2.19c-.55-.53-1.08-1.1-1.59-1.68l-.62-.73c-.08-.11-.82-1.06-.47-.59-2.09-2.77-4-5.67-5.91-8.6a151.71,151.71,0,0,1-10.28-18.92c-.85-1.86-3.55-2.32-5.18-1.36a3.87,3.87,0,0,0-1.36,5.18,150.88,150.88,0,0,0,9.78,18.14c1.89,3,3.87,5.93,6,8.79a32.74,32.74,0,0,0,6.52,7,15,15,0,0,0,9.15,3.2,19.91,19.91,0,0,0,9.45-3c1.24-.7,2.46-1.47,3.71-2.17.6-.34,1.2-.66,1.82-1,.37-.19.74-.37,1.12-.54,0,0,1-.46.63-.29a43.86,43.86,0,0,1,9.4-2.74,47.22,47.22,0,0,1,9.1-.67c2.86.05,5.9.26,8.63-.74a7.82,7.82,0,0,0,5.48-7.85c-.24-3.53-2.32-6.48-4.44-9.17-7.38-9.32-18.95-15-30.34-17.64-15.94-3.7-32.25-1.43-48.19.94-2,.3-3.14,2.86-2.65,4.66.6,2.17,2.63,3,4.66,2.65Z" transform="translate(-1.16)" style="fill:#11a359"/><path d="M447.11,116.31,427.73,105.6a3.79,3.79,0,1,0-3.83,6.54l19.39,10.71a3.79,3.79,0,1,0,3.82-6.54Z" transform="translate(-1.16)" style="fill:#11a359"/><path d="M841.4,318.27c1-10.26,9.43-18.79,19.24-23.14s20.89-5.2,31.71-5.7c11.52-.54,24.66-.09,32.23,8.18,3,3.33,4.5,9,.9,11.83-2.29,1.77-5.56,1.56-8.5,1.31a235.27,235.27,0,0,0-73.56,5.37" transform="translate(-1.16)" style="fill:#15cc67"/><path d="M845.18,318.27c.13-1.17-.16.73.06-.42.06-.35.12-.7.2-1.05.12-.57.27-1.15.44-1.71s.38-1.12.58-1.68c.41-1.07-.33.63.18-.4.18-.37.36-.75.55-1.12a22,22,0,0,1,4.32-5.95A35.27,35.27,0,0,1,865,297.46a73.48,73.48,0,0,1,18.79-3.72,146,146,0,0,1,18-.61c1.38.05,2.77.14,4.14.29a29.58,29.58,0,0,1,3.41.52,34.29,34.29,0,0,1,3.87,1c.57.18,1.13.37,1.69.58.06,0,1.13.49.4.16q.48.21,1,.45a27.19,27.19,0,0,1,3.29,2c.6.41.2.14.07,0,.28.22.55.45.81.68a17.69,17.69,0,0,1,1.51,1.49c.07.07.72.93.26.27.16.23.32.47.47.71s.29.48.42.73c.05.09.49,1.11.19.33.2.53.32,1.07.49,1.6.3.95,0-.7.06.28,0,.31,0,.63,0,.94,0,.91.26-.64,0,.21-.06.18-.42,1.05,0,.24-.09.18-.19.35-.29.53l-.17.26c.28-.36.28-.38,0-.06-.88.45.38-.19-.19.16-.13.08-.83.44-.25.19a9.45,9.45,0,0,1-1.07.32c-.78.23.26,0-.5.08a87.31,87.31,0,0,1-9.82-.52c-7.12-.44-14.27-.55-21.4-.33a241.34,241.34,0,0,0-47.65,6.24,3.79,3.79,0,1,0,2,7.31,228.79,228.79,0,0,1,44.67-5.94q11.55-.4,23.09.34c3.61.23,7.27.84,10.87.26a9.78,9.78,0,0,0,7.76-6.2c2.4-6.43-2.27-12.86-7.19-16.49s-11-5.12-17-5.83a106.46,106.46,0,0,0-18.81,0,99.89,99.89,0,0,0-21.48,3.19c-13.82,4-27.14,14-28.74,29.2-.21,2,1.89,3.87,3.79,3.78a3.88,3.88,0,0,0,3.78-3.78Z" transform="translate(-1.16)" style="fill:#11a359"/><path d="M887.69,296.91A62.06,62.06,0,0,0,848.57,310c-1.37,1.07-1.12,3.42,0,4.54a3.29,3.29,0,0,0,4.54,0,55.1,55.1,0,0,1,34.58-11.2c4.14.07,4.14-6.35,0-6.43Z" transform="translate(-1.16)" style="fill:#11a359"/><path d="M799.44,100.84a52.48,52.48,0,0,0-22-4,3.73,3.73,0,0,1-2.86-.67,3.52,3.52,0,0,1-.66-2.77c.16-3.32.6-7.13,3.4-8.81,2.61-1.57,6.06-.56,9,.49l10.36,3.65c2.16.76,4.47,1.63,5.79,3.51s-.83,8.25-3,8.65" transform="translate(-1.16)" style="fill:#15cc67"/><path d="M800.3,97.75a56.5,56.5,0,0,0-15.81-3.93,54.48,54.48,0,0,0-7.77-.22c-.12,0-.56.1-.17,0-.38.09-.64-.66.26.24-.31-.31.44.48.28.61,0,0,0-.64,0-.74,0-.47,0-.94.08-1.41l.06-.71s.14-1,.06-.55a12.79,12.79,0,0,1,.28-1.37c0-.09.39-1.25.22-.83.11-.25.25-.49.38-.73,0-.06.41-.59.21-.34a1.52,1.52,0,0,1,.54-.47,3.73,3.73,0,0,1,2.35-.33,17.35,17.35,0,0,1,3.23.81c2.7.89,5.37,1.88,8,2.82,2.21.78,4.52,1.32,6.4,2.56.2.14.68.65.76.64s.42,1-.09-.28c0,.11.14.69.07.18s0,0,0,.14,0,.5,0,.75c0,.48.11-.53,0,0-.06.23-.1.46-.16.69a13.81,13.81,0,0,1-.44,1.38c.2-.54.05-.1,0,0s-.24.48-.38.72-.18.29-.27.44c-.33.56.38-.37-.09.08-.2.21-.34.17.19-.1-.53.27.71-.19.13,0-4,1-2.31,7.2,1.71,6.19,2.51-.63,3.92-3.11,4.81-5.34a10.84,10.84,0,0,0,.74-6.59c-.84-3.12-4.1-4.81-6.86-5.9-3.11-1.22-6.31-2.24-9.46-3.35s-6.33-2.44-9.67-2.22a8.86,8.86,0,0,0-7.49,4.77,19.39,19.39,0,0,0-1.72,8.41,5.7,5.7,0,0,0,6.41,6.3,56.23,56.23,0,0,1,10.45.65,54.86,54.86,0,0,1,11.08,3.27c1.6.66,3.53-.72,3.95-2.24a3.28,3.28,0,0,0-2.24-4Z" transform="translate(-1.16)" style="fill:#11a359"/><path d="M589.28,65.43c11-4.13,16.78-17.91,15.39-30.14s-8.37-23-16.27-32l-.51,59.26" transform="translate(-1.16)" style="fill:#15cc67"/><path d="M590.14,68.52C599.3,65,605.18,56.39,607.2,47c2.29-10.61-.41-21.32-5.55-30.7A89,89,0,0,0,590.67,1c-1.88-2.17-5.46-.37-5.48,2.27l-.51,59.26c0,4.14,6.39,4.14,6.42,0l.51-59.26-5.48,2.27c6.34,7.32,12,15.63,14.43,25.12a33.29,33.29,0,0,1,1.07,6.75,29.82,29.82,0,0,1,0,3c0,.53,0,1.06-.1,1.59s-.1,1-.14,1.24a29,29,0,0,1-4,11.28c-.29.48-.61,1-.93,1.41a7.81,7.81,0,0,1-.73.94,23.51,23.51,0,0,1-2.29,2.39l-.62.54c-.11.09-.59.46-.25.21-.48.36-1,.7-1.5,1s-.94.56-1.43.81l-.59.28-.45.21c.25-.11.2-.1-.16,0a3.29,3.29,0,0,0-2.24,4,3.22,3.22,0,0,0,3.95,2.24Z" transform="translate(-1.16)" style="fill:#11a359"/><path d="M594.1,31.64a41.06,41.06,0,0,1-2.57,25c-.56,1.25,1.29,2.34,1.85,1.08a43.58,43.58,0,0,0,2.79-26.66c-.29-1.34-2.35-.77-2.07.57Z" transform="translate(-1.16)" style="fill:#11a359"/><path d="M748.42,67.91a49.53,49.53,0,0,0,5-31.46A48,48,0,0,0,738.05,8.92l-.63,32.22c-.09,4.45-.16,9,1,13.26s6.2,11.62,10,13.51" transform="translate(-1.16)" style="fill:#15cc67"/><path d="M751.19,69.53a52.67,52.67,0,0,0-1.56-51.77,49.59,49.59,0,0,0-9.31-11.11,3.25,3.25,0,0,0-5.48,2.27l-.57,29.24a83.42,83.42,0,0,0,.44,14.31,24.71,24.71,0,0,0,4,9.88c2.06,3.14,4.69,6.57,8.1,8.33A3.22,3.22,0,0,0,750,65.13a7.07,7.07,0,0,1-.76-.43c-.13-.08-.83-.61-.36-.23A18.82,18.82,0,0,1,747.31,63a23.21,23.21,0,0,1-2.78-3.43,30.39,30.39,0,0,1-2.38-4.14c-.08-.15-.36-.84-.16-.34-.12-.3-.24-.61-.34-.92a20.74,20.74,0,0,1-.63-2.7c-.75-4.27-.42-8.74-.33-13.05L741,24.53l.3-15.61-5.48,2.27a45.38,45.38,0,0,1,14.35,42.08,46.22,46.22,0,0,1-4.49,13,3.21,3.21,0,0,0,5.55,3.24Z" transform="translate(-1.16)" style="fill:#11a359"/><path d="M743.33,44.59a169.77,169.77,0,0,0,1.86,23,2.15,2.15,0,0,0,2.63,1.5,2.2,2.2,0,0,0,1.5-2.64,159.36,159.36,0,0,1-1.71-21.82c0-2.76-4.31-2.76-4.28,0Z" transform="translate(-1.16)" style="fill:#11a359"/><path d="M772.17,422.77c-8,7.2-6.87,27.8-16.25,33.24-6.62,3.84-16.15-1.05-18.07-8.2s2.4-14.82,8.76-19,17.82-5.58,25.56-6C765.92,426.9,757.68,433,755.39,440" transform="translate(-1.16)" style="fill:#15cc67"/><path d="M769.9,420.5c-4.63,4.28-6.28,11.06-7.92,16.91a94.55,94.55,0,0,1-2.89,9.21c-.05.13-.11.26-.16.4-.19.46.2-.44,0,0s-.3.67-.46,1c-.33.68-.69,1.34-1.08,2-.16.25-.33.51-.5.75l-.29.42c-.27.38.34-.41,0-.06a16.2,16.2,0,0,1-1.34,1.41l-.37.31c-.34.29.46-.31.08-.07s-.46.31-.71.45c-.1.06-1.16.55-.65.35a8.85,8.85,0,0,1-1.33.4l-.6.12c-.52.09.46,0-.06,0-.36,0-.72,0-1.08,0a10.32,10.32,0,0,1-1.24-.08c.59.08-.68-.17-.83-.21-.41-.1-.81-.24-1.21-.37l-.44-.17c.45.19,0,0-.11-.05a17.62,17.62,0,0,1-2.33-1.38c-.43-.31.3.26-.1-.08l-.37-.31a12.46,12.46,0,0,1-.9-.88c-.09-.1-.8-.93-.51-.55a9.83,9.83,0,0,1-.77-1.17,9,9,0,0,1-1.14-3.95,11.69,11.69,0,0,1,.88-5.19,18.17,18.17,0,0,1,6.73-8.21,20.09,20.09,0,0,1,5-2.39,50.26,50.26,0,0,1,6.51-1.71A87.19,87.19,0,0,1,772.17,426l-1.62-6c-7.21,4.77-15.32,10.58-18.25,19.1a3.24,3.24,0,0,0,2.24,3.95,3.28,3.28,0,0,0,4-2.25,10.78,10.78,0,0,1,1-2.05,19.48,19.48,0,0,1,1.6-2.42,36.3,36.3,0,0,1,3.67-3.87,68.21,68.21,0,0,1,9.09-6.91,3.32,3.32,0,0,0,1.47-3.63,3.24,3.24,0,0,0-3.1-2.36c-8.54.47-17.85,1.39-25.54,5.46-8.09,4.28-14.09,13.83-12,23.11,1.85,8.24,11.1,13.83,19.25,12.09,7.42-1.58,10.69-9.15,12.72-15.65,1.19-3.79,2.1-7.66,3.36-11.42.3-.87.62-1.73.95-2.59s-.17.36.05-.14l.29-.63c.18-.41.38-.81.59-1.21a25.72,25.72,0,0,1,1.35-2.19c.09-.13.38-.46,0,.06l.39-.47a11.78,11.78,0,0,1,.93-.94c3-2.81-1.51-7.34-4.55-4.54Z" transform="translate(-1.16)" style="fill:#11a359"/><path d="M773.86,480.94a78.07,78.07,0,0,0-34,13.92c-2.46,1.8-4.92,3.89-5.91,6.69-1.07,3-.21,6.43,1.5,9.17a34.25,34.25,0,0,0,6.65,7.13c2-13.46,19.29-21.5,22.13-34.81" transform="translate(-1.16)" style="fill:#15cc67"/><path d="M773,477.84a81.83,81.83,0,0,0-26.23,8.88,64.15,64.15,0,0,0-11.36,7.6c-3.86,3.35-5.83,7.88-4.78,13,1.11,5.38,5.29,9.33,9.23,12.82,1.61,1.43,5,1.16,5.37-1.42a18.86,18.86,0,0,1,1-3.82c0-.15.34-.83.13-.36l.39-.83c.29-.6.61-1.18,1-1.76a35,35,0,0,1,2.29-3.37c.22-.29,0,0,0,0,.1-.13.19-.26.3-.38l.61-.75c.48-.59,1-1.16,1.48-1.73,3.77-4.3,7.91-8.3,11.09-13.07a26,26,0,0,0,3.89-8.76,3.28,3.28,0,0,0-2.24-3.95,3.25,3.25,0,0,0-4,2.24c-.14.6-.29,1.2-.48,1.79-.1.34-.23.67-.35,1-.05.14-.11.29-.17.43.13-.32.06-.12,0,.08a31,31,0,0,1-1.87,3.39,45,45,0,0,1-4.88,6.19c-3.78,4.22-7.9,8.25-10.91,13.09a24,24,0,0,0-3.43,8.84l5.37-1.42c-2.71-2.4-6-5-7.2-8.57a6.82,6.82,0,0,1-.17-4.55,10.29,10.29,0,0,1,3.22-3.85,59.77,59.77,0,0,1,9.94-6.44,72.81,72.81,0,0,1,10.86-4.76A79.25,79.25,0,0,1,774.71,484c1.72-.27,2.67-2.42,2.25-4a3.31,3.31,0,0,0-4-2.25Z" transform="translate(-1.16)" style="fill:#11a359"/><path d="M757.23,488.57A145,145,0,0,0,742.5,500c-1,.92.48,2.43,1.51,1.52a139.18,139.18,0,0,1,14.3-11.07c1.13-.77.06-2.62-1.08-1.85Z" transform="translate(-1.16)" style="fill:#11a359"/><path d="M775.82,470.05c8,6.1,16.09,12.29,22.22,20.11,1.17,1.49,2.4,3.14,4.27,3.67,2.18.63,4.46-.45,6.45-1.49,5.26-2.76,11.09-6.26,12-11.9.68-4-1.42-8-4.25-11a27.22,27.22,0,0,0-19.74-8.33c-7.42.05-16.4,3.82-21.26,9.15" transform="translate(-1.16)" style="fill:#15cc67"/><path d="M773.91,473.32c6.85,5.22,14,10.74,19.79,17.48a35,35,0,0,0,4.11,4.73,9.25,9.25,0,0,0,7.78,2.07,21.69,21.69,0,0,0,6.38-2.68,42.29,42.29,0,0,0,4.76-2.94c3.37-2.45,6.44-5.54,7.54-9.69,1.23-4.62-.31-9.46-3.11-13.2A30.53,30.53,0,0,0,798,457.31a35.38,35.38,0,0,0-25.14,10.25,3.78,3.78,0,0,0,5.35,5.35c.52-.56,1.06-1.09,1.63-1.6.32-.28.64-.55,1-.81-.44.34.43-.3.58-.4a31.11,31.11,0,0,1,4.47-2.59,28.06,28.06,0,0,1,4.58-1.67c.8-.23,1.61-.42,2.43-.58.37-.08.74-.14,1.11-.2s0,0-.08,0c.3,0,.61-.07.91-.09A25.21,25.21,0,0,1,800,465c-.09,0-.46-.06,0,0l.8.14c.39.07.79.15,1.18.24a27.93,27.93,0,0,1,2.71.77,21.68,21.68,0,0,1,4.37,2.05,17.79,17.79,0,0,1,3.95,3,14.21,14.21,0,0,1,3.05,3.93,8.07,8.07,0,0,1,1,4.06s0,.65,0,.3-.07.33-.08.4c-.08.34-.19.66-.28,1s0-.05.07-.11c-.08.2-.19.41-.29.61s-.39.69-.61,1l-.29.42c.37-.52,0-.05,0,.05-.23.26-.46.52-.71.77a18.67,18.67,0,0,1-1.87,1.68c.45-.36-.42.29-.57.39-.35.25-.71.49-1.08.73-.73.47-1.49.91-2.25,1.34a26.65,26.65,0,0,1-4.31,2.16c-.21.07-.41.13-.62.18,0,0-.64.1-.32.07s-.63,0-.23,0-.32-.07-.32-.07c.45.12-.28-.14-.47-.26.44.28,0,0-.12-.11s-.37-.36-.54-.55c-1.27-1.36-2.34-2.91-3.57-4.31-6.09-7-13.56-12.58-20.89-18.18-1.63-1.24-4.24-.25-5.18,1.36-1.14,1.95-.28,3.94,1.36,5.19Z" transform="translate(-1.16)" style="fill:#11a359"/><path d="M781.92,473.14c.89-.21,1.8-.38,2.71-.52.27,0,.24,0-.1,0l.73-.08,1.47-.09a30.69,30.69,0,0,1,5.16.2c-.76-.09.48.09.63.12.42.07.84.15,1.26.25q1.26.27,2.49.66c.81.25,1.62.54,2.41.86-.65-.26.65.31.76.36l1.3.67a3.79,3.79,0,0,0,3.82-6.54,35,35,0,0,0-24.66-3.2,3.81,3.81,0,0,0-2.64,4.66,3.86,3.86,0,0,0,4.66,2.64Z" transform="translate(-1.16)" style="fill:#11a359"/><path d="M820.38,374.24c7.86-3.43,10.56-14.23,18-18.54,4.07-2.35,9-2.41,13.59-2.4l34.84,0c3.83,0,8,.11,11,2.49-7.82,4.89-17.22,6.13-26.33,6.32s-18.28-.56-27.3.8-18.15,5.16-23.75,12.68" transform="translate(-1.16)" style="fill:#15cc67"/><path d="M822.42,377.75c4.49-2,7.56-6.09,10.33-10,.65-.9,1.28-1.81,1.93-2.71.32-.45.65-.89,1-1.34-.09.12-.5.63,0,.05.21-.26.41-.52.62-.77a24.49,24.49,0,0,1,2.22-2.34l.6-.52c.17-.16.77-.55,0-.05a15.76,15.76,0,0,1,1.7-1.08l.76-.38c-.55.26.25-.09.39-.14a16.3,16.3,0,0,1,1.81-.53c.41-.1.82-.18,1.23-.26.82-.15.37-.07.18,0,.84-.12,1.7-.17,2.54-.21,3.08-.16,6.17-.08,9.24-.07l20.4,0c3.69,0,7.37-.05,11.06,0,.74,0,1.48,0,2.21.1.34,0,.67.05,1,.1-.79-.11.46.1.5.1a11.75,11.75,0,0,1,2.26.67c-.61-.27,0,0,.09.09.45.29.91.54,1.34.86v-7a37.1,37.1,0,0,1-3.39,1.85l-1,.44c-.73.32.87-.31-.41.17-.67.25-1.33.5-2,.72a47.75,47.75,0,0,1-7.9,1.87l-.85.13c.59-.08-.12,0-.2,0l-2.14.23c-1.36.12-2.72.21-4.08.26-2.9.13-5.8.12-8.7.09-11.71-.1-23.47-.24-34.39,4.54A34.63,34.63,0,0,0,817,373.58c-1.29,1.7-.33,4.61,1.45,5.55,2.14,1.13,4.18.35,5.55-1.46-.4.53.12-.14.22-.26l.64-.75c.35-.38.71-.76,1.07-1.13s.84-.81,1.28-1.19c.24-.22.49-.42.74-.63.53-.46-.09.05.24-.2a33.55,33.55,0,0,1,6.18-3.62l.71-.32c-.65.27.13-.05.29-.11l1.65-.6c1.17-.41,2.36-.75,3.55-1.06a47.45,47.45,0,0,1,7.07-1.22c11.6-1.13,23.26.4,34.83-1.26a45.33,45.33,0,0,0,17.46-6c2.79-1.72,2.42-5.22,0-7-5.26-3.89-12.66-3-18.81-3.05l-21.15,0c-3.37,0-6.73-.05-10.09,0a33.51,33.51,0,0,0-9.46,1.2c-5.53,1.72-9.23,5.68-12.54,10.22-.78,1.08-1.54,2.18-2.31,3.26l-1.17,1.6c-.63.86.36-.4-.07.09-.24.28-.47.59-.71.88a29.7,29.7,0,0,1-2.67,2.71c-.15.13-.61.44.08,0-.33.24-.67.48-1,.7a14,14,0,0,1-1.67.88c-1.94.88-2.56,3.84-1.46,5.55a4.18,4.18,0,0,0,5.55,1.46Z" transform="translate(-1.16)" style="fill:#11a359"/><path d="M493.82,82.13c.38-7.19-7.7-14.69-8.24-22.06-.3-4,1.71-7.39,3.67-10.58l14.67-23.88c1.61-2.62,3.43-5.4,6.76-6.27.88,7.92-2,15-5.68,21.37S496.84,53,494.21,59.85,491,75,495.05,82.77" transform="translate(-1.16)" style="fill:#15cc67"/><path d="M497.46,82.13c.16-4.42-1.93-8.53-4-12.3-1-1.81-2-3.6-2.9-5.47-.13-.27-.26-.55-.38-.83.06.15.2.55,0-.12-.16-.44-.33-.88-.47-1.33s-.25-.88-.34-1.32c-.05-.22-.09-.44-.13-.66.1.57,0,0,0-.25a10.53,10.53,0,0,1,1.49-5.63c1.21-2.28,2.65-4.46,4-6.66l8.75-14.24c1.48-2.4,2.89-4.84,4.44-7.19.16-.24.33-.47.49-.72.34-.52-.07.05.16-.24a14.31,14.31,0,0,1,1-1.15c.17-.16.34-.32.52-.46-.51.41.35-.22.39-.24.21-.12.42-.24.63-.34-.55.26.43-.11.51-.14l-4.6-3.5A26.32,26.32,0,0,1,505.23,32a44.62,44.62,0,0,1-2.55,5.39c-1.11,2-2.33,4-3.56,6-5,7.88-9.86,15.81-10.56,25.32a30.09,30.09,0,0,0,3.34,15.91,3.64,3.64,0,0,0,6.29-3.67,22.19,22.19,0,0,1-2.38-11.83,24,24,0,0,1,1-5.65,32.31,32.31,0,0,1,2.11-5.41C502.88,50,508.69,43,512,34.55a32.59,32.59,0,0,0,2.3-15.21c-.24-2.29-2.14-4.22-4.61-3.51-5.24,1.51-7.81,6.12-10.48,10.46l-9.14,14.87c-1.47,2.41-3,4.8-4.42,7.21a25.87,25.87,0,0,0-3.32,7.32c-1.19,5.13.55,9.84,2.92,14.33,1.17,2.21,2.46,4.36,3.54,6.62.12.27.25.54.37.82-.2-.46,0,.09.11.28a15.61,15.61,0,0,1,.55,1.63q.12.41.21.81c0,.09.17,1,.1.49s0,.5,0,.49c0,.32,0,.65,0,1a3.64,3.64,0,0,0,7.28,0Z" transform="translate(-1.16)" style="fill:#11a359"/><path d="M854,200.35c10.74-9.67,12.43-38.47,22.4-50.43,5.44-6.53,12.53-7,19.3-7.38L946.38,140c5.58-.28,11.61-.33,16.59,5.74-10.37,13.54-23.81,17.53-37,18.72s-26.73-.1-39.58,4.18-25.36,15-32,35.35" transform="translate(-1.16)" style="fill:#15cc67"/><path d="M856.85,203.24c5.71-5.22,8.43-13.29,10.76-20.44,1.31-4,2.48-8.1,3.74-12.13.64-2,1.3-4.07,2-6.08.32-.89.65-1.79,1-2.67.15-.39.31-.77.46-1.15.39-1-.36.8.06-.15.12-.28.24-.55.37-.83a41.43,41.43,0,0,1,2.51-4.81c.42-.68.87-1.34,1.34-2s-.12.2-.17.21c.11,0,.38-.46.46-.56A19.39,19.39,0,0,1,881,151c.19-.18.4-.36.6-.53.92-.83-.34.21.24-.21s.94-.64,1.43-.93a15.61,15.61,0,0,1,1.46-.77c.18-.09.93-.38.18-.09.33-.13.67-.26,1-.37a25.53,25.53,0,0,1,3.09-.81l.7-.12s1.15-.19.51-.09.51-.06.51-.06l1.06-.11c5.74-.52,11.54-.63,17.3-.92L928,145c6.78-.34,13.57-.83,20.35-1a33.24,33.24,0,0,1,3.46.07l.82.08c-.72-.08-.18,0,.23.05s1.09.24,1.63.4l.81.26.48.19c-.39-.17-.45-.19-.18-.07.58.34,1.18.61,1.74,1l.61.43c-.6-.45.28.26.39.36a20.71,20.71,0,0,1,1.77,1.86v-5.79a51.2,51.2,0,0,1-4.79,5.4,37.06,37.06,0,0,1-4.61,3.86,43,43,0,0,1-5.42,3.23c-.86.44-1.74.85-2.63,1.22.76-.31-.44.17-.68.26-.55.22-1.11.42-1.67.61a55.78,55.78,0,0,1-5.78,1.63c-.91.2-1.83.39-2.75.55l-1.38.23-.69.11c-.12,0-1.29.17-.29.05-4.83.61-9.7.81-14.57,1-10.35.33-21.05.56-30.88,4.19a50.33,50.33,0,0,0-18.34,11.78c-7.16,7.22-12,16.36-15.15,26a4.13,4.13,0,0,0,2.86,5,4.19,4.19,0,0,0,5-2.86c.36-1.1.74-2.2,1.15-3.28.2-.53.4-1.05.61-1.57.1-.26.21-.52.31-.77-.26.64.24-.53.24-.53a62.74,62.74,0,0,1,3-6,56.49,56.49,0,0,1,3.29-5.08l.42-.57c.07-.1.52-.69.21-.29s.14-.18.22-.27l.43-.54c.61-.74,1.24-1.47,1.89-2.18a50,50,0,0,1,4-3.86c.32-.28.65-.55,1-.81s1.13-.88.4-.33c.74-.56,1.49-1.1,2.25-1.61a44.22,44.22,0,0,1,4.24-2.52c.69-.36,1.38-.7,2.09-1,.13-.06,1.27-.55.7-.31s0,0,.17-.07l.66-.26a50.17,50.17,0,0,1,6.36-1.94,63.84,63.84,0,0,1,7.13-1.26c5.15-.59,10.34-.72,15.51-.89,9-.29,18.07-.72,26.69-3.45a49.85,49.85,0,0,0,24.59-17.08,4.26,4.26,0,0,0,0-5.79,20,20,0,0,0-14.42-7,59.42,59.42,0,0,0-7.06.13l-9.95.5-39,1.95c-5.18.27-10.32.79-15.05,3.09a24.56,24.56,0,0,0-10.16,10c-4.3,7.37-6.49,15.89-9,24-.7,2.31-1.42,4.63-2.2,6.93-.38,1.1-.77,2.2-1.18,3.3-.2.53-.4,1.06-.61,1.59-.08.19-.16.38-.23.57-.32.78.32-.72-.12.27a42.48,42.48,0,0,1-2.85,5.53c-.25.41-.52.81-.79,1.21l-.3.41c-.47.67.6-.7,0,.07a22.8,22.8,0,0,1-1.91,2,4.13,4.13,0,0,0,0,5.79,4.19,4.19,0,0,0,5.8,0Z" transform="translate(-1.16)" style="fill:#11a359"/><path d="M593.68,76.37a77.42,77.42,0,0,0-49.18,29.89C533,121.9,528.37,141.91,532,160.39a99.71,99.71,0,0,1,32.81-52.76c9.79-8.23,21.9-20.76,28.91-31.26" transform="translate(-1.16)" style="fill:#15cc67"/><path d="M592.67,72.72a81.74,81.74,0,0,0-41.14,20.11,75.08,75.08,0,0,0-23.16,41,73,73,0,0,0-.07,27.53c.71,3.71,6.47,3.52,7.31,0a94.51,94.51,0,0,1,17.17-35.83,101.45,101.45,0,0,1,14.05-14.72,202.43,202.43,0,0,0,14.94-14.06A140.11,140.11,0,0,0,597,78.28a3.82,3.82,0,0,0-1.36-5.18,3.87,3.87,0,0,0-5.19,1.36A122.83,122.83,0,0,1,577.74,90a185.46,185.46,0,0,1-15.08,14.46,106.5,106.5,0,0,0-26.18,32.78,100.67,100.67,0,0,0-8.18,22.12h7.31a46.9,46.9,0,0,1-.74-5c-.18-1.89-.29-3.79-.31-5.69s0-3.66.16-5.49c.06-.89.14-1.77.24-2.65l.09-.81s.08-.65,0-.31,0-.32,0-.3l.15-1a68.17,68.17,0,0,1,7-21.09,71.74,71.74,0,0,1,6.1-9.6c.26-.34,0-.06,0,0l.47-.6c.24-.31.49-.61.73-.9.62-.75,1.25-1.48,1.89-2.21q1.74-1.95,3.62-3.77c1.3-1.27,2.65-2.48,4-3.65.64-.54,1.3-1.07,2-1.6s-.36.27.16-.12l.47-.35c.41-.32.83-.63,1.25-.93a79,79,0,0,1,9.15-5.66A65.35,65.35,0,0,1,582.69,83a75.11,75.11,0,0,1,12-3c2-.34,3.15-2.84,2.65-4.66a3.87,3.87,0,0,0-4.66-2.65Z" transform="translate(-1.16)" style="fill:#11a359"/><path d="M815,287.53a77.45,77.45,0,0,0-55.46,15.39c-15.3,11.93-25.2,29.92-26.78,48.68a99.67,99.67,0,0,1,45.93-41.85c11.65-5.26,26.72-14,36.31-22.22" transform="translate(-1.16)" style="fill:#15cc67"/><path d="M815,283.74A81.68,81.68,0,0,0,767.87,293a75,75,0,0,0-31.94,33.28,72.67,72.67,0,0,0-7,25.34c-.33,3.82,5.31,5,7.06,1.91a96.38,96.38,0,0,1,5.4-8.57c1-1.34,1.84-2.53,2.58-3.46,1-1.33,2.14-2.64,3.27-3.91a99,99,0,0,1,7-7.18q1.89-1.75,3.86-3.4l1.85-1.5.86-.68.88-.66a101.7,101.7,0,0,1,17.58-10.54c6.32-3,12.53-6.06,18.55-9.61a141.11,141.11,0,0,0,19.81-13.79,3.79,3.79,0,1,0-5.36-5.36c-.56.48-1.13.95-1.7,1.41l-1,.83-.46.35c.32-.24,0,0-.15.12q-2.09,1.57-4.23,3.07c-3,2.09-6.09,4.06-9.23,5.95a183,183,0,0,1-18.58,9.83,104.71,104.71,0,0,0-33.7,24.34,100.32,100.32,0,0,0-13.75,18.94l7.06,1.91c.07-.84.16-1.67.26-2.5.08-.65-.07.5,0-.15,0-.19.05-.38.08-.57.08-.51.16-1,.25-1.53.3-1.71.67-3.42,1.11-5.1s1-3.49,1.56-5.2q.42-1.2.87-2.37l.51-1.27c.16-.4,0-.07,0,0,.1-.24.21-.48.31-.71a71.34,71.34,0,0,1,5.16-9.64c1-1.49,2-2.94,3-4.35l.36-.47.13-.17c.25-.31.49-.62.74-.92.62-.76,1.26-1.52,1.92-2.25a69.89,69.89,0,0,1,7.83-7.56c1.42-1.18,2.41-1.92,4.07-3.07,1.51-1,3.07-2,4.66-2.95a70.82,70.82,0,0,1,20.46-8.07q3.12-.74,6.3-1.21l.82-.11.23,0,1.64-.18c1-.1,2.07-.19,3.1-.25a76.88,76.88,0,0,1,13.05.34c2,.21,3.87-1.9,3.79-3.79a3.89,3.89,0,0,0-3.79-3.79Z" transform="translate(-1.16)" style="fill:#11a359"/><path d="M824.12,313c3.56.3,10.64,5.32,12.72,8.09a35.1,35.1,0,0,1,4.43,9.26c.56,1.56,1,3.53-.23,4.66a4.75,4.75,0,0,1-2.91.87l-24.73,1.76a9.79,9.79,0,0,1-4.61-.41,5.73,5.73,0,0,1-3.07-5.85,12.83,12.83,0,0,1,3-6.3A39.77,39.77,0,0,1,824.12,313" transform="translate(-1.16)" style="fill:#15cc67"/><path d="M824.12,316.78c-1.34-.15.21.1.57.21l.5.18c.89.3-.73-.38.15.06a34.27,34.27,0,0,1,3.08,1.7c.57.35,1.12.73,1.67,1.11.23.16,1.42,1.08.81.59a26.27,26.27,0,0,1,2.37,2.11c.17.17.32.37.49.53.61.56-.68-1,.06.07.4.6.8,1.19,1.15,1.82a26.57,26.57,0,0,1,1.75,3.77,23.47,23.47,0,0,1,1.37,4.07c-.14-.75-.05-.06,0,.16,0,.47.08-.46.14-.56.29-.58,1.27-.78.49-.59-1,.26.53,0-.55.07-7.26.39-14.51,1-21.76,1.55-1.71.12-3.41.26-5.11.29-1.18,0,.17.1-.46,0-.17,0-1-.12-.41-.09l-.29-.17c.31.27.3.26,0,0s-.3-.32-.14-.12.12.17-.09-.15c-.07-.14-.4-1.07-.18-.32-.08-.27-.14-.54-.21-.81-.13-.51-.09.76,0-.17,0,0,.14-1.07,0-.46a8.87,8.87,0,0,1,1.71-3.57,38.31,38.31,0,0,1,6.59-6.84c1-.83-.25.18.35-.28.38-.28.76-.56,1.15-.83.67-.46,1.35-.91,2-1.33a41.86,41.86,0,0,1,4.69-2.46c1.87-.84,2.31-3.55,1.36-5.18a3.86,3.86,0,0,0-5.18-1.36A43.28,43.28,0,0,0,805,323.66c-2.35,3.21-4,7.4-2.68,11.37,1.46,4.45,5.41,6.64,10,6.45,4.23-.17,8.47-.59,12.69-.89s8.74-.59,13.11-.93c2.5-.2,4.92-.77,6.41-3a7.56,7.56,0,0,0,.78-6,34.78,34.78,0,0,0-1.85-5.12,31.78,31.78,0,0,0-2.74-5.47,26.15,26.15,0,0,0-7.36-6.93,20.79,20.79,0,0,0-9.25-3.92c-2-.22-3.87,1.89-3.79,3.79a3.9,3.9,0,0,0,3.79,3.79Z" transform="translate(-1.16)" style="fill:#11a359"/><path d="M527.46,78.15c-.31-3.56,3.41-11.4,5.79-13.92a34.74,34.74,0,0,1,8.36-6c1.44-.83,3.3-1.63,4.63-.59a4.8,4.8,0,0,1,1.35,2.73q3,12,6,24.06a9.78,9.78,0,0,1,.39,4.6,5.72,5.72,0,0,1-5.24,4A12.87,12.87,0,0,1,542,91.28a39.77,39.77,0,0,1-14.56-13.13" transform="translate(-1.16)" style="fill:#15cc67"/><path d="M531.25,78.15c0-.42,0-.82,0-1.24s-.21,1,0,.11c.06-.28.11-.56.18-.83a29,29,0,0,1,1.09-3.3c.37-1-.2.42.07-.18.11-.26.22-.51.34-.76.23-.51.48-1,.73-1.49a28.4,28.4,0,0,1,1.75-3l.38-.51c-.62.86-.2.24,0,.07.45-.46.89-.92,1.37-1.35a22.55,22.55,0,0,1,3.4-2.42,32.4,32.4,0,0,1,3.83-2.2c.41-.18-.44-.08.39-.11h-.26c.67,0,.5-.05-.51-.23a3.59,3.59,0,0,1-.39-.39c.2.38.21.4,0,0,.07.22.14.45.19.68,1.85,6.8,3.42,13.7,5.12,20.54.39,1.59.83,3.17,1.18,4.77a6.37,6.37,0,0,1,.17,1.72c0-.16-.33.74,0,0a3.67,3.67,0,0,1-.36.6c.2-.26.21-.3,0-.1s-.73.51-.19.18c-.08.05-1.08.5-.36.24l-.68.21c-.84.28.6.12-.47,0,.17,0-1.23-.09-.79,0s-.93-.22-.78-.18a10.83,10.83,0,0,1-2-.73A43.64,43.64,0,0,1,540.48,86a26.16,26.16,0,0,1-3.38-2.58,37.36,37.36,0,0,1-6.37-7.15,3.87,3.87,0,0,0-5.18-1.36,3.82,3.82,0,0,0-1.36,5.18A43.65,43.65,0,0,0,540.5,94.75c3.93,2,8.39,3.09,12.51,1a9.1,9.1,0,0,0,4-4.06,10.89,10.89,0,0,0,.48-7.06c-.88-4.18-2-8.32-3.08-12.46s-2.07-8.34-3.11-12.51c-.53-2.1-1.38-4.15-3.32-5.33-2.25-1.37-4.78-1-7.06.06a35.28,35.28,0,0,0-9.6,6.41,24.08,24.08,0,0,0-5.12,7.79c-1.3,2.91-2.75,6.3-2.54,9.57a3.79,3.79,0,1,0,7.58,0Z" transform="translate(-1.16)" style="fill:#11a359"/><path d="M792.2,429.87c1.78-1,3.58-1.88,5.43-2.71,1.1-.5,1.07-.49,2.23-1,.94-.37,1.9-.73,2.85-1.07A80.18,80.18,0,0,1,814.29,422c.94-.18,1.87-.34,2.81-.48,1.22-.19,1.18-.18,2.39-.32q3-.33,6.12-.44a80.73,80.73,0,0,1,12.24.55,4.06,4.06,0,0,0,3.91-3,4.28,4.28,0,0,0-1.87-4.58A37.79,37.79,0,0,0,787.11,422c-1.26,1.71-.34,4.6,1.46,5.55a4.17,4.17,0,0,0,5.55-1.46c.28-.37.3-.4,0-.08l.48-.6c.33-.39.66-.77,1-1.15.69-.75,1.42-1.47,2.18-2.15.38-.34.77-.67,1.16-1s.41-.32.09-.08l.62-.46c.84-.6,1.7-1.17,2.59-1.7s1.81-1,2.74-1.46c.13-.06,1.51-.66.82-.38.48-.19,1-.38,1.45-.55a33.29,33.29,0,0,1,5.87-1.51c.2,0,.39-.07.59-.09-.4,0-.35,0,.14,0s1.09-.1,1.64-.13a30.07,30.07,0,0,1,3.29,0c.54,0,1.09.05,1.64.1.14,0,1.69.2,1,.09,1.08.16,2.16.37,3.22.63s2.11.56,3.14.92c.52.18,1,.37,1.54.57s.5.2.16.06l.74.34a33.62,33.62,0,0,1,5.56,3.32l2.05-7.56a83.46,83.46,0,0,0-49.74,9.66,4.05,4.05,0,1,0,4.09,7Z" transform="translate(-1.16)" style="fill:#11a359"/><path d="M693.73,89.86a78,78,0,0,1,3.54-11.63c.2-.51.4-1,.61-1.51-.27.64.23-.53.23-.53.44-1,.9-2,1.38-3q1.31-2.66,2.8-5.21t3.18-5c1.25-1.81,2.2-3.06,3.3-4.41a80.58,80.58,0,0,1,8.47-8.86,4.08,4.08,0,0,0,.64-4.91A4.23,4.23,0,0,0,713.3,43c-14.87,3.32-26.93,16-29.2,31.12A38.06,38.06,0,0,0,684.49,88a4.09,4.09,0,0,0,5,2.83,4.15,4.15,0,0,0,2.83-5c-.11-.53-.22-1-.31-1.59,0-.26-.09-.53-.13-.8.06.41.06.37,0-.13-.08-1.08-.16-2.16-.16-3.25a32.54,32.54,0,0,1,.16-3.27L692,76c-.05.39,0,.35,0-.15s.19-1.08.3-1.62c.23-1.08.51-2.14.84-3.2.16-.52.34-1,.53-1.56.05-.14.61-1.51.37-1a32.49,32.49,0,0,1,3.1-5.56c.26-.38.52-.74.79-1.1-.44.58.49-.59.58-.69.67-.79,1.37-1.55,2.1-2.27s1.51-1.42,2.3-2.08l.6-.48c-.31.24-.27.21.11-.07s.83-.6,1.26-.89a27.39,27.39,0,0,1,10.58-4.56L711.51,44a83.44,83.44,0,0,0-25.6,43.68,4.06,4.06,0,0,0,7.82,2.16Z" transform="translate(-1.16)" style="fill:#11a359"/><path d="M856.71,244.23a32.75,32.75,0,0,1,28.94,9.64c1.64,1.77,3.11,4.26,2,6.38s-4.44,2.55-7,2.08c-6.31-1.14-12.26-4.87-18.64-4.11-3.59.43-7.28,2.27-10.65,1-3.69-1.38-6.11-6.61-3.73-9.62,1.62-2,6.2-2.8,9.1-5.38" transform="translate(-1.16)" style="fill:#15cc67"/><path d="M857.72,247.89s1.27-.18.52-.09c.38-.05.76-.08,1.15-.11.76-.07,1.54-.1,2.31-.11s1.54,0,2.31.07l.77,0c.13,0,1.58.19.9.09a31.51,31.51,0,0,1,4.51,1c.62.17,1.23.37,1.83.58l1.08.4c.42.17.47.19.16.06l.7.31a30.37,30.37,0,0,1,3.68,2,19.15,19.15,0,0,1,3.46,2.59,16.83,16.83,0,0,1,2.56,2.7,8,8,0,0,1,.6,1.07c-.22-.59.38.62,0-.05.35.61-.27.25.15-.08-.2.31-.21.36,0,.13s.14-.19-.1.07l.28-.22a3.6,3.6,0,0,1-.54.31c.79-.39-.16,0-.31,0-.91.3.66,0-.33,0-.34,0-.68,0-1,0-.11,0-1.24-.11-.35,0-.32,0-.64-.11-1-.18-.91-.19-1.81-.42-2.71-.69-3.29-1-6.49-2.32-9.86-3a23.72,23.72,0,0,0-5.18-.52,31.66,31.66,0,0,0-6.18,1c-.71.17-1.42.35-2.15.46.6-.09-.76,0-.69,0s-1.32,0-.66,0a5.73,5.73,0,0,1-1.23-.33c.86.31,0-.08-.19-.16-.8-.39.42.49-.22-.15l-.66-.67c-.65-.67.27.59-.16-.24-.08-.16-.66-1.34-.32-.48a6.31,6.31,0,0,1-.28-.87c0-.2-.09-.39-.13-.59.07.52.09.56.06.13,0-.19,0-.39,0-.58-.08.54-.08.59,0,.17s.11-.36-.07.11c.17-.3.65-.71,0-.15.78-.69-.34.08.27-.26,2.95-1.62,6.07-2.71,8.67-4.93a3.83,3.83,0,0,0,0-5.36,3.87,3.87,0,0,0-5.36,0c-.08.07-.56.43-.09.09l-.45.31c-.36.23-.73.45-1.11.65-.74.4-1.52.76-2.29,1.1a18.79,18.79,0,0,0-4.42,2.52c-2.9,2.39-3.4,6.61-2.06,10a11.17,11.17,0,0,0,9.37,7.23,20.49,20.49,0,0,0,6.77-.89,22.6,22.6,0,0,1,2.81-.58,6.91,6.91,0,0,0,.91,0c.56,0,1.12,0,1.68.06l.62.07c-.1,0-.41-.07,0,0s1,.19,1.45.3c1,.24,2.06.54,3.08.87,1.92.61,3.82,1.31,5.75,1.89,3.77,1.13,8.23,2,11.88,0,4.54-2.53,4.73-8.12,1.88-12a30.07,30.07,0,0,0-8.86-7.79,37.31,37.31,0,0,0-25.28-4.69c-2,.33-3.14,2.84-2.64,4.66.59,2.15,2.63,3,4.66,2.65Z" transform="translate(-1.16)" style="fill:#11a359"/><path d="M838,254.37c-4.81-5.76-9.9-11.73-17-14.75-9.27-4-20.43-2-29.21,2.86s-15.62,12.34-22,19.86c21.51-4.5,40.21-10.73,61.72-15.23" transform="translate(-1.16)" style="fill:#15cc67"/><path d="M840.68,251.7c-3.6-4.31-7.28-8.5-11.8-11.87a30.93,30.93,0,0,0-16.29-6c-12-.94-23.25,4.59-32.17,12.12a117.55,117.55,0,0,0-13.3,13.75,3.82,3.82,0,0,0,3.69,6.33c16.07-3.37,31.8-8.06,47.73-12q7-1.72,14-3.22a3.82,3.82,0,0,0,2.65-4.66,3.86,3.86,0,0,0-4.66-2.64c-16.07,3.37-31.8,8-47.73,12-4.64,1.15-9.3,2.23-14,3.21l3.68,6.33c7-8.14,14.12-16,23.81-20.56a34.4,34.4,0,0,1,13.85-3.18,23.29,23.29,0,0,1,13.27,3.94c4.31,2.83,8.32,7.54,11.91,11.84,1.31,1.57,4,1.36,5.36,0a3.86,3.86,0,0,0,0-5.35Z" transform="translate(-1.16)" style="fill:#11a359"/><path d="M621.15,67.12C620,74,618.84,81.24,621,88.48c2.77,9.52,10.85,17.41,19.56,21.85s18.06,6,27.2,7.12C651.63,102.62,636,91,619.93,76.15" transform="translate(-1.16)" style="fill:#15cc67"/><path d="M617.73,66.18c-1,6-2,12-1.22,18.06a33,33,0,0,0,6,15.26c6.36,8.82,15.68,14.65,26,17.82A114.16,114.16,0,0,0,667.71,121a3.52,3.52,0,0,0,3.25-2.18,3.57,3.57,0,0,0-.74-3.89c-12-11-24.73-21.14-37.05-31.76q-5.43-4.69-10.72-9.54a3.64,3.64,0,0,0-5,0,3.6,3.6,0,0,0,0,5c12,11,24.73,21.14,37.05,31.77q5.44,4.68,10.73,9.53l2.51-6.07c-9.55-1.21-19.87-3.08-28.39-8.3-7.34-4.51-13.58-11.45-15.42-19.94-1.26-5.82-.29-11.84.68-17.58a3.66,3.66,0,0,0-2.48-4.37c-1.71-.47-4.05.58-4.37,2.48Z" transform="translate(-1.16)" style="fill:#11a359"/><path d="M834.76,144.72c.76-7.5,1.84-15.68,7.54-20.91,4.24-3.9,10.33-5.41,16.2-5.81,8.41-.57,17.45,1.09,23.53,6.64,1,.88,1.89,2.22,1.24,3.33a3.33,3.33,0,0,1-1.83,1.19l-45.17,16.67" transform="translate(-1.16)" style="fill:#15cc67"/><path d="M836.45,144.72c.62-6.2,1.38-13.27,5.59-18.21,4.49-5.28,11.82-6.75,18.44-6.92s13.67,1.07,19,5.14a12,12,0,0,1,1.73,1.53c.13.15.56.59.53.81s-.8.46-1,.55l-5.82,2.15-12.11,4.47-27,10c-2,.75-1.14,4,.9,3.25l27-10,13.51-5,3.26-1.2a13.73,13.73,0,0,0,3.15-1.35,3.58,3.58,0,0,0,.88-4.93,13.8,13.8,0,0,0-4.37-4,27.59,27.59,0,0,0-5-2.54,36,36,0,0,0-11.25-2.26c-7.54-.39-16,.79-22,5.71-6.72,5.49-8,14.65-8.77,22.74-.22,2.15,3.15,2.14,3.37,0Z" transform="translate(-1.16)" style="fill:#11a359"/><path d="M841,143.44a42.49,42.49,0,0,1,26.09-17.08c2.12-.46,1.22-3.7-.89-3.25a45.92,45.92,0,0,0-28.1,18.64c-1.23,1.78,1.68,3.47,2.9,1.69Z" transform="translate(-1.16)" style="fill:#11a359"/><path d="M633.55,58.43c.76-7.5,1.84-15.68,7.54-20.91,4.24-3.9,10.33-5.41,16.2-5.81,8.41-.57,17.46,1.09,23.53,6.64,1,.88,1.89,2.22,1.24,3.33a3.33,3.33,0,0,1-1.83,1.19L635.06,59.54" transform="translate(-1.16)" style="fill:#15cc67"/><path d="M635.24,58.43c.63-6.2,1.38-13.27,5.59-18.21,4.49-5.28,11.82-6.75,18.44-6.92s13.67,1.07,19.05,5.14A11,11,0,0,1,680.05,40c.13.15.56.59.53.81s-.8.47-1,.55l-5.82,2.15L661.62,48l-27,10c-2,.75-1.14,4,.9,3.25l27-10,13.51-5,3.26-1.2a13.73,13.73,0,0,0,3.15-1.35,3.58,3.58,0,0,0,.88-4.93,13.69,13.69,0,0,0-4.37-3.95,27.5,27.5,0,0,0-5-2.54A36.1,36.1,0,0,0,662.66,30c-7.54-.39-16,.79-22,5.71-6.72,5.49-7.95,14.65-8.77,22.74-.22,2.15,3.15,2.14,3.37,0Z" transform="translate(-1.16)" style="fill:#11a359"/><path d="M639.8,57.15a42.47,42.47,0,0,1,26.08-17.08c2.12-.46,1.22-3.7-.89-3.25a45.92,45.92,0,0,0-28.1,18.64c-1.23,1.78,1.68,3.47,2.91,1.69Z" transform="translate(-1.16)" style="fill:#11a359"/><path d="M748.16,822.76c3.92,0,7.68-3.45,7.5-7.5a7.63,7.63,0,0,0-7.5-7.5c-3.92,0-7.68,3.45-7.5,7.5a7.63,7.63,0,0,0,7.5,7.5Z" transform="translate(-1.16)" style="fill:#ad5215"/><path d="M797.83,838a116.13,116.13,0,0,0,30-2.9,106,106,0,0,0,13.51-4c2.74-1,5.44-2.15,8.11-3.35a41.47,41.47,0,0,0,6-3.08c6.24-4.16,10.33-10.89,8.57-18.55a7.57,7.57,0,0,0-9.23-5.24,7.68,7.68,0,0,0-5.24,9.23,5,5,0,0,1,.15.75l-.27-2a8.53,8.53,0,0,1,0,1.89l.27-2a9.94,9.94,0,0,1-.62,2.21l.75-1.79a10.41,10.41,0,0,1-.83,1.54c-.14.23-.73,1,0,0s0-.08-.21.14l-.61.58c-.21.19-1.22,1-.22.21s.11-.12-.11,0-.59.39-.89.57a58.67,58.67,0,0,1-7.15,3.43l1.79-.75a108.57,108.57,0,0,1-27.59,7.5l2-.26a110.34,110.34,0,0,1-18.17.85,7.56,7.56,0,0,0-7.5,7.5,7.66,7.66,0,0,0,7.5,7.5Z" transform="translate(-1.16)" style="fill:#ad5215"/><path d="M741.23,829.28a74.66,74.66,0,0,0,42.13,14.5,77.4,77.4,0,0,0,13.52-.9c1.73-.24,3.65-2,4.48-3.44a7.5,7.5,0,0,0-2.69-10.27,8.82,8.82,0,0,0-5.77-.75l-.82.11,2-.27a67.61,67.61,0,0,1-17.29,0l2,.27a69.69,69.69,0,0,1-17.49-4.73l1.79.75a67.72,67.72,0,0,1-14.28-8.2c-1.45-1.1-4.11-1.22-5.78-.76a7.66,7.66,0,0,0-4.48,3.45,7.54,7.54,0,0,0-.75,5.78,8.82,8.82,0,0,0,3.44,4.48Z" transform="translate(-1.16)" style="fill:#ad5215"/><g id="bandeira"><line x1="649.15" y1="754.01" x2="651.82" y2="268.67" style="fill:#dc7437;stroke:#dc7437;stroke-linecap:round;stroke-miterlimit:10;stroke-width:9.160433769226074px"/><path d="M656,271.87s9.41-5.64,21.58,11.14,16.83,49.46,51.5,43.13l1.31,68.4s-36.18,2.9-47.17-25.18S655.1,339.9,655.1,339.9Z" transform="translate(-1.16)" style="fill:#ff5c5c"/></g><g id="bandeira-2" data-name="bandeira"><line x1="909.41" y1="991.27" x2="912.08" y2="505.94" style="fill:#dc7437;stroke:#dc7437;stroke-linecap:round;stroke-miterlimit:10;stroke-width:9.160433769226074px"/><path d="M916.28,509.14s9.4-5.65,21.57,11.14,16.83,49.46,51.5,43.12l1.31,68.41s-36.18,2.9-47.17-25.18-28.13-29.46-28.13-29.46Z" transform="translate(-1.16)" style="fill:#ff5c5c"/></g><polygon points="598.02 630.32 538 595.66 597.65 561.22 657.67 595.88 598.02 630.32" style="fill:#75efa7"/><polygon points="537.98 595.64 537.73 805.87 597.83 840.53 598.09 630.3 537.98 595.64" style="fill:#31af64"/><polygon points="657.69 595.9 657.94 805.87 597.83 840.53 598.09 630.3 657.69 595.9" style="fill:#56d88d"/><polygon points="467.7 661.85 467.44 848.65 527.55 883.31 527.8 673.08 467.7 661.85" style="fill:#dbc145"/><polygon points="587.4 662.11 587.65 848.65 527.55 883.31 527.8 673.08 587.4 662.11" style="fill:#ead65e"/><polygon points="527.74 696.53 467.71 661.87 527.36 627.43 587.39 662.09 527.74 696.53" style="fill:#efdb7d"/><polygon points="397.41 780.01 397.16 891.43 457.26 926.09 457.52 814.67 397.41 780.01" style="fill:#cf3a3a"/><polygon points="517.12 780.27 517.37 891.43 457.26 926.09 457.52 814.67 517.12 780.27" style="fill:#ff5c5c"/><polygon points="457.45 814.69 397.43 780.03 457.08 745.59 517.1 780.25 457.45 814.69" style="fill:#ff8080"/><polygon points="327.13 854.37 326.87 934.22 386.98 968.87 387.23 889.03 327.13 854.37" style="fill:#314063"/><polygon points="446.83 854.63 447.08 934.22 386.98 968.87 387.23 889.03 446.83 854.63" style="fill:#404f77"/><polygon points="387.17 889.05 327.14 854.39 386.79 819.95 446.82 854.61 387.17 889.05" style="fill:#5a73a0"/><path d="M602,434.63S607.71,423,617,424.17a1.24,1.24,0,0,1,1.06,1.12c.14,1.44.12,1-1.84,3.92-1,1.43-5,6.24-7,7.56-8,5.14-1.39,2.57-8,1.14S602,434.63,602,434.63Z" transform="translate(-1.16)" style="fill:#f4a68c"/><polygon points="568.02 459.47 601.64 432.57 608.37 439.29 574.75 469.56 568.02 459.47" style="fill:#ff5c5c"/><path d="M639.83,465s17.13-14.21,15.28-6.92c-1.45,5.74-11.1,18.19-24.55,18.19S639.83,465,639.83,465Z" transform="translate(-1.16)" style="fill:#f4a68c"/><path d="M528.57,655.41a31.21,31.21,0,0,0,4.45-.84c3.52-.76,6.6-2.44,10.17-2.86,3.24-.38,9.23-2.67,10.68-5.85s-3.77-5.18-6.94-5.28a41.91,41.91,0,0,0-10.31,1.13,12.73,12.73,0,0,1-4.53,1.12c-3.38.23-7,1-8.6,3.95-1.21,2.19-.85,6.59,1.3,7.85A6.31,6.31,0,0,0,528.57,655.41Z" transform="translate(-1.16)" style="fill:#314063"/><path d="M526.73,639.22l-1.27,4.42a3.32,3.32,0,0,1-.34.8c-.56,1-2,3.87.93,4.88,3.47,1.21,23-3.34,21.4-7.21,0,0-2.66-1.83-16-.05C527.26,642.61,526.73,639.22,526.73,639.22Z" transform="translate(-1.16)" style="fill:#f4a68c"/><path d="M587.88,597.78l-1.11,7.66,3.3,2.28,11.73,5.19-4.39,7.57L575.15,610l3.28-5.32s1.28-6.43.8-6.61Z" transform="translate(-1.16)" style="fill:#f4a68c"/><path d="M593.87,609.42s7,2.61,8.5,3.47,7,4.09-1,6.51c-7,2.13-11.65,1-15-.52s-11.67-1.43-12.23-3.45a6.56,6.56,0,0,1,2.16-7.36,58.87,58.87,0,0,0,9.57,4.68c4.71,1.71,11.34,2.41,15.38.14A31.24,31.24,0,0,1,593.87,609.42Z" transform="translate(-1.16)" style="fill:#314063"/><path d="M606.54,555.67c-.18.64-.41,1.26-.63,1.89-.83,2.38-2.48,6-3.31,8.41L599,576.23q-2,5.61-4,11.23-1.77,5-3.53,10c-.79,2.23-1.57,4.46-2.36,6.7l-.54,1.54a27.9,27.9,0,0,1-9.89-2.62l-.58-.3-.53-.29,12.12-50.89a7,7,0,0,1,5.3-5.22,9.34,9.34,0,0,1,10.21,3.93c1.31,2.11,2,2.9,1.41,4.93C606.62,555.41,606.58,555.54,606.54,555.67Z" transform="translate(-1.16)" style="fill:#404f77"/><path d="M532.28,531.18l-1.14,57.23v2.23a8.44,8.44,0,0,0,6.42,8.28,10.61,10.61,0,0,0,2.67.26c2.27-.06,6.5-3.77,6.76-4.5a5.29,5.29,0,0,0,.31-1.07l8.83-42.85.59-2.83L559,537.1c.2-1,1.45-12.87,1.45-13.92,0-8-10.06-11.82-17.81-11.84S532.29,523.14,532.28,531.18Z" transform="translate(-1.16)" style="fill:#404f77"/><path d="M535.67,525.49c4,10.87,9.16,18,21.43,20.59s26.65-7.1,23-18.11-18.39-13.28-29.88-18.26S532.63,517.31,535.67,525.49Z" transform="translate(-1.16)" style="fill:#404f77"/><path d="M530.76,592.15l-.07.57-5.19,48.15c3.06,1.07,8.27,2.25,11.43,1.71,0-.12.57-4,2.09-11.05.43-2,1-4.26,1.55-6.77,1-4.22,1.61-9.54,2.39-13.13.66-3,3.16-16.91,3.21-17.76.25-4.8-4.35-8.38-4.72-8.47s-.69-.14-1.05-.19c-3.82-.47-7.55-1.14-8.86,2.42C531.35,588.16,530.82,591.57,530.76,592.15Z" transform="translate(-1.16)" style="fill:#404f77"/><path d="M541.8,599.08,539,631.53c.43-2,1-4.26,1.55-6.77,1-4.22,1.61-9.54,2.39-13.13.66-3,3.77-16.22,4-17a5.29,5.29,0,0,0,.31-1.07l8.83-42.85.59-4.56c-2-1.52-5.19-2.54-7.07-3.64Z" transform="translate(-1.16)" style="fill:#314063"/><path d="M575.79,521.7l3.9,3.89L590,535.85c3.23,3.23,10.48,8.84,13.71,12.07,4.54,4.54,4.39,7.1-1.42,12.79a10.87,10.87,0,0,1-3.79,2.46,6.56,6.56,0,0,1-5.69-.2l-.36-.21-51.65-24.39,15,1-3.07-1.84c-5.21-3.12-3.69-8.52,1.24-15.07s13.31-.32,14.86.86c1.83,1.39,2.56-5.67,4.27-4.17Q574.46,520.38,575.79,521.7Z" transform="translate(-1.16)" style="fill:#404f77"/><path d="M565.61,455.27A78.27,78.27,0,0,0,568,442.72c.05-.49.1-.92.14-1.29l12.85.21c0,1.43-.17,1.7-.33,2a3.75,3.75,0,0,0-.48,1.75c-.07.59.36,1.36.28,2.13-.3,2.68-1,5.31-1.38,8-.21,1.6-.26,3.56-1.35,4.86-1.79,2.15-4.8.92-6.68-.42a18.24,18.24,0,0,1-2.21-1.91C568.48,457.61,565.46,455.8,565.61,455.27Z" transform="translate(-1.16)" style="fill:#f4a68c"/><path d="M586,446.64c-2,3.29-3.14,4.13-7.23,4.56-6.51.69-12.81-5.19-14.11-11.14a9,9,0,0,0-.6-1.72c-1.42-3.2.14-11.24,4.24-5.47,0,0,.23.28.3.2,5.73-6,14-9.52,20-5.77.14.09.3.5.4,1.26a54.36,54.36,0,0,1,.31,6.45C589.1,438.27,587.8,443.66,586,446.64Z" transform="translate(-1.16)" style="fill:#f4a68c"/><path d="M589.21,427.8s-5.12-.18-5.84,12.55c0,0-3.37-5.67-5-1.73s2,6.85,2,6.85-2.24,2.28-3.47,3.67c-1.77,2-5.9.71-6.64.32-4-2.06-8.39-4.87-11-8.62a19.48,19.48,0,0,1-2.92-12.92,16.67,16.67,0,0,1,2.66-7.65c1.1-1.6,1.48-3.48,2.18-5.27a5.17,5.17,0,0,1,3.45-3.25c3.35-1.09,7.28-.9,10.74-.5a13.6,13.6,0,0,1,6.91,2.93A19.9,19.9,0,0,1,589,425C589,425.14,589.46,427.81,589.21,427.8Z" transform="translate(-1.16)" style="fill:#2b2835"/><path d="M579.43,486.5c-11.09-.18-25-7.61-30.39-17.37s1.92-19.35,12.18-19.08c2.42.07,23,9.57,29.42,17C598,475.43,590.53,486.68,579.43,486.5Z" transform="translate(-1.16)" style="fill:#ff5c5c"/><path d="M590.74,481.05v2.22s-10,9.11-12.5,23.18c-.27,1.6,2.6,18.73.78,18.78a136.81,136.81,0,0,1-31.24-4.35l-.95-.26c-1.22-.33-2.35-.66-3.39-1-5.36-1.62-8.42-2.9-8.42-2.9-.39-.55,4.41-7.84,4.72-8.38.82-1.5,1.78-3.08,2.48-4.63a39.41,39.41,0,0,0,2-6.24c1.15-4.39,3.17-35.19,3.27-36.78l4-4.15L577.85,473l2.63,1.64,2.55,1.59,2.94,1.84.61.38.08,0Z" transform="translate(-1.16)" style="fill:#ff5c5c"/><path d="M580.41,445.47a52.83,52.83,0,0,0-2.46,9.14c-.69,5-2.46,9.14-6,17.53s1.72,17.42-9.72,22.93-13,4.11-13,4.11.63-8.79-5-15.5-6.77-15.16.51-20.66,7.09-16.79,5.49-22.34c-1.46-5.1-4.55-25.72,14.31-29a6.23,6.23,0,0,1,7,4.48l2.7,9.47s-1.21,12.87-1.29,13.45S576.52,447.89,580.41,445.47Z" transform="translate(-1.16)" style="fill:#2b2835"/><path d="M640,464.65l-30.44,15L587,466c-.26-.18-.57-.37-.85-.53a8.22,8.22,0,0,0-7.85,14.45l27.92,15.18.78.42a5.52,5.52,0,0,0,6.15-.6L645,471.45Z" transform="translate(-1.16)" style="fill:#ff5c5c"/><path d="M711,1128.49,948.71,991.22c14-8.1,12.25-22.38-4-31.73l-79.72-46c-16.2-9.36-40.94-10.38-55-2.28L572.31,1048.45c-14,8.1-12.25,22.38,4,31.73l79.73,46C672.19,1135.56,696.92,1136.59,711,1128.49Z" transform="translate(-1.16)" style="fill:#d9e9ff"/><polygon points="862.43 767.57 930.56 728.37 862.88 689.29 794.31 728.37 862.43 767.57" style="fill:#f77979"/><polygon points="930.56 728.37 930.56 814.2 930.56 958.42 862.49 997.62 862.43 767.57 930.56 728.37" style="fill:#ff5c5c"/><polygon points="862.43 767.57 862.49 997.62 794.31 958.42 794.31 728.37 862.43 767.57" style="fill:#cf3a3a"/><polygon points="775.96 907.43 843.6 868.11 776.13 829.15 708.23 868.35 775.96 907.43" style="fill:#efdb7d"/><polygon points="775.96 1051.65 843.25 1012.45 843.25 868.23 775.96 907.43 775.96 1051.65" style="fill:#ead65e"/><polygon points="775.96 1051.65 708.67 1012.45 708.67 868.23 775.96 907.43 775.96 1051.65" style="fill:#dbc145"/><polygon points="685.05 1016.02 752.95 976.82 685.47 937.87 616.91 976.99 685.05 1016.02" style="fill:#75efa7"/><polygon points="686.24 1107.7 616.91 1066.14 616.91 976.99 686.24 1016.19 686.24 1107.7" style="fill:#31af64"/><polygon points="684.95 1107.54 684.95 1016.02 752.85 976.82 752.85 1068.34 684.95 1107.54" style="fill:#56d88d"/><path d="M393.28,870.2c6.49,3.14,28.12-7.4,21.9-12.26C407.71,852.1,379.82,863.7,393.28,870.2Z" transform="translate(-1.16)" style="fill:#1c2122"/><path d="M390.1,856.94c-.81,3.09-.33,9.49-.33,9.49l19.87-10.09S390.91,853.85,390.1,856.94Z" transform="translate(-1.16)" style="fill:#1c2122"/><path d="M363.37,859.3c5.83,3.07,22.3-11.17,16.34-14.74C371.85,839.85,353.14,853.91,363.37,859.3Z" transform="translate(-1.16)" style="fill:#1c2122"/><polygon points="359.47 847.32 359.29 854.39 370.71 848.34 359.47 847.32" style="fill:#1c2122"/><path d="M404.78,737.73s1.79,60.56,1.91,69.12-6.24,49.49-6.24,49.49c-1,5.92-9.46,5.41-10.35.6-1.7-20.18-.82-31,.1-52.42l-14.36-75Z" transform="translate(-1.16)" style="fill:#ffaa81"/><path d="M360.55,726.45l3,24.48-3.06,41c-.86,17.94-.77,32.8.15,55.39.34,4.52,9.16,5.26,9.81-.07l7.87-48.74,4.22-24.46,2.82-42.68Z" transform="translate(-1.16)" style="fill:#ffaa81"/><polygon points="355.64 644.71 367.66 637.21 365.82 686.25 377.58 730.18 382.3 744.26 373.69 757.38 363.26 741.18 350.56 689.7 355.64 644.71" style="fill:#ffaa81"/><path d="M369.06,635.07a55,55,0,0,1,15.36,5.33c10.61,5.84,18.35,12,21.9,17.93s-.29,68.46-.29,68.46c8.06,7.45,5.53,45.49,6.9,78.89,0,25.07-58.78-9-58.9-17.32s-1-67.05,8.46-75.55c-1.27-27.7-7.72-65-5.18-70.93S364.4,633.78,369.06,635.07Z" transform="translate(-1.16)" style="fill:#964f0f"/><path d="M407.7,748.45c2.24,4,3,5.93,7.5,10.13s-6.45,9.1-8.88,7.41-3.3-7.35-4.34-11.85Z" transform="translate(-1.16)" style="fill:#ffaa81"/><path d="M402,754.74s-12.8-30-13.32-36.3,1.77-46.55,1.77-46.55c2.15-12,17.43-18.65,16.9-9.45l-5,50.77,6.57,37.4C410.81,756.74,404.55,760.65,402,754.74Z" transform="translate(-1.16)" style="fill:#ffaa81"/><path d="M372,615.76c-.33-9.63,11.06-22.91,21.13-19.71s13.38,14.17,14.1,22.67-.56,18.51-4.12,19.43-10,2.05-10,2.05l-1.29,7.49c.35,4.83-16.39,1.89-16.39-5V627.46Z" transform="translate(-1.16)" style="fill:#dc7437"/><path d="M401.33,596.77c-23.38-9.6-37.16,9.63-29,25.39-3.5,3.19-5.24,8.51-5.24,12.68,0,10.4,13.59,25.07,33.34,12.42,7.56-4.84,1.51-15.48,1.51-15.48s3.2-4.88-4.85-11.54c1.46,1.62,5-.46,5.57-3.58s.05-8.83,1.45-9.17C413.71,604.85,409.88,593.12,401.33,596.77Z" transform="translate(-1.16)" style="fill:#dc7437"/><polygon points="272.35 769.9 280.26 768.52 282.9 812.9 295.07 858.38 299.95 872.96 292.07 879.62 280.24 869.77 267.09 816.48 272.35 769.9" style="fill:#cc7a3e"/><path d="M302.32,1010.51c6.72,3.25,29.11-7.66,22.67-12.69C317.26,991.77,288.38,1003.78,302.32,1010.51Z" transform="translate(-1.16)" style="fill:#964f0f"/><path d="M299,996.79c-.84,3.19-.35,9.82-.35,9.82l20.57-10.45S299.87,993.59,299,996.79Z" transform="translate(-1.16)" style="fill:#964f0f"/><path d="M271.36,999.22c6,3.19,23.08-11.56,16.92-15.25C280.13,979.09,260.77,993.64,271.36,999.22Z" transform="translate(-1.16)" style="fill:#964f0f"/><polygon points="267.36 986.83 267.17 994.14 279 987.88 267.36 986.83" style="fill:#964f0f"/><path d="M314.22,873.38s1.86,62.69,2,71.55-6.46,51.23-6.46,51.23c-1.06,6.13-9.79,5.6-10.71.63-1.76-20.89-.85-32,.11-54.27l-14.87-52.45V864.88Z" transform="translate(-1.16)" style="fill:#4a555e"/><path d="M268.44,861.71l-4,26.36,3.93,41.42c-.88,18.57-.79,34,.16,57.34.35,4.67,9.49,5.44,10.16-.08l8.15-50.46,3.39-33.92,3.89-35.57Z" transform="translate(-1.16)" style="fill:#4a555e"/><path d="M318.55,854.32c-.27-.33-.42-8.26-.49-8.74-.79-6.09-1.25-11.41-2.44-17.09a3.85,3.85,0,0,1,.12-2.1,1.7,1.7,0,0,0-.22-.15s4-40.43.3-44.24a40.89,40.89,0,0,0-22.67-11.59c-6-1-12.47-2.43-14.32-1.8-3.61,1.21-3.87.54-6.38,3.8-2.84,3.7-6.65,37.07-5.34,55-.73,12.18-1.4,32.15-1.27,37.51s51.79,22.09,51.79,5.9C317.05,862,317.81,861.31,318.55,854.32Z" transform="translate(-1.16)" style="fill:#ff6c67"/><path d="M322.86,875.68c2.58,4,3.51,5.92,8.43,10s-6.05,9.83-8.67,8.25-3.9-7.37-5.28-11.94Z" transform="translate(-1.16)" style="fill:#f7a56d"/><path d="M315.21,880.09s-13.08-27.64-14-34.13-1.32-48.2-1.32-48.2c1.42-12.51,16.75-20.44,16.82-10.9l-1.74,52.78,8.75,35.52C326.07,881.37,318.26,886,315.21,880.09Z" transform="translate(-1.16)" style="fill:#f88"/><path d="M280.26,747.13c-.34-10,11.45-23.72,21.88-20.41s13.84,14.67,14.59,23.47-.58,19.16-4.27,20.11-10.33,2.13-10.33,2.13l-1.33,7.75c.36,5-17,2-17-5.16V759.23Z" transform="translate(-1.16)" style="fill:#f7a56d"/><path d="M310.65,727.46c-24.2-9.93-38.46,10-30.06,26.29-3.62,3.3,3.34,5.76,3.34,10.07,0,10.77-2.16,12.38,18.28-.72,7.83-5,0-4.35,0-4.35s12.35-.1,4-7c1.5,1.67,5.14-.48,5.76-3.71s.05-9.14,1.5-9.5C323.46,735.83,319.5,723.68,310.65,727.46Z" transform="translate(-1.16)" style="fill:#b5121b"/><path d="M677.93,966.08a37.13,37.13,0,0,0,5.29-1c4.18-.9,7.85-2.9,12.09-3.4,3.85-.45,11-3.17,12.69-6.95,1.79-3.94-4.48-6.16-8.25-6.28a49.66,49.66,0,0,0-12.25,1.35,15.26,15.26,0,0,1-5.38,1.33c-4,.27-8.32,1.25-10.22,4.69-1.44,2.6-1,7.83,1.54,9.34A7.57,7.57,0,0,0,677.93,966.08Z" transform="translate(-1.16)" style="fill:#1c2122"/><path d="M675.75,946.84l-1.52,5.25a4.13,4.13,0,0,1-.39.95c-.67,1.14-2.32,4.6,1.1,5.8,4.13,1.44,27.38-4,25.43-8.57,0,0-3.16-2.17-19-.06C676.38,950.87,675.75,946.84,675.75,946.84Z" transform="translate(-1.16)" style="fill:#773507"/><path d="M758.32,863.44,757,872.55l3.92,2.7,13.93,6.17-5.21,9L743.19,878l3.89-6.32s1.52-7.64.95-7.86Z" transform="translate(-1.16)" style="fill:#773507"/><path d="M765.43,877.28s8.27,3.1,10.1,4.12,8.37,4.87-1.13,7.74c-8.34,2.52-13.84,1.18-17.88-.61s-13.87-1.71-14.54-4.11c-1.66-5.91,2.57-8.74,2.57-8.74a70.46,70.46,0,0,0,11.38,5.56c5.59,2,13.47,2.86,18.28.16A37.15,37.15,0,0,1,765.43,877.28Z" transform="translate(-1.16)" style="fill:#1c2122"/><path d="M780.67,811.15c-.22.75-.49,1.5-.75,2.25-1,2.82-2.95,7.17-3.94,10l-4.29,12.19q-2.34,6.66-4.69,13.34l-4.2,11.93c-.93,2.66-1.86,5.31-2.8,8-.21.61-.43,1.22-.65,1.83a33.1,33.1,0,0,1-11.74-3.12l-.69-.35-.64-.35,14.41-60.48a7.2,7.2,0,0,1,.47-1.4,8.75,8.75,0,0,1,5.82-4.8,11.15,11.15,0,0,1,12.14,4.67c1.56,2.51,2.34,3.44,1.68,5.87C780.76,810.84,780.72,811,780.67,811.15Z" transform="translate(-1.16)" style="fill:#1c2122"/><path d="M682.34,818.44l-1.35,68v2.66a10,10,0,0,0,7.63,9.83,12.76,12.76,0,0,0,3.16.32c2.71-.08,7.74-4.49,8.05-5.35a6.52,6.52,0,0,0,.36-1.28l10.5-50.92.69-3.36L714,825.47c.24-1.16,1.72-15.3,1.72-16.53,0-9.55-12-14.06-21.16-14.08S682.35,808.89,682.34,818.44Z" transform="translate(-1.16)" style="fill:#1c2122"/><path d="M686.92,809c5.08,11.53,11.36,19.2,25.94,22.24s31.3-6.7,26.69-18.36-22.12-14.47-35.86-20S683.1,800.35,686.92,809Z" transform="translate(-1.16)" style="fill:#1c2122"/><path d="M680.53,890.9l-.08.68-6.17,57.22c3.64,1.27,9.83,2.67,13.59,2,0-.15.68-4.8,2.48-13.13q.76-3.59,1.85-8c1.22-5,1.9-11.35,2.84-15.62.78-3.61,3.75-20.09,3.8-21.1.31-5.71-5.16-10-5.6-10.06a12,12,0,0,0-1.25-.23c-4.54-.56-9-1.35-10.53,2.88C681.24,886.16,680.6,890.21,680.53,890.9Z" transform="translate(-1.16)" style="fill:#1c2122"/><path d="M693.65,899.14l-3.3,38.56q.76-3.59,1.85-8c1.22-5,1.9-11.35,2.84-15.62.78-3.61,4.48-19.27,4.79-20.13a6.52,6.52,0,0,0,.36-1.28l10.5-50.92.69-5.42c-2.34-1.81-6.16-3-8.4-4.33Z" transform="translate(-1.16)" style="fill:#0a0c0c"/><path d="M722.06,798.72l6.54.17,17.25.46c5.43.14,16.26-.93,21.69-.79,7.63.21,9.59,2.54,9.23,12.2a13.07,13.07,0,0,1-1.26,5.22,7.83,7.83,0,0,1-5.08,4.48l-.48.1-63.8,12.93,13.07-3.16-4.16.93c-7,1.56-10.14-4.34-11.25-14s11.23-11.16,13.53-11.41c2.71-.29-2.42-7,.28-7.08C719.09,798.7,720.57,798.68,722.06,798.72Z" transform="translate(-1.16)" style="fill:#1c2122"/><path d="M722,728.22a92.08,92.08,0,0,0,2.89-14.91c.06-.58.12-1.1.17-1.53l15.27.24c0,1.71-.21,2-.4,2.36a4.67,4.67,0,0,0-.56,2.08c-.08.7.43,1.61.32,2.53-.35,3.19-1.2,6.31-1.63,9.5-.25,1.9-.31,4.22-1.61,5.78-2.13,2.55-5.7,1.08-7.93-.51a19.66,19.66,0,0,1-2.63-2.27C725.37,731,721.78,728.85,722,728.22Z" transform="translate(-1.16)" style="fill:#773507"/><path d="M746.2,718c-2.36,3.91-3.73,4.9-8.6,5.42-7.73.82-15.22-6.16-16.76-13.24a10.85,10.85,0,0,0-.72-2c-1.68-3.8.17-13.35,5-6.5,0,0,.28.34.36.25,6.81-7.16,16.59-11.32,23.78-6.86.18.11.37.59.49,1.49a67.12,67.12,0,0,1,.37,7.66C749.87,708,748.32,714.43,746.2,718Z" transform="translate(-1.16)" style="fill:#773507"/><path d="M750,695.58s-6.09-.22-6.94,14.91c0,0-4-6.74-5.89-2s2.37,8.14,2.37,8.14-2.66,2.71-4.13,4.36c-2.09,2.35-7,.84-7.89.38-4.74-2.45-10-5.79-13.1-10.25-2.86-4.07-4.07-9.91-3.48-15.35a19.92,19.92,0,0,1,3.16-9.09c1.31-1.91,1.77-4.14,2.6-6.26a6.19,6.19,0,0,1,4.1-3.87c4-1.29,8.66-1.06,12.76-.58,3,.35,9.64-.16,12,1.73,3.94,3.14,3,9.67,4.13,14.56C749.75,692.41,750.3,695.59,750,695.58Z" transform="translate(-1.16)" style="fill:#1c2122"/><path d="M738.38,765.34c-13.18-.21-29.67-9.05-36.12-20.65s2.29-23,14.48-22.66c2.87.07,27.31,11.36,35,20.14C760.4,752.18,751.57,765.55,738.38,765.34Z" transform="translate(-1.16)" style="fill:#4a555e"/><path d="M751.82,758.87v2.63S739.88,772.32,737,789.05c-.33,1.9,3.08,22.26.92,22.32a162.42,162.42,0,0,1-37.13-5.17l-1.12-.31c-1.45-.4-2.8-.79-4-1.16-6.38-1.93-10-3.45-10-3.45-.46-.65,5.24-9.32,5.61-10,1-1.77,2.11-3.65,2.95-5.5a47,47,0,0,0,2.36-7.41c1.37-5.22,3.76-41.82,3.89-43.71l4.81-4.93,31.28,19.55,3.13,2,3,1.89,3.5,2.18.73.45.09.05Z" transform="translate(-1.16)" style="fill:#4a555e"/><path d="M751.56,836c2.23,4,3,5.92,7.5,10.13s-6.46,9.09-8.88,7.4-3.3-7.34-4.34-11.84Z" transform="translate(-1.16)" style="fill:#773507"/><path d="M745.84,842.28s-12.8-30-13.32-36.3,1.77-46.55,1.77-46.55c2.15-12,17.43-18.65,16.89-9.44l-5,50.77,6.56,37.39C754.67,844.28,748.41,848.2,745.84,842.28Z" transform="translate(-1.16)" style="fill:#773507"/><polygon points="520.05 900.69 529.5 899.04 532.64 952.04 547.18 1006.36 553.01 1023.76 543.59 1031.71 529.47 1019.95 513.77 956.32 520.05 900.69" style="fill:#cc7a3e"/><path d="M555.61,1188c8,3.88,34.76-9.15,27.07-15.16C573.45,1165.64,539,1180,555.61,1188Z" transform="translate(-1.16)" style="fill:#f7f3f0"/><path d="M551.68,1171.63c-1,3.82-.41,11.73-.41,11.73l24.56-12.47S552.68,1167.81,551.68,1171.63Z" transform="translate(-1.16)" style="fill:#f7f3f0"/><path d="M516.86,1169.17c7.21,3.8,27.56-13.81,20.2-18.22C527.34,1145.12,504.21,1162.5,516.86,1169.17Z" transform="translate(-1.16)" style="fill:#f7f3f0"/><polygon points="514.09 1159.73 513.86 1168.47 527.99 1161 514.09 1159.73" style="fill:#f7f3f0"/><path d="M569.83,1024.27s2.21,74.86,2.35,85.44-7.71,61.18-7.71,61.18c-1.26,7.31-11.69,6.68-12.79.74-2.1-25-1-38.27.13-64.81l-17.76-62.63v-30.07Z" transform="translate(-1.16)" style="fill:#1c2122"/><path d="M512.62,997.26l-3.95,38.14a33.53,33.53,0,0,0-.23,8.07l4.32,45.42c-1.06,22.17-.95,40.55.18,68.47.42,5.58,11.33,6.49,12.14-.1l9.73-60.24,4.05-40.51,4.65-42.49Z" transform="translate(-1.16)" style="fill:#1c2122"/><path d="M575,1001.51c-.32-.4-.5-9.87-.58-10.44-.95-7.27-1.5-13.62-2.92-20.41a4.64,4.64,0,0,1,.15-2.51,2.53,2.53,0,0,0-.27-.18s4.75-48.28.36-52.83a48.84,48.84,0,0,0-27.07-13.83c-7.22-1.19-14.89-2.91-17.1-2.16-4.31,1.45-4.62.65-7.62,4.55-3.39,4.41-7.94,44.25-6.38,65.63-.86,14.54-1.67,38.39-1.52,44.79s61.85,26.38,61.85,7C573.2,1010.64,574.11,1009.85,575,1001.51Z" transform="translate(-1.16)" style="fill:#e08148"/><path d="M573.23,1027.58c2.73,4.93,3.67,7.35,9.18,12.6s-8.06,11.18-11,9.06-4-9.1-5.25-14.68Z" transform="translate(-1.16)" style="fill:#ea917d"/><path d="M563.74,1032.16S550.56,998.11,550,990.3s2.62-57.51,2.62-57.51c2.77-14.78,21.72-22.9,21-11.53L566.92,984l7.33,43.06C576.56,1034.63,566.86,1039.5,563.74,1032.16Z" transform="translate(-1.16)" style="fill:#dc7437"/><path d="M529.27,873.5c-.41-11.91,13.67-28.33,26.12-24.36s16.54,17.51,17.43,28-.7,22.88-5.1,24-12.34,2.53-12.34,2.53L553.79,913c.43,6-20.26,2.33-20.26-6.16V888Z" transform="translate(-1.16)" style="fill:#ea917d"/><path d="M563.76,846.5c-28.89-11.87-45.93,11.9-35.89,31.39-4.33,3.94,4,6.87,4,12,0,12.86-2.57,14.78,21.84-.86,9.34-6,0-5.2,0-5.2s14.74-.11,4.79-8.34c1.8,2,6.14-.57,6.88-4.42.77-4,.07-10.92,1.79-11.35C579.06,856.49,574.33,842,563.76,846.5Z" transform="translate(-1.16)" style="fill:#f9d53e"/></g></g></svg>