<svg xmlns="http://www.w3.org/2000/svg" viewBox="0 0 834.37 856.63"><g style="isolation:isolate"><g id="Camada_2" data-name="Camada 2"><g id="Camada_1-2" data-name="Camada 1"><path d="M826.73,604.06,679.3,519,714,498.84l-3.54-4.77-37.07,21.44L540.08,438.57a27.39,27.39,0,0,0-27.87.26l-3.47,2.08a11,11,0,0,0,.18,18.92l287.53,166a30.88,30.88,0,0,0,29.84.59h0A12.78,12.78,0,0,0,826.73,604.06Z" style="fill:#4897ff;mix-blend-mode:multiply;opacity:0.4"/><rect x="662.28" y="250.66" width="7.84" height="238.1" style="fill:#7c8c9c"/><path d="M702.58,559.17,664,492.82l-65.09,3.52c-5.66.85-16.95-7.57-3.14-8l72.59-3.64,41,70.52C714.62,563.59,704.15,561.88,702.58,559.17Z" style="fill:#7c8c9c"/><path d="M708.79,499.51l-43.25-6.88,1.31-7.73,43.93,7.44C723.56,494.43,714.88,500.27,708.79,499.51Z" style="fill:#7c8c9c"/><polygon points="817.85 490.3 834.37 492.16 834.37 511.81 817.85 521.52 811.21 499.17 817.85 490.3" style="fill:#4d5559"/><polygon points="817.85 502.07 498.02 317.41 515.25 307.91 834.37 492.16 817.85 502.07" style="fill:#4d5559"/><polygon points="817.85 521.52 498.02 336.86 498.02 317.42 817.85 502.07 817.85 521.52" style="fill:#4d5559"/><polygon points="817.51 491.46 514.87 316.73 514.87 9.86 817.51 184.59 817.51 491.46" style="fill:#e6eaf4"/><path d="M827.48,195.43,507.65,10.77c-5.36-2.86-3.3-11.39,0-10.73L827.48,184.69C832.47,188.75,831.28,198.09,827.48,195.43Z" style="fill:#4a555e"/><path d="M736.5,295.87c0,48.44-47.78,89.59-93.61,61.26-41.21-25.47-61.42-60.83-61.42-109.27s38-89.72,79.93-65.5S736.5,247.42,736.5,295.87Z" style="fill:#a2d2ff"/><path d="M661.89,250.38l37.21-52.93c-23.88-29.7-52.19-45-74.52-43.22l37.31,96.15Z" style="fill:#f4e38c"/><path d="M736.5,293.46c-.14-29.76-13.53-66.31-37.4-96l-37.21,52.93Z" style="fill:#e87272"/><path d="M661.89,250.38,624.3,303.85C648.38,333.8,677,349.15,699.38,347a36.26,36.26,0,0,0,27.09-15.79c6.87-9.78,10.1-22.93,10-37.77Z" style="fill:#f7b874"/><polygon points="697.63 208.7 699.1 197.45 680.1 203.91 683.97 232.51 717.5 299.92 736.5 293.46 697.63 208.7" style="fill:#e87272"/><polygon points="716.34 332.1 711.61 343.82 690.61 351.13 688.72 335.54 716.34 332.1" style="fill:#f7b874"/><path d="M624.58,154.23a36.35,36.35,0,0,0-27.65,15.84c-6.76,9.61-10,22.49-10,37-.09,29.9,13.34,66.82,37.41,96.76l37.59-53.47Z" style="fill:#f4e390"/><polygon points="605.58 173.9 614.84 156.26 596.65 162.45 600.21 173.9 605.58 173.9" style="fill:#f4e38c"/><path d="M717.5,299.92c-.14-29.76-13.53-66.31-37.4-96l-37.21,52.94Z" style="fill:#eb423d"/><polygon points="612.22 167.21 605.58 160.7 624.58 154.23 635.53 160.19 636.1 173.9 617.69 172.46 612.22 167.21" style="fill:#f4e38c"/><path d="M642.89,256.85l37.21-52.94c-23.87-29.69-52.18-45-74.52-43.21l37.31,96.15Z" style="fill:#ead65e"/><path d="M642.89,256.85,605.3,310.32c24.08,29.95,52.67,45.29,75.09,43.17a36.27,36.27,0,0,0,27.08-15.8c6.88-9.77,10.1-22.93,10-37.77Z" style="fill:#ffe4b0"/><path d="M605.58,160.7a36.29,36.29,0,0,0-27.65,15.84c-6.76,9.61-10,22.48-10,37-.09,29.9,13.33,66.82,37.4,96.77l37.59-53.47Z" style="fill:#964f0f"/><ellipse cx="181.76" cy="611.36" rx="52.41" ry="30.26" style="fill:#4897ff;mix-blend-mode:multiply;opacity:0.4"/><path d="M188.47,633.35c8.91,4.3,38.62-10.18,30.08-16.85C208.29,608.48,170,624.41,188.47,633.35Z" style="fill:#396ea0"/><path d="M184.11,615.13c-1.12,4.25-.46,13-.46,13l27.29-13.85S185.22,610.89,184.11,615.13Z" style="fill:#396ea0"/><path d="M147.4,618.37c8,4.22,30.62-15.34,22.44-20.24C159,591.65,133.34,611,147.4,618.37Z" style="fill:#396ea0"/><polygon points="143.63 601.92 143.37 611.63 159.06 603.33 143.63 601.92" style="fill:#396ea0"/><path d="M204.27,451.4s2.46,83.18,2.61,94.93-8.56,68-8.56,68c-1.4,8.12-13,7.43-14.21.82-2.34-27.71-1.13-42.52.14-72l-19.73-103Z" style="fill:#ffaa81"/><path d="M143.51,435.91l4.12,33.62-4.21,56.31c-1.18,24.64-1,45.06.21,76.08.46,6.21,12.58,7.22,13.48-.1l10.81-66.94,5.79-33.6,3.87-58.62Z" style="fill:#ffaa81"/><polygon points="138.36 323.64 154.88 313.34 152.35 380.69 168.5 441.04 174.99 460.38 163.16 478.39 148.83 456.14 131.38 385.44 138.36 323.64" style="fill:#ff6c67"/><path d="M155.21,310.4c2.55.71,11.4,2,21.1,7.32,14.57,8,25.2,16.54,30.07,24.63s-.39,94-.39,94c11.06,10.24,7.58,62.49,9.47,108.36,0,34.43-80.72-12.39-80.89-23.79s-1.42-92.09,11.61-103.76c-1.74-38-10.6-89.23-7.11-97.42S148.81,308.63,155.21,310.4Z" style="fill:#f88"/><path d="M237.29,458.91c4.32,4.53,6,6.87,13.41,10.95s-5.51,14.29-9.31,12.86-6.88-8.66-9.79-14.3Z" style="fill:#ffaa81"/><path d="M228.38,466.51s-23.77-32.88-26.6-41.11-13.39-62.55-13.39-62.55c-1.19-16.66,16.88-30.73,19.29-18.3l10.53,69.27,20,44.21C242.86,465.55,233.8,473.52,228.38,466.51Z" style="fill:#ff6c67"/><path d="M159.21,283.89c-.46-13.23,15.18-31.47,29-27.07S206.6,276.27,207.59,288s-.77,25.42-5.66,26.69-13.71,2.82-13.71,2.82l-1.76,10.28c.47,6.63-22.52,2.6-22.52-6.85V300Z" style="fill:#ffaa81"/><path d="M199.52,257.8c-32.1-13.18-51,13.23-39.87,34.88-4.82,4.38-7.21,11.69-7.21,17.41,0,14.29,18.68,34.43,45.8,17.05,10.38-6.65,2.08-21.25,2.08-21.25s4.39-6.71-6.67-15.85c2,2.23,6.83-.63,7.65-4.92.85-4.47.07-12.12,2-12.6C216.52,268.9,211.26,252.79,199.52,257.8Z" style="fill:#ffd88e"/><polygon points="277.79 360.41 294.31 350.11 291.78 417.46 307.94 477.81 314.42 497.15 303.95 505.98 288.26 492.91 270.81 422.21 277.79 360.41" style="fill:#f4e38c"/><ellipse cx="321.19" cy="648.13" rx="52.41" ry="30.26" style="fill:#4897ff;mix-blend-mode:multiply;opacity:0.4"/><path d="M327.9,670.12c8.91,4.3,38.63-10.18,30.08-16.85C347.72,645.25,309.41,661.18,327.9,670.12Z" style="fill:#4a555e"/><path d="M323.54,651.9c-1.12,4.25-.46,13-.46,13l27.29-13.85S324.65,647.66,323.54,651.9Z" style="fill:#4a555e"/><path d="M286.83,655.14c8,4.22,30.62-15.34,22.44-20.25C298.47,628.42,272.77,647.73,286.83,655.14Z" style="fill:#4a555e"/><polygon points="283.06 638.69 282.8 648.4 298.5 640.09 283.06 638.69" style="fill:#4a555e"/><path d="M343.7,488.17s2.46,83.18,2.62,94.93-8.57,68-8.57,68c-1.4,8.12-13,7.43-14.21.82-2.33-27.71-1.13-42.52.14-72L304,510.31V476.9Z" style="fill:#1c2122"/><path d="M283,472.68l-5.32,35,5.22,55c-1.18,24.64-1.05,45,.21,76.08.46,6.21,12.59,7.22,13.48-.11l10.81-66.94,5.79-33.59L317,479.43Z" style="fill:#1c2122"/><path d="M294.64,347c2.56.45,11.4,1.24,21.1,4.58,14.57,5,25.2,10.32,30.07,15.37s-.39,58.69-.39,58.69c11.06,6.39.91,30.46,2.8,59.09,0,21.49-68.55-.7-68.72-7.81s4.32-36.9,5.28-53c-1.74-23.75-9.77-65.91-6.28-71S288.24,345.88,294.64,347Z" style="fill:#ffe4b0"/><path d="M376.72,495.68c4.32,4.53,6,6.86,13.41,10.95s-5.51,14.29-9.31,12.86-6.88-8.66-9.79-14.3Z" style="fill:#b54c2c"/><path d="M367.81,503.28s-23.76-32.88-26.59-41.11-13.4-62.55-13.4-62.55c-1.19-16.66,16.89-30.73,19.29-18.3l10.53,69.27,20,44.21C382.29,502.32,373.23,510.28,367.81,503.28Z" style="fill:#f4e38c"/><path d="M298.64,320.66c-.46-13.23,15.19-31.48,29-27.07S346,313,347,324.72s-.77,25.42-5.66,26.69-13.71,2.81-13.71,2.81l-1.76,10.29c.47,6.62-22.52,2.59-22.52-6.85V336.72Z" style="fill:#b54c2c"/><path d="M339,294.57c-32.1-13.18-51,13.23-39.87,34.88-4.81,4.38,4.42,7.63,4.42,13.36,0,14.28-2.86,16.42,24.26-1,10.38-6.65,0-5.77,0-5.77s16.38-.13,5.33-9.27c2,2.23,6.82-.63,7.64-4.92.85-4.47.07-12.12,2-12.6C356,305.67,350.7,289.55,339,294.57Z" style="fill:#161616"/><polygon points="333.02 482.18 343.52 480.35 347.01 539.23 363.16 599.58 369.64 618.92 359.18 627.75 343.49 614.68 326.04 543.98 333.02 482.18" style="fill:#cc7a3e"/><ellipse cx="364.53" cy="779.44" rx="52.41" ry="30.26" style="fill:#4897ff;mix-blend-mode:multiply;opacity:0.4"/><path d="M371.25,801.42c8.91,4.31,38.62-10.17,30.08-16.84C391.07,776.56,352.76,792.49,371.25,801.42Z" style="fill:#964f0f"/><path d="M366.88,783.21c-1.12,4.24-.46,13-.46,13l27.29-13.86S368,779,366.88,783.21Z" style="fill:#964f0f"/><path d="M330.17,786.45c8,4.22,30.62-15.35,22.45-20.25C341.81,759.73,316.12,779,330.17,786.45Z" style="fill:#964f0f"/><polygon points="326.4 770 326.15 779.7 341.84 771.4 326.4 770" style="fill:#964f0f"/><path d="M387,619.48s2.46,83.17,2.62,94.93-8.56,68-8.56,68c-1.41,8.13-13,7.43-14.22.83-2.33-27.72-1.12-42.52.14-72l-19.73-69.59V608.2Z" style="fill:#4a555e"/><path d="M326.29,604,321,639l5.22,55C325,718.56,325.14,739,326.4,770c.47,6.21,12.59,7.22,13.48-.1L350.69,703l4.51-45,5.16-47.2Z" style="fill:#4a555e"/><path d="M392.78,594.19c-.35-.44-.56-11-.64-11.6-1.06-8.08-1.67-15.13-3.24-22.68a5,5,0,0,1,.16-2.78,3.13,3.13,0,0,0-.3-.2s5.27-53.65.4-58.7a54.21,54.21,0,0,0-30.08-15.37c-8-1.32-16.54-3.23-19-2.4-4.79,1.62-5.13.72-8.46,5.05-3.77,4.91-8.83,49.18-7.09,72.92-1,16.16-1.85,42.66-1.69,49.77s68.72,29.31,68.72,7.82C390.79,604.34,391.8,603.46,392.78,594.19Z" style="fill:#ff6c67"/><path d="M398.5,622.53c3.42,5.24,4.66,7.85,11.19,13.21s-8,13-11.51,11-5.18-9.78-7-15.85Z" style="fill:#f7a56d"/><path d="M388.35,628.37S371,591.71,369.72,583.1s-1.75-64-1.75-64c1.88-16.6,22.22-27.13,22.31-14.46l-2.3,70,11.61,47.13C402.76,630.07,392.4,636.25,388.35,628.37Z" style="fill:#f88"/><path d="M342,452c-.45-13.24,15.19-31.48,29-27.07s18.38,19.45,19.37,31.13-.78,25.42-5.66,26.68S371,485.53,371,485.53l-1.77,10.29c.47,6.62-22.52,2.59-22.52-6.85V468Z" style="fill:#f7a56d"/><path d="M382.3,425.88c-32.1-13.18-51,13.23-39.88,34.88-4.81,4.37,4.42,7.63,4.42,13.36,0,14.28-2.86,16.41,24.27-1,10.37-6.65,0-5.78,0-5.78s16.37-.13,5.32-9.26c2,2.22,6.82-.64,7.64-4.92.86-4.47.08-12.13,2-12.6C399.3,437,394,420.86,382.3,425.88Z" style="fill:#b5121b"/><ellipse cx="222.48" cy="798.42" rx="52.41" ry="30.26" style="fill:#4897ff;mix-blend-mode:multiply;opacity:0.4"/><path d="M229.19,820.41c8.91,4.31,38.62-10.17,30.08-16.85C249,795.55,210.7,811.48,229.19,820.41Z" style="fill:#1c2122"/><path d="M224.82,802.2c-1.11,4.24-.45,13-.45,13l27.29-13.86S225.94,798,224.82,802.2Z" style="fill:#1c2122"/><path d="M188.12,805.43c8,4.22,30.62-15.34,22.44-20.24C199.76,778.72,174.06,798,188.12,805.43Z" style="fill:#1c2122"/><polygon points="184.34 788.98 184.09 798.69 199.78 790.39 184.34 788.98" style="fill:#1c2122"/><path d="M245,638.47s2.46,83.17,2.61,94.93-8.56,68-8.56,68c-1.4,8.13-13,7.43-14.22.83-2.33-27.72-1.12-42.53.15-72l-19.73-103Z" style="fill:#ffaa81"/><path d="M184.23,623l4.12,33.61-4.21,56.32c-1.18,24.63-1,45.05.21,76.07.46,6.21,12.58,7.22,13.48-.1l10.81-66.94,5.79-33.59,3.87-58.62Z" style="fill:#ffaa81"/><polygon points="179.08 510.7 195.59 500.4 193.07 567.76 209.22 628.1 215.71 647.44 203.88 665.46 189.55 643.21 172.1 572.5 179.08 510.7" style="fill:#ffaa81"/><path d="M195.93,497.47c2.55.71,11.4,2,21.1,7.32,14.57,8,25.2,16.53,30.07,24.62s-.39,94-.39,94c11.06,10.23,7.58,62.48,9.47,108.36,0,34.42-80.73-12.4-80.89-23.8s-1.42-92.08,11.61-103.76c-1.74-38-10.6-89.23-7.11-97.41S189.53,495.69,195.93,497.47Z" style="fill:#964f0f"/><path d="M249,653.2c3.07,5.45,4.14,8.13,10.3,13.91s-8.87,12.49-12.2,10.17-4.53-10.09-5.95-16.27Z" style="fill:#ffaa81"/><path d="M241.15,661.82s-17.59-41.18-18.3-49.85S225.28,548,225.28,548c3-16.44,23.94-25.62,23.21-13l-6.87,69.72,9,51.36C253.27,664.58,244.67,670,241.15,661.82Z" style="fill:#ffaa81"/><path d="M199.93,471c-.46-13.23,15.18-31.47,29-27.07s18.37,19.46,19.36,31.13-.77,25.43-5.66,26.69-13.71,2.82-13.71,2.82l-1.77,10.29c.48,6.62-22.51,2.59-22.51-6.85V487Z" style="fill:#dc7437"/><path d="M240.24,444.87c-32.1-13.19-51,13.22-39.87,34.87-4.82,4.38-7.21,11.69-7.21,17.41,0,14.29,18.68,34.43,45.8,17.06C249.34,507.56,241,493,241,493s4.39-6.72-6.67-15.85c2,2.22,6.83-.64,7.65-4.92.85-4.47.07-12.13,2-12.6C257.24,456,252,439.85,240.24,444.87Z" style="fill:#dc7437"/><path d="M531.64,618.25c0-4.34-2-9.39-6-11.57a9,9,0,0,0-4.34-1.12,2,2,0,0,0,0,4,5,5,0,0,1,.55,0l.27,0c-.31,0-.36-.05-.14,0a7.88,7.88,0,0,1,.87.2c.11,0,.37.19.47.17-.28-.12-.33-.14-.13-.06l.22.11a7.74,7.74,0,0,1,.73.43l.2.14-.12-.09a2.15,2.15,0,0,0,.28.23,8.84,8.84,0,0,1,.69.68,3.11,3.11,0,0,1,.23.28c.36.42-.13-.21.07.07s.35.51.5.77.31.53.45.81c.06.12.13.25.19.38s.1.53,0,0c.06.3.25.62.34.91s.17.53.24.8c.15.56.24,1.12.34,1.68-.12-.69,0,.13,0,.32s0,.54,0,.8a2,2,0,0,0,2,2,2,2,0,0,0,2-2Z" style="fill:#ad5215"/><path d="M539.87,624.54a12.41,12.41,0,0,0-2.63-4.95,7.18,7.18,0,0,0-4.65-2,16.17,16.17,0,0,0-3,.09,2.13,2.13,0,0,0-1.41.58,2,2,0,0,0,1.41,3.41,15.37,15.37,0,0,1,3-.07c.2,0,.56.14-.11,0a3,3,0,0,0,.32.06,4.87,4.87,0,0,1,.52.12l.28.1c.42.13-.42-.21-.14-.07s.32.16.47.25l.2.14c.37.23-.34-.31-.12-.1l.4.37.17.2c.31.34-.25-.36-.07-.1s.24.34.35.52c.24.4.43.82.63,1.24.06.14,0,.06-.1-.24a1.67,1.67,0,0,1,.08.2c.06.13.11.27.16.41s.21.59.31.88a2,2,0,1,0,3.85-1.06Z" style="fill:#ad5215"/><path d="M532.89,617.55a38.59,38.59,0,0,0-8.17-30.2,2.33,2.33,0,0,0-3.24,0,2.36,2.36,0,0,0,0,3.24,33.55,33.55,0,0,1,7,25.75,2.35,2.35,0,0,0,1.59,2.81,2.3,2.3,0,0,0,2.81-1.6Z" style="fill:#11a359"/><path d="M522.52,588.6a21.86,21.86,0,0,0-27.83-.06c-.86.7-1.74,1.68-1.54,2.77a2.29,2.29,0,0,0,1.73,1.66,6.82,6.82,0,0,0,2.51,0l21.93-2.35a5.12,5.12,0,0,0,2.15-.56,1.73,1.73,0,0,0,.88-1.88" style="fill:#15cc67"/><path d="M524.13,587a24.52,24.52,0,0,0-27.49-2.54c-2,1.11-4.34,2.57-5.34,4.67a4.36,4.36,0,0,0,3,6.06,9.48,9.48,0,0,0,3.6.08l4.15-.45,8.28-.89c3.07-.33,6.14-.62,9.2-1a6.52,6.52,0,0,0,3.85-1.4,4.09,4.09,0,0,0,1.2-3.92,2.3,2.3,0,0,0-2.81-1.59,2.33,2.33,0,0,0-1.59,2.81,2.52,2.52,0,0,1,.1-.63c-.11-.15.17.07-.06,0s-.66.15-.87.18c-1.05.14-2.12.22-3.17.34l-6.34.68-12.18,1.3c-.7.08-1.55-.06-2.21,0a.57.57,0,0,1-.17-.12,1.63,1.63,0,0,1,.15.4s.44-.46.62-.62a17.63,17.63,0,0,1,4.42-2.78,19.62,19.62,0,0,1,20.46,2.59,2.34,2.34,0,0,0,3.23,0,2.29,2.29,0,0,0,0-3.23Z" style="fill:#11a359"/><path d="M524.08,589c8.29,1.47,15.49,4.84,23.78,6.31,1.55.28,3.62.28,4.17-1.2a2.29,2.29,0,0,0-.59-2.26,6.1,6.1,0,0,0-2.05-1.31,43,43,0,0,0-25.47-3.07" style="fill:#15cc67"/><path d="M523.48,591.17a117.14,117.14,0,0,1,13.39,3.63c2.16.67,4.34,1.32,6.54,1.86a21.88,21.88,0,0,0,6.31,1c2-.12,3.87-1,4.51-3,.73-2.26-.71-4.44-2.58-5.59a29.32,29.32,0,0,0-6.39-2.59,41.89,41.89,0,0,0-6.45-1.49,46.63,46.63,0,0,0-15.5.23,2.28,2.28,0,1,0,1.22,4.4,40,40,0,0,1,13.72-.12,42,42,0,0,1,6.84,1.73,31.62,31.62,0,0,1,3.15,1.23,6.15,6.15,0,0,1,1.3.67.74.74,0,0,1,.34.4.32.32,0,0,1,.06-.37c-.15-.29.69.25-.23,0a7.22,7.22,0,0,0-.94,0,22.82,22.82,0,0,1-3-.59c-2.37-.54-4.69-1.22-7-1.93a121.84,121.84,0,0,0-14-3.82,2.35,2.35,0,0,0-2.81,1.59,2.31,2.31,0,0,0,1.6,2.81Z" style="fill:#11a359"/><path d="M511.41,616.58a15.07,15.07,0,0,1,17.1,4.76,2.3,2.3,0,0,0,3.23,0,2.33,2.33,0,0,0,0-3.23,19.52,19.52,0,0,0-21.55-5.94A2.35,2.35,0,0,0,508.6,615a2.3,2.3,0,0,0,2.81,1.6Z" style="fill:#ad5215"/><path d="M546.55,612.15a12.19,12.19,0,0,0-9.58-.61,15.46,15.46,0,0,0-7.93,6.68,2,2,0,0,0,3.45,2,12,12,0,0,1,2.62-3.11,3.09,3.09,0,0,0,.28-.24c-.1.09.3-.21.29-.21.28-.2.57-.38.86-.55a8.6,8.6,0,0,1,1.49-.73,13.21,13.21,0,0,1,1.87-.5c.15,0,.25,0,0,0l.56,0c.29,0,.58,0,.86,0l.48,0,.3,0,.3,0,.47.1c.31.08.62.18.92.28.11,0,.42.15.16.05l.54.25a2,2,0,0,0,2.73-.71,2,2,0,0,0-.71-2.74Z" style="fill:#ad5215"/><ellipse cx="701.51" cy="701.72" rx="56.39" ry="33.38" style="fill:#4897ff;mix-blend-mode:multiply;opacity:0.4"/><path d="M692.1,721.48a2.09,2.09,0,0,1,0,.35c.15,1.51.73,8.88-2.92,11.41-2.28,1.58-5.37,2.64-10.75-.43-4.55-2.6-22.59-12.68-23.75-13.85s-3.19-4.6-.22-7.1c6.63-5.58,20.54-2.52,27.62,1.39,4.76,2.63,9.49,5.59,10,8.23Z" style="fill:#943e3e"/><path d="M690.08,545.5l-16.22,86.77-1.25,83.42c0,8.62,19.65,11.12,20.6,2.61l10.63-81.71,26.7-83Z" style="fill:#7d9bb9"/><path d="M775.56,422.67l-14.9-5.6-3.8,56.76L741.67,532l-6.09,18.64L746.7,568l14.16-34.88s16.35-46,17.93-62S775.56,422.67,775.56,422.67Z" style="fill:#e08148"/><path d="M750.35,695.87c-3.17,1.56-20.43-7-27.31-10.34-1.29-.62-5.77-3.73-2.85-9.56,2.36-4.71,22.21-2.74,29.37.6C754.36,678.81,755.42,693.39,750.35,695.87Z" style="fill:#943e3e"/><path d="M761.47,511.24l-2.19,31.18-3,58-3,77.47c.77,11.2-18.76,4-18.86-2.21l-9.28-73.76.58-49.67-.62-22.36Z" style="fill:#7d9bb9"/><path d="M758.66,409.2c-4.21.75-23.08,5.85-23.08,5.85l-37.85,26.18S685.09,538,685.86,546.51s10.27,17.51,22.47,17.68,44.5-11.66,53.14-21.55c7.58-4.32,10.26-62.09,14-118.59C776.87,413.45,762.87,408.46,758.66,409.2Z" style="fill:#dc7437"/><path d="M754.42,373.1c.48-14.23-13.29-28.59-27.53-26-15,2.69-22.69,14.22-21.35,36.22s6.31,25.87,11.43,27.22a14.88,14.88,0,0,0,9.59-.88l4.43,11.1c3.4,6.72,21.59,2.12,22.28-3.78l-1.17-28.21Z" style="fill:#ff906c"/><path d="M713.11,379c0,3.08-1.19,13.9,7.87,2.24,8.18-10.37,10.78,1.5,6.79,7a1.43,1.43,0,0,0,0,1.71,129.78,129.78,0,0,0,10,11.21c1.39,1.31,9.75,3.81,14.48-2.48a1.55,1.55,0,0,0,.27-.65c2-12.61,4.1-18.58,3.05-27.38-2.92-24.3-24.72-25-28.55-24.89a1.39,1.39,0,0,1-.9-.33c-1-.8-4.46-2.31-15,2.35-13.25,5.83-5.72,15.3-5.72,15.3C709.26,367.61,713.09,375.92,713.11,379Z" style="fill:#b22b0b"/><path d="M750.56,413a5.38,5.38,0,0,0,2.33-5.14s5.27,2,3,10.46-23.88,9.8-26.32,5.72-.87-9.07-.87-9.07S740.52,419.2,750.56,413Z" style="fill:#dc6d2c"/><path d="M656.07,476.72c-3.59-7.81-2.29-19.65-4.06-22.81s-12,.57-14.93,5.47,4.65,24.21,4.65,24.21Z" style="fill:#ff906c"/><path d="M641.88,484.85s34.4,43.24,45.7,43.24,28.17-68.82,28.17-68.82c3.86-16.15-13.4-25-19.21-16.3l-18.18,46-19.45-11.27C652.16,472.12,637.83,479.34,641.88,484.85Z" style="fill:#e08148"/><ellipse cx="414.28" cy="394.77" rx="59.21" ry="34.18" style="fill:#4897ff;mix-blend-mode:multiply;opacity:0.4"/><path d="M459.47,216l16.15,16.43c6.33,5,20.78-5.43,15-11l-18.83-11.13Z" style="fill:#d35916"/><path d="M471.78,210.33,444.54,168.6l-12.42-52.07-21.88-13.81,13.48,77.77L459.47,216C463.93,220.57,475.71,216,471.78,210.33Z" style="fill:#5983b4"/><path d="M366.87,396c6.41-3.92,27.39,13.21,29.42,16.23s2.56,6.18-.72,8.25c-7.32,4.64-17.73,0-24.23-4.22-4.37-2.85-6.28-4-6.85-8.34S363.07,398.37,366.87,396Z" style="fill:#1c2122"/><path d="M361.92,221.28l4.16,101.36L364,397.75c0,6.1,17.24,9.2,18.5-.44,0,0,14-67.44,15.44-78.59S408.4,217,408.4,217Z" style="fill:#4083c2"/><polygon points="416.1 249.29 379.97 267.8 369.44 227.97 407.33 212.46 416.1 249.29" style="fill:#4083c2"/><path d="M420.21,387.1c-.59-3-.39-11.77,2.36-14s7.46-2.3,13.48-.55c5.13,1.49,20.65,10.09,23,13s.71,6-3.94,8.48-18.29-.24-26.22-2.45C425,390.51,420.79,390.09,420.21,387.1Z" style="fill:#1c2122"/><path d="M436.35,213.76s3.53,20.44,3.69,35.78,2.21,58.88,2.21,58.88l-2.53,64.07c.14,7.7-19.36,7.56-19.36-.58l-4.26-58.56-10-60.21-10.23-38Z" style="fill:#4083c2"/><path d="M414.36,99.71l-26.26,3.22s-31.09,13-37.91,29,16,88.93,16,88.93,13.72,16.56,45.19,6.63,25.07-22.63,25.23-25.44-.63-78.2-5.67-89.74A21.45,21.45,0,0,0,414.36,99.71Z" style="fill:#f2faff"/><path d="M400.13,248.92a76.52,76.52,0,0,1-46.08-8.79S343.38,148,350.2,132c4.42-10.42,19-19.53,28.78-24.65a62,62,0,0,1,7.54,8.31c7.7,10.13,16.88,27.83,18.64,55.87.48,7.62.92,14.62,1.28,21C408.58,229.56,408.37,246.84,400.13,248.92Z" style="fill:#6793c7"/><path d="M433.91,235a3.8,3.8,0,0,1-2.24-3c-.82-7.06-2.55-23.32-4.17-47.66-.44-6.84-.89-14.32-1.3-22.41-1.59-31.46-14.59-50.48-22.95-59.55l-1.05-1.12.77-.09,2.86-.35,8.53-1.05a21.45,21.45,0,0,1,16.54,12.63c5,11.53,9.29,104.91,9.13,107.72C439.93,221.87,441.31,228.11,433.91,235Z" style="fill:#6793c7"/><path d="M406.44,192.52c-4.7-14.51-14-26.4-15.42-29.12-1.68-3.21,6.9-9.64,6.9-9.64a43.49,43.49,0,0,1-10,.69c-4.06-.41-4.9-41-4.9-41l3.47,2.16c7.7,10.13,16.88,27.83,18.64,55.87C405.64,179.11,406.08,186.11,406.44,192.52Z" style="fill:#5983b4"/><path d="M427.5,184.28c-.44-6.84-.89-14.32-1.3-22.41-1.59-31.46-14.59-50.48-22.95-59.55l-.28-1.21-.77-3.27a23.28,23.28,0,0,1,3.63,2.92c9.7,9.09,26.86,32.72,26.29,38.77C432,141,427,144.15,427,144.15s5.4-.05,6,.81C433.37,145.54,429.85,169,427.5,184.28Z" style="fill:#5983b4"/><path d="M357.91,271.08l-1.13,20.32c1.14,5,17.55,11.71,16.52,4.2L371.13,269Z" style="fill:#d35916"/><path d="M371.13,269l-6.41-62L369.43,145c.51-13.5-15.57-22-20.31-9.22,0,0-9.59,49.17-9.59,68.28s18.38,67.06,18.38,67.06C359.47,276.91,371.65,275.41,371.13,269Z" style="fill:#5983b4"/><path d="M381.8,66.78c-.45-12.87,13.41-22.61,26.86-18.33s22.44,14.71,21.19,34.61-6.31,23.82-11.06,25-10.14-.7-10.14-.7l-1.77,4.88c-1.62,6.28-27.57.83-26-8.85l1.32-15.68Z" style="fill:#d35916"/><path d="M410.23,69.41s17.79,1.15,20-4.35,2.18-5.5-4-9.55c-6.53-11.41-45.88-21.35-46.82,8C378.72,89,381.72,93,381.72,93s9.23-7.38,10.12-9.88-3.2-7.59,1.83-10.69,6.33,5.36,7,7.8-.69,3.65,3.1,4.38S410.23,69.41,410.23,69.41Z" style="fill:#1c2122"/><path d="M391.84,123.63s-11.15-19.09-10.72-23.92h0l.07-.9s-4.7,5.23-4.7,9.78C378.82,115.13,384.37,119.91,391.84,123.63Z" style="fill:#5983b4"/><polygon points="20.9 402.75 31.4 400.92 34.89 459.8 51.05 520.15 57.53 539.49 47.06 548.32 31.38 535.25 13.92 464.55 20.9 402.75" style="fill:#cc7a3e"/><ellipse cx="52.41" cy="700.01" rx="52.41" ry="30.26" style="fill:#4897ff;mix-blend-mode:multiply;opacity:0.4"/><path d="M59.13,722c8.91,4.31,38.62-10.17,30.08-16.84C79,697.13,40.64,713.06,59.13,722Z" style="fill:#f7f3f0"/><path d="M54.76,703.78c-1.11,4.24-.45,13-.45,13L81.59,703S55.88,699.54,54.76,703.78Z" style="fill:#f7f3f0"/><path d="M16.07,701c8,4.22,30.63-15.34,22.45-20.24C27.71,674.33,2,693.64,16.07,701Z" style="fill:#f7f3f0"/><polygon points="14.28 690.57 14.03 700.27 29.72 691.97 14.28 690.57" style="fill:#f7f3f0"/><path d="M74.92,540.05s2.47,83.17,2.62,94.93S69,703,69,703c-1.41,8.13-13,7.43-14.22.83-2.33-27.72-1.12-42.52.14-72L35.18,562.19V528.77Z" style="fill:#4a555e"/><path d="M11.36,510,7,552.42a36.89,36.89,0,0,0-.26,9l4.79,50.46c-1.17,24.63-1,45,.21,76.07.47,6.21,12.59,7.22,13.48-.1L36,620.88l4.51-45,5.16-47.2Z" style="fill:#4a555e"/><path d="M80.66,514.76c-.35-.44-.56-11-.64-11.6C79,495.08,78.35,488,76.78,480.48a5,5,0,0,1,.16-2.78,3.13,3.13,0,0,0-.3-.2s5.27-53.65.4-58.7A54.21,54.21,0,0,0,47,403.43c-8-1.32-16.54-3.23-19-2.4-4.78,1.62-5.13.72-8.46,5.05C15.73,411,10.67,455.26,12.41,479c-1,16.16-1.85,42.66-1.69,49.77s68.72,29.31,68.72,7.82C78.67,524.91,79.68,524,80.66,514.76Z" style="fill:#b6bac5"/><path d="M78.71,543.73c3,5.48,4.07,8.17,10.19,14s-9,12.43-12.27,10.08-4.45-10.12-5.83-16.31Z" style="fill:#c16425"/><path d="M68.16,548.82S53.51,511,52.86,502.31s2.91-63.91,2.91-63.91C58.85,422,79.9,413,79.07,425.6l-7.38,69.68,8.15,47.84C82.41,551.57,71.63,557,68.16,548.82Z" style="fill:#9297a5"/><path d="M29.87,372.54c-.46-13.24,15.18-31.48,29-27.08s18.37,19.46,19.36,31.14-.77,25.42-5.66,26.68-13.71,2.82-13.71,2.82l-1.77,10.29C57.59,423,34.6,419,34.6,409.54v-21Z" style="fill:#c16425"/><path d="M60,341.87c-32.1-13.18-51,13.23-39.88,34.88-4.81,4.38-7.2,11.69-7.2,17.41,0,14.29,18.68,34.43,45.8,17.06C69.12,404.57,60.81,390,60.81,390s4.39-6.71-6.66-15.84c2,2.22,6.83-.64,7.64-4.92.86-4.48.08-12.13,2-12.6C77,353,71.76,336.86,60,341.87Z" style="fill:#b5121b"/><polygon points="65.4 529.11 75.89 527.27 79.39 586.16 95.54 646.51 102.02 665.85 91.55 674.68 75.87 661.61 58.42 590.91 65.4 529.11" style="fill:#cc7a3e"/><ellipse cx="96.91" cy="826.37" rx="52.41" ry="30.26" style="fill:#4897ff;mix-blend-mode:multiply;opacity:0.4"/><path d="M103.62,848.35c8.91,4.31,38.62-10.17,30.08-16.84C123.44,823.49,85.13,839.42,103.62,848.35Z" style="fill:#f7f3f0"/><path d="M99.25,830.14c-1.11,4.24-.45,13-.45,13l27.29-13.86S100.37,825.9,99.25,830.14Z" style="fill:#f7f3f0"/><path d="M60.57,827.4c8,4.22,30.62-15.34,22.44-20.24C72.21,800.69,46.51,820,60.57,827.4Z" style="fill:#f7f3f0"/><polygon points="58.77 816.92 58.52 826.63 74.22 818.33 58.77 816.92" style="fill:#f7f3f0"/><path d="M119.42,666.41s2.46,83.17,2.61,94.93-8.56,68-8.56,68c-1.4,8.13-13,7.43-14.22.83-2.33-27.72-1.12-42.52.15-72L79.67,688.55V655.13Z" style="fill:#1c2122"/><path d="M55.86,636.4l-4.39,42.38a36.4,36.4,0,0,0-.25,9L56,738.21c-1.18,24.63-1,45,.21,76.07.46,6.21,12.58,7.22,13.48-.1l10.81-66.94,4.5-45L90.18,655Z" style="fill:#1c2122"/><path d="M125.15,641.12c-.35-.44-.55-11-.64-11.6-1.06-8.08-1.67-15.13-3.24-22.68a5.13,5.13,0,0,1,.16-2.78,3.13,3.13,0,0,0-.3-.2s5.27-53.65.4-58.7a54.22,54.22,0,0,0-30.07-15.37c-8-1.32-16.55-3.23-19-2.4-4.78,1.62-5.13.72-8.46,5.05-3.77,4.91-8.83,49.18-7.09,72.92-1,16.16-1.85,42.66-1.68,49.77s68.71,29.31,68.71,7.82C123.16,651.27,124.17,650.39,125.15,641.12Z" style="fill:#e08148"/><path d="M123.2,670.09c3,5.48,4.08,8.17,10.19,14s-8.95,12.43-12.26,10.08-4.46-10.12-5.84-16.31Z" style="fill:#ea917d"/><path d="M112.66,675.18S98,637.35,97.36,628.67s2.91-63.91,2.91-63.91c3.07-16.41,24.13-25.43,23.3-12.8l-7.38,69.68,8.14,47.84C126.9,677.93,116.12,683.33,112.66,675.18Z" style="fill:#dc7437"/><path d="M74.36,498.9c-.46-13.24,15.18-31.48,29-27.08s18.37,19.46,19.36,31.14-.77,25.42-5.66,26.68-13.71,2.82-13.71,2.82l-1.77,10.29c.48,6.62-22.51,2.59-22.51-6.85V515Z" style="fill:#ea917d"/><path d="M112.68,468.89c-32.1-13.18-51,13.23-39.88,34.88-4.81,4.37,4.42,7.63,4.42,13.36,0,14.28-2.86,16.41,24.27-1,10.38-6.65,0-5.78,0-5.78s16.37-.13,5.32-9.26c2,2.22,6.83-.64,7.64-4.92.86-4.47.08-12.13,2-12.6C129.68,480,124.42,463.87,112.68,468.89Z" style="fill:#f9d53e"/></g></g></g></svg>