<svg xmlns="http://www.w3.org/2000/svg" viewBox="0 0 148.82 212.68"><g id="Camada_2" data-name="Camada 2"><g id="Camada_1-2" data-name="Camada 1"><path d="M27.12,148.52l9.1,47.39a7.47,7.47,0,0,0,3.92,5.26c9.7,5,40.44,17.1,85.35.8a7.54,7.54,0,0,0,4.85-5.84c4-23.57,8-44.81,8-44.81" style="fill:#ad5215;stroke:#d35e0f;stroke-miterlimit:10;stroke-width:5px"/><path d="M20.76,122.88l2.55,24.48S77,174.9,142.83,148.8l3.24-28.4" style="fill:#ad5215;stroke:#d35e0f;stroke-miterlimit:10;stroke-width:5px"/><path d="M146.07,120.4c0,5.54-27.89,14.18-62.49,14.18s-62.82-8.64-62.82-14.18,28.05-10,62.65-10S146.07,114.86,146.07,120.4Z" style="fill:#914714;stroke:#d35e0f;stroke-miterlimit:10;stroke-width:5.503883361816406px"/><path d="M67.06,43.77a164.69,164.69,0,0,1,15.23,67.17,164.48,164.48,0,0,1-.94,19.6c-.21,1.92,2.79,1.9,3,0a167.42,167.42,0,0,0-7.41-69.89,170.24,170.24,0,0,0-7.29-18.39c-.82-1.75-3.4-.23-2.59,1.51Z" style="fill:#11a359"/><path d="M67.43,39.41,42.1,39C36,38.88,29.68,38.81,24,41.1,13.08,45.53,7.35,57.37,3.1,68.38,1.77,71.84.56,76,2.73,79s6.45,3.17,10.1,2.79A69.75,69.75,0,0,0,68,42" style="fill:#56d88d"/><path d="M67.43,37.91l-22.35-.38c-6.72-.11-13.75-.54-20.21,1.66C14.17,42.83,8,53,3.75,62.83c-2,4.74-5.49,11.22-2.72,16.3S10.57,83.66,15.42,83A69.79,69.79,0,0,0,45.6,70.89,70.32,70.32,0,0,0,69.27,42.72c.8-1.75-1.79-3.27-2.59-1.52A68.57,68.57,0,0,1,20.77,78.91a60.75,60.75,0,0,1-7.58,1.35c-2.29.25-4.83.42-7-.46-5.63-2.26-2.26-9.51-.69-13.42,3.67-9.07,8.69-19,18-23.4,6.37-3,13.77-2.58,20.63-2.46l23.35.39c1.93,0,1.93-3,0-3Z" style="fill:#11a359"/><path d="M68.35,41.28C81.45,34.89,92.9,27.09,106,20.7c4.52-2.2,9.75-5.6,9.33-10.6-.23-2.81-2.38-5.18-4.9-6.43a21.68,21.68,0,0,0-8.21-1.78A129.67,129.67,0,0,0,72.89,3c-4.64.72-9.43,1.77-13.08,4.71-4.13,3.32-6.21,8.66-6.71,13.94s.42,10.57,1.33,15.78" style="fill:#36ce7b"/><path d="M69.11,42.58c9.9-4.85,19.24-10.71,28.9-16,2.46-1.36,4.95-2.68,7.47-3.93a44.9,44.9,0,0,0,5.6-3.11c3.36-2.34,6.38-5.8,5.66-10.18C116,4.62,111.39,1.85,107.05,1,101.6-.11,95.75,0,90.21.05A134.54,134.54,0,0,0,73,1.51c-4.74.71-9.67,1.74-13.59,4.68-9.91,7.42-8.25,21-6.39,31.67.33,1.9,3.22,1.1,2.89-.79-1.52-8.7-3.27-19.5,3.31-26.69C62.27,7,66.68,5.67,71,4.86A115.06,115.06,0,0,1,86.29,3.18,130.18,130.18,0,0,1,102,3.37c4.11.3,9.5.93,11.44,5.21,1.64,3.65-1.49,6.8-4.29,8.65-3.77,2.49-8.06,4.24-12,6.4C87.24,29,77.7,35,67.59,40c-1.73.85-.21,3.44,1.52,2.6Z" style="fill:#11a359"/><path d="M23.21,63.58A34.9,34.9,0,0,1,42.53,49.72a1.51,1.51,0,0,0-.8-2.9A38.14,38.14,0,0,0,20.62,62.07c-1.09,1.6,1.51,3.1,2.59,1.51Z" style="fill:#11a359"/><path d="M65.91,29.37C69,17.92,82.64,15.87,92.56,14.77c1.9-.21,1.92-3.22,0-3-6.48.72-13.16,1.47-19,4.53-4.9,2.57-9.07,6.83-10.52,12.27a1.5,1.5,0,0,0,2.89.8Z" style="fill:#11a359"/><polygon points="136.64 129.9 125.41 152.15 140.53 147.12 143.07 127.02 136.64 129.9" style="fill:#a04608"/><path d="M135.32,154.23s-16.74,5.28-25.38,6.24c1.86,13.32,9.77,40.59,9.77,40.59l6.58-2a3.17,3.17,0,0,0,2.21-2.53Z" style="fill:#a04608"/><path d="M54.2,22.53l1.2,15.6,13.74,2.76,12.38-6.65C77.15,38,54.2,23.07,54.2,23.07" style="fill:#16a553;opacity:0.28"/></g></g></svg>